<svg width="323" height="227" viewBox="0 0 323 227" fill="none" xmlns="http://www.w3.org/2000/svg">
<path d="M45.3103 0.0172045C51.8061 -0.137645 57.9863 0.792345 64.4268 1.22104C67.6636 1.43654 70.896 1.24583 74.1566 1.47133C80.3177 1.89734 86.3109 3.02571 92.4028 3.793C99.093 4.63558 105.523 5.00504 112.227 6.00925L143.344 10.9618C148.191 11.7499 153.183 13.1416 158.089 13.1175C165.387 13.0817 172.233 13.9055 179.451 14.5601C185.712 15.1332 191.986 15.5339 198.268 15.7614C200.145 15.8333 202.059 15.6715 203.941 15.6875C210.153 15.7405 216.328 15.8816 222.538 16.0406C225.32 16.078 228.445 17.048 231.198 17.0228C236.688 16.9725 242.09 17.2608 247.567 17.4653C253.071 17.6708 258.721 17.1092 264.236 17.0034C266.228 16.9652 268.683 16.2031 270.701 16.0051C272.248 15.8024 274.012 15.614 275.55 15.3571C282.9 14.1292 290.797 12.5798 298.256 13.2351C299.289 13.3259 301.214 14.3511 302.256 14.5868C304.39 15.0699 306.163 15.1026 308.184 15.9528C314.605 18.6545 315.831 21.1091 318.341 27.1571C321.286 34.2479 321.515 41.0927 322.011 48.5974C322.337 53.5497 322.947 58.5386 322.883 63.4943C322.748 73.9592 321.361 83.869 320.059 94.2074C319.328 100.273 318.985 106.358 318.118 112.414C317.94 113.66 317.895 114.981 317.75 116.239C317.187 121.151 316.826 126.078 316.459 131.006C316.204 134.444 316.355 137.966 316.018 141.375C315.515 146.444 313.817 151.421 313.083 156.478C312.546 160.184 312.225 163.966 311.708 167.691C311.314 170.526 310.707 173.055 310.181 175.842C309.717 178.291 309.554 180.891 309.033 183.378C308.493 185.955 307.474 188.251 306.62 190.738C305.968 192.629 305.089 195.701 304.438 197.398C303.715 199.284 300.029 206.088 298.768 207.34C294.773 211.308 288.42 215.609 283.653 218.675C282.242 219.585 279.265 220.911 277.766 221.564C273.65 223.412 273.356 222.982 269.274 223.976C265.711 225.023 262.591 225.815 258.903 226.277C250.02 227.408 241.055 226.971 232.142 226.577C229.389 226.455 226.221 225.471 223.555 225.398C215.418 225.173 207.577 223.578 199.508 222.9C195.397 222.556 191.21 222.723 187.087 222.6C180.099 222.179 173.073 221.205 166.139 220.277C162.528 219.735 158.526 219.721 154.959 219.082C145.855 217.452 136.758 216.105 127.507 215.669C121.645 215.393 115.66 215.58 109.799 215.181C106.898 214.984 103.68 214.378 100.779 213.962L85.6137 211.787C79.6456 210.89 73.7036 210.703 67.7987 209.194C65.1718 208.523 62.7362 207.49 60.1436 206.783C56.067 205.672 51.7931 205.133 47.7746 203.833C45.8257 203.217 43.6317 201.847 41.7409 201.078C38.487 199.753 35.3013 198.176 32.1159 196.781C26.8912 194.478 19.9442 192.346 15.3881 188.849C8.87231 183.85 4.06228 174.814 1.98117 166.965C-0.680306 156.927 -0.283353 146.428 0.980482 136.218C1.62631 131 1.60937 125.618 2.35653 120.404C2.7922 115.856 4.33649 111.068 4.90829 106.618C5.76054 99.9864 7.21045 93.2317 8.07002 86.6519C9.41699 76.5884 10.5834 66.5016 11.5686 56.3962C12.4551 47.9273 12.9453 40.4016 14.8338 31.9967C16.3518 25.2393 16.7397 16.516 21.3722 10.8449C25.6952 5.5529 38.7653 0.671926 45.3103 0.0172045ZM301.776 131.917C301.885 127.83 302.52 122.076 302.884 117.89C303.581 109.263 304.402 100.646 305.344 92.0418C306.996 76.6424 308.943 62.4835 306.864 47.0808C306.37 43.4285 306.855 37.9208 305.713 34.4759C301.944 36.6088 298.215 39.3528 294.299 41.3799C293.273 41.9115 291.794 43.6481 290.595 44.3823L276.037 53.2657C272.191 55.6525 268.557 57.7606 265.249 60.9382C264.029 62.1117 261.816 63.3604 260.742 64.5769C256.398 69.5014 251.046 73.0891 246.323 77.5271C241.708 81.8663 237.557 86.7848 232.675 90.8444C228.32 94.5108 222.253 97.2922 217.443 100.415C213.754 102.809 210.614 105.375 206.767 107.616C203.129 109.736 199.222 111.543 195.429 113.347C192.371 114.801 188.884 116.816 185.99 118.161C180.548 120.69 168.791 123.835 163.022 122.099C158.339 120.69 151.311 116.051 147.298 113.037C145.597 111.759 143.549 110.011 141.76 108.806L123.222 96.5055C121.508 95.3782 119.44 94.3968 117.821 93.2089C114.791 90.9914 112.038 88.4119 109.14 86.0259C107.641 84.7246 105.747 83.6437 104.273 82.3439C102.934 81.0824 101.497 79.7063 100.264 78.343C97.0321 74.7702 93.1355 72.1773 89.4234 69.1851C77.9664 59.9499 67.0289 50.2492 56.3703 40.1047C53.8715 38.0382 50.8445 36.5853 48.1918 34.7612C44.1692 31.9953 40.1452 29.1828 36.2983 26.1807C34.9704 25.1444 32.703 22.9269 31.2709 22.2135C28.5538 27.368 27.1121 51.6346 26.7223 58.4428C26.2588 63.9202 25.6012 69.3781 25.0162 74.843C24.5775 78.9429 24.2608 83.0507 23.7809 87.1453C23.291 91.3245 22.5313 95.4503 21.8978 99.605C21.3856 102.965 21.2518 106.424 20.6791 109.781C20.0003 113.967 19.0458 118.164 18.5569 122.362C18.1901 125.512 18.6974 128.704 18.5077 131.858C18.1455 137.882 17.1921 144.052 17.0565 150.07C16.9094 156.174 17.7277 162.262 19.4809 168.11C20.8702 172.609 22.9797 177.35 27.5233 179.483C33.2022 182.159 38.9619 183.922 44.4482 187.033C45.0124 187.354 52.1255 189.759 52.9886 189.907C59.112 190.968 64.2584 191.864 70.073 194.203C73.3844 195.535 78.5643 196.065 82.1636 196.556C85.1168 196.979 88.0673 197.421 91.0153 197.88C95.4387 198.566 99.8666 199.226 104.299 199.856C106.531 200.177 110.29 200.825 112.426 200.896C120.053 201.148 127.925 201.217 135.539 201.721C141.889 202.142 148.578 203.663 154.821 204.471C163.161 205.479 171.512 206.616 179.869 207.458C182.161 207.688 185.396 208.195 187.624 208.139C194.023 207.977 199.861 208.352 206.212 208.908L225.917 210.617C229.78 210.978 233.038 211.543 236.975 211.718C244.398 212.15 252.261 212.003 259.622 211.01C260.626 210.872 268.631 209.003 269.135 208.78C279.402 204.239 288.237 200.95 291.18 189.022C291.983 185.766 294.552 181.037 294.766 177.237C295.132 173.038 296.987 168.317 297.214 164.332C297.826 153.574 301.69 142.53 301.776 131.917ZM243.205 61.0167C245.615 58.8672 248.234 57.1537 250.454 54.7774C251.504 53.6528 252.807 52.4113 253.947 51.3731C258.607 47.2057 263.581 43.4006 268.822 39.9914C271.793 38.0952 275.133 36.477 278.094 34.4352C279.955 33.1525 286.212 30.5479 287.047 28.4735C286.472 27.8643 276.401 29.8461 274.895 30.0746C273.718 30.2536 271.727 30.3187 270.585 30.4923C258.188 32.3415 245.18 31.7942 232.677 31.3477C227.783 31.1729 222.52 31.4074 217.689 31.1134C209.629 30.6232 201.782 30.7054 193.733 30.5081C191.774 30.4602 189.06 29.9264 187.032 29.7119L170.679 28.1123C162.954 27.4313 155.1 27.2565 147.47 26.3502C140.511 25.4964 133.566 24.5286 126.639 23.4473C117.619 21.9593 108.407 19.9623 99.2317 19.5343C91.4683 19.172 84.2986 17.1327 76.5822 16.4325C67.5908 15.758 58.605 15.664 49.6301 14.5524C48.3705 14.3963 46.4043 14.0418 45.1929 14.098C45.2523 14.2493 45.3117 14.4007 45.3711 14.552C52.5235 19.8579 60.5395 24.0214 67.3304 29.8217C77.7004 38.6793 87.2404 48.4108 97.996 56.8313C102.772 60.5147 107.526 63.9598 111.655 68.4035C114.817 71.8063 118.789 74.5807 122.414 77.4904C128.7 82.5366 135.61 87.1275 142.288 91.673C144.736 93.3391 147.752 94.612 150.224 96.278C152.21 97.5172 153.911 99.3893 155.721 100.795C159.445 103.616 165.707 108.577 170.577 107.914C177.696 106.945 183.622 102.921 189.751 99.7821C197.062 96.1949 203.982 92.8114 210.476 87.7964C215.723 83.7466 223.359 80.63 227.955 75.759C232.386 71.0593 236.67 66.3048 241.694 62.1283C242.163 61.7384 242.796 61.421 243.205 61.0167Z" fill="#232323"/>
</svg>
