<svg width="39" height="25" viewBox="0 0 39 25" fill="none" xmlns="http://www.w3.org/2000/svg">
<path d="M1.50061 22.2762C8.20068 22.6977 24.4418 23.4699 27.6885 23.1977C30.4647 23.0116 32.5398 22.8262 33.981 22.7938C34.7914 22.7841 35.7625 22.7882 36.6181 22.5007" stroke="#232323" stroke-width="3" stroke-linecap="round"/>
<path d="M5.50098 12.4307C5.88075 12.4307 12.283 12.4307 22.1096 12.4307C26.575 12.4307 28.5757 12.4307 30.7217 12.4307C31.7379 12.4307 32.6063 12.4307 33.501 12.4307" stroke="#232323" stroke-width="3" stroke-linecap="round"/>
<path d="M1.50195 1.99316C6.25147 1.77979 16.955 1.52372 20.7717 1.65645C23.538 1.66436 25.8018 1.68786 28.3314 1.68747C30.189 1.66107 33.2116 1.58147 36.3258 1.49946" stroke="#232323" stroke-width="3" stroke-linecap="round"/>
</svg>
