<svg width="1440" height="393" viewBox="0 0 1440 393" fill="none" xmlns="http://www.w3.org/2000/svg">
<path d="M2 29.8821C-0.548936 29.8928 -2.99347 28.8897 -4.79584 27.0872C-6.59821 25.285 -7.61077 22.831 -7.61077 20.2713C-7.61077 17.7116 -6.59821 15.2576 -4.79584 13.4554C-2.99347 11.6529 -0.548936 10.6497 2 10.6605C10.8694 10.6976 19.7922 10.7347 28.6791 10.7717C42.3752 10.5892 57.8945 8.464 72.9844 7.20197C143.051 0.809628 213.23 -0.277124 283.469 0.0531693C498.712 2.10195 713.795 13.701 928.501 15.961C996.213 16.3046 1063.45 16.8189 1130.92 16.806C1166.63 16.6781 1202.28 16.625 1237.99 16.6986C1282.47 17.8795 1326.2 21.8066 1370.22 24.1529C1394.18 25.4821 1418.13 26.7424 1442 26.879C1442.95 26.8819 1443.86 27.2641 1444.53 27.9391C1445.21 28.6142 1445.59 29.527 1445.59 30.4788C1445.59 31.4306 1445.21 32.3442 1444.54 33.021C1443.87 33.6976 1442.96 34.0819 1442 34.0871C1442 34.0871 1442 34.0871 1442 34.0871C1417.84 34.1491 1393.84 33.0824 1369.81 31.9509C1325.8 29.9681 1281.53 26.4003 1238.01 25.6097C1202.31 25.8335 1166.7 26.1839 1130.99 26.6093C1063.39 27.1855 996.215 27.2335 928.484 27.4527C713.313 26.9801 498.068 17.1726 283.44 16.9245C213.5 17.1749 143.804 18.853 74.7454 25.7394C59.596 27.1068 45.2493 29.3626 28.6791 29.7708C19.7922 29.8079 10.8694 29.845 2 29.8821Z" fill="#FA6769"/>
<path d="M2 392.45C-5.02824 392.532 -11.7686 389.812 -16.7383 384.841C-21.708 379.873 -24.5 373.06 -24.5 365.95C-24.5 358.84 -21.708 352.028 -16.7383 347.06C-11.7686 342.089 -5.02824 339.368 2 339.45C10.8694 339.553 19.7922 339.655 28.6791 339.757C38.966 339.773 55.8341 337.275 70.822 335.795C141.997 328.269 212.853 327.381 283.503 328.232C499.511 332.129 714.341 347.732 928.521 351.869C996.21 352.721 1063.52 353.782 1130.84 354.197C1166.54 354.268 1202.24 354.43 1237.96 354.748L1237.97 354.748C1283.62 356.514 1326.68 361.601 1370.71 364.756C1394.57 366.536 1418.47 368.227 1441.99 368.545C1444.59 368.572 1447.09 369.642 1448.94 371.502C1450.78 373.364 1451.82 375.864 1451.82 378.469C1451.83 381.074 1450.8 383.577 1448.96 385.443C1447.12 387.309 1444.62 388.386 1442.01 388.42C1442.01 388.42 1442.01 388.42 1442.01 388.42C1417.49 388.647 1393.43 387.481 1369.33 386.243C1325.32 384.085 1280.45 379.977 1238.03 379.32L1238.04 379.32C1202.34 379.822 1166.78 380.479 1131.08 381.229C1063.32 382.367 996.218 382.856 928.464 383.555C712.709 384.337 497.331 373.672 283.406 374.748C213.765 375.497 144.557 378.026 76.7702 386.793C61.5714 388.536 48.6794 391.399 28.6791 392.144C19.7922 392.246 10.8694 392.348 2 392.45Z" fill="#FA6769"/>
<rect x="-25" y="15.4834" width="1491" height="356" rx="5" fill="#FA6769"/>
</svg>
