<svg width="1440" height="393" viewBox="0 0 1440 393" fill="none" xmlns="http://www.w3.org/2000/svg">
<path d="M0 29.8821C-2.54894 29.8928 -4.99347 28.8897 -6.79584 27.0872C-8.59821 25.285 -9.61077 22.831 -9.61077 20.2713C-9.61077 17.7116 -8.59821 15.2576 -6.79584 13.4554C-4.99347 11.6529 -2.54894 10.6497 0 10.6605C8.86939 10.6976 17.7922 10.7347 26.6791 10.7717C40.3752 10.5892 55.8945 8.464 70.9844 7.20197C141.051 0.809628 211.23 -0.277124 281.469 0.0531693C496.712 2.10195 711.795 13.701 926.501 15.961C994.213 16.3046 1061.45 16.8189 1128.92 16.806C1164.63 16.6781 1200.28 16.625 1235.99 16.6986C1280.47 17.8795 1324.2 21.8066 1368.22 24.1529C1392.18 25.4821 1416.13 26.7424 1440 26.879C1440.95 26.8819 1441.86 27.2641 1442.53 27.9391C1443.21 28.6142 1443.59 29.527 1443.59 30.4788C1443.59 31.4306 1443.21 32.3442 1442.54 33.021C1441.87 33.6976 1440.96 34.0819 1440 34.0871C1440 34.0871 1440 34.0871 1440 34.0871C1415.84 34.1491 1391.84 33.0824 1367.81 31.9509C1323.8 29.9681 1279.53 26.4003 1236.01 25.6097C1200.31 25.8335 1164.7 26.1839 1128.99 26.6093C1061.39 27.1855 994.215 27.2335 926.484 27.4527C711.313 26.9801 496.068 17.1726 281.44 16.9245C211.5 17.1749 141.804 18.853 72.7454 25.7394C57.596 27.1068 43.2493 29.3626 26.6791 29.7708C17.7922 29.8079 8.86938 29.845 0 29.8821Z" fill="#232323"/>
<path d="M0 392.45C-7.02824 392.532 -13.7686 389.812 -18.7383 384.841C-23.708 379.873 -26.5 373.06 -26.5 365.95C-26.5 358.84 -23.708 352.028 -18.7383 347.06C-13.7686 342.089 -7.02824 339.368 0 339.45C8.86939 339.553 17.7922 339.655 26.6791 339.757C36.966 339.773 53.8342 337.275 68.822 335.795C139.997 328.269 210.853 327.381 281.503 328.232C497.511 332.129 712.341 347.732 926.521 351.869C994.21 352.721 1061.52 353.782 1128.84 354.197C1164.54 354.268 1200.24 354.43 1235.96 354.748L1235.97 354.748C1281.62 356.514 1324.68 361.601 1368.71 364.756C1392.57 366.536 1416.47 368.227 1439.99 368.545C1442.59 368.572 1445.09 369.642 1446.94 371.502C1448.78 373.364 1449.82 375.864 1449.82 378.469C1449.83 381.074 1448.8 383.577 1446.96 385.443C1445.12 387.309 1442.62 388.386 1440.01 388.42C1440.01 388.42 1440.01 388.42 1440.01 388.42C1415.49 388.647 1391.43 387.481 1367.33 386.243C1323.32 384.085 1278.45 379.977 1236.03 379.32L1236.04 379.32C1200.34 379.822 1164.78 380.479 1129.08 381.229C1061.32 382.367 994.218 382.856 926.464 383.555C710.709 384.337 495.331 373.672 281.406 374.748C211.765 375.497 142.557 378.026 74.7702 386.793C59.5714 388.536 46.6794 391.399 26.6791 392.144C17.7922 392.246 8.86938 392.348 0 392.45Z" fill="#232323"/>
<rect x="-27" y="15.4834" width="1491" height="356" rx="5" fill="#232323"/>
</svg>
