<svg width="1440" height="321" viewBox="0 0 1440 321" fill="none" xmlns="http://www.w3.org/2000/svg">
<rect x="-1" y="31.0547" width="1441" height="263" fill="#3C0304"/>
<path d="M-0.268892 14.0119C-6.64504 13.8232 -12.8088 16.1812 -17.4048 20.6053C-22.0009 25.0272 -24.6528 31.1528 -24.7764 37.5965C-24.9001 44.0401 -22.4851 50.263 -18.0621 54.8579C-13.6392 59.4551 -7.57048 62.0479 -1.19179 62.104C8.19753 62.1877 17.6434 62.2725 27.0513 62.3566C42.1306 62.5084 57.3729 62.5285 72.4902 62.4273C147.959 61.8221 222.622 59.7055 297.841 57.5347C525.481 50.699 753.368 41.9875 980.747 36.0933C1051.92 35.1736 1125.09 30.4107 1192.79 37.8101L1192.64 37.782C1230.07 44.7755 1268.85 50.2022 1307.08 52.3735L1307.25 52.3852C1335.22 53.7265 1363.15 54.7702 1391.07 55.8197C1415.51 56.7294 1439.96 57.6056 1464.4 58.4831C1466.77 58.5677 1469.08 57.7017 1470.83 56.0897C1472.58 54.4769 1473.63 52.2502 1473.74 49.8854C1473.85 47.5205 1473.01 45.2071 1471.42 43.4399C1469.82 41.6736 1467.6 40.5982 1465.24 40.4645C1465.24 40.4645 1465.24 40.4645 1465.24 40.4645C1440.82 39.0864 1416.39 37.71 1392 36.3006C1364.14 34.6815 1336.23 33.0654 1308.51 31.1649L1308.68 31.1766C1270.88 28.2261 1234.35 22.3414 1197.05 14.6021L1196.9 14.574C1122.38 4.9727 1052.54 8.75805 980.353 8.104C752.551 9.3381 524.519 13.3863 297.029 15.5512C221.952 16.185 147.252 16.7599 72.6662 15.8298C57.7163 15.6228 42.919 15.3001 27.9631 14.843C18.5589 14.5661 9.11673 14.2884 -0.268892 14.0119Z" fill="#3C0304"/>
<path d="M-0.268892 268.067C-6.64504 267.878 -12.8088 270.236 -17.4048 274.66C-22.0009 279.082 -24.6528 285.208 -24.7764 291.651C-24.9001 298.095 -22.4851 304.318 -18.0621 308.913C-13.6392 313.51 -7.57048 316.103 -1.19179 316.159C8.19753 316.242 17.6434 316.327 27.0513 316.411C42.1306 316.563 57.3729 316.583 72.4902 316.482C147.959 315.877 222.622 313.76 297.841 311.589C525.481 304.754 753.368 296.042 980.747 290.148C1051.92 289.228 1125.09 284.465 1192.79 291.865L1192.64 291.837C1230.07 298.83 1268.85 304.257 1307.08 306.428L1307.25 306.44C1335.22 307.781 1363.15 308.825 1391.07 309.874C1415.51 310.784 1439.96 311.66 1464.4 312.538C1466.77 312.622 1469.08 311.756 1470.83 310.144C1472.58 308.532 1473.63 306.305 1473.74 303.94C1473.85 301.575 1473.01 299.262 1471.42 297.495C1469.82 295.728 1467.6 294.653 1465.24 294.519C1465.24 294.519 1465.24 294.519 1465.24 294.519C1440.82 293.141 1416.39 291.765 1392 290.355C1364.14 288.736 1336.23 287.12 1308.51 285.22L1308.68 285.231C1270.88 282.281 1234.35 276.396 1197.05 268.657L1196.9 268.629C1122.38 259.027 1052.54 262.813 980.353 262.159C752.551 263.393 524.519 267.441 297.029 269.606C221.952 270.24 147.252 270.815 72.6662 269.884C57.7163 269.678 42.919 269.355 27.9631 268.898C18.5589 268.621 9.11673 268.343 -0.268892 268.067Z" fill="#3C0304"/>
</svg>
