<svg width="386" height="347" viewBox="0 0 386 347" fill="none" xmlns="http://www.w3.org/2000/svg">
<path d="M87.3336 60.1731C87.5216 57.5336 87.1233 53.987 87.9203 51.5095C88.0224 51.1921 88.1615 50.9215 88.3826 50.6704C89.9534 48.886 106.037 51.0886 109.38 50.7555C113.21 50.3742 122.362 47.3405 125.949 45.6119C131.022 43.1667 134.844 40.0019 139.211 36.4965C141.306 34.8151 143.549 33.244 145.47 31.3628C148.391 28.5027 152.803 23.3414 154.706 19.7616C156.515 16.3597 157.27 12.1822 158.563 8.53923C159.465 5.99476 161.288 1.33413 164.036 0.183201C164.721 -0.103748 165.405 -0.0367725 166.072 0.266977C169.061 1.62758 172.464 7.71803 173.585 10.7784C174.926 14.4357 174.46 17.5003 173.667 21.2179C173.18 23.5061 172.69 25.8066 171.74 27.9552C170.084 31.7004 167.684 34.3727 165.203 37.5204C164.085 38.939 163.057 40.4786 161.829 41.8029C159.577 44.2314 156.864 46.5794 154.4 48.7988C153.296 49.7934 150.678 51.4537 150.247 52.8239C149.876 54.0018 150.632 55.4199 151.045 56.5178C155.789 55.0752 162.587 51.0133 167.098 48.6938C169.685 47.3641 172.45 44.7994 175.226 43.4064C179.28 41.3724 183.349 39.4278 187.373 37.3468C188.656 36.6611 190.835 34.5853 192.363 33.6582C195.683 31.6397 198.671 30.4005 202.194 28.6821C206.64 26.5124 212.04 22.8078 217.246 23.2942C220.57 23.6048 222.075 29.4025 223.632 30.7333C227.751 34.2334 232.13 37.5256 236.479 40.7405C243.116 45.6484 250.797 48.8786 257.579 53.513C262.679 57.0426 267.927 60.2705 273.197 63.5293C275.095 64.7018 277.256 66.6566 279.046 68.0459C282.065 70.3514 285.1 72.6351 288.151 74.8966C295.789 80.4506 303.767 85.7091 311.425 91.2476C316.232 94.8552 320.535 99.0886 325.357 102.664C326.791 103.762 328.361 104.862 329.671 106.114C334.216 110.449 338.841 114.546 343.823 118.382C346.721 120.615 349.805 122.47 351.967 125.514C353.566 127.766 353.165 129.996 352.659 132.523C355.436 135.222 355.546 136.714 357.593 139.702C358.742 141.38 362.481 143.221 363.491 145.196C365.569 149.013 365.587 153.816 366.748 157.881C369.594 167.85 371.66 177.967 373.611 188.145C374.372 192.118 374.211 196.221 374.674 200.238C375.474 207.193 376.502 214.142 377.45 221.079C378.464 227.976 379.911 234.945 381.02 241.842C381.587 245.007 381.799 248.264 382.344 251.429C383.457 257.905 385.047 264.285 385.462 270.864C385.618 273.359 386.207 276.126 385.715 278.594C385.466 279.833 384.098 281.206 383.02 281.786C379.163 283.883 375.915 283.796 371.803 282.633C367.22 284.02 364.983 286.679 361.255 289.188C358.402 290.971 355.687 293.175 352.802 294.873C339.616 302.641 326.968 311.27 313.45 318.478C311.024 319.771 308.731 321.341 306.289 322.595C302.228 324.681 298.085 326.547 293.954 328.485C288.941 330.96 286.525 332.595 281.149 334.407C277.131 331.616 276.071 333.708 271.444 334.105C270.017 334.226 269.02 334.042 267.625 333.818C266.525 332.859 265.383 330.91 264.334 330.294C252.134 323.111 238.412 320.709 226.584 312.502C224.707 316.357 224.05 318.747 221.651 322.862C218.666 327.99 211.924 336.201 206.638 339.078C199.62 342.895 189.492 345.878 181.506 346.658C172.431 347.541 163.014 346.956 155.105 342.012C144.979 335.883 137.664 321.713 135.037 310.309C133.368 303.067 131.686 292.109 130.861 284.66C130.222 278.892 132.812 266.449 135.818 261.42C135.611 261.344 135.405 261.265 135.2 261.185C131.255 259.653 126.757 256.279 123.233 253.649C119.282 250.699 112.546 247.895 109.251 244.839C105.466 240.476 107.305 232.441 105.233 227.851C102.168 221.066 97.9291 215.253 94.4212 208.77C93.4505 206.976 92.4806 204.924 91.8407 203.036C89.1654 195.137 85.0577 188.03 81.7116 180.38C80.7045 178.482 77.7806 172.669 76.5819 171.435C75.9516 172.589 79.2551 179.203 79.7739 180.708C82.5634 187.18 81.5655 197.084 81.1671 204.126C80.6593 213.102 75.078 223.436 68.194 229.083C63.1261 233.24 55.2198 235.122 48.9222 236.748C36.8691 238.321 22.0815 233.025 14.905 222.949C6.80274 211.577 5.75605 196.013 3.15647 182.657C0.926906 171.2 -0.772703 159.85 0.361787 148.108C0.65185 145.106 2.01369 142.151 3.33543 139.487C9.20902 127.054 23.3318 124.821 35.6461 126.551C38.043 126.888 40.3377 128.107 42.9138 128.437L43.2415 128.476C43.7529 116.888 44.4958 105.664 44.1495 94.0183C44.0664 91.2205 45.1676 85.7382 45.6278 82.7507C43.1694 83.1192 42.2875 82.4805 40.0557 82.1645C33.4992 81.2353 27.11 78.7858 22.0414 74.4298C19.0617 71.869 19.1012 69.6341 18.2466 66.1589C16.941 60.8489 18.0316 58.0336 21.8486 54.2237C26.6233 53.2587 29.2939 50.3633 34.6046 50.9365C41.8013 51.7131 49.0992 54.5835 53.6889 60.4166C55.1345 62.2538 56.0846 64.2685 57.6691 66.0104C59.0932 66.2868 60.6562 66.3014 62.0563 66.6838C69.4414 68.6993 75.6633 72.4796 72.1442 81.001C67.3697 82.5907 63.6605 82.6559 58.7409 83.0309C60.0293 85.0891 60.5453 87.3248 60.6544 89.7297C60.9021 95.1995 60.9378 100.546 61.6404 105.985C67.327 107.646 66.9269 108.208 71.5928 111.459C74.7239 113.641 77.8987 115.395 80.8969 118.026C86.7096 123.128 92.3019 128.685 98.9762 132.632C98.9487 125.735 96.1851 117.396 95.9027 110.261C95.751 106.431 95.6809 103.097 96.0485 99.2553C96.0989 98.7284 94.862 98.086 94.4432 97.802C94.5751 97.0551 95.3736 96.2312 95.7053 95.5144C97.8469 90.8854 101.185 86.8155 105.36 83.8015C108.19 81.759 113.095 80.0169 116.603 78.0305C120.502 75.8227 123.712 73.2901 127.416 71.0785C132.024 68.3268 135.25 66.8031 139.651 63.3974C139.298 62.4841 138.788 61.4714 138.365 60.5752C132.261 63.0748 124.355 65.3375 117.903 66.6685C113.022 67.6754 106.38 67.2357 101.539 66.1435C96.2454 64.9488 93.5705 64.4404 89.7655 60.4652C89.0041 60.3413 88.1106 60.2622 87.3336 60.1731ZM126.16 239.134C131.358 242.133 136.595 245.746 141.751 248.862C142.174 249.118 143.308 249.36 143.837 249.474L144.089 249.225C146.841 246.483 150.037 241.965 153.069 239.613C160.162 234.383 173.238 232.273 181.659 231.793C189.176 231.365 201.078 237.046 206.028 242.375C209.821 246.456 219.253 258.125 220.827 263.548C224.093 274.804 225.128 287.163 227.009 298.683C229.296 299.344 231.276 299.825 233.541 300.616C238.128 302.216 242.142 304.648 246.447 306.599C250.031 308.243 256.32 311.073 260.016 311.966C259.431 307.867 259.23 303.737 258.69 299.633C258.148 295.509 257.082 291.436 256.542 287.317C255.61 280.205 254.584 273.122 253.453 266.037C252.788 261.879 252.427 257.641 251.722 253.483C250.44 245.961 248.729 238.507 247.482 230.978C246.722 225.526 246.53 219.697 245.891 214.162C245.448 210.316 244.227 204.324 244.417 200.739C242.142 198.582 239.259 197.209 236.927 195.278C233.812 192.7 230.6 190.402 227.437 187.939C223.19 184.634 219.264 180.758 214.8 177.688C210.824 174.868 206.582 172.247 202.606 169.38C201.13 168.316 199.036 167.313 197.575 166.152C192.139 161.829 187.061 157.176 181.383 153.147C176.829 149.914 171.995 147.93 167.248 145.153C163.478 142.947 159.596 139.843 155.894 137.522C152.188 135.199 148.265 132.677 144.537 130.42C139.993 127.669 134.485 125.284 129.846 122.635C126.202 120.553 122.601 117.967 118.969 115.838C118.041 115.293 116.255 114.038 115.406 113.672C115.739 119.165 117.024 124.236 117.861 129.75C119.062 137.666 118.635 146.009 120.402 153.82C120.789 155.532 119.42 160.436 119.953 162.526C120.949 171.306 120.773 180.248 121.325 189.003C122.038 200.298 122.927 211.709 124.352 222.929C124.978 227.38 125.16 235.059 126.16 239.134ZM165.817 123.056C169.539 125.236 172.766 127.581 176.536 129.724C180.582 132.025 184.536 133.566 188.342 136.193C195.161 140.901 202.398 148.06 209.603 152.06C214.199 148.14 219.154 147.174 224.958 146.599C223.327 139.091 222.601 132.36 222.194 124.704C221.985 120.777 221.217 116.499 220.523 112.625C219.248 105.268 217.752 97.9502 216.038 90.6827C215.075 86.6414 213.651 82.4077 212.84 78.3582C211.375 71.0433 209.966 63.7251 208.224 56.4615C207.769 54.5748 207.863 50.988 208.282 49.099C208.459 48.4583 208.763 47.6042 208.539 47.0639L208.448 46.9727C203.764 48.8167 200.386 52.5242 196.137 54.5418C189.245 57.8141 183.234 61.4394 176.734 65.3129C171.116 68.6613 164.29 71.1822 158.635 74.6061C155.658 76.225 153.007 78.7208 150.104 80.4938C147.421 82.2695 144.105 83.2032 141.345 84.7566C138.214 86.5189 135.194 88.6068 132.109 90.4824C127.96 93.004 124.115 94.2273 119.655 95.8509C123.298 98.155 126.583 100.665 130.159 103.033C131.878 104.172 134.934 104.907 136.651 106.029C145.808 112.011 157.016 116.756 165.817 123.056ZM177.578 328.413C185.433 328.115 193.214 324.473 198.684 318.785C200.729 316.814 201.835 314.072 203.276 311.823C207.706 304.899 206.004 298.62 206.434 291.262C206.915 283.041 208.212 281.334 205.594 273.178C202.931 264.881 200.203 258.998 193.311 253.009C190.517 250.473 186.099 247.664 182.13 247.534C179.293 247.738 169.983 250.354 167.987 252.023C160.234 258.51 152.861 268.743 152.546 279.222C152.356 281.52 151.793 284.631 152.183 286.894C154.375 299.613 155.649 314.271 164.621 324.291C166.721 326.637 174.425 328.254 177.578 328.413ZM337.19 134.761C332.513 131.724 327.575 127.487 323.196 123.941C321.381 122.472 319.78 120.309 317.963 118.744C306.247 108.642 293.981 99.6708 281.241 90.9208C277.787 88.549 274.631 85.6874 271.238 83.2834L256.947 73.3335C251.097 69.2672 245.804 65.553 239.456 62.1242C234.475 59.4334 225.444 54.6883 221.421 50.6849C221.645 53.5645 223.157 56.1811 224.286 58.8418C225.972 62.8127 226.042 67.8009 227.247 71.7252C231.46 85.4515 233.702 99.4811 236.82 113.459C238.17 119.469 238.023 125.888 239.172 131.945C239.906 135.761 240.368 141.071 242.122 144.475C241.391 145.031 240.542 145.646 239.862 146.242C241.356 147.061 242.843 147.701 244.408 148.455C252.149 152.181 259.279 157.216 265.609 162.999C266.838 164.123 268.698 167.441 267.79 169.002C267.213 169.945 264.961 170.199 263.906 170.294C261.886 170.465 259.852 170.276 257.901 169.735C252.252 168.203 242.2 162.618 237.122 159.047C236.034 158.281 233.073 154.552 231.489 153.218C227.171 158.939 226.687 157.614 222.673 161.297C230.111 166.128 247.9 183.122 254.488 185.018C257.776 184.145 263.604 180.855 266.847 179.16C274.058 174.965 280.699 169.904 288.218 166.203C290.888 164.391 293.93 162.661 296.582 160.855C301.086 157.785 306.824 155.102 311.103 151.882C319.529 145.54 328.417 140.48 337.19 134.761ZM77.7486 136.689C78.0758 138.194 81.7486 144.413 82.7072 146.43L98.1719 179.647C99.2876 182.023 100.362 186.157 101.342 187.89L101.854 188.206C102.103 185.488 101.449 182.75 101.497 180.069C101.656 171.191 101.008 162.617 100.022 153.795C96.528 148.59 89.7592 146.559 84.9193 142.833C83.2123 141.518 79.3797 137.273 77.7486 136.689ZM25.4951 142.551C22.3839 145.123 20.8525 147.243 20.5694 151.312C19.8793 161.227 21.1634 170.234 23.3246 179.858C24.428 184.771 24.9286 190.288 26.3402 195.238C27.4814 201.183 28.531 207.007 32.2162 212.049C35.3688 216.364 48.0628 218.673 52.3542 216.543C58.6806 209.975 60.1171 206.203 60.6623 196.996C61.5801 181.494 57.3618 162.267 46.2066 150.993C41.4899 146.226 35.3408 142.212 28.2759 142.26L25.4951 142.551ZM281.382 311.812C286.491 308.965 292.247 307.094 297.386 304.214C299.879 302.816 302.598 300.565 305.071 299.36C312.816 295.583 319.654 291.165 326.97 286.656L341.63 277.418C347.754 273.55 353.38 269.37 359.638 265.707C361.206 264.789 364.19 263.461 365.28 262.117C365.336 258.745 364.358 255.703 363.943 252.399C363.5 248.86 363.262 245.327 362.752 241.786C361.815 235.323 360.386 228.818 359.322 222.412C357.535 211.655 356.659 200.764 354.805 189.995C353.72 184.021 352.513 178.071 351.181 172.148C350.612 169.686 349.707 166.33 349.176 163.881C348.806 162.182 347.415 153.664 346.956 152.849L346.643 152.66C344.376 153.641 340.08 156.607 337.853 158.025C330.78 162.571 323.85 167.358 316.834 171.996C312.617 174.86 307.98 177.174 303.691 179.9C293.889 186.125 284.173 192.418 274.158 198.298C271.13 200.076 265.909 201.862 263.34 203.764C264.032 211.254 265.029 217.858 266.137 225.232C267.522 234.439 268.364 243.712 270.189 252.89C270.687 255.992 270.955 259.124 271.419 262.231C271.802 264.802 272.718 267.385 273.137 269.932C274.293 276.968 276.138 284.542 276.694 291.631L277.65 303.943C277.794 305.856 277.903 311.061 278.974 312.367C280.074 312.789 280.43 312.43 281.382 311.812Z" fill="#F6F6F6"/>
</svg>
