<svg width="237" height="12" viewBox="0 0 237 12" fill="none" xmlns="http://www.w3.org/2000/svg">
<path d="M3.79095 4.252C2.78553 4.24156 1.82128 4.63181 1.11033 5.34293C0.39939 6.0537 -1.40667e-05 7.0271 -1.40667e-05 8.04297C-1.40667e-05 9.05884 0.39939 10.0322 1.11033 10.743C1.82128 11.4541 2.78553 11.8444 3.79095 11.8339C5.27093 11.8187 6.75983 11.8035 8.24274 11.7883C10.6196 11.7666 13.0218 11.7237 15.4039 11.6621C27.2958 11.3384 39.0559 10.7791 50.9036 10.2095C86.7582 8.44373 122.646 6.38161 158.462 4.76505C169.676 4.40486 181.193 3.43296 191.884 4.39433L191.86 4.39036C197.781 5.37931 203.908 6.11725 209.94 6.34381L209.968 6.34513C214.379 6.47195 218.784 6.55194 223.187 6.63291C227.042 6.70236 230.898 6.76648 234.753 6.83087C235.126 6.83704 235.488 6.69356 235.759 6.43423C236.03 6.17476 236.188 5.82069 236.198 5.44766C236.208 5.07464 236.069 4.71258 235.812 4.4389C235.556 4.16535 235.202 4.0026 234.829 3.98867C234.829 3.98867 234.829 3.98867 234.829 3.98867C230.977 3.84534 227.124 3.70229 223.274 3.55397C218.879 3.38305 214.475 3.21277 210.101 2.9971L210.129 2.99841C204.162 2.64774 198.388 1.83082 192.486 0.723945L192.462 0.719972C180.689 -0.5678 169.694 0.239988 158.316 0.355225C122.419 1.23866 86.4938 2.56629 50.6487 3.59546C38.8187 3.92241 27.048 4.23893 15.2908 4.31792C12.9341 4.33052 10.6011 4.32441 8.24274 4.29761C6.75983 4.2824 5.27093 4.2672 3.79095 4.252Z" fill="#D52122"/>
</svg>
