<svg width="1013" height="19" viewBox="0 0 1013 19" fill="none" xmlns="http://www.w3.org/2000/svg">
<path d="M6.5 13C4.77609 13.0071 3.12279 12.3284 1.90381 11.1093C0.684819 9.89047 0 8.23098 0 6.5C0 4.76902 0.684819 3.10952 1.90381 1.89066C3.12279 0.671553 4.77609 -0.0070715 6.5 0C12.9325 0.0260935 19.4037 0.052186 25.8489 0.0782795C36.1255 0.116066 46.4205 0.18522 56.708 0.282406C108.145 0.791988 159.298 1.65694 210.788 2.53748C366.598 5.26449 522.685 8.43801 678.476 10.9432C727.539 11.4987 776.456 13.0257 825.097 11.5462L825.082 11.547C850.958 10.0677 876.909 9.01123 902.845 8.68548L902.861 8.68521C921.98 8.5054 941.136 8.39505 960.267 8.28342C976.999 8.18793 993.741 8.10037 1010.48 8.0124C1011.12 8.00906 1011.74 8.26243 1012.2 8.71525C1012.66 9.16816 1012.92 9.78343 1012.93 10.4272C1012.93 11.071 1012.68 11.691 1012.23 12.1524C1011.78 12.6137 1011.17 12.8786 1010.52 12.8872C1010.52 12.8872 1010.52 12.8872 1010.52 12.8872C993.788 13.1106 977.047 13.3335 960.319 13.5644C941.192 13.8308 922.038 14.096 902.94 14.4304L902.956 14.4301C877.059 14.9657 851.32 16.2226 825.457 17.9104L825.442 17.9113C776.154 19.8066 727.551 18.6619 678.389 18.5053C522.55 17.2613 366.442 15.3492 210.637 13.884C159.157 13.419 107.998 12.9696 56.6411 12.876C46.3687 12.8621 36.1146 12.8763 25.8489 12.9217C19.4037 12.9478 12.9325 12.9739 6.5 13Z" fill="#D52122"/>
</svg>
