<svg width="1013" height="16" viewBox="0 0 1013 16" fill="none" xmlns="http://www.w3.org/2000/svg">
<path d="M6.5 2.98047C4.77609 2.9734 3.12279 3.65202 1.90381 4.87112C0.68482 6.08999 0 7.74949 0 9.48047C0 11.2114 0.68482 12.8709 1.90381 14.0898C3.12279 15.3089 4.77609 15.9875 6.5 15.9805C12.9325 15.9544 19.4037 15.9283 25.8489 15.9022C36.1222 15.8631 46.4092 15.8032 56.6928 15.7245C108.117 15.3156 159.272 14.6698 210.763 14.0135C366.572 11.9852 522.665 9.65919 678.461 7.77876C727.542 7.3427 776.395 6.25714 825.154 7.17966C851.032 8.13109 876.946 8.79904 902.863 8.98124L902.874 8.98136C921.991 9.0754 941.147 9.12317 960.279 9.17177C977.009 9.21286 993.75 9.24866 1010.48 9.28472C1011.13 9.28607 1011.75 9.03078 1012.21 8.57654C1012.66 8.1222 1012.92 7.50613 1012.93 6.86232C1012.93 6.21851 1012.68 5.59926 1012.23 5.13928C1011.77 4.67939 1011.16 4.41645 1010.52 4.40982C1010.52 4.40982 1010.52 4.40982 1010.52 4.40982C993.781 4.23834 977.041 4.06712 960.313 3.89064C941.184 3.68722 922.029 3.48462 902.927 3.23587L902.937 3.23599C877.046 2.84418 851.274 1.97081 825.394 0.810015C776.193 -0.517781 727.55 0.177851 678.403 0.21652C522.575 0.835501 366.467 1.89995 210.662 2.66646C159.179 2.90726 108.019 3.13762 56.6482 3.13085C46.3747 3.12622 36.1149 3.10291 25.8489 3.05876C19.4037 3.03266 12.9325 3.00656 6.5 2.98047Z" fill="#232323"/>
</svg>
