<svg width="233" height="360" viewBox="0 0 233 360" fill="none" xmlns="http://www.w3.org/2000/svg">
<path d="M71.8248 0.0601483C79.4141 -0.468131 87.953 2.56576 94.7182 5.92939C104.378 10.732 110.598 22.8215 113.374 32.8048C114.427 36.5927 115.059 41.279 116.3 44.9362L116.413 45.2614C123.161 33.9951 132.011 25.0558 144.97 21.6129C152.598 18.9974 169.992 17.6855 176.718 21.996C197.821 35.5671 184.005 71.1947 170.825 85.8095C165.56 91.6471 149.685 96.9077 142.315 99.2274C139.299 100.177 134.772 100.949 131.498 101.857C134.433 102.577 137.372 102.72 140.348 103.084C148.783 104.114 156.497 107.216 164.611 109.241C168.7 110.261 173.993 110.269 178.3 111.134C184.774 112.434 191.107 114.069 197.446 115.944C201.242 117.089 205.026 117.639 208.719 119.13C213.9 121.22 218.597 123.765 222.753 127.55C228.199 132.509 232.201 145.304 232.402 152.462C232.467 155.857 232.462 159.253 232.391 162.648C232.26 171.401 231.729 173.542 225.257 180.266C224.376 181.181 222.929 182.679 221.791 183.256C216.164 186.118 209.77 186.732 203.703 186.888C203.856 187.085 204.003 187.286 204.145 187.492C207.895 192.931 209.179 209.253 210.292 216.565C212.503 231.085 215.424 245.429 217.732 259.922C219.039 268.111 218.737 277.087 218.959 285.397C219.664 300.167 219.486 314.655 216.576 329.223C214.396 340.549 212.929 342.816 203.341 349.058C194.367 354.9 186.39 355.527 176.088 356.306C158.189 358.312 138.275 360.867 120.271 359.711C105.77 358.779 88.0909 357.501 74.0235 354.662C66.2868 353.077 58.5306 349.26 50.9873 346.936C43.1624 344.527 37.3563 341.087 34.5751 332.846C30.6241 321.218 29.59 308.688 27.1662 296.716C23.0119 276.194 18.6662 257.165 17.6463 236.118C17.2674 228.298 14.4695 219.885 13.7603 211.028C13.1039 202.826 13.0322 187.74 17.7758 179.982C26.7351 171.043 44.9124 168.5 57.0493 166.513C66.2556 165.005 77.3607 165.974 86.7829 165.054C86.4942 163.061 86.4748 159.623 86.2806 157.373C85.4956 148.266 85.5961 138.837 85.9267 129.705C86.1124 124.574 86.8963 119.419 87.3399 114.349C81.9739 113.414 77.1332 111.076 71.9754 110.142C62.8399 108.712 52.9122 107.121 43.7821 106.24C40.4149 105.914 24.6829 107.203 21.9844 108.526C21.4688 109.504 20.9066 110.757 20.7525 111.861C19.5503 120.471 19.6479 129.181 19.2548 137.847C19.057 142.207 19.4743 146.548 19.8086 150.885C20.1811 156.06 22.2221 160.912 21.9263 166.132C21.7227 169.724 18.5664 172.018 15.771 173.788C13.1137 175.47 9.03475 174.621 7.21377 172.064C5.72407 169.972 6.00589 167.516 5.23642 165.176C3.53083 160.519 2.20437 155.74 1.19589 150.877C-0.546788 142.226 0.0315122 132.59 0.372173 123.797C0.706881 119.267 0.546851 114.318 1.18994 109.845C1.91224 104.82 5.79984 96.3419 9.94065 93.3579C13.9425 90.474 20.9414 90.4621 25.7383 89.9874C31.891 89.3785 38.1184 88.4891 44.3045 88.4108C51.1287 88.2615 57.2467 89.5553 63.9781 90.4559C67.8355 90.9721 72.0929 91.2537 75.8813 91.9318C80.3358 92.7289 83.1891 94.5015 87.8532 95.1988C80.4304 88.799 79.0986 86.9004 73.6991 78.8107C61.0917 59.9217 41.2075 34.8405 56.3643 11.7686C60.211 5.9129 64.8639 1.42126 71.8248 0.0601483ZM134.254 240.398C131.086 240.52 128.476 240.618 125.422 239.439C123.326 236.624 122.893 235.115 119.285 234.543C119.248 228.917 119.1 186.043 117.99 183.396C116.521 182.981 108.127 183.359 106.131 183.46C107.176 193.771 109.006 204.053 111.307 214.154C112.214 217.822 112.361 222.491 113.466 226.029C115.892 233.796 117.231 241.126 118.67 249.079C119.851 255.601 123.846 259.308 117.522 265.317C114.501 265.88 111.546 266.116 108.867 264.312C107.543 263.421 104.955 260.604 104.44 259.198C102.701 254.451 101.674 248.811 100.482 243.895C97.4128 231.241 95.0662 218.413 92.4755 205.651C91.4892 200.792 91.1662 195.038 90.3187 190.078C89.9739 188.06 89.9235 186.096 89.453 184.028C79.2074 183.632 68.1132 184.174 57.8966 185.193C54.9099 185.491 51.7721 186.485 48.8215 187.023C45.1667 187.559 39.1983 188.582 36.495 191.227C34.8123 192.874 34.4659 202.047 34.6411 204.657C35.4945 217.382 38.487 229.613 39.1285 242.45C39.5218 247.153 39.7052 253.435 40.5788 257.921C43.5291 273.073 46.8416 288.099 49.5509 303.302C50.618 309.29 52.3256 323.274 55.2876 328.197C60.7897 330.49 71.2854 334.387 76.8106 335.644C81.521 336.716 91.128 337.611 96.1332 338.081C105.816 338.985 116.422 340.281 126.079 340.474C133.966 340.634 143.912 339.835 151.831 339.168C158.471 338.607 165.134 338.307 171.667 337.018C176.72 336.02 182.066 336.574 186.736 334.646C189.717 333.414 194.472 330.396 195.465 327.112C197.888 319.116 198.151 308.314 198.343 299.97C198.449 295.369 198.181 290.554 198.103 286.073C197.872 277.517 198.004 268.601 196.928 260.114C195.96 252.489 194.316 244.772 192.961 237.188C191.278 227.779 189.74 218.592 188.533 209.12C187.389 200.14 185.012 195.773 187.018 186.389C181.484 185.548 175.594 185.143 169.985 184.639C163.788 184.083 157.989 181.694 151.845 181.734C147.032 181.766 142.107 181.746 137.31 181.923C136.488 183.432 137.348 194.433 137.433 196.993L138.288 223.551C138.514 229.631 140.371 236.318 134.254 240.398ZM104.319 117.304C102.727 123.491 103.252 125.323 102.877 131.316C102.344 139.846 102.167 147.419 102.981 155.983C103.203 158.321 103.195 161.193 103.55 163.477C107.243 164.59 111.342 164.854 115.187 164.544C115.981 164.455 116.819 164.472 117.409 164.004C118.184 160.797 114.79 135.227 113.987 130.424C113.656 128.438 112.769 120.538 112.352 118.557C109.797 117.992 106.93 117.447 104.319 117.304ZM122.736 84.0966C123.757 83.839 124.909 83.5768 125.91 83.2908C133.965 81.0818 145.042 78.338 152.386 74.3895C160.968 69.7754 164.6 56.2911 166.532 47.3841C166.883 45.7645 166.465 36.941 163.669 37.203C151.213 38.3488 146.255 41.8082 138.081 51.1569C131.712 58.4411 124.72 74.6419 122.736 84.0966ZM131.177 121.233C131.363 125.227 132.022 128.637 132.615 132.579C133.213 136.736 133.757 140.901 134.249 145.072C134.803 150.015 134.929 158.601 135.769 162.976C138.621 163.438 141.619 163.201 144.494 163.097C148.739 162.945 152.907 162.759 157.148 163.09C161.801 163.453 166.27 164.831 170.855 165.628C177.162 166.724 202.947 170.511 207.789 167.16C208.272 166.824 208.689 166.367 209.092 165.941C209.644 165.274 210.754 163.949 211.116 163.225C212.556 160.358 212.125 155.203 211.963 152.078C211.846 149.807 209.754 142.198 208.728 140.082C204.58 137.43 201.303 136.917 196.732 135.556C189.229 133.324 181.626 131.333 173.959 129.749C170.001 128.925 165.07 128.983 161.214 128.161C155.661 126.977 150.104 124.837 144.519 123.415C139.807 122.214 135.901 121.962 131.177 121.233ZM76.8051 18.677C72.7046 23.2586 71.0675 25.4084 71.2994 31.8629C71.6462 41.516 76.496 46.9378 81.0357 54.6985L89.6332 69.1626C92.0531 73.2826 93.4114 76.5139 96.7017 80.2494C97.3191 81.0545 97.7507 81.7834 98.6314 82.245L99.0717 82.1894C100.382 80.4837 99.4366 66.9517 99.0101 64.1287C98.2369 58.6332 96.7031 53.2836 95.5094 47.8657C94.1046 41.4883 92.5808 35.2763 90.4205 29.1107C88.595 23.901 82.0798 19.5034 76.8051 18.677Z" fill="#F6F6F6"/>
</svg>
