<svg width="499" height="13" viewBox="0 0 499 13" fill="none" xmlns="http://www.w3.org/2000/svg">
<path d="M3.54395 11.0543C2.60398 11.0586 1.70251 10.6889 1.03785 10.0242C0.373196 9.35959 -0.000204802 8.45438 -0.000204802 7.51015C-0.000204802 6.56591 0.373196 5.6607 1.03785 4.99611C1.70251 4.33138 2.60398 3.96173 3.54395 3.966C6.58664 3.97967 9.64766 3.99334 12.6964 4.00701C17.3151 3.94183 22.6661 3.15246 27.8378 2.68272C51.893 0.30296 75.9933 -0.102954 100.104 0.0191145C173.966 0.778391 247.74 5.08758 321.386 5.92496C344.614 6.05183 367.681 6.2422 390.826 6.23654C403.074 6.18853 415.306 6.16836 427.556 6.19528C442.847 6.63461 457.831 8.09362 472.931 8.96523C481.147 9.45894 489.363 9.927 497.542 9.97745C497.893 9.97859 498.23 10.1196 498.478 10.3685C498.727 10.6174 498.867 10.9539 498.867 11.3048C498.867 11.6557 498.729 11.9925 498.481 12.2421C498.233 12.4917 497.897 12.6335 497.546 12.6356C497.546 12.6356 497.546 12.6356 497.546 12.6356C489.248 12.6583 481.013 12.2612 472.768 11.8402C457.67 11.1024 442.472 9.77541 427.564 9.48145C415.317 9.56422 403.102 9.69401 390.854 9.85172C367.657 10.0651 344.615 10.0821 321.379 10.1627C247.547 9.98404 173.708 6.33541 100.093 6.2406C76.1011 6.33254 52.1943 6.95706 28.5411 9.5134C23.3452 10.0207 18.4631 10.8585 12.6964 11.0133C9.64766 11.027 6.58664 11.0406 3.54395 11.0543Z" fill="#D52122"/>
</svg>
