<svg width="80" height="74" viewBox="0 0 80 74" fill="none" xmlns="http://www.w3.org/2000/svg">
<path d="M79.9691 9.45907C79.9264 8.82562 78.275 5.34513 77.8408 4.82306C77.1646 4.00862 73.9899 1.92033 72.9293 1.44698C67.242 -1.07985 60.8073 0.0687073 55.1697 2.10131C49.9451 3.98078 40.3428 11.1506 37.7874 16.079C37.2606 17.0883 36.257 21.9401 35.417 22.1211C34.6696 21.599 33.6518 21.244 32.9328 20.7289C27.5089 16.8586 21.1168 9.18063 15.2159 7.07842C12.0057 5.93682 9.52858 6.04819 6.52475 7.77452C3.05824 9.76536 -0.137778 19.4968 0.00458333 23.3323C0.460141 34.9989 7.51416 44.5076 13.7354 53.4038C15.643 56.1325 17.6147 58.1094 19.2519 60.5318C21.1738 63.3788 25.4446 67.8687 28.3844 70.1449C30.0714 71.4536 32.3634 72.9154 34.5202 73.1173C35.3743 73.2008 36.1644 73.1103 36.9118 72.8806C38.9263 71.2726 41.0261 69.7621 43.0903 68.2028C43.0903 68.1471 43.0903 68.0914 43.069 68.0497C43.1046 68.0914 43.1473 68.1053 43.19 68.1332C43.9872 67.5276 44.7773 66.915 45.5532 66.2816C46.265 65.4115 47.1192 64.6875 48.0303 64.0262C53.8956 57.7683 59.6043 49.4847 64.9001 43.1154C69.591 37.4631 76.104 30.2098 78.2821 22.9634C79.1861 19.9632 80.1898 12.4801 79.9691 9.45211V9.45907ZM72.4453 28.3929C69.5838 33.5093 65.2632 37.4074 61.5831 41.7859C60.1168 43.5261 53.6749 52.2552 51.6747 53.5847C51.3687 54.1764 50.9772 54.7333 50.5074 55.2136C50.4148 55.3946 50.301 55.5686 50.1728 55.7287C50.0234 56.0768 49.7457 56.4527 49.3115 56.933C46.5568 59.9888 44.0442 63.1143 40.8126 65.85C39.1968 67.2213 37.3674 68.4395 35.6875 69.7481C35.2676 69.8804 34.9259 69.8108 34.5415 69.6298C34.2354 69.4906 29.4307 65.8361 29.267 65.5507C29.2599 65.5368 29.2599 65.5159 29.2528 65.5019C29.0891 65.3836 28.9325 65.2583 28.7901 65.1191C28.5766 64.9103 28.3773 64.6736 28.1993 64.423C27.9359 64.242 27.8505 63.7965 27.4946 63.532C21.2094 58.889 17.1592 52.109 13.0236 45.7676C7.87007 37.8668 3.15078 29.7225 4.68116 19.9005C5.18655 16.6567 6.02648 13.4059 8.58899 11.1924C11.6854 8.51934 15.9206 11.8606 18.5258 13.9419C22.4408 17.0674 30.6622 25.8035 35.1608 26.9103C39.1968 27.8987 38.2287 25.6294 39.816 22.5875C41.8945 18.5988 48.977 9.57045 52.9275 7.56569C58.0454 4.9762 64.9144 2.48417 70.559 4.12696C74.3458 5.2268 75.2854 7.47519 76.2891 11.0531C77.912 16.8586 75.2925 23.3184 72.4596 28.3999L72.4453 28.3929Z" fill="#D52122"/>
</svg>
