<svg width="62" height="56" viewBox="0 0 62 56" fill="none" xmlns="http://www.w3.org/2000/svg">
<path d="M61.9604 8.83028C61.7896 7.28659 61.5142 5.01364 60.2637 3.68819C58.6332 1.96352 57.2836 1.46848 56.4628 1.10651C52.0615 -0.825765 47.0818 0.0525405 42.719 1.60688C38.6757 3.0441 32.1757 8.79301 30.1981 12.5617C29.7905 13.3336 28.0883 16.7776 27.4328 16.916C26.8544 16.5168 26.0667 16.2453 25.5103 15.8514C21.3128 12.8918 16.3661 7.02043 11.7996 5.41287C9.3152 4.53989 7.23297 4.39084 5.07362 5.94517C-0.187039 9.72455 -0.0823771 14.9092 0.0333024 17.8422C0.385849 26.7637 5.84482 34.035 10.6593 40.8379C12.1356 42.9245 13.6614 44.4363 14.9284 46.2887C16.4157 48.4658 19.7208 51.8992 21.9959 53.6398C23.3014 54.6406 25.0752 55.7584 26.7442 55.9128C27.218 55.9554 27.4824 56.1097 28.0498 55.8649C28.3417 55.7425 28.3472 55.7318 28.4794 55.6626C28.6722 55.5668 28.8375 55.439 29.0303 55.3486C30.2146 54.4223 31.5146 53.5813 32.6604 52.7243C32.8973 52.5486 33.1342 52.357 33.371 52.1654C33.371 52.1174 33.371 52.0749 33.3545 52.0429C33.382 52.0749 33.4151 52.0855 33.4481 52.1068C34.1587 51.5319 34.8749 50.9251 35.6295 50.3928C35.7507 50.2544 35.8719 50.1107 36.0041 49.9829C36.2685 49.7274 36.577 49.5038 36.88 49.2962C41.5292 44.4788 46.0627 37.9634 50.2492 32.9757C53.8793 28.6534 58.9197 23.1067 60.6053 17.5654C61.3049 15.2712 62.2138 11.1352 61.9549 8.83028H61.9604Z" fill="#F6F6F6"/>
</svg>
