<svg width="52" height="46" viewBox="0 0 52 46" fill="none" xmlns="http://www.w3.org/2000/svg">
<g clip-path="url(#clip0_1635_16848)">
<path d="M51.9633 7.2539C51.82 5.98596 51.5891 4.11903 50.5404 3.03035C49.1729 1.61375 48.0411 1.20714 47.3527 0.909829C43.6615 -0.677283 39.4853 0.0441317 35.8264 1.32082C32.4355 2.50131 26.9842 7.2233 25.3257 10.3188C24.9839 10.9528 23.5564 13.7816 23.0066 13.8953C22.5215 13.5674 21.8609 13.3444 21.3943 13.0208C17.8741 10.5899 13.7255 5.76735 9.89573 4.44695C7.81222 3.7299 6.06595 3.60748 4.25501 4.88417C-0.156861 7.98843 -0.0690858 12.247 0.0279292 14.6561C0.323594 21.9839 4.90177 27.9563 8.93944 33.544C10.1775 35.2579 11.4572 36.4996 12.5198 38.0211C13.7671 39.8094 16.5389 42.6294 18.4469 44.0592C19.5418 44.8811 21.0294 45.7993 22.4291 45.9261C22.8264 45.9611 23.0482 46.0879 23.524 45.8867C23.7689 45.7862 23.7735 45.7774 23.8844 45.7206C24.0461 45.6419 24.1846 45.537 24.3463 45.4626C25.3396 44.7019 26.4298 44.0111 27.3908 43.3071C27.5894 43.1628 27.7881 43.0054 27.9867 42.848C27.9867 42.8087 27.9867 42.7737 27.9728 42.7475C27.9959 42.7737 28.0237 42.7825 28.0514 42.8C28.6473 42.3278 29.2479 41.8293 29.8808 41.3921C29.9824 41.2784 30.0841 41.1604 30.195 41.0554C30.4167 40.8456 30.6754 40.6619 30.9295 40.4914C34.8286 36.5346 38.6306 31.183 42.1416 27.0862C45.1861 23.536 49.4131 18.9802 50.8268 14.4287C51.4135 12.5443 52.1758 9.14707 51.9586 7.2539H51.9633Z" fill="#D52122"/>
</g>
<defs>
<clipPath id="clip0_1635_16848">
<rect width="52" height="46" fill="white"/>
</clipPath>
</defs>
</svg>
