<svg width="228" height="290" viewBox="0 0 228 290" fill="none" xmlns="http://www.w3.org/2000/svg">
<path d="M12.6318 274.46C12.6318 274.288 12.6318 257.62 12.7139 231.835C12.7433 222.631 12.9603 221.304 13.0449 209.985C13.1295 198.666 13.1295 177.395 13.2587 165.849C13.4342 150.174 17.9989 144.06 22.3074 139.265C25.0509 136.212 40.2931 131.675 60.3343 125.611C69.1477 122.944 72.4605 122.777 85.2235 121.395C96.3877 120.185 117.141 118.67 128.614 117.62C141.687 116.424 144.876 115.676 156.34 115.096C184.342 113.679 204.426 114.31 207.297 116.561C213.745 121.618 215.07 128.248 217.466 134.946C219.464 140.531 221.231 152.882 222.944 184.416C224.177 207.103 223.527 243.466 222.742 262.457C221.958 281.447 220.388 281.988 214.294 282.912C208.199 283.836 197.627 285.125 180.511 285.79C163.394 286.454 140.054 286.454 124.914 286.131C93.1555 285.455 82.1493 283.756 77.0122 283.275C72.2738 282.831 45.2001 282.542 26.8144 280.876C23.8914 280.265 21.4041 279.952 19.1854 279.434C18.1563 279.012 17.3238 278.268 14.1811 275.265" stroke="#232323" stroke-width="7" stroke-linecap="round"/>
<path d="M3.5 141.501C3.5 141.331 4.34866 139.631 7.77971 134.126C14.2044 123.819 25.8223 107.928 36.4358 92.584C43.3086 82.648 51.9506 73.259 60.3566 62.9849C72.4032 48.2612 79.4172 37.3446 83.9997 30.2609C87.7999 24.3865 94.4402 15.6245 101.91 7.68116C104.111 5.34087 106.968 4.78626 110.698 3.9169C120.991 1.51787 127.084 10.0764 131.864 14.7687C138.228 21.0156 148.38 33.4744 164.01 51.9606C188.075 80.4251 194.985 82.6098 199.781 88.5782C203.22 92.8566 206.467 96.5974 209.283 100.34C212.345 104.411 216.034 108.068 219.288 111.984C220.139 112.985 221.1 114.036 221.828 115.083C222.556 116.13 223.021 117.141 223.5 118.183" stroke="#232323" stroke-width="7" stroke-linecap="round"/>
<path d="M102.083 176.003C103.577 175.384 104.837 175.028 106.368 174.56C110.222 173.369 113.583 170.903 117.618 170.349C120.198 169.992 123.459 171.362 126.06 171.134C126.679 171.08 129.616 170.75 130.079 170.929C131.121 171.333 131.186 171.841 132.671 171.991C132.785 173.074 133.524 174.514 134.042 175.486C134.351 176.068 135.149 177.393 135.32 177.951C135.98 180.097 135.934 182.885 135.321 185.021C134.478 187.957 132.378 190.741 129.893 192.788C129.473 193.134 128.772 193.684 128.293 193.938C128.357 194.346 128.366 194.514 128.357 194.92C127.929 195.165 126.961 195.737 126.681 196.068C124.935 198.135 125.131 199.342 122.427 200.821C122.251 201.129 122.083 201.655 121.913 201.879C121.338 202.638 119.916 203.084 119.37 203.843C119.052 204.285 119.301 204.705 118.93 205.389C118.148 206.832 121.176 209.216 118.338 211.092C116.554 212.759 113.721 211.677 112.371 211.747C111.458 211.88 109.371 210.818 108.871 210.133C108.435 209.535 107.528 208.455 107.977 207.719C108.098 207.521 108.339 207.198 108.347 206.958C108.245 206.104 107.758 205.435 107.856 204.537C108.004 203.18 109.213 202.269 109.813 201.085C110.075 200.571 110.181 199.785 110.286 199.215C111.804 197.812 112.544 196.108 113.604 194.478C114.253 193.481 115.709 192.107 116.554 191.16C118.37 189.1 120.404 189.987 121.176 184.506C119.739 183.462 118.118 182.887 116.589 183.204C115.842 183.358 113.577 183.041 112.83 183.204C111.014 183.6 110.643 184.498 108.871 185.021C108.362 185.177 107.806 186.13 107.323 186.34C106.555 186.68 106.26 187.975 105.409 188.009C104.341 189.437 102.84 190.006 101.576 191.215C100.972 191.239 100.287 191.262 99.7096 191.109C98.737 190.851 97.8907 190.316 96.8612 190.224C96.6005 190.2 96.1405 190.155 95.9561 189.987C95.7521 189.501 96.9627 188.783 95.1384 188.558C94.8263 188.246 94.7718 188.187 94.3256 188.049C94.0817 185.537 94.8405 184.661 95.6876 182.269C95.8702 181.754 96.0069 181.165 96.157 180.632C96.8308 180.123 97.2096 179.825 97.7158 179.188C98.083 178.725 98.5382 177.642 98.9927 177.374C99.8483 176.868 101.122 176.421 102.083 176.003Z" fill="#F6F6F6"/>
<path d="M123.395 218.436C123.343 218.007 123.259 217.375 122.877 217.007C122.378 216.527 121.966 216.39 121.715 216.289C120.37 215.752 118.849 215.996 117.516 216.428C116.28 216.828 114.294 218.426 113.69 219.473C113.565 219.688 113.045 220.645 112.845 220.683C112.668 220.573 112.427 220.497 112.257 220.388C110.975 219.565 109.463 217.933 108.068 217.486C107.309 217.243 106.673 217.202 106.013 217.634C104.405 218.685 104.437 220.126 104.473 220.941C104.58 223.421 106.248 225.442 107.72 227.333C108.171 227.913 108.637 228.333 109.024 228.848C109.478 229.453 110.488 230.407 111.184 230.891C111.582 231.169 112.124 231.48 112.634 231.523C112.779 231.535 112.86 231.578 113.033 231.51C113.123 231.476 113.124 231.473 113.165 231.454C113.224 231.427 113.274 231.391 113.333 231.366C113.695 231.109 114.092 230.875 114.442 230.637C114.515 230.588 114.587 230.535 114.659 230.481C114.659 230.468 114.659 230.456 114.654 230.447C114.663 230.456 114.673 230.459 114.683 230.465C114.9 230.305 115.119 230.137 115.349 229.989C115.386 229.95 115.423 229.91 115.464 229.875C115.545 229.804 115.639 229.742 115.731 229.684C117.152 228.345 118.537 226.534 119.817 225.147C120.926 223.946 122.466 222.404 122.981 220.864C123.195 220.226 123.472 219.077 123.393 218.436H123.395Z" fill="#F6F6F6"/>
</svg>
