<svg width="287" height="234" viewBox="0 0 287 234" fill="none" xmlns="http://www.w3.org/2000/svg">
<g clip-path="url(#clip0_2410_11705)">
<path d="M218.915 17.5036C218.588 14.444 218.059 9.93899 215.659 7.31196C212.53 3.89366 209.94 2.91248 208.364 2.19505C199.917 -1.63472 190.36 0.106088 181.987 3.18678C174.227 6.03537 161.752 17.4297 157.956 24.8994C157.174 26.4292 153.907 33.2552 152.649 33.5295C151.539 32.7383 150.027 32.2002 148.96 31.4195C140.904 25.5535 131.41 13.9165 122.646 10.7303C117.877 9.00002 113.881 8.70461 109.737 11.7853C99.6405 19.276 99.8414 29.5521 100.063 35.3653C100.74 53.0476 111.217 67.4594 120.457 80.9427C123.29 85.0784 126.219 88.0747 128.65 91.7462C131.505 96.0613 137.848 102.866 142.215 106.316C144.72 108.3 148.124 110.515 151.328 110.821C152.237 110.906 152.744 111.212 153.833 110.726C154.394 110.484 154.404 110.463 154.658 110.325C155.028 110.135 155.345 109.882 155.715 109.703C157.988 107.867 160.483 106.2 162.682 104.502C163.137 104.153 163.591 103.774 164.046 103.394C164.046 103.299 164.046 103.214 164.014 103.151C164.067 103.214 164.131 103.236 164.194 103.278C165.558 102.138 166.932 100.936 168.381 99.8805C168.613 99.6062 168.846 99.3214 169.099 99.0682C169.607 98.5617 170.199 98.1186 170.78 97.7072C179.703 88.1591 188.404 75.2455 196.439 65.3599C203.406 56.793 213.08 45.7996 216.315 34.8167C217.657 30.2695 219.402 22.0719 218.905 17.5036H218.915Z" fill="#D52122"/>
</g>
<path d="M67.1913 122.784C73.3582 122.507 79.5355 122.387 85.7106 122.524C87.4529 122.562 89.1932 122.621 90.9334 122.703C91.3304 122.721 91.3304 122.111 90.9334 122.092C84.7747 121.801 78.6057 121.797 72.4449 121.976C70.6944 122.027 68.9418 122.094 67.1913 122.172C66.7963 122.19 66.7943 122.8 67.1913 122.782V122.784Z" fill="#232323"/>
<path d="M162.125 162.142C165.153 163.902 168.168 165.682 171.172 167.485C172.692 168.396 174.969 167.865 175.816 166.28C176.664 164.695 176.222 162.661 174.599 161.686C171.595 159.884 168.582 158.102 165.552 156.344C164.019 155.455 161.763 155.947 160.907 157.548C160.051 159.149 160.49 161.192 162.125 162.142Z" fill="#232323"/>
<path d="M72.7535 123.246C73.5619 123.295 74.3682 123.354 75.1746 123.431C75.5983 123.472 76.0221 123.516 76.4458 123.567C76.6248 123.588 76.8058 123.61 76.9848 123.632C77.5813 123.71 76.5589 123.569 77.1493 123.657C78.7126 123.891 80.2657 124.172 81.8064 124.521C84.9146 125.227 87.9569 126.182 90.9396 127.293C91.6657 127.563 92.3877 127.842 93.1077 128.129C93.9984 128.485 94.2925 128.603 95.0063 128.908C95.9711 129.319 96.9379 129.687 97.9191 130.051C98.9002 130.416 99.7992 130.753 100.741 131.101C101.097 131.233 101.453 131.372 101.813 131.492C102.173 131.612 101.753 131.427 101.603 131.396C102.074 131.492 102.584 131.836 103.02 132.031C115.04 137.429 126.989 142.989 138.642 149.129C141.987 150.891 145.307 152.698 148.604 154.547C150.353 155.528 152.085 156.535 153.827 157.524C154.339 157.815 154.876 158.055 155.429 158.254C155.581 158.309 155.744 158.346 155.894 158.407C156.112 158.474 156.1 158.476 155.859 158.413L156.197 158.612C156.964 159.158 157.807 159.646 158.624 160.12C160.156 161.011 162.413 160.517 163.269 158.915C164.13 157.304 163.686 155.274 162.051 154.321C161.39 153.937 160.755 153.516 160.107 153.111C159.183 152.533 158.202 152.242 157.235 151.778C157.669 151.986 156.857 151.493 156.744 151.428C156.349 151.2 155.952 150.973 155.555 150.745C154.771 150.295 153.985 149.849 153.199 149.404C150.209 147.713 147.199 146.059 144.167 144.44C138.305 141.308 132.366 138.318 126.374 135.437C120.299 132.517 114.174 129.705 108.027 126.939C105.734 125.905 103.442 124.955 101.087 124.078C100.246 123.765 99.4104 123.421 98.5547 123.144C98.1803 123.022 98.6287 123.193 98.7768 123.252C98.3757 123.091 97.9808 122.914 97.5817 122.747C96.6396 122.353 95.6954 121.96 94.7471 121.584C87.6792 118.78 80.3727 116.99 72.7576 116.528C70.9824 116.42 69.2853 118.149 69.3635 119.885C69.4499 121.795 70.8548 123.126 72.7576 123.242L72.7535 123.246Z" fill="#232323"/>
<path d="M181.965 169.224C186.394 169.121 190.822 168.935 195.253 169.019C199.67 169.1 204.082 169.584 208.459 170.166C208.299 170.146 208.003 170.103 208.729 170.203C208.99 170.24 209.249 170.276 209.508 170.313C210.029 170.388 210.549 170.465 211.07 170.547C212.178 170.72 213.285 170.907 214.39 171.11C216.564 171.511 218.726 171.975 220.869 172.516C222.949 173.041 225.043 173.483 227.088 174.136C227.406 174.237 227.725 174.382 228.05 174.459C228.509 174.567 227.162 174.02 227.775 174.347C228.079 174.51 228.386 174.659 228.678 174.842C229.101 175.106 229.69 175.678 228.927 174.98C229.204 175.234 229.509 175.462 229.782 175.725C230.056 175.987 230.309 176.246 230.556 176.52C230.683 176.661 230.807 176.803 230.928 176.95C230.99 177.023 231.047 177.098 231.109 177.171C231.492 177.617 230.599 176.463 230.934 176.95C231.401 177.623 231.864 178.286 232.259 179.004C232.454 179.358 232.629 179.721 232.806 180.081C232.851 180.17 232.884 180.268 232.932 180.357C233.121 180.705 232.642 179.601 232.769 179.973C232.843 180.186 232.94 180.396 233.018 180.608C233.314 181.411 233.551 182.235 233.715 183.076C233.754 183.271 233.781 183.468 233.818 183.664C233.917 184.197 233.73 182.707 233.789 183.507C233.82 183.924 233.851 184.337 233.851 184.754C233.851 185.143 233.814 185.527 233.791 185.914C233.75 186.622 233.97 185.045 233.814 185.735C233.767 185.944 233.734 186.158 233.684 186.367C233.594 186.74 233.473 187.1 233.349 187.462C233.1 188.194 233.66 186.868 233.413 187.322C233.298 187.533 233.199 187.755 233.078 187.965C232.969 188.156 232.843 188.337 232.726 188.524C232.265 189.263 233.074 188.166 232.763 188.5C232.426 188.862 232.094 189.212 231.732 189.553C231.078 190.172 232.107 189.336 231.718 189.588C231.479 189.743 231.253 189.912 231.01 190.06C230.805 190.186 229.61 190.644 229.56 190.815C229.61 190.644 230.284 190.546 229.836 190.699C229.647 190.764 229.463 190.841 229.274 190.906C228.98 191.008 228.682 191.102 228.381 191.187C227.697 191.383 226.999 191.537 226.296 191.659C226.137 191.686 225.979 191.71 225.82 191.737C225.175 191.844 226.304 191.702 225.86 191.73C225.471 191.755 225.082 191.812 224.691 191.838C223.747 191.905 222.799 191.924 221.852 191.916C220.077 191.899 218.376 193.472 218.458 195.273C218.541 197.073 219.95 198.611 221.852 198.63C227.316 198.68 233.773 197.69 237.513 193.305C240.545 189.753 241.186 185.145 240.131 180.701C239.243 176.956 237.109 173.169 234.18 170.612C232.261 168.938 230.229 168.038 227.781 167.322C223.36 166.028 218.779 165.052 214.237 164.293C208.908 163.402 203.444 162.649 198.042 162.394C192.684 162.142 187.321 162.386 181.965 162.51C180.192 162.551 178.486 164.024 178.571 165.867C178.651 167.652 180.064 169.269 181.965 169.224Z" fill="#232323"/>
<path d="M149.515 227.573C136.692 221.886 123.844 216.261 110.996 210.631C98.5341 205.171 86.1056 199.635 73.6339 194.198C67.6685 191.598 61.5859 189.018 56.1245 185.458C54.6393 184.49 52.3046 185.118 51.4798 186.662C50.5808 188.343 51.1115 190.223 52.6975 191.256C57.548 194.418 62.9003 196.79 68.1951 199.118C74.0905 201.708 79.9818 204.308 85.8752 206.904C98.709 212.558 111.559 218.171 124.401 223.809C131.636 226.985 138.866 230.169 146.088 233.371C147.705 234.088 149.814 233.886 150.733 232.167C151.515 230.702 151.245 228.34 149.515 227.573Z" fill="#232323"/>
<path d="M148.841 234C173.683 233.933 196.767 223.524 219.83 215.681C226.58 213.386 233.337 211.118 240.037 208.684C241.699 208.08 243.005 206.379 242.406 204.554C241.878 202.941 240.016 201.561 238.23 202.21C226.485 206.477 214.567 210.263 202.821 214.532C191.575 218.619 180.249 222.664 168.504 225.119C166.875 225.459 165.241 225.768 163.6 226.041C162.717 226.187 161.833 226.32 160.946 226.45C159.708 226.631 161.572 226.379 160.329 226.533C159.949 226.58 159.568 226.627 159.187 226.672C155.752 227.066 152.298 227.276 148.839 227.284C147.063 227.288 145.362 228.824 145.444 230.641C145.527 232.458 146.936 234.004 148.839 233.998L148.841 234Z" fill="#232323"/>
<path d="M240.884 208.277C249.377 201.936 256.083 193.84 261.995 185.147C268.201 176.018 273.78 166.455 279.56 157.06C282.835 151.735 287.097 146.116 286.998 139.593C286.972 137.838 285.456 136.155 283.604 136.236C281.753 136.318 280.181 137.711 280.21 139.593C280.216 139.943 280.196 140.289 280.194 140.637C280.188 141.689 280.27 140.34 280.175 140.944C280.081 141.549 279.92 142.185 279.733 142.79C279.665 143.011 279.591 143.231 279.513 143.449C279.521 143.428 279.11 144.493 279.338 143.949C279.064 144.6 278.737 145.235 278.406 145.858C277.166 148.183 275.714 150.401 274.331 152.647C271.318 157.546 268.304 162.443 265.291 167.342C262.668 171.605 260.055 175.873 257.287 180.044C254.563 184.144 251.875 187.897 248.952 191.362C247.195 193.446 245.348 195.454 243.389 197.356C242.412 198.306 241.409 199.228 240.376 200.119C239.86 200.564 239.335 201.004 238.802 201.433C238.58 201.612 238.358 201.791 238.134 201.966C237.955 202.107 237.774 202.247 237.593 202.387C237.825 202.208 237.78 202.241 237.459 202.483C236.046 203.537 235.168 205.429 236.241 207.077C237.142 208.458 239.37 209.413 240.886 208.281L240.884 208.277Z" fill="#232323"/>
<path d="M285.85 136.804C278.116 130.69 267.539 128.017 258.284 132.387C253.642 134.58 249.9 138.432 246.288 141.964C242.653 145.52 239.117 149.176 235.657 152.899C231.732 157.123 227.902 161.436 224.187 165.841C223.052 167.188 222.753 169.287 224.187 170.588C225.442 171.727 227.773 172.028 228.986 170.588C235.238 163.18 241.787 156.008 248.639 149.137C250.283 147.489 251.947 145.858 253.636 144.254C255.219 142.751 257.083 141.058 258.509 140.063C259.426 139.422 260.387 138.837 261.39 138.338C261.602 138.232 261.816 138.133 262.032 138.035C261.462 138.295 262.413 137.888 262.437 137.878C262.933 137.697 263.439 137.538 263.949 137.402C264.46 137.266 264.972 137.154 265.49 137.062C265.696 137.026 265.906 136.991 266.113 136.963C265.447 137.05 266.142 136.973 266.309 136.959C267.413 136.865 268.526 136.865 269.631 136.948C269.843 136.965 270.053 136.987 270.264 137.005C271.079 137.079 269.892 136.918 270.626 137.054C271.258 137.172 271.885 137.284 272.511 137.439C273.609 137.709 274.681 138.059 275.734 138.468C276.306 138.692 275.031 138.137 275.966 138.568C276.261 138.702 276.555 138.837 276.845 138.979C277.378 139.239 277.9 139.518 278.414 139.815C278.929 140.112 279.431 140.421 279.922 140.749C280.101 140.869 280.278 140.989 280.453 141.113C280.628 141.237 280.801 141.361 280.973 141.49C280.712 141.286 280.737 141.306 281.047 141.551C282.432 142.645 284.513 142.987 285.846 141.551C286.976 140.334 287.327 137.974 285.846 136.804H285.85Z" fill="#232323"/>
<path d="M281.481 135.573C283.333 132.666 284.643 129.427 285.365 126.068C286.085 122.721 286.468 118.957 284.764 115.826C282.242 111.185 276.277 110.811 271.581 111.057C267.605 111.266 263.711 112.062 259.957 113.362C258.385 113.907 257.338 115.449 257.801 117.116C258.221 118.623 260.016 119.795 261.596 119.248C265.066 118.046 268.504 117.299 272.023 117.138C273.198 117.085 274.374 117.067 275.547 117.154C275.718 117.167 276.769 117.317 275.909 117.175C276.217 117.226 276.524 117.277 276.83 117.344C277.137 117.411 277.425 117.488 277.715 117.58C277.859 117.624 277.999 117.673 278.141 117.726C277.783 117.569 277.707 117.537 277.915 117.633C278.124 117.769 278.375 117.856 278.591 117.987C278.715 118.062 278.834 118.139 278.953 118.223C278.618 117.958 278.577 117.932 278.834 118.147C278.972 118.292 279.525 119.002 279.079 118.334C279.25 118.589 279.398 118.843 279.544 119.112C279.178 118.448 279.599 119.337 279.649 119.535C279.671 119.62 279.805 120.402 279.76 120.037C279.881 120.981 279.826 121.988 279.704 122.93C279.282 126.155 278.011 129.575 276.156 132.493C275.267 133.889 275.857 135.856 277.262 136.668C278.746 137.526 280.593 136.971 281.483 135.573H281.481Z" fill="#232323"/>
<path d="M251.054 116.518C245.228 114.436 238.496 113.871 232.52 115.69C226.545 117.508 222.184 121.409 217.537 125.109C208.2 132.544 199.351 140.544 190.253 148.256C185.149 152.582 179.963 156.816 174.59 160.81C173.259 161.798 172.572 163.446 173.484 164.984C174.251 166.28 176.366 167.076 177.705 166.079C187.317 158.934 196.36 151.113 205.402 143.282C209.767 139.502 214.143 135.736 218.615 132.08C222.957 128.53 227.112 124.768 232.105 122.332C233.039 121.877 231.625 122.493 232.59 122.121C232.901 122.001 233.211 121.887 233.526 121.781C234.267 121.531 235.022 121.321 235.785 121.15C237.231 120.829 238.566 120.731 240.137 120.725C243.365 120.715 246.29 121.289 249.412 122.406C250.933 122.949 252.858 121.795 253.208 120.273C253.603 118.556 252.681 117.102 251.052 116.52L251.054 116.518Z" fill="#232323"/>
<path d="M216.891 125.409C214.667 123.427 212.18 121.376 209.165 120.762C205.468 120.007 201.975 121.138 198.596 122.55C197.061 123.191 196.726 125.433 197.489 126.725C198.419 128.298 200.169 128.464 201.71 127.819C202.804 127.362 204.279 126.949 205.588 126.66C205.954 126.603 205.941 126.601 205.549 126.656C205.715 126.637 205.882 126.623 206.048 126.611C206.289 126.597 206.53 126.589 206.77 126.591C206.859 126.591 207.793 126.623 207.274 126.599C206.756 126.574 207.63 126.67 207.737 126.694C207.949 126.743 208.161 126.802 208.369 126.869C208.507 126.914 208.644 126.961 208.78 127.014C208.383 126.841 208.34 126.823 208.653 126.963C209.13 127.205 209.599 127.451 210.049 127.742C210.253 127.874 210.446 128.017 210.648 128.151C210.922 128.355 210.915 128.346 210.629 128.127C210.767 128.232 210.903 128.342 211.039 128.45C211.547 128.861 212.038 129.29 212.526 129.726C213.764 130.829 215.669 130.934 216.889 129.726C218.022 128.605 218.131 126.517 216.889 125.411L216.891 125.409Z" fill="#232323"/>
<path d="M53.5903 184.593C47.4768 183.985 41.4497 183.788 35.4741 185.432C28.8525 187.252 22.3729 189.714 15.8686 191.907C12.096 193.179 8.32141 194.451 4.54883 195.724C2.87236 196.29 1.59084 198.056 2.17915 199.854C2.71808 201.5 4.555 202.806 6.3549 202.198C12.8777 199.999 19.4026 197.799 25.9254 195.6C29.1385 194.518 32.3371 193.382 35.5831 192.398C37.1156 191.932 38.6686 191.496 40.2423 191.185C40.3924 191.155 40.5426 191.128 40.6927 191.102C40.7853 191.086 41.4271 190.982 41.0157 191.043C40.7154 191.088 41.5341 190.986 41.6842 190.972C42.4083 190.902 43.1365 190.862 43.8626 190.837C47.1106 190.734 50.3607 190.982 53.5903 191.303C55.3634 191.48 57.0605 189.633 56.9843 187.946C56.8959 185.977 55.4889 184.778 53.5903 184.589V184.593Z" fill="#232323"/>
<path d="M221.855 191.918C205.481 193.049 189.072 193.777 172.739 195.45C167.983 195.936 163.238 196.514 158.504 197.183C156.742 197.431 155.618 199.738 156.135 201.313C156.76 203.224 158.42 203.925 160.311 203.657C167.718 202.611 175.997 201.789 183.839 201.159C191.913 200.51 199.999 200.017 208.085 199.519C212.676 199.236 217.267 198.949 221.857 198.634C223.624 198.512 225.337 197.177 225.251 195.277C225.173 193.564 223.753 191.789 221.857 191.92L221.855 191.918Z" fill="#232323"/>
<path d="M159.882 197.186C144.185 192.464 129.391 188.026 114.24 181.638C110.203 179.936 106.211 178.105 102.307 176.085C100.915 175.366 98.9344 176.101 98.2606 177.774C97.5867 179.447 98.0646 181.42 99.5549 182.191C114.297 189.824 130.124 195.005 145.853 199.899C150.112 201.223 154.38 202.512 158.65 203.796C160.149 204.247 161.964 202.656 162.205 200.994C162.491 199.03 161.487 197.67 159.882 197.186Z" fill="#232323"/>
<path d="M70.8199 116.67C52.7078 119.409 34.785 123.341 17.2098 128.462C12.2812 129.899 7.38341 131.429 2.51444 133.046C0.833854 133.604 -0.441499 135.384 0.144752 137.176C0.685748 138.828 2.51855 140.12 4.3205 139.52C21.6838 133.75 39.4338 129.134 57.4245 125.726C62.4745 124.77 67.543 123.911 72.6259 123.142C74.3867 122.876 75.516 120.597 74.9956 119.012C74.3744 117.116 72.7082 116.381 70.8199 116.668V116.67Z" fill="#232323"/>
<path d="M181.091 165.762C178.659 165.399 176.228 165.037 173.796 164.673C173.408 164.616 173.241 165.204 173.632 165.261C176.063 165.623 178.495 165.985 180.926 166.35C181.315 166.407 181.481 165.819 181.091 165.762Z" fill="#232323"/>
<path d="M170.892 167.249C172.733 168.071 174.436 168.726 176.466 168.891C178.353 169.043 180.255 169.082 182.146 169.174C183.645 169.247 184.923 167.859 184.923 166.427C184.923 164.879 183.649 163.754 182.146 163.68C179.073 163.532 176.394 163.711 173.696 162.506C172.33 161.896 170.709 162.118 169.896 163.491C169.201 164.667 169.518 166.636 170.892 167.249Z" fill="#232323"/>
<path d="M198.596 122.55C192.972 125.927 187.998 130.249 183.189 134.66C180.813 136.839 178.464 139.048 176.055 141.19C174.909 142.21 173.749 143.215 172.566 144.193C171.962 144.694 171.351 145.186 170.731 145.669C170.608 145.764 170.485 145.86 170.361 145.955C170.701 145.695 170.287 146.01 170.242 146.045C169.911 146.291 169.577 146.539 169.242 146.781C166.436 148.808 163.456 150.592 160.261 151.953C158.731 152.604 158.387 154.83 159.154 156.128C160.08 157.693 161.839 157.878 163.376 157.223C175.17 152.201 183.658 141.982 193.254 133.933C193.953 133.345 194.661 132.767 195.379 132.2C196.183 131.563 196.335 131.445 197.183 130.829C198.647 129.76 200.157 128.755 201.712 127.821C203.136 126.967 203.67 125.085 202.819 123.647C201.967 122.208 200.027 121.693 198.598 122.552L198.596 122.55Z" fill="#232323"/>
<path d="M162.709 156.679C162.088 156.498 162.991 156.907 162.429 156.586C162.339 156.535 161.837 156.146 162.168 156.431C161.17 157.709 160.175 158.987 159.177 160.266C160.337 160.879 161.497 161.489 162.656 162.101L164.558 157.64C164.279 157.583 164.003 157.52 163.731 157.436C163.614 157.402 163.499 157.363 163.386 157.32C163.598 157.42 163.571 157.408 163.304 157.284C162.135 156.745 160.588 156.922 159.926 158.161C159.35 159.241 159.562 160.926 160.812 161.501C161.6 161.865 162.394 162.177 163.246 162.35C164.462 162.594 165.661 162.101 166.159 160.936C166.617 159.861 166.239 158.462 165.149 157.886C163.988 157.273 162.828 156.663 161.67 156.051C160.576 155.475 159.251 155.699 158.486 156.679C157.782 157.581 157.745 159.088 158.679 159.886C159.502 160.588 160.348 161.086 161.397 161.391C162.635 161.752 164.141 160.958 164.433 159.686C164.725 158.415 164.036 157.068 162.709 156.683V156.679Z" fill="#232323"/>
<path d="M200.682 168.51C208.149 164.588 215.007 159.524 221.554 154.26C228.367 148.781 234.046 142.173 240.444 136.253C244.089 132.879 247.964 129.602 251.877 126.635C253.197 125.634 253.899 124.009 252.983 122.46C252.222 121.175 250.093 120.357 248.762 121.366C241.516 126.859 234.838 132.9 228.507 139.398C225.454 142.533 222.391 145.668 219.012 148.464C215.834 151.093 212.898 153.355 209.564 155.729C205.721 158.464 201.753 161.046 197.569 163.243C196.099 164.016 195.646 166.036 196.463 167.418C197.333 168.891 199.207 169.287 200.684 168.512L200.682 168.51Z" fill="#232323"/>
<path d="M252.911 125.94C253.946 124.855 254.981 123.765 256.096 122.76C256.359 122.524 256.626 122.292 256.898 122.066C256.982 121.997 257.85 121.327 257.35 121.698C257.931 121.268 258.525 120.861 259.128 120.467C259.477 120.239 259.821 120.023 260.195 119.84C260.409 119.736 260.625 119.639 260.843 119.541C260.996 119.474 261.89 119.101 261.107 119.421C261.588 119.226 262.071 119.032 262.563 118.863C262.795 118.784 263.036 118.725 263.266 118.646C263.359 118.621 263.454 118.599 263.548 118.581C263.125 118.693 262.701 118.688 262.277 118.564C263.857 118.861 265.681 118.129 266.072 116.432C266.418 114.929 265.614 112.996 263.916 112.678C262.479 112.408 261.205 112.841 259.891 113.362C258.79 113.797 257.632 114.223 256.604 114.817C253.529 116.591 250.972 119.083 248.546 121.622C247.403 122.821 247.345 124.749 248.546 125.938C249.748 127.126 251.762 127.14 252.909 125.938L252.911 125.94Z" fill="#232323"/>
<defs>
<clipPath id="clip0_2410_11705">
<rect width="119" height="111" fill="white" transform="translate(100)"/>
</clipPath>
</defs>
</svg>
