<svg width="108" height="78" viewBox="0 0 108 78" fill="none" xmlns="http://www.w3.org/2000/svg">
<g clip-path="url(#clip0_1562_4286)">
<path d="M25.033 4.31322C23.8664 2.68246 22.5811 5.55601 22.4361 6.12809C21.5464 9.65262 30.5826 14.9065 35.5456 17.1949C39.9616 19.2333 43.8503 20.1605 46.3021 20.6208L49.0769 18.944C49.0769 18.944 39.5925 15.5904 35.8818 13.2955C32.6522 11.2965 27.1487 7.27882 25.033 4.31322Z" fill="#D52122"/>
<path d="M2.04959 17.8993C0.64571 17.5442 -0.290211 18.3727 0.0788845 19.3393C0.44798 20.3059 3.65779 21.6539 3.65779 21.6539C3.65779 21.6539 7.24329 24.2382 8.97672 26.3292C10.7102 28.4202 14.0122 34.4304 14.0122 34.4304C14.0122 34.4304 17.2023 40.6443 19.1862 47.917C19.1862 47.917 21.7698 51.6453 23.1474 52.3095C24.5249 52.9736 25.1247 51.1259 25.1247 51.1259C25.1247 51.1259 21.2096 46.878 19.6014 42.0055C17.9932 37.1329 16.1477 32.3985 16.1477 32.3985C16.1477 32.3985 9.66219 19.8325 2.043 17.8993H2.04959Z" fill="#D52122"/>
<path d="M24.6108 50.7241C21.7437 52.539 19.5357 55.9254 19.7598 59.4105C19.8784 61.2582 20.7419 63.0797 22.3896 64.0332C23.8528 64.8814 25.7444 64.9274 27.3197 64.3619C29.0399 63.7504 30.424 62.5602 31.6631 61.2517C32.8297 60.0155 34.0227 58.7266 34.8664 57.2471C35.855 55.5112 36.2307 53.5516 35.888 51.5789C35.7364 50.711 35.453 49.7443 34.7807 49.1262C34.0095 48.4161 32.9747 48.3108 31.9663 48.2517C29.9231 48.1267 28.216 49.2643 26.3903 50.0271C24.6767 50.7373 22.5807 51.6447 21.7107 53.4004C21.3548 54.1171 21.5196 54.9983 22.2446 55.4257C22.8971 55.8071 23.9187 55.6164 24.2746 54.893C24.7228 53.979 25.8762 53.4924 26.799 53.0519C27.3988 52.7691 28.0249 52.539 28.6379 52.2759C29.3036 51.9932 29.9297 51.6118 30.602 51.3488C31.1161 51.1449 31.65 51.1778 32.1904 51.2239C32.3816 51.237 32.6452 51.2239 32.8166 51.3225C32.8759 51.3619 32.6782 51.1778 32.7309 51.2567C32.8297 51.408 32.8627 51.625 32.9088 51.8025C33.212 52.9861 33.0736 54.2815 32.5134 55.3731C31.9531 56.4646 31.1359 57.4378 30.2922 58.3715C29.4486 59.3053 28.6049 60.2719 27.5504 60.9558C25.8828 62.0407 23.4112 62.2446 22.8114 59.9102C22.1655 57.3786 24.0505 54.5708 26.1069 53.2689C27.7151 52.2496 26.2256 49.6917 24.6108 50.711V50.7241Z" fill="#D52122"/>
<path d="M44.852 20.1612C41.6158 23.1794 38.3928 26.2174 35.1962 29.275C33.621 30.7808 31.848 32.2209 30.5298 33.9569C29.9761 34.6867 29.4818 35.4627 28.9348 36.2057C28.3548 36.9948 27.9066 37.8628 27.6693 38.8162C27.1816 40.8021 27.5968 42.7813 29.4686 43.8663C30.2925 44.3398 31.2548 44.5568 32.1841 44.7343C33.3178 44.9447 34.3921 45.017 35.4796 44.5568C36.3694 44.1754 37.134 43.5638 37.9249 43.0049C38.8872 42.3276 39.8494 41.6569 40.8117 40.9796C42.5913 39.7302 44.3643 38.4677 46.1043 37.1592C49.2482 34.7985 52.6096 31.2937 56.7487 30.9649C57.5463 30.8992 58.2317 30.3271 58.2317 29.4854C58.2317 28.7358 57.5528 27.9402 56.7487 28.0059C53.1369 28.2887 50.2105 30.2482 47.4291 32.4116C44.4302 34.7394 41.3786 36.9751 38.2676 39.1516C37.4767 39.7039 36.6858 40.2629 35.9014 40.8152C35.1632 41.3347 34.4316 42.0186 33.4825 41.9528C32.7641 41.9002 31.8809 41.7227 31.2152 41.4333C30.5496 41.144 30.3584 40.7166 30.4507 39.9933C30.5496 39.2239 30.8989 38.5401 31.3405 37.9154C31.8612 37.1723 32.3753 36.3964 32.9157 35.6797C34.0296 34.2067 35.6048 32.9771 36.9362 31.7014C40.2515 28.532 43.5865 25.3822 46.9414 22.2523C48.3386 20.9503 46.2361 18.8592 44.8454 20.1612H44.852Z" fill="#D52122"/>
<path d="M56.5835 30.7676C59.8263 31.4975 62.2979 33.799 64.6443 36.0149C67.2412 38.4611 69.8051 40.9532 72.1383 43.6558C74.4715 46.3584 76.6663 49.1925 77.9911 52.3817C78.4986 53.5981 79.0193 55.5906 78.0504 56.7413C77.6483 57.2213 76.7783 57.1424 76.1851 57.0766C75.3415 56.9846 74.511 56.669 73.7663 56.2744C73.6476 56.2152 73.5488 56.1561 73.4367 56.0969C73.1994 55.9654 73.641 56.2744 73.4038 56.0771C73.1994 55.9062 73.0017 55.7221 72.8106 55.5379C72.3426 55.0908 71.901 54.6239 71.4594 54.1571C70.7805 53.4403 70.1412 52.6776 69.436 51.9805C68.0782 50.6391 65.9757 52.7302 67.34 54.0716C68.8626 55.5774 70.161 57.5698 72.0196 58.6877C73.8783 59.8055 76.027 60.2724 78.1163 59.9305C80.2057 59.5885 81.2932 57.4909 81.5041 55.4985C81.715 53.5061 80.9043 51.4085 79.942 49.6133C78.9797 47.8182 77.7604 45.9901 76.4817 44.3068C74.0035 41.0584 71.1694 38.1191 68.2232 35.2982C65.0859 32.2931 61.7772 28.887 57.381 27.9006C55.5224 27.4798 54.7315 30.3336 56.5901 30.7544L56.5835 30.7676Z" fill="#D52122"/>
<path d="M105.746 16.7485C101.053 19.0894 98.43 23.883 96.2154 28.4005C94.8115 31.274 93.434 34.1542 92.0367 37.0277C90.6394 39.9012 89.3871 42.5118 87.6603 45.0237C85.9334 47.5355 83.6859 49.7186 80.8716 51.0009C80.14 51.3362 79.962 52.3818 80.3377 53.0262C80.7727 53.7758 81.6361 53.8876 82.3677 53.5588C87.7657 51.0929 90.969 45.8325 93.5131 40.7298C94.9236 37.8957 96.2813 35.0419 97.6588 32.1946C98.8452 29.7419 99.9986 27.2498 101.455 24.9417C102.912 22.6337 104.744 20.5492 107.242 19.3064C108.949 18.4516 107.446 15.9002 105.746 16.7485Z" fill="#D52122"/>
<path d="M92.6763 0.170879C91.1801 0.9205 90.2574 2.39344 89.1633 3.60335C88.0692 4.81327 86.9026 5.94427 85.6305 6.95034C83.2775 8.81782 80.3907 10.3105 77.3522 10.5669C75.4475 10.7247 73.5427 10.4815 71.6444 10.2973C69.7462 10.1132 67.8678 10.0343 65.963 10.2053C62.2589 10.5341 58.6602 11.5138 55.2197 12.9013C53.3413 13.6575 51.4365 14.4531 49.7953 15.6499C49.0308 16.2088 48.3387 16.8269 47.6928 17.5239C47.0469 18.221 46.4866 18.8785 45.6957 19.352C44.0546 20.3252 45.5441 22.8831 47.1919 21.9099C48.6419 21.0485 49.5778 19.6873 50.8235 18.5958C52.0692 17.5042 53.7038 16.7414 55.2461 16.0773C58.5877 14.6438 62.1732 13.526 65.8114 13.184C67.6503 13.0131 69.4826 13.0525 71.3215 13.2301C73.2724 13.4142 75.2234 13.6838 77.1875 13.5457C80.4368 13.309 83.5016 12.0728 86.1644 10.225C87.7067 9.15318 89.1369 7.91696 90.442 6.56896C91.0483 5.94427 91.6349 5.28671 92.1952 4.62257C92.7884 3.91898 93.3222 3.16279 94.1659 2.74195C95.8729 1.88712 94.3702 -0.664225 92.6697 0.18403L92.6763 0.170879Z" fill="#D52122"/>
<path d="M71.7364 58.4437C72.0396 59.1736 72.323 59.9166 72.5207 60.6794C72.5603 60.824 72.5932 60.9687 72.6196 61.1134C72.6328 61.1725 72.6987 61.5473 72.6723 61.3764C72.646 61.2054 72.6921 61.6065 72.6921 61.6591C72.6987 61.7841 72.6987 61.909 72.6921 62.0339C72.6921 62.1326 72.6723 62.2312 72.6723 62.3233C72.6723 62.4153 72.7514 62.0011 72.6723 62.2772C72.6526 62.3562 72.6328 62.4351 72.613 62.514C72.5207 62.8493 72.6525 62.4877 72.6394 62.4811C72.6657 62.514 72.4614 62.8099 72.435 62.8493C72.4219 62.8691 72.3164 63.0006 72.323 63.0137C72.2966 62.9677 72.5866 62.7047 72.3691 62.9414C72.1978 63.1387 72.0198 63.3293 71.8485 63.52C71.7694 63.6121 71.6903 63.7042 71.6046 63.7896C71.4728 63.9277 71.4728 63.9277 71.4134 63.9672C71.0839 64.1973 70.985 64.2302 70.6753 64.3091C70.1282 64.4604 69.6339 64.4538 69.1066 64.3223C68.3882 64.1513 67.7818 63.8225 67.1623 63.4148C65.5475 62.3562 64.1172 60.949 62.7463 59.5944C61.3754 58.2398 59.2926 60.344 60.6504 61.6854C62.1136 63.1321 63.6558 64.5656 65.3497 65.7492C67.0436 66.9328 68.8957 67.5706 70.9059 67.2681C72.3428 67.0511 73.3578 66.2489 74.3003 65.21C74.9199 64.5195 75.4208 63.7633 75.5724 62.8362C75.869 61.0542 75.2692 59.2656 74.5837 57.6349C74.2739 56.8984 73.6017 56.3723 72.758 56.6025C72.0594 56.7932 71.4134 57.6809 71.7232 58.4239L71.7364 58.4437Z" fill="#D52122"/>
<path d="M65.3428 65.3152C65.4087 65.8807 65.5076 66.512 65.4351 67.0643C65.4219 67.1498 65.3955 67.2682 65.3692 67.3602C65.356 67.3997 65.2374 67.7284 65.2835 67.6167C65.2505 67.6956 65.1714 67.8271 65.0792 67.8994C64.7628 68.1624 65.1648 67.8863 64.9473 67.9849C64.8419 68.0375 64.9803 67.998 64.776 68.0441C64.7364 68.0507 64.3805 68.1296 64.4926 68.1098C64.5848 68.0967 64.1564 68.1427 64.1762 68.1361C63.6489 68.169 63.0425 68.1493 62.568 68.077C61.9616 67.9849 61.3684 67.8402 60.7752 67.689C60.5643 67.6364 60.2348 67.5509 60.0964 67.4917C60.1161 67.4983 59.8723 67.3668 59.813 67.3339L59.668 67.2418C59.7471 67.3076 59.7536 67.3076 59.6746 67.2418C58.9627 66.6303 58.3629 65.7295 57.7698 64.8812C57.3084 64.2302 56.4713 63.9212 55.7397 64.3486C55.0938 64.73 54.7445 65.7163 55.2059 66.3739C55.6211 66.9657 56.122 67.5575 56.4779 68.0506C56.9327 68.6753 57.3941 69.2408 58.0268 69.7011C59.3055 70.6283 61.1905 70.8979 62.7262 71.0623C64.2619 71.2267 66.1008 71.1083 67.2146 69.9379C68.4208 68.6688 68.4801 66.9525 68.289 65.3086C68.1967 64.513 67.6694 63.8291 66.806 63.8291C66.0744 63.8291 65.2308 64.5064 65.323 65.3086L65.3428 65.3152Z" fill="#D52122"/>
<path d="M59.9058 70.0039C59.9453 70.6286 59.9651 71.2599 59.9124 71.8845C59.9124 71.9569 59.8992 72.0226 59.8926 72.095C59.9255 71.8714 59.9321 71.8385 59.9058 71.9963C59.886 72.0884 59.8728 72.1739 59.853 72.2659C59.8135 72.4501 59.7542 72.6144 59.7015 72.792C59.629 73.0484 59.8662 72.4829 59.741 72.6868C59.6949 72.7591 59.6619 72.8314 59.6158 72.9038C59.5894 72.9498 59.5367 73.0024 59.5169 73.0484C59.6883 72.6802 59.7015 72.838 59.5696 72.9629C59.4839 73.0419 59.3983 73.1142 59.3126 73.1931C59.2203 73.2786 59.6751 72.9366 59.4246 73.101C59.3719 73.1339 59.3258 73.1734 59.273 73.2062C59.2005 73.2523 58.8117 73.4824 59.0687 73.3706C58.9764 73.4101 58.5019 73.4627 58.8183 73.4561C58.6798 73.4561 58.548 73.4561 58.4096 73.4561C58.2317 73.4364 58.2251 73.443 58.3898 73.4561C58.2976 73.4364 58.2053 73.4232 58.113 73.3969C57.9746 73.3641 57.8362 73.3246 57.7044 73.2852C57.388 73.1865 57.0848 73.0682 56.7816 72.9432C57.0387 73.0484 56.663 72.8906 56.6103 72.8643C56.4389 72.7854 56.2675 72.7065 56.0962 72.6144C55.7996 72.4632 55.5096 72.2988 55.2328 72.1213C55.1141 72.0424 54.9955 71.9635 54.8768 71.8845C54.7384 71.7793 54.7253 71.7728 54.8373 71.8648C54.7648 71.8056 54.6923 71.7465 54.6198 71.6873C54.3693 71.4769 54.1387 71.2401 53.9146 70.9968C53.3939 70.4182 52.3393 70.4313 51.8186 70.9968C51.2518 71.6149 51.265 72.4698 51.8186 73.0879C52.6557 74.0216 53.7234 74.7515 54.8571 75.2907C55.9907 75.8299 57.3485 76.4349 58.6798 76.4086C60.4594 76.3757 62.0281 75.1132 62.5949 73.4627C62.9706 72.3711 62.9376 71.1284 62.8651 69.9908C62.819 69.2214 62.2192 68.4718 61.3822 68.5113C60.6176 68.5441 59.8465 69.1622 59.8992 69.9908L59.9058 70.0039Z" fill="#D52122"/>
<path d="M53.1036 72.4433C53.8022 70.9375 54.3229 69.3659 54.0659 67.6825C53.8682 66.3871 53.13 65.1443 52.0095 64.4342C49.4786 62.8363 46.3544 64.6906 44.6144 66.6107C42.8744 68.5308 41.6023 71.1347 41.5496 73.6926C41.5232 75.159 42.1823 76.553 43.4544 77.3224C44.5485 77.9931 45.9062 78.1312 47.1453 77.8616C48.5756 77.546 49.8279 76.553 50.7704 75.4812C51.8381 74.2647 52.7543 72.897 53.5716 71.5095C54.5404 69.8656 51.9765 68.373 51.0077 70.0169C50.4277 71.0098 49.7949 71.9896 49.0831 72.897C48.9381 73.0877 48.5756 73.5085 48.3185 73.7716C47.9758 74.1266 47.7451 74.3371 47.3826 74.5672C46.9937 74.8105 46.8487 74.8828 46.4137 75.0012C46.3742 75.0143 46.0842 75.067 46.2556 75.0407C46.4269 75.0143 46.1303 75.0406 46.0908 75.0472C45.9919 75.0472 45.8996 75.0472 45.8008 75.0472C45.6953 75.0472 45.4778 75.0078 45.6953 75.0472C45.5108 75.0143 45.3262 74.9683 45.1483 74.9026C45.3658 74.9815 44.9637 74.7974 44.878 74.7447C45.0692 74.8631 44.8978 74.7645 44.8517 74.725C44.7858 74.6593 44.7199 74.6001 44.6605 74.5277C44.8121 74.7119 44.6605 74.5278 44.6474 74.4883C44.4892 74.0543 44.6869 74.7579 44.5419 74.2121C44.4694 73.9359 44.4958 73.4888 44.5485 73.1798C44.6276 72.7063 44.766 72.2329 44.9242 71.7791C45.1878 70.9901 45.5371 70.2931 46.0578 69.5237C46.8422 68.3598 48.3713 66.8606 49.8213 66.8014C50.1904 66.7882 50.3815 66.8737 50.6122 67.1039C50.8429 67.334 51.0143 67.6562 51.0999 68.0113C51.1856 68.3401 51.2054 68.7281 51.1131 69.2278C51.0011 69.8262 50.7836 70.4048 50.5265 70.9506C50.1904 71.6739 50.3222 72.5419 51.0604 72.9759C51.6997 73.3507 52.7543 73.1732 53.0904 72.4433H53.1036Z" fill="#D52122"/>
<path d="M49.1291 65.8875C49.2873 64.5855 49.3268 63.2573 48.7402 62.0539C48.1866 60.9295 47.0595 60.1339 45.8533 59.8511C43.2565 59.2527 40.7849 60.7257 38.8537 62.3104C37.0741 63.7768 35.5912 65.7889 35.0441 68.0509C34.7343 69.3266 34.6487 70.7403 35.143 71.9765C35.6373 73.2128 36.6391 74.1597 37.786 74.8435C39.0053 75.5734 40.3828 75.9351 41.7274 75.3761C42.7094 74.9619 43.8892 74.2912 44.3901 73.3114C44.7526 72.6012 44.5747 71.707 43.8563 71.2861C43.1972 70.8981 42.1888 71.102 41.8262 71.8187C41.7274 72.016 42.0174 71.6872 41.7999 71.8779C41.6944 71.97 41.5956 72.0752 41.4835 72.1672C41.6087 72.0686 41.299 72.279 41.2594 72.3053C41.0946 72.4105 40.9299 72.5026 40.7585 72.5881C40.686 72.6275 40.6201 72.6604 40.5476 72.6933C40.574 72.6801 40.719 72.6275 40.5674 72.6801C40.4949 72.7064 40.139 72.7656 40.3631 72.7525C40.5871 72.7393 40.1653 72.6999 40.073 72.6736C39.8621 72.6144 39.6776 72.5223 39.4799 72.4171C38.8933 72.0949 38.2342 71.6543 37.931 71.0297C37.6278 70.405 37.7332 69.537 37.898 68.8597C38.2737 67.3276 39.1964 66.0256 40.3367 64.9538C41.4044 63.9543 42.9204 62.7838 44.4363 62.6918C45.0295 62.6523 45.7018 62.8036 46.0247 63.2967C46.4927 64.0069 46.2554 65.1182 46.1565 65.9138C46.0577 66.7095 46.9079 67.3933 47.6395 67.3933C48.5227 67.3933 49.0236 66.7095 49.1225 65.9138L49.1291 65.8875Z" fill="#D52122"/>
<path d="M42.0639 63.5472C43.0328 62.3702 43.7578 61.009 43.6655 59.4374C43.5996 58.2999 43.1448 57.2149 42.5055 56.2746C41.5432 54.8608 40.2185 54.0915 38.4784 54.1572C36.9625 54.2164 35.4795 54.6767 34.1613 55.4197C31.4129 56.9716 29.6201 59.6544 28.4799 62.5214C27.9065 63.9615 27.4649 65.5725 28.0515 67.0783C28.5919 68.4592 29.7388 69.531 31.169 69.9584C32.9618 70.4976 34.7347 69.7086 36.132 68.6104C37.3052 67.6964 38.1687 66.3024 39.4934 65.6054C41.1807 64.7177 39.6846 62.1597 37.9973 63.0475C36.132 64.0272 35.1302 66.2235 33.1529 67.006C32.3752 67.315 31.7161 67.1704 31.1756 66.5983C30.9713 66.3813 30.8065 66.1051 30.7472 65.7829C30.6813 65.4213 30.8131 64.8229 30.9581 64.3626C31.604 62.311 32.7179 60.3317 34.3393 58.8982C35.0841 58.2407 35.9804 57.7146 36.9295 57.4121C37.6677 57.182 38.9003 56.8269 39.5791 57.3398C39.8494 57.5437 40.0537 57.9185 40.225 58.2144C40.3305 58.3919 40.4294 58.576 40.515 58.7667C40.6139 58.9837 40.4491 58.5826 40.5282 58.8128C40.5678 58.9311 40.6073 59.0429 40.6403 59.1613C40.6666 59.2599 40.6864 59.3585 40.7062 59.4506C40.6798 59.2862 40.7062 59.4309 40.7062 59.5163C40.7062 59.6216 40.7062 59.7268 40.7062 59.832C40.6864 60.2988 40.7391 59.7465 40.6864 60.0161C40.581 60.5553 40.3173 61.0287 39.968 61.4496C39.4605 62.0677 39.3616 62.9357 39.968 63.5406C40.4887 64.0601 41.5564 64.1653 42.0639 63.5406V63.5472Z" fill="#D52122"/>
</g>
<defs>
<clipPath id="clip0_1562_4286">
<rect width="108" height="78" fill="white"/>
</clipPath>
</defs>
</svg>
