<svg width="67" height="49" viewBox="0 0 67 49" fill="none" xmlns="http://www.w3.org/2000/svg">
<g clip-path="url(#clip0_1593_15125)">
<path d="M15.5298 2.71029C14.8061 1.68584 14.0087 3.49102 13.9188 3.8504C13.3668 6.06453 18.9726 9.36507 22.0515 10.8026C24.7911 12.0832 27.2035 12.6656 28.7245 12.9548L30.4459 11.9014C30.4459 11.9014 24.5621 9.79467 22.2601 8.35301C20.2565 7.09724 16.8423 4.57329 15.5298 2.71029Z" fill="#232323"/>
<path d="M1.27174 11.2441C0.400814 11.021 -0.179803 11.5415 0.0491727 12.1487C0.278149 12.756 2.26942 13.6028 2.26942 13.6028C2.26942 13.6028 4.49376 15.2262 5.56913 16.5398C6.6445 17.8534 8.69302 21.629 8.69302 21.629C8.69302 21.629 10.672 25.5326 11.9028 30.1013C11.9028 30.1013 13.5056 32.4435 14.3602 32.8607C15.2147 33.278 15.5868 32.1172 15.5868 32.1172C15.5868 32.1172 13.158 29.4487 12.1604 26.3877C11.1627 23.3268 10.0178 20.3526 10.0178 20.3526C10.0178 20.3526 5.99437 12.4585 1.26765 11.2441H1.27174Z" fill="#232323"/>
<path d="M15.2681 31.8648C13.4895 33.0049 12.1197 35.1323 12.2587 37.3217C12.3323 38.4824 12.868 39.6267 13.8902 40.2256C14.7979 40.7585 15.9714 40.7874 16.9487 40.4322C18.0159 40.048 18.8745 39.3003 19.6432 38.4783C20.3669 37.7017 21.107 36.892 21.6304 35.9626C22.2437 34.8721 22.4768 33.6411 22.2642 32.4018C22.1701 31.8566 21.9943 31.2493 21.5772 30.861C21.0988 30.4149 20.4569 30.3488 19.8313 30.3116C18.5638 30.2331 17.5047 30.9478 16.3721 31.4269C15.309 31.8731 14.0088 32.4431 13.469 33.5461C13.2482 33.9963 13.3505 34.5499 13.8002 34.8184C14.205 35.058 14.8388 34.9382 15.0596 34.4838C15.3377 33.9096 16.0532 33.6039 16.6256 33.3271C16.9977 33.1495 17.3862 33.0049 17.7664 32.8397C18.1794 32.6621 18.5678 32.4225 18.9849 32.2572C19.3038 32.1292 19.635 32.1498 19.9703 32.1788C20.0889 32.187 20.2525 32.1788 20.3588 32.2407C20.3956 32.2655 20.2729 32.1498 20.3056 32.1994C20.3669 32.2944 20.3874 32.4307 20.416 32.5423C20.6041 33.2858 20.5182 34.0996 20.1707 34.7853C19.8231 35.471 19.3161 36.0824 18.7927 36.669C18.2694 37.2556 17.746 37.8628 17.0918 38.2924C16.0573 38.974 14.524 39.102 14.1519 37.6356C13.7512 36.0452 14.9206 34.2814 16.1963 33.4635C17.194 32.8232 16.2699 31.2163 15.2681 31.8566V31.8648Z" fill="#232323"/>
<path d="M27.825 12.6655C25.8174 14.5616 23.8179 16.47 21.8348 18.3909C20.8576 19.3369 19.7577 20.2415 18.9399 21.332C18.5965 21.7906 18.2898 22.278 17.9504 22.7448C17.5906 23.2405 17.3126 23.7858 17.1654 24.3847C16.8628 25.6322 17.1204 26.8756 18.2816 27.5572C18.7927 27.8546 19.3897 27.991 19.9662 28.1025C20.6695 28.2347 21.336 28.2801 22.0107 27.991C22.5627 27.7514 23.037 27.3672 23.5276 27.0161C24.1246 26.5906 24.7216 26.1693 25.3185 25.7438C26.4225 24.9589 27.5224 24.1658 28.6019 23.3438C30.5523 21.8608 32.6376 19.6591 35.2054 19.4525C35.7001 19.4112 36.1254 19.0518 36.1254 18.5231C36.1254 18.0522 35.7042 17.5523 35.2054 17.5936C32.9647 17.7713 31.1493 19.0023 29.4238 20.3613C27.5633 21.8236 25.6702 23.2281 23.7402 24.5954C23.2496 24.9424 22.7589 25.2935 22.2723 25.6405C21.8144 25.9668 21.3605 26.3965 20.7717 26.3551C20.326 26.3221 19.7781 26.2106 19.3652 26.0288C18.9522 25.847 18.8336 25.5785 18.8909 25.1242C18.9522 24.6408 19.1689 24.2112 19.4429 23.8188C19.7659 23.352 20.0848 22.8646 20.4201 22.4143C21.1111 21.489 22.0883 20.7165 22.9143 19.9152C24.971 17.9241 27.04 15.9454 29.1212 13.9792C29.988 13.1612 28.6837 11.8476 27.8209 12.6655H27.825Z" fill="#232323"/>
<path d="M35.1026 19.3285C37.1143 19.7871 38.6477 21.2329 40.1033 22.625C41.7143 24.1616 43.3049 25.7272 44.7523 27.425C46.1998 29.1228 47.5614 30.9032 48.3832 32.9066C48.6981 33.6708 49.0211 34.9225 48.42 35.6454C48.1706 35.9469 47.6309 35.8973 47.2629 35.856C46.7395 35.7982 46.2243 35.5999 45.7623 35.3521C45.6887 35.3149 45.6273 35.2777 45.5578 35.2405C45.4106 35.1579 45.6846 35.3521 45.5374 35.2281C45.4106 35.1207 45.288 35.0051 45.1694 34.8894C44.8791 34.6085 44.6051 34.3152 44.3312 34.0219C43.91 33.5717 43.5134 33.0925 43.0759 32.6546C42.2336 31.8119 40.9293 33.1255 41.7756 33.9682C42.7202 34.9142 43.5257 36.1658 44.6787 36.8681C45.8318 37.5703 47.1648 37.8636 48.4609 37.6488C49.7571 37.434 50.4318 36.1163 50.5626 34.8646C50.6934 33.613 50.1905 32.2952 49.5935 31.1675C48.9966 30.0398 48.2401 28.8914 47.4469 27.8339C45.9095 25.7933 44.1513 23.9468 42.3236 22.1747C40.3773 20.2869 38.3247 18.1471 35.5974 17.5275C34.4443 17.2631 33.9537 19.0559 35.1067 19.3203L35.1026 19.3285Z" fill="#232323"/>
<path d="M65.6019 10.5211C62.6906 11.9917 61.0632 15.003 59.6894 17.8409C58.8184 19.6461 57.9639 21.4554 57.097 23.2606C56.2302 25.0658 55.4533 26.7057 54.382 28.2837C53.3108 29.8617 51.9165 31.2331 50.1705 32.0386C49.7167 32.2493 49.6063 32.9061 49.8393 33.3109C50.1092 33.7818 50.6448 33.8521 51.0987 33.6455C54.4475 32.0965 56.4346 28.7918 58.0129 25.5863C58.888 23.8059 59.7303 22.0131 60.5848 20.2244C61.3208 18.6836 62.0364 17.118 62.94 15.6681C63.8436 14.2182 64.9804 12.9087 66.53 12.128C67.589 11.591 66.6568 9.9882 65.6019 10.5211Z" fill="#232323"/>
<path d="M57.4935 0.107547C56.5653 0.578463 55.9929 1.50377 55.3142 2.26384C54.6354 3.02392 53.9117 3.73442 53.1225 4.36644C51.6628 5.5396 49.8719 6.4773 47.9869 6.6384C46.8052 6.73754 45.6236 6.5847 44.446 6.46904C43.2684 6.35337 42.1031 6.3038 40.9214 6.41121C38.6234 6.61775 36.3909 7.23324 34.2565 8.10485C33.0912 8.5799 31.9095 9.07973 30.8914 9.83154C30.4171 10.1827 29.9878 10.571 29.5871 11.0088C29.1864 11.4467 28.8388 11.8598 28.3481 12.1572C27.33 12.7686 28.2541 14.3755 29.2763 13.7641C30.1759 13.223 30.7565 12.3679 31.5293 11.6822C32.3021 10.9964 33.3161 10.5173 34.2729 10.1C36.346 9.19952 38.5703 8.49728 40.8273 8.28248C41.9681 8.17507 43.1048 8.19986 44.2456 8.31139C45.4559 8.42706 46.6662 8.59642 47.8847 8.50967C49.9005 8.36096 51.8018 7.58436 53.4537 6.4236C54.4105 5.75027 55.2978 4.97367 56.1074 4.12685C56.4836 3.73442 56.8475 3.32134 57.195 2.90412C57.563 2.46213 57.8942 1.98708 58.4176 1.72271C59.4766 1.1857 58.5444 -0.417069 57.4894 0.115809L57.4935 0.107547Z" fill="#232323"/>
<path d="M44.5028 36.7154C44.6909 37.1739 44.8667 37.6407 44.9894 38.1199C45.0139 38.2107 45.0344 38.3016 45.0507 38.3925C45.0589 38.4297 45.0998 38.6651 45.0834 38.5577C45.0671 38.4503 45.0957 38.7023 45.0957 38.7353C45.0998 38.8138 45.0998 38.8923 45.0957 38.9708C45.0957 39.0328 45.0834 39.0947 45.0834 39.1526C45.0834 39.2104 45.1325 38.9502 45.0834 39.1236C45.0712 39.1732 45.0589 39.2228 45.0466 39.2724C44.9894 39.483 45.0712 39.2558 45.063 39.2517C45.0794 39.2724 44.9526 39.4582 44.9363 39.483C44.9281 39.4954 44.8627 39.578 44.8667 39.5863C44.8504 39.5574 45.0303 39.3922 44.8954 39.5409C44.7891 39.6648 44.6787 39.7846 44.5723 39.9044C44.5233 39.9622 44.4742 40.02 44.4211 40.0737C44.3393 40.1605 44.3393 40.1605 44.3025 40.1853C44.098 40.3299 44.0367 40.3505 43.8445 40.4001C43.5052 40.4951 43.1985 40.491 42.8714 40.4083C42.4257 40.3009 42.0495 40.0944 41.6652 39.8383C40.6634 39.1732 39.7761 38.2892 38.9256 37.4383C38.0751 36.5873 36.7831 37.9092 37.6254 38.7519C38.5331 39.6607 39.4899 40.5612 40.5407 41.3047C41.5916 42.0483 42.7405 42.449 43.9876 42.259C44.879 42.1226 45.5087 41.6187 46.0934 40.966C46.4777 40.5323 46.7885 40.0572 46.8825 39.4748C47.0665 38.3553 46.6945 37.2317 46.2692 36.2073C46.077 35.7446 45.66 35.4142 45.1366 35.5587C44.7032 35.6785 44.3025 36.2362 44.4947 36.703L44.5028 36.7154Z" fill="#232323"/>
<path d="M40.5366 41.0312C40.5775 41.3865 40.6388 41.783 40.5938 42.13C40.5857 42.1837 40.5693 42.2581 40.5529 42.3159C40.5448 42.3407 40.4712 42.5472 40.4998 42.477C40.4793 42.5266 40.4303 42.6092 40.373 42.6546C40.1768 42.8199 40.4262 42.6464 40.2913 42.7083C40.2258 42.7414 40.3117 42.7166 40.1849 42.7455C40.1604 42.7497 39.9396 42.7992 40.0091 42.7868C40.0664 42.7786 39.8006 42.8075 39.8129 42.8034C39.4858 42.824 39.1096 42.8116 38.8152 42.7662C38.439 42.7083 38.071 42.6175 37.703 42.5225C37.5722 42.4894 37.3677 42.4357 37.2819 42.3985C37.2941 42.4027 37.1428 42.32 37.106 42.2994L37.0161 42.2416C37.0651 42.2829 37.0692 42.2829 37.0202 42.2416C36.5786 41.8574 36.2065 41.2915 35.8385 40.7586C35.5523 40.3496 35.033 40.1555 34.5791 40.424C34.1784 40.6636 33.9617 41.2832 34.2479 41.6963C34.5055 42.0681 34.8163 42.4398 35.0371 42.7497C35.3192 43.1421 35.6054 43.4973 35.998 43.7865C36.7912 44.3689 37.9606 44.5383 38.9133 44.6416C39.866 44.7448 41.0068 44.6705 41.6978 43.9352C42.4461 43.138 42.4829 42.0598 42.3643 41.0271C42.3071 40.5273 41.98 40.0977 41.4443 40.0977C40.9904 40.0977 40.4671 40.5231 40.5243 41.0271L40.5366 41.0312Z" fill="#232323"/>
<path d="M37.1634 43.9767C37.188 44.3692 37.2002 44.7657 37.1675 45.1581C37.1675 45.2036 37.1594 45.2449 37.1553 45.2903C37.1757 45.1499 37.1798 45.1292 37.1634 45.2284C37.1512 45.2862 37.143 45.3399 37.1307 45.3977C37.1062 45.5134 37.0694 45.6167 37.0367 45.7282C36.9917 45.8893 37.1389 45.534 37.0612 45.6621C37.0326 45.7075 37.0122 45.753 36.9835 45.7984C36.9672 45.8273 36.9345 45.8604 36.9222 45.8893C37.0285 45.658 37.0367 45.7571 36.9549 45.8356C36.9018 45.8852 36.8486 45.9306 36.7954 45.9802C36.7382 46.0339 37.0203 45.8191 36.865 45.9223C36.8322 45.943 36.8036 45.9678 36.7709 45.9884C36.7259 46.0174 36.4847 46.1619 36.6442 46.0917C36.5869 46.1165 36.2925 46.1495 36.4888 46.1454C36.4029 46.1454 36.3211 46.1454 36.2353 46.1454C36.1249 46.133 36.1208 46.1372 36.223 46.1454C36.1658 46.133 36.1085 46.1248 36.0513 46.1082C35.9654 46.0876 35.8795 46.0628 35.7978 46.038C35.6015 45.976 35.4134 45.9017 35.2253 45.8232C35.3848 45.8893 35.1517 45.7902 35.119 45.7736C35.0127 45.7241 34.9064 45.6745 34.8001 45.6167C34.6161 45.5217 34.4362 45.4184 34.2644 45.3069C34.1908 45.2573 34.1172 45.2077 34.0436 45.1581C33.9578 45.092 33.9496 45.0879 34.0191 45.1458C33.9741 45.1086 33.9292 45.0714 33.8842 45.0342C33.7288 44.902 33.5857 44.7533 33.4467 44.6005C33.1237 44.237 32.4694 44.2452 32.1464 44.6005C31.7948 44.9888 31.803 45.5258 32.1464 45.9141C32.6657 46.5007 33.3281 46.9592 34.0314 47.2979C34.7347 47.6366 35.577 48.0167 36.4029 48.0002C37.5069 47.9795 38.4801 47.1864 38.8317 46.1495C39.0648 45.4638 39.0443 44.6831 38.9993 43.9685C38.9707 43.4852 38.5986 43.0142 38.0793 43.039C37.605 43.0597 37.1266 43.448 37.1594 43.9685L37.1634 43.9767Z" fill="#232323"/>
<path d="M32.9436 45.5097C33.377 44.5638 33.7001 43.5765 33.5406 42.519C33.4179 41.7052 32.96 40.9245 32.2649 40.4784C30.6948 39.4746 28.7566 40.6395 27.6772 41.8457C26.5977 43.0519 25.8086 44.6877 25.7759 46.2946C25.7595 47.2158 26.1684 48.0915 26.9575 48.5748C27.6363 48.9962 28.4786 49.0829 29.2473 48.9136C30.1346 48.7153 30.9115 48.0915 31.4962 47.4182C32.1586 46.654 32.7269 45.7948 33.2339 44.9232C33.835 43.8905 32.2444 42.9528 31.6434 43.9855C31.2836 44.6092 30.891 45.2247 30.4494 45.7948C30.3595 45.9146 30.1346 46.1789 29.9751 46.3442C29.7625 46.5672 29.6194 46.6994 29.3945 46.844C29.1533 46.9968 29.0633 47.0423 28.7934 47.1166C28.7689 47.1249 28.589 47.1579 28.6953 47.1414C28.8016 47.1249 28.6176 47.1414 28.5931 47.1456C28.5318 47.1456 28.4745 47.1456 28.4132 47.1456C28.3478 47.1456 28.2128 47.1208 28.3478 47.1456C28.2333 47.1249 28.1188 47.096 28.0084 47.0547C28.1433 47.1042 27.8939 46.9886 27.8407 46.9555C27.9593 47.0299 27.853 46.9679 27.8244 46.9431C27.7835 46.9018 27.7426 46.8647 27.7058 46.8192C27.7998 46.9349 27.7058 46.8192 27.6976 46.7944C27.5995 46.5218 27.7222 46.9638 27.6322 46.6209C27.5872 46.4474 27.6036 46.1665 27.6363 45.9724C27.6854 45.675 27.7712 45.3776 27.8694 45.0925C28.0329 44.5968 28.2496 44.159 28.5726 43.6757C29.0592 42.9445 30.0078 42.0027 30.9074 41.9655C31.1364 41.9572 31.2549 42.0109 31.398 42.1555C31.5412 42.3001 31.6475 42.5025 31.7006 42.7256C31.7538 42.9321 31.766 43.1758 31.7088 43.4898C31.6393 43.8657 31.5044 44.2292 31.3449 44.572C31.1364 45.0264 31.2181 45.5717 31.6761 45.8443C32.0727 46.0798 32.7269 45.9683 32.9355 45.5097H32.9436Z" fill="#232323"/>
<path d="M30.4783 41.3914C30.5764 40.5735 30.6009 39.739 30.237 38.9831C29.8936 38.2767 29.1944 37.7769 28.4461 37.5993C26.8351 37.2234 25.3018 38.1487 24.1038 39.1442C22.9998 40.0654 22.0798 41.3294 21.7404 42.7504C21.5482 43.5518 21.4951 44.4399 21.8017 45.2165C22.1084 45.9931 22.7299 46.588 23.4414 47.0176C24.1978 47.4761 25.0524 47.7033 25.8865 47.3522C26.4957 47.0919 27.2276 46.6706 27.5384 46.0551C27.7633 45.609 27.6529 45.0472 27.2072 44.7828C26.7983 44.5391 26.1727 44.6671 25.9478 45.1174C25.8865 45.2413 26.0664 45.0348 25.9315 45.1546C25.8661 45.2124 25.8047 45.2785 25.7352 45.3363C25.8129 45.2744 25.6207 45.4066 25.5962 45.4231C25.494 45.4892 25.3917 45.547 25.2854 45.6007C25.2405 45.6255 25.1996 45.6461 25.1546 45.6668C25.1709 45.6585 25.2609 45.6255 25.1669 45.6585C25.1219 45.6751 24.9011 45.7122 25.0401 45.704C25.1791 45.6957 24.9174 45.6709 24.8602 45.6544C24.7293 45.6172 24.6149 45.5594 24.4922 45.4933C24.1283 45.2909 23.7194 45.0141 23.5313 44.6217C23.3432 44.2293 23.4086 43.684 23.5109 43.2585C23.7439 42.296 24.3164 41.4781 25.0237 40.8048C25.6861 40.1769 26.6266 39.4416 27.567 39.3838C27.935 39.359 28.3521 39.454 28.5524 39.7638C28.8427 40.21 28.6955 40.9081 28.6342 41.4079C28.5729 41.9077 29.1003 42.3373 29.5542 42.3373C30.1021 42.3373 30.4129 41.9077 30.4742 41.4079L30.4783 41.3914Z" fill="#232323"/>
<path d="M26.0953 39.9208C26.6963 39.1814 27.1461 38.3263 27.0889 37.339C27.048 36.6244 26.7658 35.9428 26.3692 35.3521C25.7722 34.464 24.9504 33.9807 23.8709 34.022C22.9305 34.0592 22.0105 34.3483 21.1927 34.8151C19.4877 35.79 18.3755 37.4754 17.6681 39.2764C17.3124 40.1811 17.0384 41.1931 17.4024 42.1391C17.7376 43.0066 18.4491 43.6799 19.3364 43.9484C20.4486 44.2871 21.5485 43.7914 22.4153 43.1016C23.1431 42.5274 23.6787 41.6516 24.5006 41.2138C25.5474 40.6561 24.6192 39.0492 23.5724 39.6069C22.4153 40.2224 21.7938 41.6021 20.5671 42.0936C20.0846 42.2878 19.6758 42.1969 19.3405 41.8375C19.2137 41.7012 19.1115 41.5277 19.0747 41.3253C19.0338 41.0981 19.1156 40.7222 19.2055 40.433C19.6062 39.1442 20.2973 37.9008 21.3031 37.0003C21.7652 36.5872 22.3212 36.2568 22.91 36.0667C23.368 35.9222 24.1326 35.6991 24.5538 36.0213C24.7214 36.1494 24.8482 36.3848 24.9545 36.5707C25.0199 36.6822 25.0812 36.7979 25.1344 36.9177C25.1957 37.054 25.0935 36.802 25.1426 36.9466C25.1671 37.021 25.1916 37.0912 25.2121 37.1655C25.2284 37.2275 25.2407 37.2895 25.253 37.3473C25.2366 37.244 25.253 37.3349 25.253 37.3886C25.253 37.4547 25.253 37.5208 25.253 37.5869C25.2407 37.8802 25.2734 37.5332 25.2407 37.7026C25.1753 38.0413 25.0117 38.3387 24.795 38.6031C24.4802 38.9914 24.4188 39.5366 24.795 39.9167C25.118 40.243 25.7804 40.3091 26.0953 39.9167V39.9208Z" fill="#232323"/>
</g>
<defs>
<clipPath id="clip0_1593_15125">
<rect width="67" height="49" fill="white"/>
</clipPath>
</defs>
</svg>
