<svg width="68" height="75" viewBox="0 0 68 75" fill="none" xmlns="http://www.w3.org/2000/svg">
<path d="M52.1861 27.0111C50.7346 27.0783 49.2807 27.1075 47.8273 27.0744C47.4172 27.065 47.0076 27.0506 46.598 27.0309C46.5046 27.0264 46.5046 27.1747 46.598 27.1791C48.0476 27.2498 49.4995 27.2508 50.9496 27.2073C51.3616 27.1949 51.7741 27.1786 52.1861 27.1598C52.279 27.1554 52.2795 27.0072 52.1861 27.0116V27.0111Z" fill="#D52122"/>
<path d="M29.8417 17.4522C29.129 17.0248 28.4192 16.5924 27.7124 16.1546C27.3546 15.9332 26.8186 16.0622 26.6192 16.4471C26.4197 16.832 26.5238 17.3262 26.9058 17.5629C27.6126 18.0007 28.3219 18.4335 29.0351 18.8604C29.3957 19.0764 29.9269 18.9568 30.1283 18.5679C30.3297 18.179 30.2265 17.6829 29.8417 17.4522Z" fill="#D52122"/>
<path d="M50.8764 26.8989C50.6862 26.8871 50.4964 26.8728 50.3066 26.854C50.2069 26.8441 50.1071 26.8332 50.0074 26.8209C49.9653 26.8159 49.9227 26.8105 49.8806 26.8051C49.7402 26.7863 49.9808 26.8204 49.8418 26.7991C49.4739 26.7423 49.1083 26.6741 48.7457 26.5891C48.0142 26.4177 47.2981 26.1859 46.5961 25.9161C46.4252 25.8504 46.2553 25.7827 46.0858 25.713C45.8762 25.6266 45.8069 25.5979 45.6389 25.5238C45.4119 25.424 45.1843 25.3345 44.9534 25.2461C44.7224 25.1576 44.5109 25.0756 44.2891 24.9911C44.2054 24.959 44.1216 24.9254 44.0369 24.8962C43.9522 24.8671 44.0509 24.9121 44.0863 24.9195C43.9754 24.8962 43.8553 24.8127 43.7527 24.7653C40.9238 23.4544 38.1114 22.1039 35.3687 20.6126C34.5815 20.1847 33.8 19.7459 33.024 19.2968C32.6124 19.0586 32.2048 18.814 31.7947 18.5738C31.6741 18.5032 31.5478 18.4449 31.4175 18.3965C31.3817 18.3831 31.3435 18.3742 31.3081 18.3594C31.2568 18.3431 31.2597 18.3426 31.3164 18.3579L31.237 18.3095C31.0564 18.1771 30.8579 18.0585 30.6657 17.9433C30.305 17.7269 29.7739 17.847 29.5725 18.2359C29.3711 18.6247 29.4742 19.1204 29.8591 19.3516C30.0145 19.445 30.1641 19.5473 30.3166 19.6456C30.534 19.7859 30.7649 19.8566 30.9925 19.9693C30.8903 19.9189 31.0816 20.0385 31.1082 20.0543C31.2011 20.1096 31.2946 20.1649 31.388 20.2203C31.5725 20.3295 31.7574 20.4377 31.9424 20.5459C32.6463 20.9565 33.3546 21.3583 34.0683 21.7516C35.4481 22.5121 36.8458 23.2384 38.2561 23.9381C39.6858 24.6472 41.1276 25.3301 42.5743 26.0021C43.1141 26.2531 43.6534 26.4839 44.2078 26.6968C44.4058 26.7729 44.6024 26.8564 44.8038 26.9237C44.8919 26.9533 44.7863 26.9118 44.7515 26.8975C44.8459 26.9365 44.9389 26.9795 45.0328 27.02C45.2545 27.1159 45.4767 27.2112 45.6999 27.3026C47.3635 27.9836 49.0832 28.4184 50.8755 28.5306C51.2933 28.5568 51.6927 28.1367 51.6743 27.7152C51.654 27.2513 51.3233 26.9281 50.8755 26.8999L50.8764 26.8989Z" fill="#D52122"/>
<path d="M25.1725 15.7321C24.1301 15.7573 23.0878 15.8023 22.0449 15.782C21.0055 15.7623 19.967 15.6446 18.9367 15.5033C18.9744 15.5083 19.0442 15.5186 18.8733 15.4944C18.8118 15.4855 18.7508 15.4766 18.6898 15.4677C18.5673 15.4495 18.4448 15.4307 18.3223 15.4109C18.0613 15.3689 17.8009 15.3235 17.5409 15.274C17.0291 15.1767 16.5203 15.064 16.0158 14.9326C15.5263 14.8051 15.0335 14.6979 14.5522 14.5393C14.4772 14.5146 14.4021 14.4795 14.3257 14.4607C14.2177 14.4345 14.5348 14.5674 14.3905 14.4879C14.3189 14.4484 14.2467 14.4123 14.178 14.3678C14.0783 14.3036 13.9398 14.1647 14.1194 14.3342C14.054 14.2724 13.9824 14.2171 13.918 14.1534C13.8536 14.0896 13.7941 14.0269 13.736 13.9602C13.7059 13.9261 13.6769 13.8915 13.6483 13.8559C13.6338 13.8381 13.6202 13.8198 13.6057 13.802C13.5157 13.6938 13.7258 13.974 13.6469 13.8559C13.537 13.6923 13.428 13.5313 13.3351 13.3568C13.2891 13.2708 13.2479 13.1829 13.2063 13.0954C13.1956 13.0737 13.1879 13.05 13.1768 13.0282C13.1322 12.9437 13.245 13.212 13.215 13.1216C13.1976 13.0697 13.1748 13.0188 13.1564 12.9675C13.0867 12.7723 13.031 12.5721 12.9923 12.3681C12.9831 12.3206 12.9768 12.2727 12.9681 12.2253C12.9449 12.0958 12.9889 12.4575 12.9749 12.2633C12.9676 12.162 12.9604 12.0617 12.9604 11.9604C12.9604 11.866 12.9691 11.7726 12.9744 11.6788C12.9841 11.5068 12.9323 11.8898 12.9691 11.7222C12.9802 11.6714 12.988 11.6195 12.9996 11.5686C13.0209 11.4781 13.0494 11.3907 13.0785 11.3027C13.1371 11.1248 13.0054 11.447 13.0635 11.3368C13.0906 11.2854 13.1138 11.2316 13.1424 11.1807C13.1681 11.1342 13.1976 11.0903 13.2252 11.0448C13.3336 10.8654 13.1434 11.1318 13.2165 11.0507C13.2959 10.9628 13.3738 10.8778 13.459 10.7948C13.613 10.6445 13.3709 10.8476 13.4624 10.7864C13.5186 10.7488 13.5718 10.7078 13.629 10.6717C13.6774 10.6411 13.9587 10.5299 13.9703 10.4884C13.9587 10.5299 13.7999 10.5536 13.9054 10.5166C13.95 10.5008 13.993 10.482 14.0376 10.4662C14.1068 10.4415 14.177 10.4187 14.2477 10.398C14.4089 10.3505 14.5731 10.313 14.7386 10.2833C14.7759 10.2769 14.8132 10.271 14.8505 10.2646C15.0025 10.2384 14.7367 10.273 14.8413 10.266C14.9328 10.2601 15.0243 10.2463 15.1163 10.2399C15.3385 10.2235 15.5617 10.2191 15.7844 10.2211C16.2022 10.225 16.6026 9.84307 16.5832 9.40576C16.5639 8.96846 16.2322 8.5949 15.7844 8.59045C14.4985 8.5781 12.9788 8.81874 12.0986 9.88359C11.3849 10.7463 11.2339 11.8655 11.4822 12.9447C11.6914 13.8544 12.1935 14.774 12.8829 15.3951C13.3346 15.8018 13.8129 16.0202 14.3891 16.1941C15.4295 16.5084 16.5077 16.7456 17.5767 16.9299C18.8311 17.1463 20.117 17.3291 21.3884 17.3909C22.6496 17.4522 23.9118 17.3929 25.1725 17.3627C25.5899 17.3529 25.9912 16.9951 25.9714 16.5474C25.9515 16.0997 25.6199 15.7212 25.1725 15.7321Z" fill="#D52122"/>
<path d="M32.8095 1.56096C35.8277 2.94205 38.8517 4.30832 41.8756 5.67558C44.8086 7.00182 47.7338 8.34635 50.6692 9.66667C52.0733 10.2982 53.5049 10.9247 54.7903 11.7894C55.1399 12.0247 55.6894 11.872 55.8835 11.4969C56.0951 11.0888 55.9702 10.6322 55.5969 10.3812C54.4553 9.6133 53.1955 9.03714 51.9493 8.47186C50.5618 7.84283 49.1752 7.21133 47.7881 6.58082C44.7675 5.20764 41.743 3.84433 38.7205 2.4751C37.0177 1.70376 35.3159 0.930451 33.6161 0.15269C33.2355 -0.0212432 32.7393 0.0276757 32.5229 0.445215C32.3389 0.800989 32.4023 1.37467 32.8095 1.56096Z" fill="#D52122"/>
<path d="M32.9683 4.36804e-06C27.1212 0.0163107 21.6881 2.54428 16.2598 4.44915C14.6713 5.00653 13.0809 5.55748 11.504 6.14846C11.1128 6.29522 10.8054 6.70831 10.9463 7.15154C11.0707 7.54339 11.5089 7.87841 11.9291 7.72078C14.6936 6.68459 17.4988 5.76502 20.2633 4.72833C22.9101 3.73563 25.5758 2.7533 28.3403 2.15688C28.7237 2.07436 29.1082 1.99925 29.4945 1.93304C29.7022 1.89746 29.9104 1.86534 30.1191 1.83372C30.4105 1.78974 29.9719 1.85101 30.2643 1.81346C30.3539 1.8021 30.4434 1.79073 30.533 1.77986C31.3415 1.684 32.1544 1.6331 32.9688 1.63113C33.3866 1.63014 33.787 1.25707 33.7676 0.815813C33.7482 0.374555 33.4161 -0.00147802 32.9683 4.36804e-06Z" fill="#D52122"/>
<path d="M11.3046 6.24729C9.30552 7.78749 7.72719 9.75363 6.33575 11.865C4.87507 14.0822 3.56206 16.4046 2.2016 18.6865C1.43084 19.9796 0.427682 21.3444 0.450921 22.9286C0.457215 23.355 0.814033 23.7637 1.24977 23.7439C1.6855 23.7242 2.05539 23.3857 2.04861 22.9286C2.04716 22.8436 2.052 22.7596 2.05249 22.6751C2.05394 22.4197 2.03457 22.7473 2.05684 22.6005C2.07911 22.4538 2.11688 22.2991 2.16093 22.1523C2.17691 22.0985 2.19434 22.0451 2.21274 21.9922C2.2108 21.9972 2.30763 21.7387 2.25389 21.8707C2.31828 21.7126 2.39526 21.5584 2.47321 21.4072C2.76515 20.8424 3.10696 20.3038 3.43231 19.7583C4.14159 18.5684 4.85086 17.379 5.56014 16.1892C6.17743 15.154 6.7923 14.1173 7.44396 13.1043C8.08498 12.1087 8.71776 11.197 9.40574 10.3555C9.8192 9.84949 10.254 9.36179 10.7149 8.89978C10.9448 8.66902 11.1811 8.44518 11.4242 8.22875C11.5457 8.12053 11.6691 8.0138 11.7945 7.90954C11.8468 7.86606 11.8991 7.82257 11.9519 7.78008C11.994 7.74598 12.0366 7.71189 12.0792 7.67779C12.0245 7.72128 12.0351 7.71337 12.1107 7.65457C12.4433 7.39861 12.65 6.93907 12.3973 6.53882C12.1852 6.20331 11.6609 5.97156 11.3041 6.2463L11.3046 6.24729Z" fill="#D52122"/>
<path d="M0.721076 23.6061C2.54148 25.0909 5.03097 25.7402 7.20915 24.6788C8.30188 24.1462 9.18254 23.2108 10.0327 22.353C10.8882 21.4892 11.7204 20.6013 12.5348 19.697C13.4585 18.6712 14.36 17.6236 15.2344 16.5538C15.5017 16.2267 15.5719 15.7168 15.2344 15.401C14.9391 15.1243 14.3905 15.0512 14.1049 15.401C12.6336 17.2002 11.092 18.942 9.47932 20.6107C9.09249 21.0109 8.70081 21.4072 8.30333 21.7966C7.93053 22.1617 7.49189 22.5728 7.15638 22.8145C6.94045 22.9701 6.71435 23.1124 6.47809 23.2335C6.42822 23.2592 6.37787 23.2834 6.32703 23.3071C6.46114 23.2439 6.23747 23.3427 6.23166 23.3452C6.11498 23.3891 5.99588 23.4277 5.87581 23.4608C5.75574 23.4939 5.63518 23.5211 5.51318 23.5433C5.46476 23.5522 5.41538 23.5606 5.36648 23.5675C5.52335 23.5463 5.3597 23.5651 5.32049 23.5685C5.0605 23.5912 4.79858 23.5912 4.53859 23.571C4.48872 23.567 4.43934 23.5616 4.38947 23.5571C4.19775 23.5394 4.4771 23.5784 4.30426 23.5453C4.15563 23.5166 4.00796 23.4895 3.86078 23.4519C3.60224 23.3862 3.35 23.3012 3.10212 23.2019C2.96753 23.1475 3.2677 23.2824 3.04741 23.1777C2.97818 23.145 2.90894 23.1124 2.84068 23.0778C2.71528 23.0146 2.59231 22.9469 2.47127 22.8748C2.35024 22.8026 2.2321 22.7275 2.11639 22.6479C2.07427 22.6188 2.03263 22.5896 1.99148 22.5595C1.95033 22.5294 1.90966 22.4992 1.86899 22.4681C1.93048 22.5175 1.92467 22.5126 1.85156 22.4533C1.52573 22.1874 1.03577 22.1044 0.722045 22.4533C0.456247 22.7488 0.373458 23.3219 0.722045 23.6061H0.721076Z" fill="#D52122"/>
<path d="M1.74989 23.905C1.31416 24.6111 1.00576 25.3978 0.83582 26.2136C0.665883 27.0294 0.576316 27.9406 0.977191 28.701C1.57076 29.8282 2.97479 29.9191 4.0801 29.8593C5.01596 29.8084 5.93245 29.6152 6.81602 29.2994C7.18591 29.167 7.43234 28.7925 7.32341 28.3878C7.22465 28.0216 6.80198 27.737 6.43016 27.8699C5.6134 28.1619 4.80439 28.3433 3.97601 28.3823C3.69956 28.3952 3.42263 28.3996 3.14666 28.3784C3.10648 28.3754 2.85908 28.3388 3.06145 28.3734C2.98883 28.3611 2.91669 28.3487 2.84455 28.3324C2.77241 28.3161 2.70463 28.2973 2.63637 28.2751C2.60248 28.2642 2.56956 28.2524 2.53615 28.2395C2.62039 28.2776 2.6383 28.2855 2.58941 28.2623C2.54002 28.2291 2.48096 28.2079 2.43012 28.1763C2.40107 28.158 2.37299 28.1392 2.34491 28.119C2.42383 28.1832 2.43351 28.1896 2.37299 28.1372C2.34055 28.1022 2.21032 27.9297 2.31538 28.0918C2.27519 28.03 2.24033 27.9682 2.20596 27.903C2.29214 28.0641 2.19289 27.8482 2.18127 27.8002C2.17594 27.7795 2.14447 27.5897 2.15512 27.6782C2.12656 27.4489 2.13963 27.2043 2.1682 26.9755C2.26745 26.1923 2.56665 25.3617 3.00335 24.6531C3.21251 24.3142 3.07355 23.8363 2.74288 23.6392C2.39381 23.4306 1.95904 23.5655 1.74941 23.905H1.74989Z" fill="#D52122"/>
<path d="M8.91142 28.533C10.2825 29.0385 11.8671 29.1759 13.2736 28.7341C14.6457 28.3033 15.7064 27.3451 16.8001 26.4463C18.9977 24.6408 21.0805 22.6979 23.2219 20.8246C24.4231 19.7741 25.6436 18.7458 26.9082 17.7758C27.2214 17.5357 27.3831 17.1354 27.1687 16.7619C26.9881 16.4471 26.4904 16.2539 26.1752 16.496C23.9128 18.2314 21.7844 20.1309 19.6561 22.0328C18.6288 22.9509 17.599 23.8655 16.5464 24.7534C15.4939 25.6414 14.5464 26.5293 13.3714 27.1208C13.1516 27.2315 13.4842 27.0818 13.2571 27.1722C13.184 27.2014 13.1109 27.229 13.0368 27.2547C12.8626 27.3155 12.6849 27.3664 12.5053 27.4079C12.1649 27.486 11.8507 27.5097 11.4808 27.5112C10.7212 27.5136 10.0327 27.3743 9.29777 27.103C8.93998 26.9711 8.48682 27.2513 8.40452 27.6209C8.31156 28.0379 8.52846 28.3912 8.9119 28.5325L8.91142 28.533Z" fill="#D52122"/>
<path d="M16.9517 26.3737C17.475 26.855 18.0604 27.3531 18.7701 27.5023C19.6402 27.6856 20.4622 27.4109 21.2577 27.0679C21.6189 26.9123 21.6978 26.3678 21.5182 26.054C21.2993 25.672 20.8873 25.6315 20.5247 25.7881C20.2671 25.8993 19.92 25.9996 19.6121 26.0698C19.5259 26.0836 19.5288 26.0841 19.6213 26.0708C19.5821 26.0752 19.5428 26.0787 19.5036 26.0817C19.447 26.0851 19.3903 26.0871 19.3337 26.0866C19.3129 26.0866 19.0931 26.0787 19.2151 26.0846C19.3371 26.0905 19.1313 26.0673 19.1061 26.0614C19.0563 26.0495 19.0064 26.0352 18.9575 26.0189C18.9251 26.008 18.8926 25.9967 18.8607 25.9838C18.9541 26.0258 18.9643 26.0303 18.8907 25.9962C18.7784 25.9374 18.668 25.8776 18.562 25.8069C18.514 25.7748 18.4685 25.7402 18.4211 25.7076C18.3567 25.6582 18.3581 25.6602 18.4254 25.7135C18.393 25.6878 18.361 25.6611 18.3291 25.635C18.2095 25.5351 18.0938 25.4309 17.979 25.3251C17.6876 25.0573 17.2393 25.0316 16.9522 25.3251C16.6854 25.5974 16.6597 26.1044 16.9522 26.3732L16.9517 26.3737Z" fill="#D52122"/>
<path d="M55.3868 11.9995C56.8257 12.1472 58.2442 12.1951 59.6507 11.7959C61.2092 11.3536 62.7342 10.7557 64.2651 10.2231C65.153 9.91422 66.0415 9.60539 66.9294 9.29607C67.324 9.1587 67.6256 8.7298 67.4871 8.29298C67.3603 7.89323 66.9279 7.576 66.5043 7.72375C64.9691 8.2579 63.4333 8.79206 61.8981 9.32621C61.1419 9.58909 60.389 9.86481 59.625 10.104C59.2643 10.2171 58.8988 10.3229 58.5284 10.3985C58.4931 10.4059 58.4577 10.4123 58.4224 10.4187C58.4006 10.4227 58.2496 10.4479 58.3464 10.4331C58.4171 10.4222 58.2244 10.4469 58.189 10.4504C58.0186 10.4672 57.8472 10.477 57.6763 10.483C56.9119 10.5082 56.1469 10.4479 55.3868 10.3698C54.9695 10.3268 54.57 10.7755 54.5879 11.1851C54.6088 11.6634 54.9399 11.9545 55.3868 12.0004V11.9995Z" fill="#D52122"/>
<path d="M15.7834 10.2206C19.6372 9.94585 23.4993 9.76895 27.3434 9.36277C28.4628 9.24468 29.5797 9.10435 30.6938 8.94178C31.1087 8.88149 31.373 8.32115 31.2515 7.93869C31.1043 7.47471 30.7136 7.30423 30.2687 7.36946C28.5252 7.62344 26.5766 7.82307 24.731 7.97625C22.8307 8.13387 20.9275 8.25345 19.0243 8.37452C17.9437 8.4432 16.8631 8.51287 15.7829 8.58946C15.3671 8.61911 14.9638 8.94326 14.9841 9.40478C15.0025 9.82083 15.3366 10.2517 15.7829 10.2201L15.7834 10.2206Z" fill="#D52122"/>
<path d="M30.6952 8.93585C35.0613 9.42257 39.1756 9.87815 43.4796 10.7854C44.6266 11.027 45.7677 11.3012 46.8953 11.6244C47.2971 11.7395 47.7827 11.4826 47.8781 11.0552C47.975 10.6223 47.7508 10.1756 47.3204 10.0521C43.0628 8.8306 38.6401 8.23962 34.2571 7.71337C33.0704 7.57106 31.8828 7.43765 30.6952 7.30522C30.2784 7.25877 29.8784 7.71337 29.8964 8.12053C29.9177 8.60182 30.2488 8.88594 30.6952 8.93585Z" fill="#D52122"/>
<path d="M51.3316 28.496C55.5945 27.8309 59.8129 26.8757 63.9494 25.632C65.1095 25.2831 66.2622 24.9116 67.4082 24.5187C67.8037 24.3833 68.1039 23.951 67.9659 23.5156C67.8386 23.1144 67.4072 22.8006 66.9831 22.9464C62.8964 24.3478 58.7187 25.4689 54.4843 26.2966C53.2957 26.5288 52.1028 26.7374 50.9065 26.9241C50.492 26.9889 50.2262 27.5423 50.3487 27.9272C50.4949 28.3878 50.8871 28.5661 51.3316 28.4965V28.496Z" fill="#D52122"/>
<path d="M25.3778 16.5731C25.9501 16.6611 26.5223 16.749 27.0946 16.8375C27.1861 16.8513 27.2253 16.7085 27.1333 16.6947C26.5611 16.6067 25.9888 16.5188 25.4165 16.4303C25.325 16.4165 25.2858 16.5593 25.3778 16.5731Z" fill="#D52122"/>
<path d="M27.7787 16.2119C27.3454 16.0123 26.9445 15.8532 26.4666 15.8131C26.0227 15.7761 25.5748 15.7667 25.1299 15.7445C24.777 15.7267 24.4763 16.0637 24.4763 16.4115C24.4763 16.7876 24.776 17.0608 25.1299 17.0786C25.8532 17.1147 26.4836 17.0712 27.1188 17.3637C27.4403 17.512 27.8218 17.4581 28.013 17.1246C28.1767 16.839 28.1021 16.3606 27.7787 16.2119Z" fill="#D52122"/>
<path d="M21.2577 27.0679C22.5814 26.2477 23.752 25.1982 24.884 24.1269C25.4432 23.5977 25.9961 23.061 26.563 22.5407C26.8327 22.2932 27.1057 22.0491 27.3841 21.8114C27.5265 21.6898 27.6702 21.5703 27.816 21.4531C27.845 21.4299 27.8741 21.4067 27.9031 21.3835C27.8232 21.4467 27.9205 21.3701 27.9312 21.3617C28.0091 21.3019 28.0876 21.2417 28.1665 21.1829C28.8269 20.6907 29.5284 20.2573 30.2803 19.9268C30.6405 19.7687 30.7213 19.2281 30.5408 18.9128C30.3229 18.5328 29.9089 18.4879 29.5473 18.647C26.7712 19.8665 24.7736 22.3485 22.515 24.3033C22.3504 24.4461 22.1839 24.5864 22.0149 24.7243C21.8256 24.8789 21.7898 24.9076 21.5903 25.0573C21.2456 25.3167 20.8902 25.5608 20.5242 25.7877C20.1892 25.9952 20.0633 26.4523 20.2637 26.8016C20.4642 27.151 20.9207 27.276 21.2572 27.0674L21.2577 27.0679Z" fill="#D52122"/>
<path d="M29.7041 18.7789C29.8504 18.8229 29.6378 18.7236 29.77 18.8016C29.7913 18.814 29.9094 18.9084 29.8315 18.8392L30.5354 17.9078C30.2624 17.759 29.9893 17.6108 29.7167 17.4621L29.2689 18.5457C29.3347 18.5595 29.3996 18.5748 29.4635 18.5951C29.4911 18.6035 29.5182 18.6129 29.5449 18.6233C29.495 18.5991 29.5013 18.602 29.5642 18.6322C29.8392 18.7631 30.2033 18.7201 30.3592 18.4192C30.4948 18.1568 30.4449 17.7477 30.1505 17.6078C29.9651 17.5194 29.7782 17.4438 29.5778 17.4018C29.2917 17.3425 29.0094 17.4621 28.8922 17.7452C28.7843 18.0061 28.8734 18.3461 29.1299 18.4859C29.403 18.6346 29.6761 18.7829 29.9486 18.9316C30.2062 19.0714 30.518 19.0171 30.6981 18.7789C30.8637 18.56 30.8724 18.1939 30.6526 18.0002C30.4589 17.8297 30.26 17.7086 30.013 17.6345C29.7216 17.547 29.3672 17.7398 29.2984 18.0486C29.2297 18.3574 29.3919 18.6845 29.7041 18.7779V18.7789Z" fill="#D52122"/>
<path d="M20.7668 15.9055C19.0093 16.8582 17.3952 18.0881 15.8541 19.3664C14.2506 20.6971 12.9139 22.3021 11.4082 23.74C10.5503 24.5592 9.63813 25.3553 8.71727 26.0757C8.40645 26.3188 8.24136 26.7136 8.4568 27.0897C8.63594 27.402 9.13703 27.6006 9.45028 27.3555C11.1559 26.0214 12.7275 24.5543 14.2177 22.9761C14.9362 22.2146 15.6571 21.4531 16.4525 20.7742C17.2005 20.1358 17.8914 19.5863 18.6762 19.0097C19.5806 18.3456 20.5145 17.7185 21.4993 17.1848C21.8454 16.9971 21.952 16.5064 21.7598 16.1709C21.555 15.8131 21.1139 15.7168 20.7663 15.9051L20.7668 15.9055Z" fill="#D52122"/>
<path d="M8.47423 26.2447C8.23071 26.5081 7.98718 26.7729 7.72477 27.017C7.6628 27.0744 7.59986 27.1307 7.53595 27.1855C7.5161 27.2023 7.31179 27.3649 7.42944 27.275C7.29291 27.3792 7.15299 27.4781 7.01114 27.5739C6.92883 27.6293 6.84798 27.6816 6.75986 27.7261C6.70951 27.7513 6.65868 27.775 6.60736 27.7988C6.57153 27.8151 6.36092 27.9055 6.54538 27.8279C6.43209 27.8753 6.31832 27.9223 6.20261 27.9633C6.1479 27.9826 6.09125 27.9969 6.03703 28.0162C6.01524 28.0221 5.99297 28.0275 5.9707 28.032C6.07043 28.0048 6.17017 28.0058 6.2699 28.0359C5.89808 27.9638 5.46864 28.1417 5.37665 28.5538C5.29531 28.9189 5.48461 29.3884 5.88404 29.4655C6.22246 29.5312 6.52215 29.4259 6.83152 29.2994C7.09054 29.1937 7.36311 29.0904 7.60519 28.9461C8.32899 28.5152 8.93078 27.9099 9.5016 27.2933C9.77078 27.0022 9.78434 26.5338 9.5016 26.2452C9.21885 25.9566 8.74487 25.9532 8.47472 26.2452L8.47423 26.2447Z" fill="#D52122"/>
<path d="M15.8144 47.9889C17.2659 47.9217 18.7198 47.8925 20.1732 47.9257C20.5833 47.935 20.9929 47.9494 21.4025 47.9691C21.4959 47.9736 21.4959 47.8253 21.4025 47.8209C19.9529 47.7502 18.5009 47.7492 17.0509 47.7927C16.6389 47.8051 16.2264 47.8214 15.8144 47.8402C15.7215 47.8446 15.721 47.9929 15.8144 47.9884V47.9889Z" fill="#D52122"/>
<path d="M38.1584 57.5478C38.871 57.9753 39.5808 58.4076 40.2876 58.8454C40.6454 59.0668 41.1814 58.9378 41.3808 58.5529C41.5803 58.168 41.4762 57.6738 41.0942 57.4372C40.3874 56.9994 39.6781 56.5665 38.9649 56.1396C38.6043 55.9236 38.0731 56.0432 37.8717 56.4321C37.6703 56.821 37.7735 57.3171 38.1584 57.5478Z" fill="#D52122"/>
<path d="M17.1235 48.1011C17.3138 48.1129 17.5036 48.1273 17.6934 48.146C17.7931 48.1559 17.8929 48.1668 17.9926 48.1791C18.0347 48.1841 18.0773 48.1895 18.1194 48.195C18.2598 48.2137 18.0192 48.1796 18.1582 48.2009C18.5261 48.2577 18.8917 48.3259 19.2543 48.4109C19.9858 48.5823 20.7019 48.8141 21.4039 49.0839C21.5748 49.1496 21.7447 49.2173 21.9142 49.287C22.1238 49.3735 22.1931 49.4021 22.3611 49.4762C22.5881 49.576 22.8157 49.6655 23.0466 49.7539C23.2776 49.8424 23.4891 49.9244 23.7109 50.0089C23.7946 50.041 23.8784 50.0746 23.9631 50.1038C24.0478 50.1329 23.9491 50.088 23.9137 50.0806C24.0246 50.1038 24.1447 50.1873 24.2473 50.2347C27.0762 51.5456 29.8886 52.8961 32.6313 54.3874C33.4185 54.8153 34.2 55.2541 34.976 55.7033C35.3876 55.9414 35.7952 56.186 36.2053 56.4262C36.3259 56.4968 36.4522 56.5551 36.5825 56.6036C36.6183 56.6169 36.6565 56.6258 36.6919 56.6406C36.7432 56.6569 36.7403 56.6574 36.6836 56.6421L36.763 56.6905C36.9436 56.823 37.1421 56.9415 37.3343 57.0567C37.695 57.2731 38.2261 57.153 38.4275 56.7642C38.6304 56.3728 38.5258 55.8797 38.1409 55.6484C37.9855 55.555 37.8359 55.4527 37.6834 55.3544C37.466 55.2141 37.2351 55.1434 37.0075 55.0307C37.1097 55.0811 36.9184 54.9616 36.8918 54.9458C36.7989 54.8904 36.7054 54.8351 36.612 54.7797C36.4275 54.6705 36.2426 54.5623 36.0576 54.4541C35.3537 54.0435 34.6454 53.6417 33.9317 53.2484C32.5519 52.488 31.1542 51.7616 29.7439 51.0619C28.3142 50.3528 26.8724 49.6699 25.4257 48.9979C24.8859 48.7469 24.3466 48.5161 23.7922 48.3032C23.5942 48.2271 23.3976 48.1436 23.1962 48.0764C23.1081 48.0467 23.2137 48.0882 23.2485 48.1026C23.1541 48.0635 23.0611 48.0205 22.9672 47.98C22.7455 47.8841 22.5233 47.7888 22.3001 47.6974C20.6365 47.0165 18.9168 46.5816 17.1245 46.4695C16.7067 46.4433 16.3073 46.8633 16.3257 47.2848C16.346 47.7488 16.6767 48.0719 17.1245 48.1001L17.1235 48.1011Z" fill="#D52122"/>
<path d="M42.828 59.2679C43.8703 59.2427 44.9127 59.1977 45.9556 59.218C46.995 59.2378 48.0335 59.3554 49.0638 59.4967C49.026 59.4917 48.9563 59.4814 49.1272 59.5056C49.1887 59.5145 49.2497 59.5234 49.3107 59.5323C49.4332 59.5506 49.5557 59.5693 49.6782 59.5891C49.9391 59.6311 50.1996 59.6766 50.4596 59.726C50.9714 59.8233 51.4802 59.936 51.9847 60.0674C52.4741 60.1949 52.967 60.3021 53.4483 60.4607C53.5233 60.4854 53.5983 60.5205 53.6748 60.5393C53.7828 60.5655 53.4657 60.4326 53.61 60.5121C53.6816 60.5517 53.7537 60.5877 53.8225 60.6322C53.9222 60.6964 54.0607 60.8353 53.8811 60.6658C53.9464 60.7276 54.0181 60.7829 54.0825 60.8467C54.1469 60.9104 54.2064 60.9732 54.2645 61.0399C54.2945 61.074 54.3236 61.1085 54.3522 61.1441C54.3667 61.1619 54.3802 61.1802 54.3948 61.198C54.4848 61.3062 54.2747 61.026 54.3536 61.1441C54.4635 61.3077 54.5724 61.4688 54.6654 61.6432C54.7114 61.7292 54.7526 61.8171 54.7942 61.9046C54.8048 61.9263 54.8126 61.95 54.8237 61.9718C54.8683 62.0563 54.7555 61.788 54.7855 61.8784C54.8029 61.9303 54.8257 61.9812 54.8441 62.0326C54.9138 62.2277 54.9694 62.4279 55.0082 62.6319C55.0174 62.6794 55.0237 62.7273 55.0324 62.7747C55.0556 62.9042 55.0116 62.5425 55.0256 62.7367C55.0329 62.838 55.0401 62.9383 55.0401 63.0396C55.0401 63.134 55.0314 63.2274 55.0261 63.3213C55.0164 63.4932 55.0682 63.1103 55.0314 63.2778C55.0203 63.3287 55.0125 63.3805 55.0009 63.4314C54.9796 63.5219 54.9511 63.6093 54.922 63.6973C54.8634 63.8752 54.9951 63.553 54.937 63.6632C54.9099 63.7146 54.8867 63.7684 54.8581 63.8193C54.8324 63.8658 54.8029 63.9098 54.7753 63.9552C54.6669 64.1346 54.8571 63.8683 54.784 63.9493C54.7046 64.0372 54.6267 64.1222 54.5415 64.2053C54.3875 64.3555 54.6296 64.1524 54.5381 64.2137C54.4819 64.2512 54.4287 64.2922 54.3715 64.3283C54.3231 64.3589 54.0418 64.4701 54.0302 64.5116C54.0418 64.4701 54.2006 64.4464 54.0951 64.4834C54.0505 64.4993 54.0074 64.518 53.9629 64.5339C53.8937 64.5586 53.8235 64.5813 53.7528 64.602C53.5916 64.6495 53.4274 64.687 53.2619 64.7167C53.2246 64.7231 53.1873 64.729 53.15 64.7355C52.998 64.7616 53.2638 64.7271 53.1592 64.734C53.0677 64.7399 52.9762 64.7537 52.8842 64.7602C52.662 64.7765 52.4388 64.7809 52.2161 64.7789C51.7983 64.775 51.3979 65.1569 51.4173 65.5942C51.4366 66.0316 51.7683 66.4051 52.2161 66.4096C53.502 66.4219 55.0217 66.1813 55.9019 65.1164C56.6156 64.2537 56.7666 63.1345 56.5182 62.0553C56.3091 61.1456 55.807 60.226 55.1176 59.6049C54.6659 59.1982 54.1875 58.9798 53.6114 58.8059C52.571 58.4916 51.4928 58.2544 50.4238 58.0701C49.1693 57.8537 47.8834 57.6709 46.6121 57.6091C45.3509 57.5478 44.0887 57.6071 42.828 57.6373C42.4106 57.6472 42.0093 58.0049 42.0291 58.4526C42.048 58.8859 42.3806 59.2788 42.828 59.2679Z" fill="#D52122"/>
<path d="M35.1905 73.4391C32.1723 72.058 29.1483 70.6917 26.1244 69.3244C23.1914 67.9982 20.2662 66.6537 17.3308 65.3333C15.9267 64.7019 14.4951 64.0753 13.2097 63.2106C12.8601 62.9754 12.3106 63.1281 12.1165 63.5031C11.9049 63.9112 12.0298 64.3678 12.4031 64.6188C13.5447 65.3867 14.8045 65.9629 16.0507 66.5282C17.4382 67.1572 18.8248 67.7887 20.2119 68.4192C23.2325 69.7924 26.257 71.1557 29.2796 72.5249C30.9823 73.2962 32.6841 74.0696 34.3839 74.8473C34.7645 75.0213 35.2607 74.9723 35.4771 74.5548C35.6611 74.199 35.5977 73.6253 35.1905 73.4391Z" fill="#D52122"/>
<path d="M35.0317 75C40.8788 74.9837 46.3119 72.4557 51.7402 70.5509C53.3287 69.9935 54.9191 69.4425 56.496 68.8515C56.8872 68.7048 57.1946 68.2917 57.0537 67.8485C56.9293 67.4566 56.4911 67.1216 56.0709 67.2792C53.3064 68.3154 50.5012 69.235 47.7368 70.2717C45.0899 71.2644 42.4242 72.2467 39.6597 72.8431C39.2763 72.9257 38.8918 73.0008 38.5055 73.067C38.2978 73.1025 38.0896 73.1347 37.8809 73.1663C37.5895 73.2103 38.0281 73.149 37.7357 73.1865C37.6461 73.1979 37.5566 73.2093 37.467 73.2202C36.6585 73.316 35.8456 73.3669 35.0312 73.3689C34.6134 73.3699 34.213 73.7429 34.2324 74.1842C34.2518 74.6255 34.5834 75.001 35.0312 74.9995L35.0317 75Z" fill="#D52122"/>
<path d="M56.6954 68.7527C58.6945 67.2125 60.2728 65.2464 61.6643 63.135C63.1249 60.9178 64.4379 58.5954 65.7984 56.3135C66.5692 55.0204 67.5723 53.6556 67.5491 52.0714C67.5428 51.645 67.186 51.2363 66.7502 51.2561C66.3145 51.2759 65.9446 51.6143 65.9514 52.0714C65.9528 52.1564 65.948 52.2404 65.9475 52.3249C65.9461 52.5804 65.9654 52.2527 65.9432 52.3995C65.9209 52.5463 65.8831 52.7009 65.8391 52.8477C65.8231 52.9015 65.8057 52.9549 65.7873 53.0078C65.7892 53.0028 65.6924 53.2613 65.7461 53.1293C65.6817 53.2875 65.6047 53.4416 65.5268 53.5928C65.2348 54.1576 64.893 54.6962 64.5677 55.2417C63.8584 56.4316 63.1491 57.621 62.4399 58.8108C61.8226 59.846 61.2077 60.8827 60.556 61.8957C59.915 62.8914 59.2822 63.803 58.5943 64.6445C58.1808 65.1505 57.746 65.6382 57.2851 66.1002C57.0552 66.331 56.8189 66.5548 56.5758 66.7713C56.4543 66.8795 56.3309 66.9862 56.2055 67.0905C56.1532 67.134 56.1009 67.1774 56.0481 67.2199C56.006 67.254 55.9634 67.2881 55.9208 67.3222C55.9755 67.2787 55.9649 67.2866 55.8893 67.3455C55.5567 67.6014 55.35 68.0609 55.6027 68.4612C55.8148 68.7967 56.3391 69.0285 56.6959 68.7537L56.6954 68.7527Z" fill="#D52122"/>
<path d="M67.2789 51.3939C65.4585 49.9091 62.969 49.2598 60.7908 50.3212C59.6981 50.8539 58.8175 51.7892 57.9673 52.6471C57.1118 53.5108 56.2796 54.3988 55.4652 55.303C54.5415 56.3288 53.64 57.3764 52.7656 58.4462C52.4983 58.7733 52.4282 59.2832 52.7656 59.599C53.0609 59.8757 53.6095 59.9488 53.8951 59.599C55.3664 57.7998 56.908 56.058 58.5207 54.3894C58.9075 53.9891 59.2992 53.5928 59.6967 53.2034C60.0695 52.8383 60.5081 52.4272 60.8436 52.1855C61.0595 52.0299 61.2856 51.8876 61.5219 51.7665C61.5718 51.7408 61.6221 51.7166 61.673 51.6929C61.5389 51.7561 61.7625 51.6573 61.7683 51.6549C61.885 51.6109 62.0041 51.5723 62.1242 51.5392C62.2443 51.5061 62.3648 51.4789 62.4868 51.4567C62.5352 51.4478 62.5846 51.4394 62.6335 51.4325C62.4767 51.4537 62.6403 51.435 62.6795 51.4315C62.9395 51.4088 63.2014 51.4088 63.4614 51.429C63.5113 51.433 63.5607 51.4384 63.6105 51.4429C63.8023 51.4607 63.5229 51.4216 63.6957 51.4547C63.8444 51.4834 63.992 51.5106 64.1392 51.5481C64.3978 51.6138 64.65 51.6988 64.8979 51.7981C65.0325 51.8525 64.7323 51.7176 64.9526 51.8224C65.0218 51.855 65.0911 51.8876 65.1593 51.9222C65.2847 51.9854 65.4077 52.0531 65.5287 52.1253C65.6498 52.1974 65.7679 52.2725 65.8836 52.3521C65.9257 52.3812 65.9674 52.4104 66.0085 52.4405C66.0497 52.4707 66.0903 52.5008 66.131 52.5319C66.0695 52.4825 66.0753 52.4875 66.1484 52.5468C66.4743 52.8126 66.9642 52.8956 67.278 52.5468C67.5438 52.2513 67.6265 51.6781 67.278 51.3939H67.2789Z" fill="#D52122"/>
<path d="M66.2506 51.095C66.6863 50.3889 66.9947 49.6022 67.1647 48.7864C67.3341 47.9736 67.4242 47.0594 67.0233 46.299C66.4297 45.1719 65.0257 45.0809 63.9204 45.1407C62.9845 45.1916 62.068 45.3848 61.1845 45.7006C60.8146 45.833 60.5681 46.2076 60.6771 46.6123C60.7758 46.9784 61.1985 47.263 61.5703 47.1301C62.3871 46.8381 63.1961 46.6567 64.0245 46.6177C64.3009 46.6048 64.5779 46.6004 64.8538 46.6216C64.894 46.6246 65.1414 46.6612 64.939 46.6266C65.0117 46.6389 65.0838 46.6513 65.1559 46.6676C65.2281 46.6839 65.2959 46.7027 65.3641 46.7249C65.398 46.7358 65.4309 46.7476 65.4643 46.7605C65.3801 46.7224 65.3622 46.7145 65.4111 46.7378C65.4605 46.7709 65.5195 46.7921 65.5704 46.8237C65.5994 46.842 65.6275 46.8608 65.6556 46.8811C65.5767 46.8168 65.567 46.8104 65.6275 46.8628C65.6599 46.8979 65.7902 47.0703 65.6851 46.9082C65.7253 46.97 65.7601 47.0318 65.7945 47.097C65.7083 46.9359 65.8076 47.1518 65.8192 47.1998C65.8245 47.2205 65.856 47.4103 65.8454 47.3218C65.8739 47.5511 65.8609 47.7957 65.8323 48.0245C65.733 48.8077 65.4338 49.6383 64.9971 50.3469C64.788 50.6859 64.9269 51.1637 65.2576 51.3608C65.6067 51.5694 66.0414 51.4345 66.2511 51.095H66.2506Z" fill="#D52122"/>
<path d="M59.0891 46.467C57.718 45.9615 56.1333 45.8241 54.7269 46.2659C53.3204 46.7076 52.294 47.6549 51.2004 48.5537C49.0028 50.3592 46.92 52.3022 44.7786 54.1754C43.5774 55.2259 42.3569 56.2542 41.0923 57.2242C40.7791 57.4643 40.6173 57.8646 40.8318 58.2381C41.0124 58.5529 41.5101 58.7461 41.8253 58.504C44.0877 56.7686 46.216 54.8692 48.3444 52.9673C49.3717 52.0492 50.4015 51.1345 51.454 50.2466C52.4761 49.3843 53.4541 48.4707 54.6291 47.8792C54.8489 47.7685 54.5163 47.9182 54.7434 47.8278C54.8165 47.7987 54.8896 47.771 54.9636 47.7453C55.1379 47.6845 55.3156 47.6336 55.4952 47.5921C55.8356 47.514 56.1498 47.4903 56.5197 47.4888C57.2793 47.4864 57.9678 47.6257 58.7027 47.897C59.0605 48.0289 59.5137 47.7488 59.596 47.3791C59.6889 46.9621 59.472 46.6088 59.0886 46.4675L59.0891 46.467Z" fill="#D52122"/>
<path d="M51.0483 48.6263C50.525 48.145 49.9396 47.647 49.2299 47.4977C48.3599 47.3144 47.5378 47.5891 46.7423 47.9321C46.3811 48.0877 46.3022 48.6323 46.4818 48.946C46.7007 49.328 47.1127 49.3685 47.4753 49.2119C47.7329 49.1007 48.08 49.0004 48.3879 48.9302C48.4741 48.9164 48.4712 48.9159 48.3787 48.9292C48.4179 48.9248 48.4572 48.9213 48.4964 48.9184C48.553 48.9149 48.6097 48.9129 48.6663 48.9134C48.6871 48.9134 48.9069 48.9213 48.7849 48.9154C48.6629 48.9095 48.8687 48.9327 48.8939 48.9386C48.9437 48.9505 48.9936 48.9648 49.0425 48.9811C49.0749 48.992 49.1074 49.0033 49.1393 49.0162C49.0459 48.9742 49.0357 48.9697 49.1093 49.0038C49.2216 49.0626 49.332 49.1224 49.438 49.1931C49.486 49.2252 49.5315 49.2598 49.5789 49.2924C49.6433 49.3418 49.6419 49.3398 49.5746 49.2865C49.607 49.3122 49.639 49.3389 49.6709 49.3651C49.7905 49.4649 49.9062 49.5691 50.021 49.6749C50.3124 49.9427 50.7607 49.9684 51.0478 49.6749C51.3146 49.4026 51.3403 48.8956 51.0478 48.6268L51.0483 48.6263Z" fill="#D52122"/>
<path d="M12.6132 63.0006C11.1743 62.8528 9.75577 62.8049 8.34932 63.2041C6.79085 63.6464 5.26578 64.2443 3.7349 64.777C2.84697 65.0858 1.95856 65.3946 1.07063 65.7039C0.676051 65.8413 0.374426 66.2702 0.512892 66.707C0.639739 67.1068 1.07208 67.424 1.49571 67.2763C3.03095 66.7421 4.56667 66.208 6.1019 65.6738C6.85814 65.4109 7.611 65.1352 8.37498 64.896C8.73567 64.7829 9.1012 64.6771 9.47158 64.6015C9.50692 64.5941 9.54226 64.5877 9.57761 64.5813C9.59939 64.5773 9.75045 64.5521 9.65362 64.567C9.58293 64.5778 9.77562 64.5531 9.81097 64.5497C9.98139 64.5329 10.1528 64.523 10.3237 64.5171C11.0882 64.4919 11.8531 64.5521 12.6132 64.6302C13.0306 64.6732 13.43 64.2245 13.4121 63.8149C13.3912 63.3366 13.0601 63.0455 12.6132 62.9996V63.0006Z" fill="#D52122"/>
<path d="M52.2166 64.7794C48.3628 65.0542 44.5007 65.2311 40.6566 65.6372C39.5372 65.7553 38.4203 65.8957 37.3063 66.0582C36.8913 66.1185 36.627 66.6789 36.7485 67.0613C36.8957 67.5253 37.2864 67.6958 37.7313 67.6306C39.4748 67.3766 41.4235 67.1769 43.269 67.0238C45.1693 66.8661 47.0725 66.7466 48.9757 66.6255C50.0563 66.5568 51.1369 66.4871 52.2171 66.4106C52.6329 66.3809 53.0362 66.0568 53.0159 65.5952C52.9975 65.1792 52.6635 64.7483 52.2171 64.7799L52.2166 64.7794Z" fill="#D52122"/>
<path d="M37.3048 66.0642C32.9388 65.5774 28.8245 65.1219 24.5204 64.2146C23.3734 63.973 22.2323 63.6988 21.1047 63.3756C20.7029 63.2605 20.2173 63.5174 20.1219 63.9448C20.0265 64.3723 20.2492 64.8244 20.6796 64.9479C24.9372 66.1694 29.3599 66.7604 33.7429 67.2866C34.9296 67.429 36.1172 67.5624 37.3048 67.6948C37.7217 67.7412 38.1216 67.2866 38.1036 66.8795C38.0823 66.3982 37.7512 66.1141 37.3048 66.0642Z" fill="#D52122"/>
<path d="M16.6684 46.504C12.4055 47.1691 8.18713 48.1243 4.05057 49.368C2.89055 49.7169 1.73779 50.0885 0.591809 50.4813C0.196259 50.6167 -0.103913 51.049 0.0340694 51.4844C0.1614 51.8856 0.592777 52.1994 1.01689 52.0536C5.10359 50.6523 9.28131 49.5311 13.5157 48.7034C14.7043 48.4712 15.8972 48.2626 17.0935 48.0759C17.508 48.0111 17.7738 47.4577 17.6513 47.0728C17.5051 46.6123 17.1129 46.4339 16.6684 46.5035V46.504Z" fill="#D52122"/>
<path d="M42.6222 58.4269C42.0499 58.3389 41.4777 58.251 40.9054 58.1625C40.8139 58.1487 40.7747 58.2915 40.8667 58.3053C41.4389 58.3933 42.0112 58.4813 42.5835 58.5697C42.675 58.5835 42.7142 58.4407 42.6222 58.4269Z" fill="#D52122"/>
<path d="M40.2218 58.7881C40.6551 58.9877 41.056 59.1468 41.5338 59.1869C41.9778 59.2239 42.4256 59.2333 42.8706 59.2556C43.2235 59.2733 43.5242 58.9363 43.5242 58.5885C43.5242 58.2124 43.2245 57.9392 42.8706 57.9214C42.1473 57.8853 41.5169 57.9288 40.8817 57.6363C40.5602 57.4881 40.1787 57.5419 39.9875 57.8755C39.8238 58.1611 39.8984 58.6394 40.2218 58.7881Z" fill="#D52122"/>
<path d="M46.7423 47.9321C45.4186 48.7523 44.248 49.8019 43.116 50.8731C42.5568 51.4024 42.0039 51.939 41.437 52.4593C41.1673 52.7069 40.8943 52.951 40.6159 53.1886C40.4736 53.3102 40.3298 53.4298 40.184 53.5469C40.155 53.5701 40.1259 53.5933 40.0969 53.6165C40.1768 53.5533 40.0795 53.6299 40.0688 53.6383C39.9909 53.6981 39.9124 53.7584 39.8335 53.8172C39.1731 54.3093 38.4716 54.7427 37.7197 55.0732C37.3595 55.2314 37.2787 55.7719 37.4592 56.0872C37.6771 56.4672 38.0911 56.5121 38.4527 56.353C41.2288 55.1335 43.2264 52.6515 45.485 50.6967C45.6496 50.5539 45.8161 50.4136 45.9851 50.2757C46.1744 50.1211 46.2102 50.0924 46.4097 49.9427C46.7544 49.6833 47.1098 49.4392 47.4758 49.2124C47.8108 49.0048 47.9367 48.5478 47.7363 48.1984C47.5358 47.8491 47.0793 47.724 46.7428 47.9326L46.7423 47.9321Z" fill="#D52122"/>
<path d="M38.2959 56.2211C38.1496 56.1771 38.3622 56.2764 38.23 56.1984C38.2087 56.186 38.0906 56.0916 38.1685 56.1608C37.9337 56.4711 37.6994 56.7814 37.4646 57.0923C37.7376 57.241 38.0107 57.3892 38.2833 57.538L38.7311 56.4543C38.6653 56.4405 38.6004 56.4252 38.5365 56.4049C38.5089 56.3965 38.4818 56.3871 38.4551 56.3768C38.505 56.401 38.4987 56.398 38.4358 56.3679C38.1608 56.2369 37.7967 56.2799 37.6408 56.5808C37.5052 56.8432 37.5551 57.2523 37.8495 57.3922C38.0349 57.4806 38.2218 57.5562 38.4222 57.5982C38.7083 57.6575 38.9906 57.538 39.1078 57.2548C39.2157 56.9939 39.1267 56.654 38.8701 56.5141C38.597 56.3654 38.3239 56.2171 38.0514 56.0684C37.7938 55.9286 37.482 55.9829 37.3019 56.2211C37.1363 56.44 37.1276 56.8062 37.3474 56.9999C37.5411 57.1703 37.7401 57.2914 37.987 57.3655C38.2784 57.453 38.6328 57.2603 38.7016 56.9514C38.7703 56.6426 38.6081 56.3155 38.2959 56.2221V56.2211Z" fill="#D52122"/>
<path d="M47.2332 59.0945C48.9907 58.1418 50.6048 56.9119 52.1459 55.6336C53.7494 54.3029 55.0861 52.698 56.5918 51.26C57.4497 50.4408 58.3619 49.6447 59.2827 48.9243C59.5935 48.6812 59.7586 48.2864 59.5432 47.9103C59.3641 47.598 58.863 47.3994 58.5497 47.6445C56.8441 48.9786 55.2725 50.4457 53.7823 52.024C53.0638 52.7854 52.3429 53.5469 51.5475 54.2258C50.7995 54.8642 50.1086 55.4137 49.3238 55.9903C48.4194 56.6544 47.4855 57.2815 46.5007 57.8152C46.1546 58.0029 46.048 58.4936 46.2402 58.8291C46.445 59.1869 46.8861 59.2832 47.2337 59.095L47.2332 59.0945Z" fill="#D52122"/>
<path d="M59.5263 48.7553C59.7698 48.4919 60.0133 48.2271 60.2757 47.983C60.3377 47.9257 60.4006 47.8693 60.4645 47.8145C60.4844 47.7977 60.6887 47.6351 60.571 47.725C60.7076 47.6208 60.8475 47.5219 60.9893 47.4261C61.0717 47.3707 61.1525 47.3184 61.2406 47.2739C61.291 47.2487 61.3418 47.225 61.3931 47.2013C61.429 47.185 61.6396 47.0945 61.4551 47.1721C61.5684 47.1247 61.6822 47.0777 61.7979 47.0367C61.8526 47.0174 61.9092 47.0031 61.9635 46.9838C61.9852 46.9779 62.0075 46.9725 62.0298 46.968C61.93 46.9952 61.8303 46.9942 61.7306 46.9641C62.1024 47.0362 62.5318 46.8583 62.6238 46.4462C62.7052 46.0811 62.5159 45.6116 62.1164 45.5346C61.778 45.4688 61.4783 45.5741 61.169 45.7006C60.9099 45.8063 60.6374 45.9096 60.3953 46.0539C59.6715 46.4848 59.0697 47.0901 58.4989 47.7068C58.2297 47.9978 58.2161 48.4662 58.4989 48.7548C58.7816 49.0434 59.2556 49.0468 59.5258 48.7548L59.5263 48.7553Z" fill="#D52122"/>
</svg>
