<svg width="188" height="12" viewBox="0 0 188 12" fill="none" xmlns="http://www.w3.org/2000/svg">
<path d="M3.79102 4.25591C2.78559 4.24266 1.82134 4.63046 1.1104 5.34163C0.399451 6.05235 4.673e-05 7.0282 4.673e-05 8.04688C4.673e-05 9.06555 0.399451 10.0414 1.1104 10.7521C1.82134 11.4633 2.78559 11.8511 3.79102 11.8378C4.95706 11.8227 6.13013 11.8075 7.29848 11.7923C9.1781 11.7706 11.0894 11.7275 12.9746 11.6656C22.3758 11.3411 31.6363 10.7816 40.9713 10.2121C69.2237 8.44612 97.4854 6.38465 125.689 4.76874C134.483 4.40418 143.698 3.45265 151.849 4.38544L151.819 4.37919C156.466 5.36396 161.378 6.11885 166.167 6.34599L166.201 6.3481C169.683 6.47527 173.154 6.55524 176.623 6.63627C179.663 6.70582 182.703 6.77001 185.742 6.83446C186.115 6.84228 186.477 6.70049 186.749 6.44312C187.021 6.18558 187.181 5.83354 187.193 5.46163C187.206 5.08971 187.071 4.72757 186.817 4.45205C186.563 4.17669 186.211 4.01051 185.84 3.99289C185.84 3.99289 185.84 3.99289 185.84 3.99289C182.803 3.84951 179.767 3.70643 176.733 3.55809C173.274 3.38731 169.806 3.21706 166.37 3.00193L166.405 3.00405C161.702 2.65184 157.232 1.84353 152.607 0.742924L152.577 0.736672C143.066 -0.579162 134.504 0.248018 125.502 0.359352C97.1968 1.24381 68.8882 2.57161 40.648 3.60062C31.3353 3.92729 22.0614 4.24352 12.8308 4.32196C10.9779 4.33448 9.15452 4.32827 7.29848 4.30148C6.13013 4.28629 4.95706 4.2711 3.79102 4.25591Z" fill="#D52122"/>
</svg>
