<svg width="300" height="291" viewBox="0 0 300 291" fill="none" xmlns="http://www.w3.org/2000/svg">
<path d="M151.032 0.173679C154.965 -0.525678 157.201 1.00537 160.577 2.65383C163.862 4.25733 167.367 5.27815 170.825 6.40891C179.981 9.40202 189.386 11.5784 198.769 13.7254C201.917 14.4466 205.128 14.7635 208.323 15.1806C217.655 16.9229 227.142 17.3185 236.566 18.3036C241.913 18.8257 247.098 18.9724 252.389 20.0517C258.937 21.3872 266.253 22.6232 271.841 26.5237C272.622 27.0691 273.504 28.302 274.311 28.9332C275.459 29.831 276.652 30.7408 277.653 31.7989C281.978 36.5037 278.427 39.7037 276.927 44.4054C276.785 44.8541 276.732 46.3669 276.709 46.9565C276.882 47.2389 277.05 47.5235 277.213 47.811C279.442 51.7259 280.832 55.5161 282.222 59.7734C283.507 63.8319 285.281 67.8586 286.464 71.939C291.962 90.9123 293.42 110.572 296.094 130.047C297.195 138.074 303.391 146.555 296.495 154.064C294.706 156.013 291.862 156.938 289.632 158.249C286.057 160.269 282.273 162.01 279.019 164.55C274.072 168.274 270.485 172.413 266.471 177.02L247.12 199.625C243.061 204.358 238.51 209.028 234.742 214.074C226.895 224.583 218.971 235.317 212.171 246.534C209.732 250.555 206.658 254.476 204.105 258.426L196.661 270.15C193.341 275.294 190.098 280.262 187.123 285.559C184.237 290.696 176.042 292.362 171.173 289.251C169.013 287.871 166.99 287.88 164.569 288.324C159.784 289.203 157.82 287.864 153.892 285.712C152.057 284.642 150.367 283.358 148.539 282.228C145.025 280.062 141.37 278.134 137.597 276.458C133.484 274.606 129.275 273.454 124.98 272.145C121.746 271.161 118.516 270.036 115.317 268.938C94.2163 261.7 73.2104 254.168 51.4992 248.935C44.434 247.231 37.1837 245.811 29.9915 244.77C27.1922 244.364 24.3822 243.953 21.5767 243.598C19.762 243.368 17.8716 243.254 16.0864 242.871C14.8409 242.606 13.7507 242.183 12.7313 241.397C10.6812 239.819 8.96984 237.502 8.31539 234.98C7.65966 232.454 7.76898 229.472 7.48075 226.856C6.71042 219.87 5.85847 212.949 5.33484 205.934L2.68716 165.396C2.35101 160.029 2.37433 154.73 1.77254 149.319C1.55554 145.858 0.632901 142.557 0.112548 139.156C-0.774747 133.355 3.7224 130.406 8.73808 129.967C8.35365 126.087 8.47954 125.213 8.97093 121.329C7.14787 119.698 5.91386 117.982 5.55329 115.546C5.17542 112.994 5.8756 110.146 7.56802 108.169C9.58475 105.814 12.3694 103.38 14.4691 101.032C17.8805 97.2165 21.4 93.6327 25.0589 90.0509C26.1447 88.988 27.4422 88.0559 28.5015 87.0263C29.7615 85.8842 30.9148 84.254 32.2135 83.1884C35.9631 80.1123 39.6637 76.6088 43.4064 73.5736C49.972 68.2489 56.9304 63.3221 63.7229 58.2911C65.6154 56.8895 67.3858 55.3206 69.326 53.9832C72.2127 52.0752 75.0881 50.381 77.9752 48.4144L116.875 22.2362C123.761 17.6192 130.541 12.7166 137.442 8.12127C141.559 5.3799 146.012 0.80077 151.032 0.173679ZM158.329 260.801C157.148 253.098 157.713 244.501 158.032 236.712C158.651 221.609 158.875 206.061 157.848 190.977C156.933 177.523 153.524 161.715 148.907 149.011C142.693 149.115 136.755 149.549 130.522 149.128C127.127 148.899 123.745 148.515 120.359 148.183C112.789 147.474 105.23 146.655 97.6837 145.727C82.0837 143.818 66.4666 141.782 50.8493 140.001C40.0261 138.767 29.0253 138.169 18.1815 137.136C19.4162 142.367 20.1355 147.409 20.6207 152.751C21.3415 160.688 24.1366 221.326 26.5592 223.957C27.9527 224.585 32.0459 225.067 33.7145 225.258C60.5015 228.305 85.0967 237.569 110.65 245.342C113.881 246.354 117.106 247.384 120.325 248.434C131.777 252.188 143.159 255.18 154.085 260.366C154.738 260.676 157.826 262.043 158.254 261.933C158.371 261.371 158.356 261.347 158.329 260.801ZM156.481 21.4014C150.793 24.0357 145.307 30.1075 139.367 32.6119C135.811 34.1113 133.171 36.332 129.969 38.413L113.775 48.8454C111.65 50.2391 109.146 51.3567 107.152 52.7953C100.723 57.4325 94.4058 62.164 87.7369 66.4752C86.6375 67.186 85.5708 68.2403 84.4707 68.9783C80.1936 71.3594 77.1866 74.939 73.4709 77.8476L62.5308 86.3461C58.548 89.4147 53.2891 93.2936 49.814 96.9089C43.1848 103.806 35.0022 110.504 29.3162 118.091C36.5709 119.084 45.5944 118.895 52.7784 120.235C58.1216 120.758 63.4572 121.357 68.7834 122.031C72.1976 122.47 76.1694 123.263 79.5417 123.259C79.6924 122.775 80.181 121.21 80.4228 120.882C82.1668 118.519 84.8593 114.098 86.7711 112.032C90.8392 107.636 95.364 103.298 99.6172 99.0679C102.308 96.3915 104.783 93.7345 107.536 91.144C109.242 89.5387 111.159 88.1321 112.804 86.5665L160.827 41.3602C163.13 39.2214 165.525 36.9966 167.872 34.9178C170.505 32.5868 174.007 30.3978 176.138 27.5462C172.715 26.5348 169.186 25.5011 165.775 24.4735C163.882 23.903 157.902 21.5319 156.481 21.4014ZM160.211 132.371C162.505 127.498 164.757 126.425 168.566 122.886C174.213 117.624 179.944 112.454 185.762 107.38C191.149 102.597 196 97.5421 201.219 92.6166C207.72 86.6642 214.33 80.8881 220.578 74.6649C221.542 73.8479 222.478 72.9061 223.46 72.1155C230.211 66.6798 235.873 60.1615 241.98 54.0555C245.53 50.5081 248.895 47.1001 251.837 43.0209C252.608 41.9522 253.472 41.0229 254.111 39.8475C250.994 38.7568 247.264 38.4419 243.948 38.0427C238.715 37.4367 233.475 36.8948 228.23 36.417C220.971 35.8099 214.248 35.3891 207.042 34.043C204.37 33.5437 198.39 32.4959 195.775 32.7025C191.463 34.472 182.331 41.7934 178.623 44.98C172.595 50.1613 166.764 56.8655 160.843 62.2734C160.14 62.9167 159.444 63.7768 158.751 64.4445C153.309 70.0495 146.96 74.7266 141.318 80.1449C139.186 82.1927 137.093 84.313 134.948 86.3499C129.735 90.6254 125.242 95.422 120.607 100.271C118.225 102.763 115.221 105.341 112.726 107.788C107.261 113.148 101.936 118.771 95.5005 122.968C94.6939 123.494 93.7437 123.955 93.6636 125.003C94.7912 126.071 133.138 129.415 137.418 129.357C141.797 129.298 149.827 128.293 154.606 129.223C157.651 130.045 158.041 130.038 160.211 132.371ZM277.348 142.455C277.099 141.095 276.842 139.888 276.497 138.555C276.088 136.971 275.133 134.786 275.005 133.202C274.342 125.088 273.169 117.059 272.199 109.002C270.735 96.8291 269.45 84.8643 265.249 73.229C264.483 71.0549 263.463 66.3634 262.155 64.6068L261.703 64.4885C254.568 70.9373 247.718 78.7225 240.681 85.4021C239.087 86.914 237.416 88.2699 235.822 89.7509L215.551 108.44C211.59 112.148 207.91 116.128 204.047 119.897C198.064 125.735 191.539 131.232 185.419 136.942C182.929 139.266 180.793 142.025 178.104 144.093C176.124 145.645 171.762 145.584 170.999 147.209C171.959 151.794 173.801 156.309 174.69 160.973C175.291 164.122 176.344 167.349 176.916 170.52C179.873 186.914 180.092 203.415 180.148 220.019C180.145 225.018 179.851 230.009 179.81 235.008C179.753 239.957 179.748 244.906 179.793 249.856C179.811 250.988 179.542 254.381 180.198 255.036C181.202 254.747 182.153 252.85 182.727 251.904C185.782 247.42 188.752 242.777 191.692 238.211C192.589 236.752 193.886 235.363 194.741 233.905C201.145 222.979 209.048 213.13 216.333 202.803C217.584 201.028 219.676 198.984 221.113 197.271C227.368 189.681 233.845 182.274 240.536 175.064C250.695 163.967 260.745 152.76 273.575 144.736C274.767 143.99 276.27 143.303 277.348 142.455Z" fill="#D52122"/>
</svg>
