<svg width="167" height="167" viewBox="0 0 167 167" fill="none" xmlns="http://www.w3.org/2000/svg">
<path d="M133.557 94.8438C140.883 94.2191 139.891 99.4762 138.033 104.368C138.284 104.51 138.529 104.661 138.77 104.819C140.159 105.751 140.104 107.505 139.419 108.857C136.591 114.436 133.02 119.849 129.68 125.136C127.589 128.447 124.386 132.097 121.271 134.395C120.486 134.975 116.847 136.08 115.72 136.46C113.305 137.269 110.899 138.107 108.503 138.972C102.035 141.299 95.5914 143.816 88.7248 144.674C86.4187 144.963 84.639 145.393 82.3946 144.426C79.3992 143.137 76.4446 141.765 73.4625 140.444L54.5664 132.072C52.9846 131.366 51.366 130.634 49.7799 129.914C48.3226 129.253 45.6864 127.542 44.2353 127.388C39.2917 126.898 34.7297 129.398 30.1235 130.786C28.8795 131.161 26.2469 132.427 25.1253 131.649C24.618 130.784 24.9309 129.634 25.8447 129.363C32.097 127.513 38.6025 123.838 45.2704 124.711C45.9465 124.8 50.8816 127.424 51.8431 127.863L73.1591 137.338C74.5884 137.972 82.9079 141.973 84.0733 142.059C93.2532 142.532 102.888 137.794 111.383 135.056C117.343 133.135 121.925 131.915 125.402 126.411C128.164 122.037 135.948 111.342 137.181 106.848C130.77 103.836 128.869 105.661 124.256 110.376C121.798 112.887 119.478 115.539 117.142 118.165C121.488 120.65 122.977 126.571 118.235 129.644C113.524 131.52 102.904 130.782 97.3275 131.595C95.6381 131.841 88.4686 132.646 87.3027 132.559C83.44 132.27 59.947 129.517 58.5458 127.343C58.3223 126.522 59.0155 125.265 59.6263 125.411C68.6105 127.558 77.7394 128.931 86.9396 129.826C88.5838 129.986 90.6769 129.587 92.3521 129.393C94.601 129.146 96.8525 128.922 99.1062 128.723C102.096 128.494 105.088 128.287 108.081 128.101C110.806 127.953 115.432 128.036 117.682 126.826C118.515 125.437 118.734 124.368 117.983 122.837C117.566 121.983 116.895 121.278 116.063 120.818C113.531 119.414 106.427 118.614 103.243 118.481C101.116 118.392 95.9059 118.753 94.1457 118.134C91.4815 117.196 87.5698 114.422 84.8403 112.972C76.8233 108.713 62.848 100.857 54.1492 99.822C46.4209 100.34 38.6631 102.732 31.1901 104.641C29.9544 104.956 22.6239 108.269 24.1801 104.411C26.4498 102.416 50.1631 96.7674 53.9982 97.0707C62.0338 97.7062 73.8099 104.24 81.2292 107.897C83.3092 108.922 85.9381 110.629 88.1874 111.692C90.4895 110.56 91.6305 109.891 93.6939 108.247C97.6097 105.128 101.701 99.7558 106.727 98.6354C108.522 98.2351 110.321 99.6094 111.681 100.58C115.709 96.8712 120.853 94.6817 126.085 97.3867C128.137 95.557 130.888 94.9654 133.557 94.8438ZM113.646 117.093C113.887 117.148 114.204 117.272 114.388 117.113C115.278 116.344 116.408 114.923 117.155 114.05C118.76 112.185 120.424 110.371 122.144 108.611C125.957 104.67 129.636 101.012 135.642 103.22C136.171 102.416 136.334 101.841 136.655 100.966C138.091 97.0534 135.486 97.2507 132.657 97.3595C129.642 97.9617 129.055 98.3033 126.693 100.19C122.52 103.523 118.861 107.118 115.142 110.933C113.294 112.793 110.143 114.976 107.935 116.417C110.157 116.289 111.468 116.648 113.646 117.093ZM102.781 115.691C105.282 115.769 106.796 114.238 108.761 112.869C112.162 110.497 115.14 107.597 117.969 104.581C119.845 102.583 122.049 101.027 124.057 99.2233C122.132 98.6808 121.424 98.7413 119.4 98.83C118.766 99.0037 117.795 99.2736 117.263 99.6323C110.24 104.373 104.246 110.643 97.5299 115.848C99.1538 115.763 101.192 115.602 102.781 115.691ZM94.2467 115.167C95.9321 114.317 108.154 103.827 109.83 102.043C108.539 101.477 108.096 101.169 106.69 101.214C103.32 102.069 98.4284 107.635 95.5177 109.945C93.6917 111.394 92.8299 112.092 90.7528 113.368C91.8556 113.916 93.1915 114.687 94.2467 115.167Z" fill="#232323"/>
<path d="M24.6445 57.2851C25.6106 53.4361 27.5384 50.5455 29.7013 47.1612C33.2699 41.5772 37.374 33.7342 42.8557 29.8481C45.6801 27.846 52.7583 26.5686 56.0571 24.9199C62.2996 22.5992 73.3244 18.6145 79.9346 19.0416C80.7842 19.0927 81.6218 19.2679 82.4206 19.5613C84.9363 20.457 89.1297 22.5308 91.7847 23.7159L110.076 31.8286C112.393 32.8553 114.711 33.849 116.951 35.0351C118.148 35.6438 119.243 36.3273 120.603 36.4892C122.207 36.6803 123.837 36.5752 125.411 36.1595C129.793 35.0019 133.99 33.0137 138.383 31.911C138.629 31.8494 139.002 32.0125 139.224 32.1177C138.731 32.8646 138.769 33.5791 138.812 34.529C133.659 36.0689 128.703 38.5872 123.351 39.27C118.728 39.8597 116.687 37.7439 112.761 35.9875L92.5889 27.051L85.7652 24.0004C85.0422 23.6733 81.5792 22.0546 80.9165 21.9781C72.3436 20.9885 61.7215 26.1289 53.6545 28.6911C51.7314 29.3019 45.1118 31.5482 44.2774 32.2006C39.151 36.2076 35.0857 43.6861 31.692 49.1682C30.3109 51.3991 28.0901 54.734 27.538 56.9571C30.6207 59.2091 34.9477 59.0472 37.5463 56.2151C39.3245 54.2769 46.3648 47.8428 47.1368 45.7954C46.5138 45.1797 45.7396 44.4466 45.2127 43.769C43.1943 41.1724 42.4459 37.1078 45.4366 34.9059C47.9344 33.0668 51.2228 33.3934 54.1619 33.164C58.3696 32.8358 62.549 32.6474 66.7552 32.3491C70.2301 32.1113 73.6564 31.4413 77.1243 31.2606C77.7567 31.2307 80.9203 31.6771 81.6927 31.7713C84.3012 32.0689 86.9063 32.3962 89.5072 32.7536C91.8983 33.0918 104.91 34.9427 105.993 36.5711C106.165 36.8246 106.22 37.139 106.145 37.4357C105.715 39.1904 102.973 38.0794 101.804 37.7967C93.7221 35.8435 85.3545 34.8519 77.0864 34.0361C75.9067 33.9197 73.2411 34.4034 71.9243 34.5488C69.1363 34.8385 66.3456 35.1007 63.5524 35.3355C60.3571 35.5972 57.1125 35.6428 53.9162 35.9409C51.2531 36.1894 49.1879 35.6792 46.8694 37.1945C46.5757 37.7028 46.2894 38.4277 46.0513 38.9826C46.3151 39.8972 46.5586 40.8917 47.0903 41.6905C47.5561 42.3901 48.1675 42.9196 48.9232 43.2864C51.6388 44.6046 58.4861 45.3599 61.5842 45.4807C63.5758 45.5584 65.5711 45.4418 67.5633 45.4551C68.7876 45.4634 70.0708 45.5648 71.2217 46.0071C73.2532 46.7877 75.0509 48.3026 76.9727 49.3352C84.3829 53.317 102.476 63.7525 110.587 64.0305C112.821 64.107 115.026 63.5765 117.208 63.1618C122.749 62.1085 128.157 60.7093 133.59 59.2057C135.136 58.7778 136.628 58.1286 138.18 57.7325C138.664 57.6091 139.293 57.4806 139.787 57.6228C140.205 57.7434 140.296 57.9116 140.513 58.2562C140.556 58.6706 140.577 59.0028 140.342 59.3728C140.044 59.8434 139.549 60.1257 139.053 60.3475C137.689 60.9582 136.095 61.2719 134.659 61.6912C131.549 62.5994 128.444 63.5179 125.292 64.2803C121.814 65.1219 114.148 66.9372 110.919 66.8378C102.744 66.586 83.6526 56.4849 76.5329 52.1319C70.0318 54.5619 62.8785 65.2595 57.2419 65.2298C55.5314 65.2207 54.3186 64.3947 53.1708 63.2237C51.3372 64.2257 49.7923 66.0759 47.4771 66.9509C44.2893 68.1553 41.409 67.7442 38.3719 66.5149C38.2913 66.5976 38.2092 66.6787 38.1254 66.7585C35.7289 69.0344 28.424 70.2017 25.9837 67.6917C24.2379 65.8959 25.9114 61.8349 26.3784 59.8774C26.4485 59.5842 25.7532 58.9627 25.5266 58.7678C25.0254 58.3367 24.8923 57.9039 24.6445 57.2851ZM27.6161 66.0382C29.8895 66.9143 30.5905 66.6763 33.0171 66.2938C36.1501 65.8404 37.3237 64.1056 39.5459 62.2456C41.0731 60.9673 42.4876 59.8841 43.9051 58.4708C46.8838 55.501 52.6011 49.5078 56.3975 47.7977C54.8551 47.5006 51.5922 46.7853 50.222 46.6981C47.0772 50.3193 43.9905 53.7991 40.5614 57.1684C36.8483 60.8165 34.0148 62.2122 28.7426 60.7607C27.9864 63.0212 27.6557 63.5987 27.6161 66.0382ZM40.301 64.7487C42.5475 65.1015 43.9563 65.3289 46.211 64.8148C50.9441 62.5839 57.297 56.0226 61.497 52.6095C62.2182 52.0236 65.798 49.1407 66.3026 48.6219L66.3758 48.3767C65.6093 48.0768 61.2961 48.2146 60.2849 48.2685C58.4006 48.7576 53.5096 52.7265 51.8529 54.1641C48.0871 57.4316 44.5814 62.061 40.301 64.7487ZM54.8423 61.6592C56.08 62.4893 56.5834 62.8017 58.0685 62.6278C61.0222 61.889 65.0529 57.4303 67.4074 55.3555C69.5614 53.4574 70.7543 52.3332 73.3128 50.9532L73.4673 50.6617C73.1283 50.1431 70.9448 48.8468 70.3794 48.6473C66.7324 51.3903 63.5749 54.1266 60.1528 57.1226C58.818 58.2914 56.212 60.6904 54.8423 61.6592Z" fill="#232323"/>
<path d="M34.6352 73.9736C36.1282 74.0361 41.0661 73.754 42.7187 74.137C42.9931 74.2005 43.2765 75.6318 42.8513 76.2079C41.8079 76.6768 40.1135 76.392 38.9419 76.2944C39.0895 77.9692 39.2664 79.3159 38.9236 80.9705C40.0916 80.9095 41.1061 80.9337 42.2769 80.9628C42.257 81.7329 42.2969 82.5864 42.3165 83.3627L38.9833 83.3757C39.1606 85.1632 39.1992 86.6241 38.9121 88.4018C40.7655 88.2813 41.559 88.213 43.421 88.3951C43.4405 89.0629 43.6051 90.2133 43.2496 90.6949C42.8437 90.9856 42.4458 90.9084 41.9225 90.899C40.077 90.8912 38.1231 90.8547 36.3015 91.1036C36.2429 89.6776 36.3032 87.9912 36.3194 86.5467C35.222 86.6239 34.4904 86.6077 33.3898 86.5666C33.0134 87.929 32.6685 89.4632 32.3209 90.8479C31.6994 90.9117 30.3819 91.0063 29.8115 90.8096C29.7615 89.8749 34.079 74.7869 34.6352 73.9736ZM34.2184 84.2612C34.9259 84.2258 35.6336 84.1954 36.3416 84.17C36.2896 82.8777 36.3887 77.2239 36.1032 76.6135C35.4298 78.8076 34.7923 82.1356 34.0844 84.0749L34.2184 84.2612Z" fill="#D52122"/>
<path d="M71.3687 73.8864C75.3831 74.147 79.0424 73.4103 79.8167 78.7155C80.2992 82.0211 80.3964 86.6318 78.4 89.4639C76.5976 91.2185 73.8542 90.9301 71.3892 91.0995L71.3687 73.8864ZM76.3553 87.6421C77.4967 85.2492 77.263 80.3902 76.7028 77.7997C76.4717 76.7306 75.209 76.5038 74.2785 76.3851L74.2512 84.3469C74.2506 85.1522 74.2039 87.6 74.3441 88.3021C75.1056 88.6792 75.7844 88.1652 76.3553 87.6421Z" fill="#D52122"/>
<path d="M119.501 73.9977L127.958 73.9564C127.921 74.7023 127.942 75.5584 127.942 76.3138C126.569 76.4223 125.186 76.508 123.825 76.2868C123.826 77.8521 123.817 79.4175 123.797 80.9828C126.483 80.8459 127.063 80.3801 127.148 83.3057C125.916 83.3774 125.028 83.4036 123.796 83.3641C123.838 85.0459 123.841 86.7284 123.805 88.4103C125.526 88.215 126.387 88.3499 128.061 88.3143C128.001 89.1157 128.025 90.1469 128.02 90.9663C127.437 90.8685 126.989 90.8804 126.4 90.8776C124.608 90.8911 122.806 90.8795 121.02 91.0274C120.904 89.5428 120.929 88.0504 121.096 86.5705C119.973 86.6333 119.207 86.6226 118.083 86.5749C117.893 88.0609 117.643 89.3489 117.129 90.7546C116.369 90.8877 115.274 90.9416 114.482 91.0039C114.831 88.9714 118.855 74.7706 119.501 73.9977ZM119.329 84.2377C119.795 84.2158 120.715 84.2453 121.033 83.9911C121.02 82.9929 121.202 76.8675 121.046 76.6025C120.656 77.4552 118.976 83.5419 119.169 84.1709L119.329 84.2377Z" fill="#D52122"/>
<path d="M110.851 73.854C111.565 73.885 112.739 73.8454 113.263 74.2831C113.304 76.4048 113.563 89.5261 113.151 90.7389C112.792 91.0877 112.265 91.0352 111.75 91.0559C111.421 91.0359 111.048 90.8699 110.902 90.5506C109.391 87.2484 108.862 83.1359 107.382 79.8732C107.493 82.4549 107.417 88.7787 107.72 90.883C106.74 90.915 106.185 91.0218 105.152 90.9726C104.963 90.679 104.808 75.2653 104.956 73.9284C106.212 73.9269 106.953 73.9277 108.189 74.0977C108.842 76.5661 110.246 81.5478 111.237 83.7904C110.801 81.0416 110.914 76.7968 110.851 73.854Z" fill="#D52122"/>
<path d="M92.3995 73.8485C93.1216 73.8848 94.2281 73.8429 94.7644 74.3172C94.8993 75.741 94.8623 79.9917 94.8517 81.5196C94.8343 84.0322 95.0413 88.3081 94.7968 90.668C94.4504 91.0532 94.526 90.9407 93.9197 91.0606C93.5999 91.0464 93.1846 91.0624 92.8914 90.9302C91.8622 90.4661 89.577 81.5154 88.893 79.8619C89.0961 83.5235 88.9585 87.4438 89.2056 90.8433C88.5594 90.9113 87.2749 91.1355 86.7806 90.7793C86.6141 89.5489 86.706 85.3266 86.7127 83.905C86.7279 80.6699 86.5422 77.1547 86.6501 73.9626C87.4476 73.9132 88.4311 73.8149 89.1941 74.0672C90.2189 74.4062 91.9543 82.2437 92.707 83.7061L92.7436 83.7759C92.3569 81.0647 92.4249 76.7077 92.3995 73.8485Z" fill="#D52122"/>
<path d="M19.0177 73.777C20.1423 73.9193 20.8797 73.9367 22.0174 73.9487C21.5293 78.2907 22.1727 86.0497 21.8074 90.6837C21.7126 90.7809 21.6315 90.8638 21.5644 90.9325L19.0119 91.1124C19.035 88.4869 18.9997 85.9612 19.0544 83.3068L16.4398 83.336C16.6565 85.7722 16.354 88.6353 16.6532 90.9309C15.6829 90.9511 14.6398 91.0426 13.6662 91.109C13.6768 89.1366 13.5036 74.556 13.8101 73.8081C14.9845 73.9391 15.4758 73.9425 16.6572 73.886C16.368 76.164 16.6909 78.6759 16.3116 80.8949C17.2624 80.8312 18.1801 80.8703 19.1314 80.8946C18.9821 78.5204 19.0141 76.1555 19.0177 73.777Z" fill="#D52122"/>
<path d="M53.5139 73.8864C55.07 74.0092 56.6862 73.9016 58.2304 74.0743C61.7735 74.471 62.603 78.9524 61.19 81.6085C60.5063 82.8856 59.2553 83.7607 57.8214 83.9648C57.2388 84.0431 56.918 83.9583 56.3447 84.1387C56.1867 84.4897 56.338 85.2587 56.39 85.6896C56.485 86.9142 56.3959 89.6236 56.401 90.9463C55.3898 90.9359 54.5783 91.0021 53.5732 91.0834C53.3058 86.1595 53.5328 79.0135 53.5139 73.8864ZM58.1627 81.2262C59.3449 79.9493 59.4853 78.0019 58.1145 76.8102C57.7455 76.4894 56.7624 76.3369 56.2674 76.2571C56.2886 76.7861 56.3401 81.4582 56.4053 81.5963C57.01 81.8524 57.6145 81.4938 58.1627 81.2262Z" fill="#D52122"/>
<path d="M147.117 73.9632C148.73 74.0209 152.804 74.0633 154.256 73.8733C154.186 74.6524 154.196 75.6218 154.183 76.4169C152.671 76.3442 151.572 76.4578 149.919 76.3038C149.994 77.8584 150.005 79.4154 149.95 80.9709C151.302 80.912 152.232 80.9254 153.585 80.995C153.546 81.7662 153.616 82.6189 153.661 83.3961C152.414 83.4133 151.167 83.3988 149.922 83.3525C150.027 84.7413 149.987 86.5529 149.994 87.974L150.002 88.193C150.42 88.4173 153.96 88.2908 154.744 88.2912C154.725 89.0977 154.759 90.0583 154.769 90.8773C152.433 90.8547 149.462 90.8652 147.179 91.0198C147.075 86.5285 147.276 81.9944 147.132 77.4975C147.096 76.3614 147.048 75.0842 147.117 73.9632Z" fill="#D52122"/>
<path d="M132.256 73.8159C133.446 73.715 134.044 73.8989 135.161 74.2098C135.563 74.7133 135.975 75.0426 136.462 75.4642C136.771 76.7437 136.926 77.2032 136.954 78.5279L134.698 78.6012C134.436 77.8198 134.162 76.6766 133.525 76.2025C131.572 75.477 131.524 78.433 132.715 79.7343C133.994 81.1322 136.388 83.079 136.943 84.8457C137.835 87.6873 137.025 90.0472 134.087 91.023C133.989 91.0422 133.891 91.0584 133.792 91.0716C130.263 91.5609 129.419 89.1708 129.083 86.2347C133.217 86.1815 130.333 87.5402 133.187 88.9753C133.524 88.9097 133.86 88.6647 134.07 88.3764C136.517 85.0114 129.02 82.011 129.277 77.8995C129.399 75.96 129.669 75.5263 130.841 74.2462L132.256 73.8159Z" fill="#D52122"/>
<path d="M47.4541 73.8973L47.6777 74.0785C47.5652 78.799 47.6713 83.6671 47.6228 88.4067C49.4144 88.2024 50.4908 88.2105 52.2756 88.4102C52.2812 89.2059 52.329 90.0933 52.3567 90.8958L49.8087 90.8913C48.1342 90.8804 46.4595 90.8932 44.7855 90.9295C44.713 90.179 44.7209 89.5416 44.7478 88.7882C44.9253 83.8348 44.7138 78.8592 44.7911 73.9096C45.7629 73.9444 46.4828 73.9413 47.4541 73.8973Z" fill="#D52122"/>
<path d="M139.57 74.022C141.687 73.9631 143.7 73.9186 145.818 74.022C145.819 74.8557 145.776 75.5709 145.721 76.3976C144.656 76.442 144.194 76.4161 143.134 76.3037C143.445 80.2692 143.271 86.088 143.265 90.2061C143.279 90.2834 143.262 90.5769 143.258 90.6741C142.846 91.081 141.119 91.0836 140.45 91.1209C140.421 86.1726 140.429 81.2242 140.473 76.2761C139.33 76.4372 137.997 76.8044 137.616 75.3369C137.787 74.1025 138.608 74.0492 139.57 74.022Z" fill="#D52122"/>
<path d="M25.7135 73.7903C26.6348 73.9465 27.649 73.9479 28.5885 73.9782C28.0298 78.3746 29.0271 84.7906 28.033 89.1376C27.8268 90.0388 26.536 90.7002 25.6994 91.0401C24.7868 91.1584 24.0452 91.4512 23.3594 90.7767C23.106 90.1829 23.194 89.2221 23.2065 88.546C26.732 88.6104 25.3177 87.1726 25.6183 84.8854C25.9166 82.6151 25.0924 75.5639 25.7135 73.7903Z" fill="#D52122"/>
<path d="M81.8159 78.5868C82.6575 78.4995 83.6034 78.5489 84.4568 78.5684C84.1816 82.1781 84.324 87.2341 84.4545 90.855C83.7054 90.9194 82.8291 91.0513 82.1132 90.8758C81.728 90.2725 81.8835 80.2246 81.8159 78.5868Z" fill="#D52122"/>
<path d="M82.0948 73.866L84.5033 73.84C84.5188 74.5637 84.6057 75.8246 84.4115 76.4732L84.0883 76.6376C83.3396 76.6709 82.5904 76.6965 81.8411 76.7141C81.7835 75.8493 81.4948 74.4685 82.0948 73.866Z" fill="#D52122"/>
<path d="M139.225 32.1177C140.101 33.1152 140.002 33.8379 138.812 34.529C138.769 33.5791 138.731 32.8646 139.225 32.1177Z" fill="#232323"/>
</svg>
