<?xml version="1.0" encoding="UTF-8"?>
<svg id="Lag_1" data-name="Lag 1" xmlns="http://www.w3.org/2000/svg" viewBox="0 0 1404.34 1517.82">
  <g>
    <path d="M1077.79,546.64c-29.98,1.36-60.01,1.95-90.03,1.28-8.47-.19-16.93-.48-25.39-.88-1.93-.09-1.93,2.91,0,3,29.94,1.43,59.93,1.45,89.88.57,8.51-.25,17.03-.58,25.54-.96,1.92-.09,1.93-3.09,0-3h0Z"/>
    <path d="M616.28,353.19c-14.73-8.64-29.39-17.4-43.98-26.26-3.62-2.2-8.65-2.78-12.71-1.66-3.83,1.05-7.98,4.01-9.86,7.58-2.02,3.83-3.04,8.47-1.66,12.71s3.81,7.57,7.58,9.86c14.59,8.86,29.25,17.62,43.98,26.26,3.69,2.17,8.59,2.8,12.71,1.66,3.83-1.05,7.98-4.01,9.86-7.58,2.02-3.83,3.04-8.47,1.66-12.71s-3.8-7.64-7.58-9.86h0Z"/>
    <path d="M1050.75,544.37c-7.42-.44-14.81-1.14-22.18-2.11l4.39.59c-31.15-4.2-60.93-13.9-89.82-26.05l3.94,1.66c-7.5-3.16-14.99-6.15-22.6-9.01-5.37-2.02-10.72-4.23-16.18-6.01,1.31.55,2.63,1.11,3.94,1.66-35.17-15.92-70.25-32.05-104.97-48.92-33.92-16.48-67.47-33.69-100.52-51.86-9.65-5.3-19.25-10.68-28.81-16.13-4.91-2.8-9.81-5.62-14.7-8.46-2.48-1.44-4.95-2.9-7.43-4.34-3.45-2-7.23-3.03-10.9-4.46l3.94,1.66c-5.5-2.45-10.33-6.47-15.53-9.48-7.47-4.33-18.4-1.98-22.58,5.92s-2.06,17.95,5.92,22.58c3.41,1.97,6.66,4.2,9.99,6.29,1.8,1.13,3.61,2.28,5.54,3.18,2.91,1.36,5.85,2.22,8.81,3.38l-3.94-1.66c2.69,1.2,5.21,2.92,7.76,4.4,2.81,1.63,5.62,3.26,8.44,4.89,5.08,2.93,10.18,5.84,15.29,8.72,10.18,5.75,20.4,11.42,30.67,16.99,19.63,10.66,39.43,21,59.38,31.04,40.43,20.36,81.46,39.5,122.65,58.25,6.25,2.84,12.49,6.07,18.95,8.4,2.74.99,5.46,2,8.18,3.03,6.03,2.26,12.02,4.76,18.14,6.75-1.31-.55-2.63-1.11-3.94-1.66,30.94,13.46,62.59,25.15,96.08,30.28,10.64,1.63,21.34,2.86,32.09,3.5,4.07.24,8.85-2.01,11.67-4.83s5.02-7.56,4.83-11.67c-.42-9.38-7.25-15.95-16.5-16.5h0Z"/>
    <path d="M519.83,318.38c-17.18.4-34.35,1.06-51.54,1.11-8.6.02-17.2-.11-25.8-.5s-16.89-1.31-25.32-2.19c-9.36-.97-18.71-2.05-28.04-3.3l4.39.59c-13.84-1.87-27.63-4.12-41.31-6.94-6.96-1.44-13.9-3.02-20.79-4.77-6.59-1.67-13.24-3.1-19.81-4.86-5.69-1.52-11.55-3.05-16.99-5.34l3.94,1.66c-3.45-1.47-6.65-3.46-9.62-5.75l3.34,2.58c-4.57-3.54-8.59-7.76-12.13-12.32l2.58,3.34c-4.54-5.89-8.29-12.38-11.19-19.22l1.66,3.94c-2.71-6.43-4.67-13.18-5.62-20.09l.59,4.39c-.71-5.29-.82-10.66-.12-15.95l-.59,4.39c.56-4.19,1.63-8.31,3.27-12.21l-1.66,3.94c1.45-3.42,3.32-6.63,5.58-9.57l-2.58,3.34c2.39-3.08,5.17-5.82,8.25-8.2l-3.34,2.58c3.9-3,8.22-5.4,12.75-7.32l-3.94,1.66c7.3-3.07,15.07-4.88,22.9-5.93l-4.39.59c7.16-.95,14.38-1.26,21.6-1.18,4.2.05,8.71-1.88,11.67-4.83s5.02-7.56,4.83-11.67-1.59-8.69-4.83-11.67-7.18-4.78-11.67-4.83c-9.09-.11-18.03.63-27.03,1.91-6.21.89-12.37,2.27-18.28,4.39s-12.28,4.86-17.7,8.53c-4.81,3.26-9.51,6.99-13.24,11.49s-6.76,8.7-8.97,13.82-4.09,10.04-4.91,15.52-1.42,10.94-1.06,16.51,1.19,11.35,2.55,16.85c1.03,4.15,2.41,8.21,4.05,12.16,2.2,5.26,4.49,10.41,7.44,15.31s6.13,9.08,9.6,13.3c2.49,3.02,5.2,5.86,8.17,8.42,3.71,3.2,7.69,6.31,12.01,8.67,6.65,3.62,14.11,5.79,21.35,7.83,5.09,1.43,10.23,2.69,15.4,3.79,5.6,1.19,11.12,2.85,16.7,4.14,10.95,2.53,21.99,4.68,33.08,6.51,23.13,3.82,46.46,6.41,69.8,8.54,11.4,1.04,22.96,1.02,34.4.97,11.25-.05,22.5-.35,33.75-.67,5.6-.16,11.21-.31,16.81-.44,4.29-.1,8.61-1.77,11.67-4.83,2.86-2.86,5.02-7.56,4.83-11.67s-1.59-8.69-4.83-11.67-7.23-4.94-11.67-4.83h0Z"/>
    <path d="M677.58,31.59c31.12,13.95,62.28,27.83,93.45,41.68,31.29,13.9,62.6,27.76,93.9,41.63,31.17,13.81,62.34,27.63,93.48,41.49,29.42,13.09,58.77,26.34,88.24,39.32,26.07,11.49,52.42,22.95,76.82,37.74,2.74,1.66,5.44,3.37,8.11,5.13,7.21,4.77,18.57,1.66,22.58-5.92,4.37-8.28,1.78-17.48-5.92-22.58-23.54-15.58-49.61-27.21-75.33-38.63-28.76-12.77-57.51-25.6-86.26-38.41-31.14-13.87-62.31-27.7-93.48-41.51-31.3-13.87-62.61-27.73-93.9-41.62-31.17-13.84-62.33-27.7-93.46-41.64-3.86-1.73-7.72-3.46-11.57-5.19-4.17-1.87-8.13-2.93-12.71-1.66-3.83,1.05-7.98,4.01-9.86,7.58-2.02,3.83-3.04,8.47-1.66,12.71,1.24,3.83,3.74,8.14,7.58,9.86h0Z"/>
    <path d="M680.86,0c-30.43.04-60.83,3.5-90.72,9.1s-57.02,12.93-84.93,21.61c-28.19,8.77-56,18.68-83.72,28.82-28.67,10.48-57.39,20.77-86.26,30.69s-58.15,19.86-87.04,30.32c-3.56,1.29-7.12,2.59-10.67,3.89-4.11,1.51-7.59,3.7-9.86,7.58-2.07,3.54-2.95,8.75-1.66,12.71s3.77,7.84,7.58,9.86,8.59,3.18,12.71,1.66c49.87-18.33,100.44-34.7,150.44-52.66s96.07-35.69,145.5-49.39c27.56-7.63,55.53-13.84,83.88-17.68l-4.39.59c19.6-2.62,39.34-4.09,59.12-4.12,8.63-.01,16.9-7.58,16.5-16.5C696.96,7.57,690.11-.01,680.86,0h0Z"/>
    <path d="M233.4,126.43c-20.55,15.44-39.23,32.91-56.12,52.28-16.87,19.34-32.16,40.08-46.48,61.37s-26.54,41.34-39.31,62.32c-15,24.65-29.99,49.3-44.99,73.94-7.18,11.8-14.63,23.48-21.41,35.52-3.81,6.76-7.1,13.72-9.98,20.94-2.59,6.5-4.2,13.12-5.13,20.04-.5,3.73-.85,7.41-.75,11.18.11,4.3,1.76,8.6,4.83,11.67,2.86,2.86,7.56,5.02,11.67,4.83s8.69-1.59,11.67-4.83,4.95-7.24,4.83-11.67c-.08-3.01.08-6,.46-8.98l-.59,4.39c.93-6.9,3.01-13.55,5.7-19.95l-1.66,3.94c3.31-7.76,7.47-15.12,11.8-22.35,4.63-7.73,9.36-15.41,14.04-23.11,9.71-15.96,19.42-31.91,29.13-47.87,17.39-28.59,34.49-57.39,52.88-85.36,9.81-14.93,20.04-29.59,30.96-43.74l-2.58,3.34c15.42-19.94,32.24-38.86,51.08-55.64,5.34-4.75,10.84-9.32,16.48-13.7l-3.34,2.58c1.15-.89,2.31-1.77,3.47-2.64,1.92-1.04,3.47-2.45,4.63-4.25,1.46-1.59,2.44-3.46,2.95-5.61,1.09-3.95.6-9.21-1.66-12.71s-5.65-6.62-9.86-7.58-9.25-.94-12.71,1.66h0Z"/>
    <path d="M14.8,477.73c9.39,7.58,19.32,14.26,30.3,19.32,10.79,4.98,21.99,9,33.73,11.05,11.76,2.06,23.63,2.91,35.49,1.36,6.57-.86,13.02-1.92,19.35-3.92s12.72-4.72,18.67-7.88c11.43-6.07,21.74-14.32,31.37-22.92,8.77-7.83,17.14-16.12,25.48-24.4,17.57-17.45,34.66-35.38,51.39-53.63,16.54-18.05,32.74-36.42,48.52-55.15,1.84-2.18,3.67-4.36,5.49-6.55,1.61-1.49,2.75-3.26,3.41-5.31,1.03-1.97,1.51-4.09,1.42-6.36,0-4.05-1.8-8.88-4.83-11.67s-7.27-5.03-11.67-4.83c-4.14.19-8.9,1.52-11.67,4.83-17.23,20.67-34.98,40.9-53.15,60.75-18.37,20.07-37.17,39.75-56.56,58.83-10.35,10.19-20.73,20.49-32.24,29.39l3.34-2.58c-7.55,5.81-15.64,10.92-24.43,14.64l3.94-1.66c-7.12,2.97-14.58,4.95-22.22,6l4.39-.59c-8.92,1.18-17.94,1.08-26.85-.11l4.39.59c-10.48-1.44-20.7-4.35-30.45-8.46l3.94,1.66c-10.04-4.28-19.52-9.81-28.18-16.46l3.34,2.58c-.8-.62-1.59-1.24-2.38-1.88-1.49-1.61-3.26-2.75-5.31-3.41-1.97-1.03-4.09-1.51-6.36-1.42-4.05,0-8.88,1.8-11.67,4.83s-5.03,7.27-4.83,11.67c.18,4.1,1.49,8.97,4.83,11.67h0Z"/>
    <path d="M36.04,483.78c-8.84,13.87-15.1,29.5-18.63,45.54-1.95,8.86-3.5,18.08-3.22,27.17s1.88,17.35,6.21,24.93c6.53,11.44,18.63,18.49,31.28,21.09,10.98,2.26,22.13,2.33,33.27,1.72,16.96-.94,33.79-4.09,49.95-9.33,1.94-.63,3.87-1.28,5.79-1.96,3.72-1.32,6.92-3.4,8.96-6.89,1.88-3.22,2.68-7.95,1.51-11.56s-3.42-7.13-6.89-8.96-7.77-2.85-11.56-1.51c-12.56,4.45-25.51,7.78-38.72,9.56l3.99-.54c-6.89.91-13.85,1.36-20.8,1.52-5.66.13-11.33,0-16.94-.74l3.99.54c-4.58-.62-9.12-1.65-13.39-3.45l3.58,1.51c-2.47-1.06-4.81-2.38-6.95-4.02l3.04,2.35c-1.69-1.32-3.21-2.82-4.54-4.51l2.35,3.04c-1.38-1.8-2.51-3.75-3.4-5.83l1.51,3.58c-1.17-2.82-1.86-5.78-2.29-8.8l.54,3.99c-.8-5.98-.54-12.01.24-17.97l-.54,3.99c1.59-11.77,4.72-23.4,9.33-34.34l-1.51,3.58c2.74-6.44,6-12.64,9.76-18.54,2.04-3.21,2.51-7.95,1.51-11.56s-3.65-7.25-6.89-8.96c-3.48-1.84-7.7-2.76-11.56-1.51s-6.79,3.49-8.96,6.89h0Z"/>
    <path d="M183.96,577.44c17.93,6.56,37.38,9.83,56.48,9.27,9.67-.28,19.44-1.44,28.82-3.85,8.68-2.23,17.13-5.59,25.12-9.62,9.18-4.63,17.47-10.56,25.56-16.88l-3.04,2.35c31.43-24,61.71-49.38,91.55-75.32s56.67-49.9,85.53-74.23c16.67-14.05,33.57-27.83,50.82-41.17l-3.04,2.35c4.61-3.56,9.25-7.09,13.91-10.59,3.25-2.44,5.77-4.89,6.89-8.96.99-3.59.54-8.37-1.51-11.56s-5.14-6.02-8.96-6.89-8.4-.86-11.56,1.51c-32.9,24.7-64.52,50.99-95.6,77.93-29.51,25.58-58.62,51.61-88.46,76.8-17.13,14.46-34.5,28.64-52.24,42.35l3.04-2.35c-3.18,2.46-6.38,4.9-9.55,7.36l3.04-2.35c-8.77,6.75-18.19,12.61-28.4,16.93l3.58-1.51c-8.19,3.42-16.84,5.94-25.64,7.12l3.99-.54c-12.06,1.57-24.25,1.53-36.3-.09l3.99.54c-10.26-1.43-20.31-3.97-30.03-7.53-3.48-1.27-8.46-.3-11.56,1.51s-6.08,5.39-6.89,8.96c-.87,3.84-.69,8.15,1.51,11.56s5.12,5.49,8.96,6.89h0Z"/>
    <path d="M350.04,533.74c4.85,4.39,9.87,8.57,15.17,12.41,4.77,3.45,9.78,5.99,15.23,8.22,10.99,4.49,23.25,4.16,34.68,1.72,8.27-1.77,16.11-4.99,23.86-8.3,1.75-.94,3.15-2.23,4.21-3.86,1.33-1.45,2.22-3.15,2.68-5.1.99-3.59.54-8.37-1.51-11.56s-5.14-6.02-8.96-6.89l-3.99-.54c-2.71,0-5.23.69-7.57,2.05-.29.12-.58.25-.86.37l3.58-1.51c-7.79,3.28-15.89,6.13-24.3,7.27l3.99-.54c-3.98.51-7.99.61-11.97.09l3.99.54c-3.48-.48-6.85-1.42-10.09-2.77l3.58,1.51c-4.97-2.1-9.48-5.08-13.74-8.36l3.04,2.35c-3.38-2.62-6.61-5.44-9.79-8.31-2.94-2.66-6.56-4.39-10.61-4.39-3.68,0-8.07,1.63-10.61,4.39s-4.57,6.61-4.39,10.61,1.44,7.93,4.39,10.61h0Z"/>
    <path d="M1143.91,242.84c13.84,1.4,27.75,2.48,41.67,2.4,7.03-.04,14.08-.39,21.05-1.31,4.64-.61,9.23-1.26,13.79-2.29,4-.9,7.98-1.92,11.93-3.03,15.99-4.47,31.63-10.15,47.33-15.5,16.12-5.5,32.25-10.99,48.37-16.49,16.04-5.47,32.09-10.94,48.13-16.41,2.04-.7,4.09-1.39,6.13-2.09,4.08-1.39,7.64-3.78,9.86-7.58,2.07-3.54,2.95-8.75,1.66-12.71-1.29-3.99-3.77-7.84-7.58-9.86s-8.51-3.09-12.71-1.66c-22.65,7.72-45.3,15.44-67.95,23.16-22.47,7.66-44.88,15.59-67.47,22.9-11.64,3.77-23.53,7.46-35.69,9.12l4.39-.59c-16.48,2.2-33.31,1.45-49.83.13-4.36-.35-8.72-.76-13.08-1.2-2.27-.09-4.39.39-6.36,1.42-2.05.67-3.82,1.8-5.31,3.41-2.86,2.86-5.02,7.56-4.83,11.67.19,4.27,1.59,8.69,4.83,11.67l3.34,2.58c2.57,1.49,5.35,2.24,8.33,2.25h0Z"/>
    <path d="M325.91,206.84c19.68-1.38,39.37-2.63,59.07-3.86s39.74-2.47,59.61-3.77c19.93-1.31,39.86-2.7,59.77-4.27s39.73-3.33,59.55-5.37c20.97-2.16,41.89-4.69,62.77-7.58,2.4-.33,4.8-.67,7.2-1.01,3.8-.54,8.02-4.44,9.86-7.58,2.07-3.54,2.95-8.75,1.66-12.71s-3.77-7.84-7.58-9.86l-3.94-1.66c-2.92-.79-5.85-.79-8.77,0-4.23.61-8.46,1.19-12.69,1.76l4.39-.59c-37.65,5.05-75.47,8.7-113.34,11.69-38,3-76.06,5.32-114.1,7.7-21.16,1.32-42.31,2.66-63.46,4.14-4.41.31-8.47,1.63-11.67,4.83-2.86,2.86-5.02,7.56-4.83,11.67s1.59,8.69,4.83,11.67,7.32,5.14,11.67,4.83h0Z"/>
    <path d="M633.91,180.84c34.89,3.81,69.78,7.67,104.61,12.02,10.21,1.28,20.42,2.6,30.61,3.97l-4.39-.59c27.55,3.71,55.06,7.78,82.46,12.48,26.58,4.56,53.07,9.7,79.34,15.8,14.07,3.27,28.07,6.81,41.98,10.73,4.11,1.16,9.04.49,12.71-1.66,3.42-2,6.69-5.93,7.58-9.86.96-4.22.75-8.96-1.66-12.71-2.34-3.63-5.63-6.39-9.86-7.58-20.86-5.88-41.95-10.93-63.15-15.43-22.22-4.72-44.57-8.85-66.97-12.59-22.92-3.82-45.9-7.22-68.93-10.35-23.86-3.25-47.75-6.25-71.66-9.06-21.64-2.54-43.29-4.94-64.94-7.31-2.58-.28-5.16-.56-7.74-.85-3.93-.43-8.99,2.15-11.67,4.83-2.86,2.86-5.02,7.56-4.83,11.67s1.59,8.69,4.83,11.67l3.34,2.58c2.57,1.49,5.35,2.24,8.33,2.25h0Z"/>
    <path d="M1060.14,576.69c21.99-3.35,43.92-7.07,65.79-11.16,21.86-4.09,43.65-8.55,65.36-13.38,21.81-4.85,43.53-10.07,65.17-15.65,21.52-5.56,42.95-11.48,64.27-17.76,21.32-6.28,42.53-12.92,63.62-19.92,2.62-.87,5.24-1.75,7.86-2.63,4.08-1.37,7.65-3.8,9.86-7.58,2.07-3.54,2.95-8.75,1.66-12.71-1.29-3.99-3.77-7.84-7.58-9.86s-8.5-3.08-12.71-1.66c-21.06,7.08-42.24,13.82-63.53,20.18-21.3,6.37-42.7,12.38-64.2,18.03-21.61,5.68-43.31,10.99-65.1,15.92-21.69,4.92-43.46,9.47-65.3,13.65-21.85,4.18-43.76,8-65.74,11.44-2.73.43-5.47.85-8.2,1.27-3.81.58-8,4.41-9.86,7.58-2.07,3.54-2.95,8.75-1.66,12.71,1.29,3.99,3.77,7.84,7.58,9.86,1.31.55,2.63,1.11,3.94,1.66,2.92.79,5.85.79,8.77,0h0Z"/>
    <path d="M524.08,335.4c11.82,1.78,23.64,3.56,35.46,5.35,1.89.28,2.7-2.61.8-2.89-11.82-1.78-23.64-3.56-35.46-5.35-1.89-.28-2.7,2.61-.8,2.89h0Z"/>
    <path d="M573.66,328.09c-4.53-2.05-9.09-4.15-13.83-5.69s-10.03-2.21-15.13-2.51c-8.58-.49-17.17-.85-25.75-1.27-3.35-.16-7.21,1.62-9.55,3.95s-4.1,6.18-3.95,9.55,1.3,7.11,3.95,9.55,5.83,3.77,9.55,3.95c5.09.25,10.18.5,15.27.75s9.96.29,14.88.9l-3.59-.48c4.42.6,8.61,2.03,12.7,3.74l-3.22-1.36c1.69.72,3.36,1.47,5.04,2.22,1.55.99,3.22,1.52,5.02,1.6,1.79.4,3.59.32,5.38-.24,3.13-.86,6.53-3.28,8.07-6.2,1.66-3.13,2.49-6.93,1.36-10.4-1.02-3.14-3.06-6.65-6.2-8.07h0Z"/>
    <path d="M438.98,547.79c20.77-12.55,39.77-27.94,57.88-44.03,17.39-15.44,34.05-31.7,51.33-47.26,9.5-8.56,19.2-16.91,29.32-24.74l-3.04,2.35c12.3-9.5,25.25-18.23,39.1-25.32,3.86-1.97,7.78-3.81,11.77-5.51,1.75-.94,3.15-2.23,4.21-3.86,1.33-1.45,2.22-3.15,2.68-5.1.99-3.59.54-8.37-1.51-11.56s-5.14-6.02-8.96-6.89l-3.99-.54c-2.71,0-5.23.69-7.57,2.05-11.67,4.98-22.76,11.2-33.33,18.21-11.71,7.77-22.84,16.45-33.6,25.48-10.2,8.57-20.05,17.54-29.81,26.6-9.9,9.19-19.71,18.47-29.69,27.57-9.97,9.08-20.12,17.97-30.69,26.35-1.29,1.02-2.58,2.03-3.88,3.04l3.04-2.35c-9.11,7.03-18.55,13.65-28.41,19.61-3.26,1.97-5.88,5.28-6.89,8.96s-.54,8.37,1.51,11.56,5.14,6.02,8.96,6.89c3.91.89,8.05.61,11.56-1.51h0Z"/>
    <path d="M613.44,380.04c.83.22,1.63.49,2.43.81l-2.87-1.21c1.49.63,2.89,1.43,4.18,2.4l-2.43-1.88c.45.35.89.71,1.31,1.1,4.85-6.28,9.69-12.56,14.54-18.85-5.64-3.01-11.28-6.01-16.91-9.02l-9.25,21.93c2.51.48,4.95,1.21,7.3,2.2l-2.87-1.21c.56.24,1.12.49,1.67.76,1.38.88,2.86,1.35,4.46,1.42,1.6.36,3.19.29,4.79-.21,2.78-.77,5.8-2.92,7.17-5.51,1.47-2.78,2.21-6.16,1.21-9.25-.92-2.84-2.73-5.83-5.51-7.17-3.78-1.82-7.7-3.38-11.83-4.17-1.6-.5-3.19-.57-4.79-.21-1.6.07-3.08.55-4.46,1.42l-2.43,1.88c-1.17,1.09-2,2.37-2.48,3.86-.54.94-.82,1.95-.82,3.03-.36,1.6-.29,3.19.21,4.79.94,2.91,2.74,5.69,5.51,7.17,5.64,3.01,11.28,6.01,16.91,9.02,2.69,1.44,6.25,2.18,9.25,1.21l2.87-1.21c1.4-.75,2.52-1.78,3.37-3.09.74-.75,1.26-1.63,1.54-2.65.75-1.43,1.1-2.97,1.03-4.62-.14-3.09-1.15-6.34-3.51-8.49-1.86-1.69-3.91-3.31-6.12-4.52-1.49-.81-3.1-1.44-4.66-2.07-.79-.32-1.6-.59-2.43-.81-3.02-.81-6.54-.37-9.25,1.21-1.4.75-2.52,1.78-3.37,3.09-1.06,1.16-1.78,2.52-2.15,4.08-.7,3.07-.55,6.52,1.21,9.25s4.1,4.69,7.17,5.51h0Z"/>
    <path d="M428.84,321.89c-17.64,9.33-34.47,20.16-50.81,31.6-17.62,12.34-34.71,25.45-51.38,39.04-7.93,6.46-15.72,13.06-23.19,20.05s-15.28,14.86-22.7,22.51c-14.98,15.44-29.83,30.98-45.55,45.68-15.75,14.71-32.11,28.77-49.03,42.11-2.08,1.64-4.18,3.28-6.28,4.9l3.04-2.35c-.99.76-1.98,1.52-2.97,2.28-1.75.94-3.15,2.23-4.21,3.86-1.33,1.45-2.22,3.15-2.68,5.1-.99,3.59-.54,8.37,1.51,11.56s5.14,6.02,8.96,6.89l3.99.54c2.71,0,5.23-.69,7.57-2.05,24.84-19.01,48.68-39.25,71.16-61,21.46-20.77,41.19-43.31,63.34-63.37,11.72-10.61,24.17-20.46,36.67-30.12l-3.04,2.35c20.19-15.59,41.02-30.47,62.9-43.59,5.86-3.51,11.8-6.89,17.84-10.08,3.25-1.72,5.94-5.48,6.89-8.96s.54-8.37-1.51-11.56-5.14-6.02-8.96-6.89c-4.03-.92-7.87-.44-11.56,1.51h0Z"/>
    <path d="M174.93,531.13c-7.39,7.83-14.82,15.63-23.36,22.23l3.04-2.35c-2.23,1.71-4.51,3.36-6.83,4.95-2.11,1.44-4.22,2.98-6.46,4.22-2.9,1.6-6.01,2.88-9.05,4.17l3.58-1.51c-2.47,1.04-4.96,2.04-7.49,2.93-1.85.66-3.77,1.34-5.72,1.61l3.99-.54c-.33.04-.66.07-.99.03l3.99.54c-.08-.01-.15-.03-.23-.05-3.71-1.08-8.24-.43-11.56,1.51-3.11,1.82-6.08,5.39-6.89,8.96-.87,3.84-.69,8.15,1.51,11.56s5.12,5.78,8.96,6.89c1.25.36,3.11.6,4.4.6.25,0,.5-.02.75-.04,1.93-.16,3.92-.42,5.81-.91s3.81-1.18,5.68-1.87c5.22-1.96,10.38-4.15,15.43-6.52,4.15-1.95,7.9-4.59,11.64-7.23,5.58-3.95,11.01-8.19,16.04-12.83s10.1-10,14.98-15.16c2.69-2.85,4.39-6.65,4.39-10.61,0-3.68-1.63-8.07-4.39-10.61s-6.61-4.57-10.61-4.39-7.85,1.47-10.61,4.39h0Z"/>
  </g>
  <g>
    <path d="M326.54,971.18c29.98-1.36,60.01-1.95,90.03-1.28,8.47.19,16.93.48,25.39.88,1.93.09,1.93-2.91,0-3-29.94-1.43-59.93-1.45-89.88-.57-8.51.25-17.03.58-25.54.96-1.92.09-1.93,3.09,0,3h0Z"/>
    <path d="M788.05,1164.63c14.73,8.64,29.39,17.4,43.98,26.26,3.62,2.2,8.65,2.78,12.71,1.66,3.83-1.05,7.98-4.01,9.86-7.58,2.02-3.83,3.04-8.47,1.66-12.71-1.34-4.13-3.81-7.57-7.58-9.86-14.59-8.86-29.25-17.62-43.98-26.26-3.69-2.17-8.59-2.8-12.71-1.66-3.83,1.05-7.98,4.01-9.86,7.58-2.02,3.83-3.04,8.47-1.66,12.71,1.33,4.1,3.8,7.64,7.58,9.86h0Z"/>
    <path d="M353.59,973.45c7.42.44,14.81,1.14,22.18,2.11-1.46-.2-2.92-.39-4.39-.59,31.15,4.2,60.93,13.9,89.82,26.05l-3.94-1.66c7.5,3.16,14.99,6.15,22.6,9.01,5.37,2.02,10.72,4.23,16.18,6.01l-3.94-1.66c35.17,15.92,70.25,32.05,104.97,48.92,33.92,16.48,67.47,33.69,100.52,51.86,9.65,5.3,19.25,10.68,28.81,16.13,4.91,2.8,9.81,5.62,14.7,8.46,2.48,1.44,4.95,2.9,7.43,4.34,3.45,2,7.23,3.03,10.9,4.46l-3.94-1.66c5.5,2.45,10.33,6.47,15.53,9.48,7.47,4.33,18.4,1.98,22.58-5.92,4.16-7.88,2.06-17.95-5.92-22.58-3.41-1.97-6.66-4.2-9.99-6.29-1.8-1.13-3.61-2.28-5.54-3.18-2.91-1.36-5.85-2.22-8.81-3.38l3.94,1.66c-2.69-1.2-5.21-2.92-7.76-4.4-2.81-1.63-5.62-3.26-8.44-4.89-5.08-2.93-10.18-5.84-15.29-8.72-10.18-5.75-20.4-11.42-30.67-16.99-19.63-10.66-39.43-21-59.38-31.04-40.43-20.36-81.46-39.5-122.65-58.25-6.25-2.84-12.49-6.07-18.95-8.4-2.74-.99-5.46-2-8.18-3.03-6.03-2.26-12.02-4.76-18.14-6.75l3.94,1.66c-30.94-13.46-62.59-25.15-96.08-30.28-10.64-1.63-21.34-2.86-32.09-3.5-4.07-.24-8.85,2.01-11.67,4.83-2.86,2.86-5.02,7.56-4.83,11.67.42,9.38,7.25,15.95,16.5,16.5h0Z"/>
    <path d="M884.5,1199.44c17.18-.4,34.35-1.06,51.54-1.11,8.6-.02,17.2.11,25.8.5,8.46.39,16.89,1.31,25.32,2.19,9.36.97,18.71,2.05,28.04,3.3l-4.39-.59c13.84,1.87,27.63,4.12,41.31,6.94,6.96,1.44,13.9,3.02,20.79,4.77s13.24,3.1,19.81,4.86c5.69,1.52,11.55,3.05,16.99,5.34-1.31-.55-2.63-1.11-3.94-1.66,3.45,1.47,6.65,3.46,9.62,5.75-1.11-.86-2.23-1.72-3.34-2.58,4.57,3.54,8.59,7.76,12.13,12.32-.86-1.11-1.72-2.23-2.58-3.34,4.54,5.89,8.29,12.38,11.19,19.22l-1.66-3.94c2.71,6.43,4.67,13.18,5.62,20.09-.2-1.46-.39-2.92-.59-4.39.71,5.29.82,10.66.12,15.95.2-1.46.39-2.92.59-4.39-.56,4.19-1.63,8.31-3.27,12.21l1.66-3.94c-1.45,3.42-3.32,6.63-5.58,9.57.86-1.11,1.72-2.23,2.58-3.34-2.39,3.08-5.17,5.82-8.25,8.2,1.11-.86,2.23-1.72,3.34-2.58-3.9,3-8.22,5.4-12.75,7.32l3.94-1.66c-7.3,3.07-15.07,4.88-22.9,5.93l4.39-.59c-7.16.95-14.38,1.26-21.6,1.18-4.2-.05-8.71,1.88-11.67,4.83-2.86,2.86-5.02,7.56-4.83,11.67.19,4.27,1.59,8.69,4.83,11.67,3.25,2.98,7.18,4.78,11.67,4.83,9.09.11,18.03-.63,27.03-1.91,6.21-.89,12.37-2.27,18.28-4.39,6.13-2.21,12.28-4.86,17.7-8.53,4.81-3.26,9.51-6.99,13.24-11.49,3.55-4.29,6.76-8.7,8.97-13.82,2.2-5.07,4.09-10.04,4.91-15.52.83-5.52,1.42-10.94,1.06-16.51-.36-5.65-1.19-11.35-2.55-16.85-1.03-4.15-2.41-8.21-4.05-12.16-2.2-5.26-4.49-10.41-7.44-15.31-2.82-4.68-6.13-9.08-9.6-13.3-2.49-3.02-5.2-5.86-8.17-8.42-3.71-3.2-7.69-6.31-12.01-8.67-6.65-3.62-14.11-5.79-21.35-7.83-5.09-1.43-10.23-2.69-15.4-3.79-5.6-1.19-11.12-2.85-16.7-4.14-10.95-2.53-21.99-4.68-33.08-6.51-23.13-3.82-46.46-6.41-69.8-8.54-11.4-1.04-22.96-1.02-34.4-.97-11.25.05-22.5.35-33.75.67-5.6.16-11.21.31-16.81.44-4.29.1-8.61,1.77-11.67,4.83-2.86,2.86-5.02,7.56-4.83,11.67.19,4.27,1.59,8.69,4.83,11.67,3.19,2.92,7.23,4.94,11.67,4.83h0Z"/>
    <path d="M726.76,1486.23c-31.12-13.95-62.28-27.83-93.45-41.68-31.29-13.9-62.6-27.76-93.9-41.63-31.17-13.81-62.34-27.63-93.48-41.49-29.42-13.09-58.77-26.34-88.24-39.32-26.07-11.49-52.42-22.95-76.82-37.74-2.74-1.66-5.44-3.37-8.11-5.13-7.21-4.77-18.57-1.66-22.58,5.92-4.37,8.28-1.78,17.48,5.92,22.58,23.54,15.58,49.61,27.21,75.33,38.63,28.76,12.77,57.51,25.6,86.26,38.41,31.14,13.87,62.31,27.7,93.48,41.51,31.3,13.87,62.61,27.73,93.9,41.62,31.17,13.84,62.33,27.7,93.46,41.64,3.86,1.73,7.72,3.46,11.57,5.19,4.17,1.87,8.13,2.93,12.71,1.66,3.83-1.05,7.98-4.01,9.86-7.58,2.02-3.83,3.04-8.47,1.66-12.71-1.24-3.83-3.74-8.14-7.58-9.86h0Z"/>
    <path d="M723.48,1517.82c30.43-.04,60.83-3.5,90.72-9.1,28.74-5.38,57.02-12.93,84.93-21.61,28.19-8.77,56-18.68,83.72-28.82,28.67-10.48,57.39-20.77,86.26-30.69,29.05-9.99,58.15-19.86,87.04-30.32,3.56-1.29,7.12-2.59,10.67-3.89,4.11-1.51,7.59-3.7,9.86-7.58,2.07-3.54,2.95-8.75,1.66-12.71-1.29-3.99-3.77-7.84-7.58-9.86-3.74-1.98-8.59-3.18-12.71-1.66-49.87,18.33-100.44,34.7-150.44,52.66-48.22,17.32-96.07,35.69-145.5,49.39-27.56,7.63-55.53,13.84-83.88,17.68,1.46-.2,2.92-.39,4.39-.59-19.6,2.62-39.34,4.09-59.12,4.12-8.63.01-16.9,7.58-16.5,16.5s7.25,16.51,16.5,16.5h0Z"/>
    <path d="M1170.94,1391.39c20.55-15.44,39.23-32.91,56.12-52.28,16.87-19.34,32.16-40.08,46.48-61.37,13.71-20.39,26.54-41.34,39.31-62.32,15-24.65,29.99-49.3,44.99-73.94,7.18-11.8,14.63-23.48,21.41-35.52,3.81-6.76,7.1-13.72,9.98-20.94,2.59-6.5,4.2-13.12,5.13-20.04.5-3.73.85-7.41.75-11.18-.11-4.3-1.76-8.6-4.83-11.67-2.86-2.86-7.56-5.02-11.67-4.83-4.27.19-8.69,1.59-11.67,4.83-2.92,3.18-4.95,7.24-4.83,11.67.08,3.01-.08,6-.46,8.98.2-1.46.39-2.92.59-4.39-.93,6.9-3.01,13.55-5.7,19.95.55-1.31,1.11-2.63,1.66-3.94-3.31,7.76-7.47,15.12-11.8,22.35-4.63,7.73-9.36,15.41-14.04,23.11-9.71,15.96-19.42,31.91-29.13,47.87-17.39,28.59-34.49,57.39-52.88,85.36-9.81,14.93-20.04,29.59-30.96,43.74.86-1.11,1.72-2.23,2.58-3.34-15.42,19.94-32.24,38.86-51.08,55.64-5.34,4.75-10.84,9.32-16.48,13.7,1.11-.86,2.23-1.72,3.34-2.58-1.15.89-2.31,1.77-3.47,2.64-1.92,1.04-3.47,2.45-4.63,4.25-1.46,1.59-2.44,3.46-2.95,5.61-1.09,3.95-.6,9.21,1.66,12.71,2.27,3.52,5.65,6.62,9.86,7.58,4.04.92,9.25.94,12.71-1.66h0Z"/>
    <path d="M1389.54,1040.09c-9.39-7.58-19.32-14.26-30.3-19.32-10.79-4.98-21.99-9-33.73-11.05-11.76-2.06-23.63-2.91-35.49-1.36-6.57.86-13.02,1.92-19.35,3.92-6.43,2.03-12.72,4.72-18.67,7.88-11.43,6.07-21.74,14.32-31.37,22.92-8.77,7.83-17.14,16.12-25.48,24.4-17.57,17.45-34.66,35.38-51.39,53.63-16.54,18.05-32.74,36.42-48.52,55.15-1.84,2.18-3.67,4.36-5.49,6.55-1.61,1.49-2.75,3.26-3.41,5.31-1.03,1.97-1.51,4.09-1.42,6.36,0,4.05,1.8,8.88,4.83,11.67,3.14,2.89,7.27,5.03,11.67,4.83,4.14-.19,8.9-1.52,11.67-4.83,17.23-20.67,34.98-40.9,53.15-60.75,18.37-20.07,37.17-39.75,56.56-58.83,10.35-10.19,20.73-20.49,32.24-29.39-1.11.86-2.23,1.72-3.34,2.58,7.55-5.81,15.64-10.92,24.43-14.64l-3.94,1.66c7.12-2.97,14.58-4.95,22.22-6l-4.39.59c8.92-1.18,17.94-1.08,26.85.11l-4.39-.59c10.48,1.44,20.7,4.35,30.45,8.46l-3.94-1.66c10.04,4.28,19.52,9.81,28.18,16.46-1.11-.86-2.23-1.72-3.34-2.58.8.62,1.59,1.24,2.38,1.88,1.49,1.61,3.26,2.75,5.31,3.41,1.97,1.03,4.09,1.51,6.36,1.42,4.05,0,8.88-1.8,11.67-4.83,2.89-3.14,5.03-7.27,4.83-11.67-.18-4.1-1.49-8.97-4.83-11.67h0Z"/>
    <path d="M1368.29,1034.04c8.84-13.87,15.1-29.5,18.63-45.54,1.95-8.86,3.5-18.08,3.22-27.17-.26-8.64-1.88-17.35-6.21-24.93-6.53-11.44-18.63-18.49-31.28-21.09-10.98-2.26-22.13-2.33-33.27-1.72-16.96.94-33.79,4.09-49.95,9.33-1.94.63-3.87,1.28-5.79,1.96-3.72,1.32-6.92,3.4-8.96,6.89-1.88,3.22-2.68,7.95-1.51,11.56,1.17,3.63,3.42,7.13,6.89,8.96s7.77,2.85,11.56,1.51c12.56-4.45,25.51-7.78,38.72-9.56-1.33.18-2.66.36-3.99.54,6.89-.91,13.85-1.36,20.8-1.52,5.66-.13,11.33,0,16.94.74-1.33-.18-2.66-.36-3.99-.54,4.58.62,9.12,1.65,13.39,3.45l-3.58-1.51c2.47,1.06,4.81,2.38,6.95,4.02-1.01-.78-2.02-1.56-3.04-2.35,1.69,1.32,3.21,2.82,4.54,4.51-.78-1.01-1.56-2.02-2.35-3.04,1.38,1.8,2.51,3.75,3.4,5.83-.5-1.19-1.01-2.39-1.51-3.58,1.17,2.82,1.86,5.78,2.29,8.8-.18-1.33-.36-2.66-.54-3.99.8,5.98.54,12.01-.24,17.97.18-1.33.36-2.66.54-3.99-1.59,11.77-4.72,23.4-9.33,34.34.5-1.19,1.01-2.39,1.51-3.58-2.74,6.44-6,12.64-9.76,18.54-2.04,3.21-2.51,7.95-1.51,11.56s3.65,7.25,6.89,8.96c3.48,1.84,7.7,2.76,11.56,1.51,3.8-1.23,6.79-3.49,8.96-6.89h0Z"/>
    <path d="M1220.37,940.38c-17.93-6.56-37.38-9.83-56.48-9.27-9.67.28-19.44,1.44-28.82,3.85-8.68,2.23-17.13,5.59-25.12,9.62-9.18,4.63-17.47,10.56-25.56,16.88,1.01-.78,2.02-1.56,3.04-2.35-31.43,24-61.71,49.38-91.55,75.32-28.49,24.77-56.67,49.9-85.53,74.23-16.67,14.05-33.57,27.83-50.82,41.17,1.01-.78,2.02-1.56,3.04-2.35-4.61,3.56-9.25,7.09-13.91,10.59-3.25,2.44-5.77,4.89-6.89,8.96-.99,3.59-.54,8.37,1.51,11.56,2.06,3.2,5.14,6.02,8.96,6.89,3.67.84,8.4.86,11.56-1.51,32.9-24.7,64.52-50.99,95.6-77.93,29.51-25.58,58.62-51.61,88.46-76.8,17.13-14.46,34.5-28.64,52.24-42.35-1.01.78-2.02,1.56-3.04,2.35,3.18-2.46,6.38-4.9,9.55-7.36-1.01.78-2.02,1.56-3.04,2.35,8.77-6.75,18.19-12.61,28.4-16.93-1.19.5-2.39,1.01-3.58,1.51,8.19-3.42,16.84-5.94,25.64-7.12-1.33.18-2.66.36-3.99.54,12.06-1.57,24.25-1.53,36.3.09-1.33-.18-2.66-.36-3.99-.54,10.26,1.43,20.31,3.97,30.03,7.53,3.48,1.27,8.46.3,11.56-1.51,3.11-1.82,6.08-5.39,6.89-8.96.87-3.84.69-8.15-1.51-11.56s-5.12-5.49-8.96-6.89h0Z"/>
    <path d="M1054.3,984.08c-4.85-4.39-9.87-8.57-15.17-12.41-4.77-3.45-9.78-5.99-15.23-8.22-10.99-4.49-23.25-4.16-34.68-1.72-8.27,1.77-16.11,4.99-23.86,8.3-1.75.94-3.15,2.23-4.21,3.86-1.33,1.45-2.22,3.15-2.68,5.1-.99,3.59-.54,8.37,1.51,11.56s5.14,6.02,8.96,6.89c1.33.18,2.66.36,3.99.54,2.71,0,5.23-.69,7.57-2.05.29-.12.58-.25.86-.37l-3.58,1.51c7.79-3.28,15.89-6.13,24.3-7.27-1.33.18-2.66.36-3.99.54,3.98-.51,7.99-.61,11.97-.09-1.33-.18-2.66-.36-3.99-.54,3.48.48,6.85,1.42,10.09,2.77-1.19-.5-2.39-1.01-3.58-1.51,4.97,2.1,9.48,5.08,13.74,8.36l-3.04-2.35c3.38,2.62,6.61,5.44,9.79,8.31,2.94,2.66,6.56,4.39,10.61,4.39,3.68,0,8.07-1.63,10.61-4.39s4.57-6.61,4.39-10.61c-.17-3.86-1.44-7.93-4.39-10.61h0Z"/>
    <path d="M260.43,1274.98c-13.84-1.4-27.75-2.48-41.67-2.4-7.03.04-14.08.39-21.05,1.31-4.64.61-9.23,1.26-13.79,2.29-4,.9-7.98,1.92-11.93,3.03-15.99,4.47-31.63,10.15-47.33,15.5-16.12,5.5-32.25,10.99-48.37,16.49-16.04,5.47-32.09,10.94-48.13,16.41-2.04.7-4.09,1.39-6.13,2.09-4.08,1.39-7.64,3.78-9.86,7.58-2.07,3.54-2.95,8.75-1.66,12.71s3.77,7.84,7.58,9.86,8.51,3.09,12.71,1.66c22.65-7.72,45.3-15.44,67.95-23.16,22.47-7.66,44.88-15.59,67.47-22.9,11.64-3.77,23.53-7.46,35.69-9.12l-4.39.59c16.48-2.2,33.31-1.45,49.83-.13,4.36.35,8.72.76,13.08,1.2,2.27.09,4.39-.39,6.36-1.42,2.05-.67,3.82-1.8,5.31-3.41,2.86-2.86,5.02-7.56,4.83-11.67s-1.59-8.69-4.83-11.67c-1.11-.86-2.23-1.72-3.34-2.58-2.57-1.49-5.35-2.24-8.33-2.25h0Z"/>
    <path d="M1078.43,1310.98c-19.68,1.38-39.37,2.63-59.07,3.86-19.87,1.24-39.74,2.47-59.61,3.77-19.93,1.31-39.86,2.7-59.77,4.27-19.87,1.57-39.73,3.33-59.55,5.37-20.97,2.16-41.89,4.69-62.77,7.58-2.4.33-4.8.67-7.2,1.01-3.8.54-8.02,4.44-9.86,7.58-2.07,3.54-2.95,8.75-1.66,12.71,1.29,3.99,3.77,7.84,7.58,9.86,1.31.55,2.63,1.11,3.94,1.66,2.92.79,5.85.79,8.77,0,4.23-.61,8.46-1.19,12.69-1.76-1.46.2-2.92.39-4.39.59,37.65-5.05,75.47-8.7,113.34-11.69s76.06-5.32,114.1-7.7c21.16-1.32,42.31-2.66,63.46-4.14,4.41-.31,8.47-1.63,11.67-4.83,2.86-2.86,5.02-7.56,4.83-11.67-.19-4.27-1.59-8.69-4.83-11.67-3.1-2.84-7.32-5.14-11.67-4.83h0Z"/>
    <path d="M770.43,1336.98c-34.89-3.81-69.78-7.67-104.61-12.02-10.21-1.28-20.42-2.6-30.61-3.97l4.39.59c-27.55-3.71-55.06-7.78-82.46-12.48-26.58-4.56-53.07-9.7-79.34-15.8-14.07-3.27-28.07-6.81-41.98-10.73-4.11-1.16-9.04-.49-12.71,1.66-3.42,2-6.69,5.93-7.58,9.86-.96,4.22-.75,8.96,1.66,12.71s5.63,6.39,9.86,7.58c20.86,5.88,41.95,10.93,63.15,15.43,22.22,4.72,44.57,8.85,66.97,12.59,22.92,3.82,45.9,7.22,68.93,10.35,23.86,3.25,47.75,6.25,71.66,9.06,21.64,2.54,43.29,4.94,64.94,7.31,2.58.28,5.16.56,7.74.85,3.93.43,8.99-2.15,11.67-4.83,2.86-2.86,5.02-7.56,4.83-11.67-.19-4.27-1.59-8.69-4.83-11.67-1.11-.86-2.23-1.72-3.34-2.58-2.57-1.49-5.35-2.24-8.33-2.25h0Z"/>
    <path d="M344.19,941.13c-21.99,3.35-43.92,7.07-65.79,11.16-21.86,4.09-43.65,8.55-65.36,13.38-21.81,4.85-43.53,10.07-65.17,15.65-21.52,5.56-42.95,11.48-64.27,17.76-21.32,6.28-42.53,12.92-63.62,19.92-2.62.87-5.24,1.75-7.86,2.63-4.08,1.37-7.65,3.8-9.86,7.58-2.07,3.54-2.95,8.75-1.66,12.71,1.29,3.99,3.77,7.84,7.58,9.86s8.5,3.08,12.71,1.66c21.06-7.08,42.24-13.82,63.53-20.18,21.3-6.37,42.7-12.38,64.2-18.03s43.31-10.99,65.1-15.92c21.69-4.92,43.46-9.47,65.3-13.65,21.85-4.18,43.76-8,65.74-11.44,2.73-.43,5.47-.85,8.2-1.27,3.81-.58,8-4.41,9.86-7.58,2.07-3.54,2.95-8.75,1.66-12.71-1.29-3.99-3.77-7.84-7.58-9.86l-3.94-1.66c-2.92-.79-5.85-.79-8.77,0h0Z"/>
    <path d="M880.26,1182.42c-11.82-1.78-23.64-3.56-35.46-5.35-1.89-.28-2.7,2.61-.8,2.89,11.82,1.78,23.64,3.56,35.46,5.35,1.89.28,2.7-2.61.8-2.89h0Z"/>
    <path d="M830.67,1189.73c4.53,2.05,9.09,4.15,13.83,5.69,4.88,1.58,10.03,2.21,15.13,2.51,8.58.49,17.17.85,25.75,1.27,3.35.16,7.21-1.62,9.55-3.95,2.34-2.34,4.1-6.18,3.95-9.55s-1.3-7.11-3.95-9.55c-2.71-2.49-5.83-3.77-9.55-3.95-5.09-.25-10.18-.5-15.27-.75-4.95-.24-9.96-.29-14.88-.9l3.59.48c-4.42-.6-8.61-2.03-12.7-3.74,1.07.45,2.15.91,3.22,1.36-1.69-.72-3.36-1.47-5.04-2.22-1.55-.99-3.22-1.52-5.02-1.6-1.79-.4-3.59-.32-5.38.24-3.13.86-6.53,3.28-8.07,6.2-1.66,3.13-2.49,6.93-1.36,10.4,1.02,3.14,3.06,6.65,6.2,8.07h0Z"/>
    <path d="M965.36,970.03c-20.77,12.55-39.77,27.94-57.88,44.03-17.39,15.44-34.05,31.7-51.33,47.26-9.5,8.56-19.2,16.91-29.32,24.74,1.01-.78,2.02-1.56,3.04-2.35-12.3,9.5-25.25,18.23-39.1,25.32-3.86,1.97-7.78,3.81-11.77,5.51-1.75.94-3.15,2.23-4.21,3.86-1.33,1.45-2.22,3.15-2.68,5.1-.99,3.59-.54,8.37,1.51,11.56,2.06,3.2,5.14,6.02,8.96,6.89,1.33.18,2.66.36,3.99.54,2.71,0,5.23-.69,7.57-2.05,11.67-4.98,22.76-11.2,33.33-18.21,11.71-7.77,22.84-16.45,33.6-25.48,10.2-8.57,20.05-17.54,29.81-26.6s19.71-18.47,29.69-27.57c9.97-9.08,20.12-17.97,30.69-26.35,1.29-1.02,2.58-2.03,3.88-3.04-1.01.78-2.02,1.56-3.04,2.35,9.11-7.03,18.55-13.65,28.41-19.61,3.26-1.97,5.88-5.28,6.89-8.96s.54-8.37-1.51-11.56c-2.06-3.2-5.14-6.02-8.96-6.89-3.91-.89-8.05-.61-11.56,1.51h0Z"/>
    <path d="M790.9,1137.78c-.83-.22-1.63-.49-2.43-.81l2.87,1.21c-1.49-.63-2.89-1.43-4.18-2.4.81.63,1.62,1.25,2.43,1.88-.45-.35-.89-.71-1.31-1.1-4.85,6.28-9.69,12.56-14.54,18.85,5.64,3.01,11.28,6.01,16.91,9.02,3.08-7.31,6.16-14.62,9.25-21.93-2.51-.48-4.95-1.21-7.3-2.2l2.87,1.21c-.56-.24-1.12-.49-1.67-.76-1.38-.88-2.86-1.35-4.46-1.42-1.6-.36-3.19-.29-4.79.21-2.78.77-5.8,2.92-7.17,5.51-1.47,2.78-2.21,6.16-1.21,9.25.92,2.84,2.73,5.83,5.51,7.17,3.78,1.82,7.7,3.38,11.83,4.17,1.6.5,3.19.57,4.79.21,1.6-.07,3.08-.55,4.46-1.42.81-.63,1.62-1.25,2.43-1.88,1.17-1.09,2-2.37,2.48-3.86.54-.94.82-1.95.82-3.03.36-1.6.29-3.19-.21-4.79-.94-2.91-2.74-5.69-5.51-7.17-5.64-3.01-11.28-6.01-16.91-9.02-2.69-1.44-6.25-2.18-9.25-1.21l-2.87,1.21c-1.4.75-2.52,1.78-3.37,3.09-.74.75-1.26,1.63-1.54,2.65-.75,1.43-1.1,2.97-1.03,4.62.14,3.09,1.15,6.34,3.51,8.49,1.86,1.69,3.91,3.31,6.12,4.52,1.49.81,3.1,1.44,4.66,2.07.79.32,1.6.59,2.43.81,3.02.81,6.54.37,9.25-1.21,1.4-.75,2.52-1.78,3.37-3.09,1.06-1.16,1.78-2.52,2.15-4.08.7-3.07.55-6.52-1.21-9.25-1.69-2.62-4.1-4.69-7.17-5.51h0Z"/>
    <path d="M975.5,1195.93c17.64-9.33,34.47-20.16,50.81-31.6,17.62-12.34,34.71-25.45,51.38-39.04,7.93-6.46,15.72-13.06,23.19-20.05,7.78-7.29,15.28-14.86,22.7-22.51,14.98-15.44,29.83-30.98,45.55-45.68,15.75-14.71,32.11-28.77,49.03-42.11,2.08-1.64,4.18-3.28,6.28-4.9-1.01.78-2.02,1.56-3.04,2.35.99-.76,1.98-1.52,2.97-2.28,1.75-.94,3.15-2.23,4.21-3.86,1.33-1.45,2.22-3.15,2.68-5.1.99-3.59.54-8.37-1.51-11.56-2.06-3.2-5.14-6.02-8.96-6.89-1.33-.18-2.66-.36-3.99-.54-2.71,0-5.23.69-7.57,2.05-24.84,19.01-48.68,39.25-71.16,61-21.46,20.77-41.19,43.31-63.34,63.37-11.72,10.61-24.17,20.46-36.67,30.12,1.01-.78,2.02-1.56,3.04-2.35-20.19,15.59-41.02,30.47-62.9,43.59-5.86,3.51-11.8,6.89-17.84,10.08-3.25,1.72-5.94,5.48-6.89,8.96s-.54,8.37,1.51,11.56,5.14,6.02,8.96,6.89c4.03.92,7.87.44,11.56-1.51h0Z"/>
    <path d="M1229.4,986.69c7.39-7.83,14.82-15.63,23.36-22.23-1.01.78-2.02,1.56-3.04,2.35,2.23-1.71,4.51-3.36,6.83-4.95,2.11-1.44,4.22-2.98,6.46-4.22,2.9-1.6,6.01-2.88,9.05-4.17-1.19.5-2.39,1.01-3.58,1.51,2.47-1.04,4.96-2.04,7.49-2.93,1.85-.66,3.77-1.34,5.72-1.61-1.33.18-2.66.36-3.99.54.33-.04.66-.07.99-.03-1.33-.18-2.66-.36-3.99-.54.08.01.15.03.23.05,3.71,1.08,8.24.43,11.56-1.51,3.11-1.82,6.08-5.39,6.89-8.96.87-3.84.69-8.15-1.51-11.56-2.14-3.31-5.12-5.78-8.96-6.89-1.25-.36-3.11-.6-4.4-.6-.25,0-.5.02-.75.04-1.93.16-3.92.42-5.81.91s-3.81,1.18-5.68,1.87c-5.22,1.96-10.38,4.15-15.43,6.52-4.15,1.95-7.9,4.59-11.64,7.23-5.58,3.95-11.01,8.19-16.04,12.83s-10.1,10-14.98,15.16c-2.69,2.85-4.39,6.65-4.39,10.61,0,3.68,1.63,8.07,4.39,10.61,2.86,2.62,6.61,4.57,10.61,4.39,3.91-.18,7.85-1.47,10.61-4.39h0Z"/>
  </g>
</svg>