<svg width="98" height="107" viewBox="0 0 98 107" fill="none" xmlns="http://www.w3.org/2000/svg">
<path d="M75.2093 38.5359C73.1175 38.6317 71.0222 38.6733 68.9276 38.6261C68.3366 38.6127 67.7463 38.5922 67.156 38.564C67.0213 38.5577 67.0213 38.7692 67.156 38.7755C69.245 38.8763 71.3376 38.8778 73.4273 38.8157C74.0211 38.7981 74.6156 38.7748 75.2093 38.748C75.3433 38.7417 75.344 38.5302 75.2093 38.5366V38.5359Z" fill="#F6F6F6"/>
<path d="M43.0071 24.8984C41.98 24.2886 40.9571 23.6718 39.9384 23.0472C39.4228 22.7314 38.6504 22.9154 38.3629 23.4645C38.0754 24.0137 38.2254 24.7187 38.776 25.0563C39.7947 25.6809 40.8169 26.2985 41.8446 26.9076C42.3645 27.2156 43.1299 27.045 43.4201 26.4902C43.7104 25.9354 43.5618 25.2276 43.0071 24.8984Z" fill="#F6F6F6"/>
<path d="M73.3219 38.3758C73.0477 38.3589 72.7742 38.3385 72.5007 38.3117C72.357 38.2976 72.2132 38.2821 72.0695 38.2644C72.0088 38.2574 71.9474 38.2496 71.8867 38.2419C71.6843 38.2151 72.0311 38.2637 71.8309 38.2334C71.3006 38.1524 70.7738 38.0551 70.2512 37.9338C69.1969 37.6892 68.1649 37.3586 67.1532 36.9737C66.9069 36.8799 66.662 36.7833 66.4178 36.6839C66.1156 36.5606 66.0159 36.5197 65.7738 36.4139C65.4465 36.2715 65.1186 36.1439 64.7857 36.0177C64.4529 35.8916 64.148 35.7745 63.8284 35.654C63.7077 35.6082 63.587 35.5602 63.4649 35.5186C63.3428 35.477 63.4852 35.5412 63.5361 35.5518C63.3763 35.5186 63.2033 35.3995 63.0553 35.3318C58.9784 33.4616 54.9252 31.5349 50.9725 29.4073C49.838 28.7969 48.7118 28.1708 47.5933 27.53C47.0003 27.1903 46.4128 26.8413 45.8218 26.4987C45.648 26.3979 45.4659 26.3147 45.2782 26.2456C45.2266 26.2266 45.1715 26.2139 45.1205 26.1927C45.0466 26.1695 45.0508 26.1688 45.1324 26.1906L45.018 26.1215C44.7577 25.9326 44.4716 25.7634 44.1946 25.5992C43.6748 25.2904 42.9094 25.4617 42.6191 26.0165C42.3289 26.5713 42.4775 27.2784 43.0322 27.6083C43.2562 27.7415 43.4718 27.8875 43.6916 28.0277C44.0049 28.228 44.3377 28.3288 44.6656 28.4895C44.5184 28.4176 44.794 28.5882 44.8324 28.6107C44.9663 28.6897 45.101 28.7687 45.2357 28.8476C45.5015 29.0034 45.768 29.1578 46.0346 29.3122C47.0491 29.898 48.0699 30.4711 49.0984 31.0323C51.0869 32.1172 53.1013 33.1535 55.1339 34.1517C57.1943 35.1633 59.2722 36.1376 61.357 37.0963C62.135 37.4544 62.9123 37.7837 63.7112 38.0875C63.9966 38.1961 64.2799 38.3152 64.5701 38.4111C64.6971 38.4534 64.545 38.3942 64.4948 38.3737C64.6309 38.4294 64.7648 38.4907 64.9002 38.5485C65.2197 38.6853 65.54 38.8214 65.8617 38.9518C68.2591 39.9232 70.7375 40.5436 73.3205 40.7036C73.9227 40.741 74.4983 40.1417 74.4718 39.5404C74.4425 38.8785 73.966 38.4174 73.3205 38.3772L73.3219 38.3758Z" fill="#F6F6F6"/>
<path d="M36.278 22.4445C34.7758 22.4804 33.2736 22.5446 31.7706 22.5157C30.2726 22.4875 28.7759 22.3197 27.2911 22.1181C27.3455 22.1251 27.446 22.1399 27.1997 22.1054C27.1111 22.0927 27.0232 22.08 26.9353 22.0673C26.7587 22.0412 26.5822 22.0144 26.4057 21.9863C26.0296 21.9263 25.6542 21.8615 25.2795 21.791C24.542 21.6521 23.8087 21.4914 23.0816 21.3039C22.3762 21.122 21.6659 20.969 20.9723 20.7427C20.8642 20.7075 20.756 20.6574 20.6458 20.6306C20.4902 20.5933 20.9472 20.7829 20.7393 20.6694C20.636 20.613 20.5321 20.5615 20.433 20.4981C20.2892 20.4064 20.0897 20.2083 20.3486 20.4501C20.2544 20.362 20.1511 20.2831 20.0583 20.1921C19.9655 20.1012 19.8797 20.0117 19.7959 19.9165C19.7527 19.8678 19.7108 19.8185 19.6696 19.7677C19.6487 19.7424 19.6292 19.7163 19.6082 19.6909C19.4785 19.5365 19.7813 19.9362 19.6676 19.7677C19.5092 19.5344 19.3522 19.3046 19.2182 19.0557C19.1519 18.9331 19.0926 18.8076 19.0326 18.6828C19.0173 18.6518 19.0061 18.618 18.99 18.5869C18.9259 18.4664 19.0884 18.8492 19.0452 18.7202C19.02 18.6462 18.9873 18.5735 18.9607 18.5002C18.8603 18.2218 18.78 17.9363 18.7242 17.6451C18.7109 17.5774 18.7019 17.5091 18.6893 17.4414C18.6558 17.2567 18.7193 17.7727 18.6991 17.4957C18.6886 17.3511 18.6782 17.208 18.6782 17.0635C18.6782 16.9289 18.6907 16.7956 18.6984 16.6617C18.7123 16.4164 18.6377 16.9627 18.6907 16.7237C18.7068 16.6511 18.7179 16.5771 18.7347 16.5045C18.7654 16.3755 18.8065 16.2507 18.8484 16.1252C18.9328 15.8714 18.743 16.3311 18.8268 16.1739C18.8658 16.1006 18.8993 16.0237 18.9405 15.9511C18.9775 15.8848 19.0201 15.8221 19.0598 15.7572C19.2161 15.5013 18.9419 15.8813 19.0473 15.7657C19.1617 15.6402 19.274 15.519 19.3968 15.4005C19.6187 15.1862 19.2698 15.476 19.4017 15.3885C19.4827 15.335 19.5594 15.2765 19.6417 15.225C19.7115 15.1813 20.1169 15.0227 20.1336 14.9635C20.1169 15.0227 19.888 15.0565 20.0402 15.0036C20.1043 14.9811 20.1664 14.9543 20.2306 14.9317C20.3304 14.8965 20.4316 14.8641 20.5335 14.8344C20.7658 14.7668 21.0023 14.7132 21.241 14.6709C21.2947 14.6617 21.3484 14.6533 21.4021 14.6441C21.6212 14.6067 21.2382 14.6561 21.3889 14.6462C21.5208 14.6378 21.6526 14.618 21.7852 14.6089C22.1055 14.5856 22.4271 14.5793 22.7481 14.5821C23.3502 14.5877 23.9273 14.0428 23.8994 13.4189C23.8715 12.795 23.3935 12.2621 22.7481 12.2557C20.8949 12.2381 18.7047 12.5814 17.4362 14.1006C16.4077 15.3314 16.19 16.9282 16.5479 18.4678C16.8494 19.7656 17.5729 21.0776 18.5665 21.9637C19.2175 22.5439 19.9069 22.8555 20.7372 23.1036C22.2366 23.552 23.7905 23.8903 25.3311 24.1533C27.139 24.4621 28.9922 24.7229 30.8245 24.811C32.6421 24.8984 34.4611 24.8138 36.278 24.7708C36.8795 24.7567 37.4579 24.2463 37.4293 23.6077C37.4007 22.969 36.9228 22.429 36.278 22.4445Z" fill="#F6F6F6"/>
<path d="M47.2842 2.22697C51.634 4.19733 55.9921 6.14654 60.3502 8.09716C64.5771 9.98927 68.7929 11.9075 73.0233 13.7911C75.0468 14.692 77.11 15.5859 78.9625 16.8196C79.4663 17.1552 80.2582 16.9373 80.538 16.4023C80.8429 15.82 80.6629 15.1686 80.1249 14.8105C78.4797 13.715 76.6641 12.893 74.8681 12.0865C72.8684 11.1891 70.8701 10.2882 68.871 9.38864C64.5178 7.42956 60.159 5.48458 55.803 3.53114C53.349 2.4307 50.8965 1.32744 48.4467 0.217838C47.8983 -0.030307 47.1831 0.039484 46.8712 0.635174C46.606 1.14274 46.6974 1.9612 47.2842 2.22697Z" fill="#F6F6F6"/>
<path d="M47.5131 6.23174e-06C39.0865 0.0232699 31.2564 3.62984 23.4333 6.34745C21.144 7.14265 18.8519 7.92867 16.5793 8.7718C16.0156 8.98118 15.5725 9.57052 15.7755 10.2029C15.9549 10.7619 16.5863 11.2399 17.192 11.015C21.1761 9.53668 25.2188 8.22476 29.2029 6.74575C33.0175 5.32949 36.8593 3.92803 40.8434 3.07715C41.396 2.95942 41.95 2.85227 42.5068 2.7578C42.8061 2.70705 43.1062 2.66122 43.4069 2.61611C43.8269 2.55337 43.1948 2.64078 43.6162 2.5872C43.7453 2.57099 43.8744 2.55478 44.0035 2.53927C45.1687 2.4025 46.3402 2.32989 47.5138 2.32707C48.116 2.32566 48.693 1.79342 48.6651 1.16389C48.6372 0.534365 48.1585 -0.00210864 47.5131 6.23174e-06Z" fill="#F6F6F6"/>
<path d="M16.2919 8.9128C13.4109 11.1102 11.1362 13.9152 9.13093 16.9275C7.02584 20.0906 5.13356 23.4039 3.1729 26.6594C2.06209 28.5043 0.616366 30.4514 0.649857 32.7115C0.658928 33.3199 1.17316 33.9029 1.80113 33.8747C2.4291 33.8465 2.96218 33.3636 2.95241 32.7115C2.95032 32.5902 2.9573 32.4704 2.95799 32.3498C2.96009 31.9854 2.93218 32.4528 2.96427 32.2434C2.99637 32.034 3.05079 31.8134 3.11429 31.604C3.13731 31.5272 3.16243 31.451 3.18895 31.3756C3.18616 31.3826 3.3257 31.0139 3.24825 31.2022C3.34105 30.9766 3.452 30.7566 3.56433 30.5409C3.98507 29.7352 4.47768 28.9667 4.94656 28.1885C5.96876 26.4909 6.99095 24.7941 8.01314 23.0966C8.90277 21.6197 9.7889 20.1407 10.7281 18.6955C11.6519 17.275 12.5638 15.9744 13.5553 14.7738C14.1512 14.0519 14.7778 13.3561 15.442 12.697C15.7735 12.3678 16.1139 12.0485 16.4642 11.7397C16.6393 11.5853 16.8173 11.433 16.998 11.2843C17.0733 11.2222 17.1487 11.1602 17.2248 11.0996C17.2855 11.0509 17.3469 11.0023 17.4083 10.9537C17.3294 11.0157 17.3448 11.0044 17.4536 10.9205C17.933 10.5553 18.2309 9.89974 17.8667 9.32872C17.5611 8.85005 16.8054 8.51943 16.2912 8.91139L16.2919 8.9128Z" fill="#F6F6F6"/>
<path d="M1.0392 33.678C3.66271 35.7964 7.25051 36.7227 10.3897 35.2085C11.9645 34.4485 13.2337 33.114 14.4589 31.8902C15.6918 30.6579 16.8912 29.3911 18.0648 28.1011C19.3961 26.6376 20.6953 25.1431 21.9555 23.6168C22.3406 23.1501 22.4418 22.4226 21.9555 21.9722C21.5298 21.5774 20.7393 21.473 20.3276 21.9722C18.2072 24.5389 15.9856 27.0239 13.6614 29.4045C13.1039 29.9755 12.5394 30.5409 11.9666 31.0964C11.4293 31.6174 10.7971 32.2039 10.3136 32.5486C10.0024 32.7707 9.67657 32.9737 9.33607 33.1464C9.2642 33.1831 9.19163 33.2176 9.11837 33.2515C9.31165 33.1613 8.98929 33.3022 8.98092 33.3058C8.81276 33.3685 8.64111 33.4235 8.46807 33.4707C8.29503 33.518 8.1213 33.5567 7.94546 33.5885C7.87569 33.6011 7.80452 33.6131 7.73405 33.623C7.96012 33.5927 7.72428 33.6195 7.66776 33.6244C7.29307 33.6568 6.91559 33.6568 6.54091 33.6279C6.46904 33.6223 6.39787 33.6145 6.326 33.6082C6.04969 33.5828 6.45229 33.6385 6.2032 33.5913C5.98899 33.5504 5.77618 33.5116 5.56407 33.458C5.19147 33.3643 4.82795 33.243 4.4707 33.1013C4.27673 33.0238 4.70933 33.2162 4.39186 33.0668C4.29208 33.0203 4.1923 32.9737 4.09392 32.9244C3.9132 32.8342 3.73598 32.7376 3.56154 32.6346C3.38711 32.5317 3.21686 32.4246 3.0501 32.3111C2.98939 32.2695 2.92939 32.2279 2.87008 32.1849C2.81077 32.1419 2.75216 32.0989 2.69355 32.0545C2.78216 32.125 2.77379 32.1179 2.66843 32.0333C2.19885 31.654 1.49273 31.5356 1.04059 32.0333C0.657532 32.4549 0.538218 33.2726 1.04059 33.678H1.0392Z" fill="#F6F6F6"/>
<path d="M2.5219 34.1045C1.89393 35.1119 1.44947 36.2342 1.20456 37.3981C0.959655 38.5619 0.830573 39.8619 1.4083 40.9468C2.26374 42.5548 4.28719 42.6845 5.88014 42.5992C7.22888 42.5266 8.54971 42.251 9.82309 41.8005C10.3562 41.6116 10.7113 41.0772 10.5543 40.4999C10.412 39.9775 9.80286 39.5714 9.26699 39.7611C8.0899 40.1777 6.92397 40.4364 5.73013 40.4921C5.33172 40.5104 4.93261 40.5168 4.53489 40.4865C4.47698 40.4822 4.12043 40.4301 4.41209 40.4794C4.30743 40.4618 4.20347 40.4442 4.0995 40.4209C3.99554 40.3977 3.89785 40.3709 3.79947 40.3391C3.75063 40.3236 3.70318 40.3067 3.65504 40.2884C3.77645 40.3427 3.80226 40.3539 3.73179 40.3208C3.66062 40.2736 3.5755 40.2433 3.50223 40.1981C3.46037 40.1721 3.4199 40.1453 3.37943 40.1164C3.49316 40.208 3.50712 40.2172 3.4199 40.1425C3.37315 40.0924 3.18546 39.8464 3.33687 40.0776C3.27896 39.9895 3.22872 39.9014 3.17918 39.8083C3.30338 40.0381 3.16034 39.7301 3.14359 39.6617C3.13592 39.6321 3.09056 39.3614 3.10591 39.4876C3.06475 39.1605 3.08359 38.8115 3.12475 38.4851C3.26779 37.3677 3.699 36.1827 4.32836 35.1718C4.62979 34.6882 4.42953 34.0065 3.95298 33.7252C3.4499 33.4277 2.82333 33.6202 2.52121 34.1045H2.5219Z" fill="#F6F6F6"/>
<path d="M12.8429 40.7071C14.8189 41.4283 17.1027 41.6243 19.1296 40.994C21.107 40.3793 22.6358 39.0124 24.212 37.7301C27.379 35.1542 30.3807 32.3823 33.4668 29.7098C35.1979 28.211 36.9569 26.744 38.7794 25.3602C39.2309 25.0176 39.4639 24.4466 39.1548 23.9136C38.8946 23.4645 38.1773 23.1889 37.7231 23.5343C34.4625 26.0102 31.3952 28.72 28.3279 31.4334C26.8473 32.7432 25.3632 34.0481 23.8463 35.3149C22.3294 36.5817 20.964 37.8485 19.2705 38.6924C18.9538 38.8503 19.4331 38.6367 19.1059 38.7657C19.0005 38.8073 18.8952 38.8467 18.7884 38.8834C18.5372 38.9701 18.2811 39.0427 18.0223 39.1019C17.5318 39.2133 17.0789 39.2472 16.5459 39.2493C15.4511 39.2528 14.4589 39.054 13.3997 38.667C12.8841 38.4788 12.231 38.8785 12.1124 39.4058C11.9784 40.0008 12.291 40.5048 12.8436 40.7064L12.8429 40.7071Z" fill="#F6F6F6"/>
<path d="M24.4304 37.6265C25.1846 38.3131 26.0282 39.0237 27.0511 39.2366C28.3049 39.4981 29.4897 39.1062 30.6361 38.6169C31.1566 38.3949 31.2703 37.618 31.0115 37.1703C30.6961 36.6254 30.1023 36.5676 29.5797 36.7911C29.2085 36.9497 28.7082 37.0928 28.2645 37.1929C28.1403 37.2126 28.1444 37.2133 28.2777 37.1943C28.2212 37.2007 28.1647 37.2056 28.1082 37.2098C28.0265 37.2148 27.9449 37.2176 27.8633 37.2169C27.8333 37.2169 27.5165 37.2056 27.6923 37.2141C27.8681 37.2225 27.5716 37.1894 27.5353 37.1809C27.4634 37.164 27.3916 37.1436 27.3211 37.1203C27.2744 37.1048 27.2276 37.0886 27.1816 37.0702C27.3162 37.1302 27.3309 37.1365 27.2248 37.0879C27.0629 37.004 26.9039 36.9187 26.7511 36.8179C26.682 36.772 26.6164 36.7227 26.548 36.6762C26.4552 36.6057 26.4573 36.6085 26.5543 36.6846C26.5075 36.648 26.4615 36.6099 26.4154 36.5725C26.2431 36.4301 26.0763 36.2814 25.911 36.1305C25.4909 35.7484 24.8448 35.7118 24.4311 36.1305C24.0466 36.519 24.0096 37.2423 24.4311 37.6257L24.4304 37.6265Z" fill="#F6F6F6"/>
<path d="M79.8221 17.1192C81.8958 17.33 83.9402 17.3984 85.9672 16.8288C88.2132 16.1978 90.4111 15.3448 92.6174 14.5849C93.897 14.1443 95.1774 13.7037 96.457 13.2624C97.0257 13.0664 97.4604 12.4545 97.2608 11.8313C97.078 11.261 96.4549 10.8084 95.8444 11.0192C93.6319 11.7813 91.4186 12.5433 89.2061 13.3054C88.1162 13.6804 87.0312 14.0738 85.9302 14.415C85.4104 14.5764 84.8836 14.7273 84.3498 14.8352C84.2989 14.8457 84.2479 14.8549 84.197 14.8641C84.1656 14.8697 83.9479 14.9056 84.0874 14.8845C84.1893 14.869 83.9116 14.9042 83.8607 14.9092C83.6151 14.9331 83.3681 14.9472 83.1218 14.9557C82.02 14.9917 80.9176 14.9056 79.8221 14.7943C79.2207 14.7329 78.645 15.373 78.6709 15.9574C78.7009 16.6398 79.1781 17.0551 79.8221 17.1206V17.1192Z" fill="#F6F6F6"/>
<path d="M22.7467 14.5814C28.3007 14.1894 33.8666 13.937 39.4067 13.3576C41.0199 13.1891 42.6296 12.9889 44.2351 12.7569C44.8331 12.6709 45.214 11.8715 45.0389 11.3259C44.8268 10.6639 44.2637 10.4207 43.6225 10.5138C41.1099 10.8761 38.3015 11.1609 35.6417 11.3794C32.9031 11.6043 30.1602 11.7749 27.4174 11.9476C25.86 12.0456 24.3027 12.145 22.746 12.2543C22.1466 12.2966 21.5654 12.759 21.5947 13.4175C21.6212 14.0111 22.1027 14.6258 22.746 14.5807L22.7467 14.5814Z" fill="#F6F6F6"/>
<path d="M44.2372 12.7485C50.5295 13.4429 56.4589 14.0928 62.6618 15.3871C64.3148 15.7319 65.9594 16.1231 67.5844 16.5842C68.1635 16.7484 68.8634 16.3818 69.0008 15.772C69.1404 15.1545 68.8173 14.5172 68.197 14.341C62.0611 12.5983 55.6872 11.7552 49.3705 11.0044C47.6603 10.8014 45.9488 10.611 44.2372 10.4221C43.6364 10.3558 43.0601 11.0044 43.0859 11.5853C43.1166 12.2719 43.5939 12.6773 44.2372 12.7485Z" fill="#F6F6F6"/>
<path d="M73.9778 40.6543C80.1215 39.7054 86.2009 38.3427 92.1624 36.5683C93.8342 36.0706 95.4955 35.5405 97.1471 34.98C97.7172 34.7869 98.1497 34.17 97.9509 33.549C97.7674 32.9766 97.1457 32.5289 96.5345 32.7369C90.6448 34.7361 84.624 36.3357 78.5215 37.5165C76.8086 37.8478 75.0893 38.1453 73.3652 38.4118C72.7679 38.5041 72.3849 39.2937 72.5614 39.8428C72.7721 40.4999 73.3373 40.7544 73.9778 40.655V40.6543Z" fill="#F6F6F6"/>
<path d="M36.5739 23.6443C37.3986 23.7698 38.2233 23.8953 39.0481 24.0215C39.18 24.0412 39.2365 23.8375 39.1039 23.8177C38.2792 23.6922 37.4544 23.5668 36.6297 23.4406C36.4978 23.4208 36.4413 23.6246 36.5739 23.6443Z" fill="#F6F6F6"/>
<path d="M40.034 23.129C39.4095 22.8442 38.8318 22.6172 38.1431 22.5601C37.5033 22.5072 36.8579 22.4938 36.2166 22.4621C35.708 22.4367 35.2747 22.9175 35.2747 23.4138C35.2747 23.9503 35.7066 24.3401 36.2166 24.3655C37.2591 24.4169 38.1675 24.3549 39.083 24.7722C39.5463 24.9837 40.0961 24.9069 40.3717 24.431C40.6075 24.0236 40.5001 23.3412 40.034 23.129Z" fill="#F6F6F6"/>
<path d="M30.6361 38.6169C32.5437 37.4467 34.2309 35.9494 35.8622 34.421C36.6681 33.666 37.4649 32.9004 38.282 32.1581C38.6706 31.8049 39.0641 31.4567 39.4653 31.1176C39.6705 30.9442 39.8777 30.7736 40.0877 30.6065C40.1296 30.5733 40.1715 30.5402 40.2133 30.5071C40.0982 30.5973 40.2384 30.488 40.2538 30.4761C40.3661 30.3908 40.4792 30.3048 40.5929 30.2209C41.5446 29.5187 42.5556 28.9005 43.6392 28.4289C44.1584 28.2033 44.2749 27.4321 44.0146 26.9823C43.7006 26.4402 43.1041 26.376 42.5829 26.603C38.582 28.3429 35.7031 31.8839 32.4481 34.6727C32.2109 34.8764 31.9709 35.0766 31.7274 35.2733C31.4545 35.494 31.4029 35.5348 31.1154 35.7484C30.6186 36.1186 30.1065 36.4668 29.579 36.7904C29.0962 37.0865 28.9148 37.7386 29.2036 38.237C29.4925 38.7354 30.1505 38.9137 30.6354 38.6162L30.6361 38.6169Z" fill="#F6F6F6"/>
<path d="M42.8089 26.7912C43.0196 26.854 42.7133 26.7123 42.9038 26.8237C42.9345 26.8413 43.1048 26.9759 42.9924 26.8773L44.0069 25.5484C43.6134 25.3362 43.2199 25.1247 42.8271 24.9125L42.1816 26.4585C42.2765 26.4782 42.37 26.5001 42.4621 26.529C42.5019 26.541 42.541 26.5544 42.5794 26.5692C42.5075 26.5346 42.5166 26.5389 42.6073 26.5819C43.0036 26.7687 43.5283 26.7074 43.753 26.278C43.9483 25.9037 43.8765 25.32 43.4522 25.1205C43.185 24.9943 42.9157 24.8865 42.6268 24.8265C42.2144 24.7419 41.8077 24.9125 41.6388 25.3165C41.4832 25.6887 41.6116 26.1737 41.9814 26.3732C42.3749 26.5854 42.7685 26.7969 43.1613 27.0091C43.5325 27.2086 43.9818 27.131 44.2414 26.7912C44.48 26.479 44.4926 25.9566 44.1758 25.6802C43.8967 25.437 43.6099 25.2643 43.2541 25.1586C42.834 25.0338 42.3233 25.3087 42.2242 25.7493C42.1251 26.1899 42.3589 26.6566 42.8089 26.7898V26.7912Z" fill="#F6F6F6"/>
<path d="M29.9286 22.6919C27.3958 24.0511 25.0695 25.8057 22.8486 27.6294C20.5376 29.5279 18.6112 31.8176 16.4412 33.869C15.2048 35.0379 13.8902 36.1735 12.5631 37.2014C12.1152 37.5482 11.8772 38.1115 12.1877 38.6479C12.4459 39.0935 13.1681 39.3769 13.6195 39.0272C16.0777 37.1238 18.3425 35.0308 20.4902 32.7792C21.5256 31.6928 22.5646 30.6065 23.711 29.6379C24.789 28.7271 25.7847 27.9431 26.9157 27.1205C28.2191 26.173 29.565 25.2784 30.9843 24.5171C31.4831 24.2492 31.6367 23.5491 31.3596 23.0705C31.0645 22.5601 30.4289 22.4226 29.9279 22.6912L29.9286 22.6919Z" fill="#F6F6F6"/>
<path d="M12.2129 37.4425C11.8619 37.8182 11.5109 38.1961 11.1328 38.5443C11.0434 38.6261 10.9527 38.7065 10.8606 38.7847C10.832 38.8087 10.5376 39.0406 10.7071 38.9123C10.5104 39.061 10.3087 39.202 10.1043 39.3388C9.98567 39.4178 9.86914 39.4925 9.74215 39.5559C9.66959 39.5919 9.59633 39.6257 9.52236 39.6596C9.47073 39.6828 9.16721 39.8118 9.43305 39.7011C9.26978 39.7688 9.10581 39.8358 8.93905 39.8943C8.86021 39.9218 8.77857 39.9422 8.70042 39.9697C8.66902 39.9782 8.63693 39.986 8.60483 39.9923C8.74857 39.9535 8.8923 39.9549 9.03604 39.9979C8.50017 39.895 7.88127 40.1488 7.7487 40.7367C7.63148 41.2577 7.9043 41.9274 8.47994 42.0374C8.96766 42.1311 9.39956 41.981 9.84542 41.8005C10.2187 41.6497 10.6115 41.5023 10.9604 41.2965C12.0035 40.6817 12.8708 39.8182 13.6935 38.9384C14.0814 38.5232 14.101 37.8549 13.6935 37.4432C13.286 37.0315 12.6029 37.0265 12.2136 37.4432L12.2129 37.4425Z" fill="#F6F6F6"/>
<path d="M22.7914 68.4642C24.8832 68.3683 26.9785 68.3267 29.0731 68.3739C29.6641 68.3873 30.2544 68.4078 30.8447 68.436C30.9794 68.4423 30.9794 68.2308 30.8447 68.2245C28.7557 68.1237 26.6631 68.1223 24.5734 68.1843C23.9796 68.2019 23.3851 68.2252 22.7914 68.252C22.6574 68.2583 22.6567 68.4698 22.7914 68.4635V68.4642Z" fill="#F6F6F6"/>
<path d="M54.9929 82.1016C56.02 82.7114 57.0429 83.3282 58.0616 83.9528C58.5772 84.2686 59.3496 84.0846 59.6371 83.5355C59.9246 82.9863 59.7746 82.2813 59.224 81.9437C58.2053 81.3191 57.1831 80.7015 56.1554 80.0925C55.6355 79.7844 54.8701 79.955 54.5799 80.5098C54.2896 81.0646 54.4382 81.7724 54.9929 82.1016Z" fill="#F6F6F6"/>
<path d="M24.6781 68.6242C24.9523 68.6411 25.2258 68.6615 25.4993 68.6883C25.643 68.7024 25.7868 68.7179 25.9305 68.7356C25.9912 68.7426 26.0526 68.7504 26.1133 68.7581C26.3157 68.7849 25.9689 68.7363 26.1691 68.7666C26.6994 68.8477 27.2262 68.9449 27.7488 69.0662C28.8031 69.3108 29.8351 69.6414 30.8468 70.0264C31.0931 70.1201 31.338 70.2167 31.5822 70.3161C31.8843 70.4395 31.9841 70.4803 32.2262 70.5861C32.5535 70.7285 32.8814 70.8561 33.2142 70.9823C33.5471 71.1085 33.852 71.2255 34.1716 71.346C34.2923 71.3919 34.413 71.4398 34.5351 71.4814C34.6572 71.523 34.5148 71.4588 34.4639 71.4482C34.6237 71.4814 34.7967 71.6005 34.9447 71.6682C39.0216 73.5384 43.0748 75.4651 47.0275 77.5927C48.162 78.2032 49.2882 78.8292 50.4067 79.47C50.9997 79.8098 51.5872 80.1587 52.1782 80.5013C52.352 80.6021 52.5341 80.6853 52.7218 80.7544C52.7734 80.7734 52.8285 80.7861 52.8795 80.8073C52.9534 80.8305 52.9492 80.8313 52.8676 80.8094L52.982 80.8785C53.2423 81.0674 53.5284 81.2366 53.8054 81.4009C54.3252 81.7096 55.0906 81.5383 55.3809 80.9835C55.6732 80.4252 55.5225 79.7216 54.9678 79.3917C54.7438 79.2585 54.5282 79.1126 54.3084 78.9723C53.9951 78.7721 53.6623 78.6713 53.3344 78.5105C53.4816 78.5824 53.206 78.4118 53.1676 78.3893C53.0337 78.3103 52.899 78.2314 52.7643 78.1524C52.4985 77.9966 52.232 77.8422 51.9654 77.6878C50.9509 77.102 49.9301 76.5289 48.9016 75.9677C46.913 74.8828 44.8987 73.8465 42.8661 72.8483C40.8057 71.8367 38.7278 70.8624 36.643 69.9037C35.865 69.5456 35.0877 69.2164 34.2888 68.9125C34.0034 68.804 33.7201 68.6848 33.4298 68.5889C33.3029 68.5466 33.455 68.6059 33.5052 68.6263C33.3691 68.5706 33.2352 68.5093 33.0998 68.4515C32.7803 68.3147 32.46 68.1787 32.1383 68.0482C29.7409 67.0768 27.2625 66.4564 24.6794 66.2964C24.0773 66.2591 23.5017 66.8583 23.5282 67.4596C23.5575 68.1216 24.034 68.5826 24.6794 68.6228L24.6781 68.6242Z" fill="#F6F6F6"/>
<path d="M61.7227 84.5555C63.2249 84.5196 64.7271 84.4554 66.2301 84.4843C67.7281 84.5125 69.2248 84.6803 70.7096 84.8819C70.6552 84.8749 70.5547 84.8601 70.801 84.8946C70.8896 84.9073 70.9775 84.92 71.0654 84.9327C71.242 84.9588 71.4185 84.9856 71.595 85.0138C71.9711 85.0737 72.3465 85.1385 72.7212 85.209C73.4587 85.3479 74.192 85.5086 74.9191 85.6962C75.6245 85.878 76.3348 86.031 77.0284 86.2573C77.1365 86.2926 77.2447 86.3426 77.3549 86.3694C77.5105 86.4068 77.0535 86.2171 77.2614 86.3306C77.3647 86.387 77.4686 86.4385 77.5677 86.5019C77.7115 86.5936 77.911 86.7917 77.6522 86.5499C77.7463 86.638 77.8496 86.7169 77.9424 86.8079C78.0352 86.8988 78.121 86.9884 78.2048 87.0835C78.248 87.1322 78.2899 87.1815 78.3311 87.2323C78.352 87.2577 78.3715 87.2837 78.3925 87.3091C78.5222 87.4635 78.2194 87.0638 78.3331 87.2323C78.4915 87.4656 78.6485 87.6954 78.7825 87.9443C78.8488 88.0669 78.9081 88.1924 78.9681 88.3172C78.9834 88.3482 78.9946 88.3821 79.0107 88.4131C79.0748 88.5336 78.9123 88.1508 78.9555 88.2798C78.9806 88.3539 79.0134 88.4265 79.04 88.4998C79.1404 88.7782 79.2207 89.0638 79.2765 89.3549C79.2897 89.4226 79.2988 89.491 79.3114 89.5586C79.3449 89.7433 79.2814 89.2273 79.3016 89.5044C79.3121 89.6489 79.3225 89.792 79.3225 89.9365C79.3225 90.0711 79.31 90.2044 79.3023 90.3383C79.2884 90.5836 79.363 90.0373 79.31 90.2763C79.2939 90.3489 79.2828 90.4229 79.266 90.4955C79.2353 90.6245 79.1942 90.7493 79.1523 90.8748C79.0679 91.1286 79.2577 90.6689 79.1739 90.8261C79.1349 90.8995 79.1014 90.9763 79.0602 91.0489C79.0232 91.1152 78.9807 91.1779 78.9409 91.2428C78.7846 91.4987 79.0588 91.1187 78.9534 91.2343C78.839 91.3598 78.7267 91.4811 78.6039 91.5995C78.382 91.8138 78.7309 91.5241 78.599 91.6115C78.518 91.6651 78.4413 91.7236 78.359 91.775C78.2892 91.8187 77.8838 91.9774 77.8671 92.0366C77.8838 91.9774 78.1127 91.9435 77.9605 91.9964C77.8964 92.0189 77.8343 92.0457 77.7701 92.0683C77.6703 92.1035 77.5691 92.136 77.4672 92.1656C77.2349 92.2332 76.9984 92.2868 76.7597 92.3291C76.706 92.3383 76.6523 92.3467 76.5986 92.3559C76.3795 92.3933 76.7625 92.3439 76.6118 92.3538C76.4799 92.3623 76.3481 92.382 76.2155 92.3912C75.8952 92.4144 75.5736 92.4208 75.2526 92.4179C74.6505 92.4123 74.0734 92.9572 74.1013 93.5811C74.1292 94.205 74.6072 94.738 75.2526 94.7443C77.1058 94.7619 79.296 94.4186 80.5645 92.8994C81.593 91.6686 81.8107 90.0718 81.4528 88.5322C81.1513 87.2344 80.4278 85.9225 79.4342 85.0363C78.7832 84.4561 78.0938 84.1446 77.2635 83.8964C75.7641 83.4481 74.2102 83.1097 72.6696 82.8467C70.8617 82.5379 69.0085 82.2771 67.1762 82.189C65.3586 82.1016 63.5396 82.1862 61.7227 82.2292C61.1212 82.2433 60.5428 82.7537 60.5714 83.3924C60.5986 84.0106 61.0779 84.571 61.7227 84.5555Z" fill="#F6F6F6"/>
<path d="M50.7158 104.773C46.366 102.803 42.0079 100.853 37.6498 98.9029C33.4229 97.0107 29.2071 95.0926 24.9767 93.2089C22.9532 92.308 20.89 91.4141 19.0375 90.1804C18.5337 89.8448 17.7418 90.0627 17.462 90.5977C17.1571 91.18 17.3371 91.8314 17.8751 92.1895C19.5203 93.285 21.3359 94.107 23.1319 94.9135C25.1316 95.8109 27.1299 96.7118 29.129 97.6114C33.4822 99.5705 37.841 101.515 42.197 103.469C44.651 104.569 47.1035 105.673 49.5533 106.782C50.1017 107.03 50.8169 106.961 51.1288 106.365C51.394 105.857 51.3026 105.039 50.7158 104.773Z" fill="#F6F6F6"/>
<path d="M50.4869 107C58.9135 106.977 66.7436 103.37 74.5667 100.653C76.856 99.8574 79.1481 99.0713 81.4207 98.2282C81.9844 98.0188 82.4275 97.4295 82.2245 96.7971C82.0451 96.2381 81.4137 95.7601 80.808 95.985C76.8239 97.4633 72.7812 98.7753 68.7971 100.254C64.9825 101.671 61.1407 103.072 57.1566 103.923C56.604 104.041 56.05 104.148 55.4932 104.242C55.1939 104.293 54.8938 104.339 54.5931 104.384C54.1731 104.447 54.8052 104.359 54.3838 104.413C54.2547 104.429 54.1256 104.445 53.9965 104.461C52.8313 104.598 51.6598 104.67 50.4862 104.673C49.884 104.674 49.307 105.207 49.3349 105.836C49.3628 106.466 49.8408 107.001 50.4862 106.999L50.4869 107Z" fill="#F6F6F6"/>
<path d="M81.7081 98.0872C84.5891 95.8899 86.8638 93.0848 88.8691 90.0725C90.9742 86.9094 92.8664 83.5961 94.8271 80.3406C95.9379 78.4957 97.3836 76.5486 97.3501 74.2885C97.3411 73.6802 96.8268 73.0972 96.1989 73.1254C95.5709 73.1535 95.0378 73.6364 95.0476 74.2885C95.0497 74.4098 95.0427 74.5296 95.042 74.6502C95.0399 75.0146 95.0678 74.5472 95.0357 74.7566C95.0036 74.966 94.9492 75.1866 94.8857 75.396C94.8627 75.4729 94.8376 75.549 94.811 75.6244C94.8138 75.6174 94.6743 75.9861 94.7517 75.7978C94.6589 76.0234 94.548 76.2434 94.4357 76.4591C94.0149 77.2649 93.5223 78.0333 93.0534 78.8115C92.0312 80.5091 91.009 82.2059 89.9868 83.9035C89.0972 85.3803 88.2111 86.8593 87.2719 88.3045C86.3481 89.725 85.4362 91.0257 84.4447 92.2262C83.8488 92.9481 83.2222 93.6439 82.558 94.303C82.2265 94.6322 81.886 94.9516 81.5358 95.2603C81.3606 95.4147 81.1827 95.567 81.002 95.7157C80.9267 95.7778 80.8513 95.8398 80.7752 95.9004C80.7145 95.9491 80.6531 95.9977 80.5917 96.0464C80.6706 95.9843 80.6552 95.9956 80.5464 96.0795C80.067 96.4447 79.7691 97.1003 80.1333 97.6713C80.4389 98.15 81.1946 98.4806 81.7088 98.0886L81.7081 98.0872Z" fill="#F6F6F6"/>
<path d="M96.9608 73.322C94.3373 71.2036 90.7495 70.2773 87.6103 71.7916C86.0355 72.5515 84.7663 73.886 83.5411 75.1098C82.3082 76.3421 81.1088 77.6089 79.9352 78.899C78.6039 80.3624 77.3047 81.857 76.0445 83.3832C75.6594 83.8499 75.5582 84.5774 76.0445 85.0279C76.4702 85.4226 77.2607 85.527 77.6724 85.0279C79.7928 82.4611 82.0144 79.9761 84.3386 77.5955C84.8961 77.0245 85.4606 76.4591 86.0334 75.9036C86.5707 75.3826 87.2029 74.7961 87.6864 74.4514C87.9976 74.2293 88.3234 74.0263 88.6639 73.8536C88.7358 73.8169 88.8084 73.7824 88.8816 73.7485C88.6883 73.8388 89.0107 73.6978 89.0191 73.6942C89.1872 73.6315 89.3589 73.5765 89.5319 73.5293C89.705 73.4821 89.8787 73.4433 90.0545 73.4116C90.1243 73.3989 90.1955 73.3869 90.2659 73.377C90.0399 73.4073 90.2757 73.3805 90.3322 73.3756C90.7069 73.3432 91.0844 73.3432 91.4591 73.3721C91.531 73.3777 91.6021 73.3855 91.674 73.3918C91.9503 73.4172 91.5477 73.3615 91.7968 73.4087C92.011 73.4496 92.2238 73.4884 92.4359 73.542C92.8085 73.6357 93.172 73.757 93.5293 73.8987C93.7233 73.9762 93.2907 73.7838 93.6081 73.9332C93.7079 73.9798 93.8077 74.0263 93.9061 74.0756C94.0868 74.1659 94.264 74.2624 94.4385 74.3654C94.6129 74.4683 94.7831 74.5754 94.9499 74.6889C95.0106 74.7305 95.0706 74.7721 95.1299 74.8151C95.1892 74.8581 95.2478 74.9011 95.3065 74.9455C95.2178 74.8751 95.2262 74.8821 95.3316 74.9667C95.8012 75.346 96.5073 75.4644 96.9594 74.9667C97.3425 74.5451 97.4618 73.7274 96.9594 73.322H96.9608Z" fill="#F6F6F6"/>
<path d="M95.4788 72.8955C96.1068 71.8881 96.5512 70.7659 96.7961 69.602C97.0403 68.4423 97.1701 67.1381 96.5924 66.0532C95.737 64.4452 93.7135 64.3155 92.1206 64.4008C90.7718 64.4734 89.451 64.749 88.1776 65.1995C87.6445 65.3884 87.2894 65.9228 87.4464 66.5001C87.5887 67.0225 88.1978 67.4286 88.7337 67.2389C89.9108 66.8223 91.0767 66.5636 92.2706 66.5079C92.669 66.4896 93.0681 66.4832 93.4658 66.5135C93.5237 66.5178 93.8803 66.5699 93.5886 66.5206C93.6933 66.5382 93.7972 66.5558 93.9012 66.5791C94.0052 66.6024 94.1028 66.6292 94.2012 66.6609C94.2501 66.6764 94.2975 66.6933 94.3457 66.7116C94.2242 66.6574 94.1984 66.6461 94.2689 66.6792C94.3401 66.7264 94.4252 66.7568 94.4985 66.8019C94.5403 66.828 94.5808 66.8547 94.6213 66.8836C94.5075 66.792 94.4936 66.7828 94.5808 66.8576C94.6275 66.9076 94.8152 67.1536 94.6638 66.9224C94.7217 67.0105 94.772 67.0987 94.8215 67.1917C94.6973 66.9619 94.8404 67.27 94.8571 67.3383C94.8648 67.368 94.9101 67.6387 94.8948 67.5125C94.9359 67.8396 94.9171 68.1885 94.8759 68.5149C94.7329 69.6323 94.3017 70.8173 93.6723 71.8282C93.3709 72.3118 93.5712 72.9935 94.0477 73.2748C94.5508 73.5723 95.1774 73.3798 95.4795 72.8955H95.4788Z" fill="#F6F6F6"/>
<path d="M85.1578 66.2929C83.1818 65.5717 80.8981 65.3757 78.8711 66.006C76.8442 66.6362 75.3649 67.9876 73.7887 69.2699C70.6217 71.8458 67.62 74.6177 64.5339 77.2902C62.8028 78.789 61.0438 80.256 59.2212 81.6398C58.7698 81.9824 58.5368 82.5535 58.8459 83.0864C59.1061 83.5355 59.8234 83.8111 60.2776 83.4657C63.5382 80.9899 66.6055 78.28 69.6727 75.5666C71.1534 74.2568 72.6375 72.9519 74.1544 71.6851C75.6273 70.455 77.0367 69.1515 78.7302 68.3077C79.0469 68.1498 78.5676 68.3634 78.8948 68.2343C79.0002 68.1928 79.1055 68.1533 79.2123 68.1166C79.4635 68.0299 79.7196 67.9573 79.9784 67.8981C80.4689 67.7867 80.9218 67.7529 81.4549 67.7507C82.5496 67.7472 83.5418 67.946 84.601 68.333C85.1166 68.5213 85.7697 68.1216 85.8883 67.5942C86.0223 66.9993 85.7097 66.4952 85.1571 66.2936L85.1578 66.2929Z" fill="#F6F6F6"/>
<path d="M73.5697 69.3736C72.8154 68.6869 71.9718 67.9763 70.9489 67.7634C69.6951 67.5019 68.5103 67.8938 67.3639 68.3831C66.8434 68.6052 66.7297 69.382 66.9885 69.8297C67.3039 70.3746 67.8977 70.4324 68.4203 70.2089C68.7915 70.0503 69.2918 69.9072 69.7355 69.8071C69.8597 69.7874 69.8556 69.7867 69.7223 69.8057C69.7788 69.7994 69.8353 69.7944 69.8918 69.7902C69.9735 69.7852 70.0551 69.7824 70.1367 69.7831C70.1668 69.7831 70.4835 69.7944 70.3077 69.786C70.1319 69.7775 70.4284 69.8106 70.4647 69.8191C70.5366 69.836 70.6084 69.8565 70.6789 69.8797C70.7256 69.8952 70.7724 69.9114 70.8184 69.9298C70.6838 69.8698 70.6691 69.8635 70.7752 69.9121C70.9371 69.996 71.0961 70.0813 71.249 70.1821C71.318 70.228 71.3836 70.2773 71.452 70.3238C71.5448 70.3943 71.5427 70.3915 71.4457 70.3154C71.4925 70.352 71.5385 70.3901 71.5846 70.4275C71.7569 70.5699 71.9237 70.7186 72.089 70.8695C72.5091 71.2516 73.1552 71.2882 73.569 70.8695C73.9534 70.481 73.9904 69.7578 73.569 69.3743L73.5697 69.3736Z" fill="#F6F6F6"/>
<path d="M18.1779 89.8808C16.1042 89.67 14.0598 89.6016 12.0328 90.1712C9.78681 90.8022 7.58892 91.6552 5.38265 92.4151C4.10299 92.8557 2.82263 93.2963 1.54297 93.7376C0.974308 93.9336 0.539614 94.5455 0.739168 95.1687C0.921977 95.739 1.54506 96.1916 2.15559 95.9808C4.36813 95.2187 6.58138 94.4567 8.79392 93.6946C9.8838 93.3196 10.9688 92.9262 12.0698 92.585C12.5896 92.4236 13.1164 92.2727 13.6502 92.1649C13.7012 92.1543 13.7521 92.1451 13.803 92.136C13.8344 92.1303 14.0521 92.0944 13.9126 92.1155C13.8107 92.131 14.0884 92.0958 14.1393 92.0908C14.3849 92.0669 14.6319 92.0528 14.8782 92.0443C15.98 92.0084 17.0824 92.0944 18.1779 92.2057C18.7793 92.2671 19.355 91.627 19.3291 91.0426C19.2991 90.3602 18.8219 89.9449 18.1779 89.8794V89.8808Z" fill="#F6F6F6"/>
<path d="M75.2533 92.4186C69.6993 92.8106 64.1334 93.063 58.5933 93.6425C56.9801 93.8109 55.3704 94.0112 53.7649 94.2431C53.1669 94.3291 52.786 95.1285 52.9611 95.6742C53.1732 96.3361 53.7363 96.5793 54.3775 96.4863C56.8901 96.1239 59.6985 95.8391 62.3583 95.6206C65.0969 95.3957 67.8398 95.2251 70.5826 95.0524C72.14 94.9544 73.6973 94.855 75.254 94.7457C75.8534 94.7034 76.4346 94.241 76.4053 93.5825C76.3788 92.989 75.8973 92.3742 75.254 92.4194L75.2533 92.4186Z" fill="#F6F6F6"/>
<path d="M53.7628 94.2515C47.4705 93.5572 41.5411 92.9072 35.3382 91.6129C33.6852 91.2682 32.0406 90.8769 30.4156 90.4159C29.8365 90.2516 29.1366 90.6182 28.9992 91.228C28.8617 91.8378 29.1827 92.4828 29.803 92.659C35.9389 94.4017 42.3128 95.2448 48.6295 95.9956C50.3397 96.1986 52.0512 96.389 53.7628 96.5779C54.3636 96.6442 54.9399 95.9956 54.9141 95.4147C54.8834 94.7281 54.4061 94.3227 53.7628 94.2515Z" fill="#F6F6F6"/>
<path d="M24.0222 66.3458C17.8785 67.2946 11.7991 68.6573 5.83758 70.4317C4.16579 70.9294 2.50446 71.4595 0.852901 72.02C0.282844 72.2131 -0.149757 72.83 0.0491 73.451C0.232607 74.0235 0.854296 74.4711 1.46552 74.2631C7.35517 72.2639 13.376 70.6643 19.4785 69.4835C21.1914 69.1522 22.9107 68.8547 24.6348 68.5882C25.2321 68.4959 25.6151 67.7063 25.4386 67.1572C25.2279 66.5001 24.6627 66.2457 24.0222 66.3451V66.3458Z" fill="#F6F6F6"/>
<path d="M61.4261 83.3557C60.6014 83.2302 59.7767 83.1047 58.9519 82.9785C58.82 82.9588 58.7635 83.1625 58.8961 83.1823C59.7208 83.3078 60.5456 83.4333 61.3703 83.5594C61.5022 83.5792 61.5587 83.3754 61.4261 83.3557Z" fill="#F6F6F6"/>
<path d="M57.9667 83.871C58.5912 84.1558 59.1689 84.3828 59.8576 84.4399C60.4974 84.4928 61.1428 84.5062 61.7841 84.5379C62.2927 84.5633 62.726 84.0825 62.726 83.5862C62.726 83.0497 62.2941 82.6599 61.7841 82.6345C60.7416 82.5831 59.8332 82.6451 58.9177 82.2278C58.4544 82.0163 57.9046 82.0931 57.629 82.569C57.3932 82.9764 57.5006 83.6588 57.9667 83.871Z" fill="#F6F6F6"/>
<path d="M67.3639 68.3831C65.4563 69.5533 63.7691 71.0507 62.1378 72.579C61.3319 73.334 60.5351 74.0996 59.718 74.8419C59.3294 75.1951 58.9359 75.5434 58.5347 75.8824C58.3295 76.0559 58.1223 76.2265 57.9123 76.3935C57.8704 76.4267 57.8286 76.4598 57.7867 76.4929C57.9018 76.4027 57.7616 76.512 57.7462 76.524C57.6339 76.6093 57.5208 76.6953 57.4071 76.7791C56.4554 77.4813 55.4444 78.0995 54.3608 78.5712C53.8416 78.7967 53.7251 79.568 53.9854 80.0177C54.2994 80.5598 54.8959 80.624 55.4171 80.397C59.418 78.6572 62.2969 75.1161 65.5519 72.3273C65.7891 72.1236 66.0291 71.9234 66.2726 71.7267C66.5455 71.5061 66.5971 71.4652 66.8846 71.2516C67.3814 70.8815 67.8935 70.5332 68.421 70.2096C68.9038 69.9136 69.0852 69.2615 68.7964 68.7631C68.5075 68.2647 67.8495 68.0863 67.3646 68.3838L67.3639 68.3831Z" fill="#F6F6F6"/>
<path d="M55.1911 80.2088C54.9804 80.146 55.2867 80.2877 55.0962 80.1763C55.0655 80.1587 54.8952 80.0241 55.0076 80.1228C54.6692 80.5655 54.3315 81.0082 53.9931 81.4516C54.3866 81.6638 54.7801 81.8753 55.1729 82.0875L55.8184 80.5415C55.7235 80.5218 55.63 80.4999 55.5379 80.471C55.4981 80.459 55.459 80.4456 55.4206 80.4308C55.4925 80.4654 55.4834 80.4611 55.3927 80.4181C54.9964 80.2313 54.4717 80.2927 54.247 80.722C54.0517 81.0963 54.1235 81.68 54.5478 81.8795C54.815 82.0057 55.0843 82.1136 55.3732 82.1735C55.7856 82.2581 56.1923 82.0875 56.3612 81.6835C56.5168 81.3113 56.3884 80.8263 56.0186 80.6268C55.6251 80.4146 55.2315 80.2031 54.8387 79.9909C54.4675 79.7914 54.0182 79.869 53.7586 80.2088C53.52 80.5211 53.5074 81.0434 53.8242 81.3198C54.1033 81.563 54.3901 81.7357 54.7459 81.8414C55.166 81.9662 55.6767 81.6913 55.7758 81.2507C55.8749 80.8101 55.6411 80.3434 55.1911 80.2102V80.2088Z" fill="#F6F6F6"/>
<path d="M68.0714 84.3081C70.6042 82.9489 72.9305 81.1943 75.1514 79.3706C77.4623 77.4721 79.3888 75.1824 81.5588 73.131C82.7952 71.9622 84.1098 70.8265 85.4369 69.7986C85.8848 69.4518 86.1227 68.8885 85.8122 68.3521C85.5541 67.9065 84.8319 67.6231 84.3805 67.9728C81.9223 69.8762 79.6575 71.9692 77.5098 74.2209C76.4743 75.3072 75.4354 76.3935 74.289 77.3621C73.211 78.2729 72.2153 79.0569 71.0843 79.8795C69.7809 80.827 68.4349 81.7216 67.0157 82.483C66.5169 82.7508 66.3634 83.4509 66.6404 83.9295C66.9355 84.4399 67.5711 84.5774 68.0721 84.3088L68.0714 84.3081Z" fill="#F6F6F6"/>
<path d="M85.7878 69.5576C86.1388 69.1818 86.4898 68.804 86.8679 68.4557C86.9572 68.3739 87.048 68.2936 87.1401 68.2153C87.1687 68.1913 87.4631 67.9594 87.2936 68.0877C87.4903 67.939 87.692 67.798 87.8964 67.6612C88.015 67.5823 88.1316 67.5075 88.2585 67.4441C88.3311 67.4081 88.4044 67.3743 88.4783 67.3405C88.53 67.3172 88.8335 67.1882 88.5676 67.2989C88.7309 67.2312 88.8949 67.1642 89.0616 67.1057C89.1405 67.0782 89.2221 67.0578 89.3003 67.0303C89.3317 67.0218 89.3638 67.0141 89.3959 67.0077C89.2521 67.0465 89.1084 67.0451 88.9647 67.0021C89.5005 67.105 90.1194 66.8512 90.252 66.2633C90.3692 65.7423 90.0964 65.0726 89.5208 64.9626C89.033 64.8689 88.6011 65.019 88.1553 65.1995C87.782 65.3504 87.3891 65.4977 87.0403 65.7035C85.9972 66.3183 85.1299 67.1818 84.3072 68.0616C83.9193 68.4768 83.8997 69.1452 84.3072 69.5568C84.7147 69.9685 85.3978 69.9735 85.7871 69.5568L85.7878 69.5576Z" fill="#F6F6F6"/>
</svg>
