<svg width="261" height="41" viewBox="0 0 261 41" fill="none" xmlns="http://www.w3.org/2000/svg">
<path d="M28.596 14.6061C27.8063 14.642 27.0152 14.6575 26.2244 14.6399C26.0012 14.6348 25.7784 14.6272 25.5555 14.6167C25.5047 14.6143 25.5047 14.6934 25.5555 14.6957C26.3442 14.7334 27.1343 14.7339 27.9232 14.7107C28.1474 14.7042 28.3719 14.6955 28.596 14.6854C28.6466 14.6831 28.6469 14.604 28.596 14.6064V14.6061Z" fill="#232323"/>
<path d="M16.4381 9.50802C16.0503 9.28006 15.6641 9.04947 15.2795 8.81598C15.0848 8.69791 14.7932 8.76669 14.6846 8.97199C14.5761 9.17728 14.6327 9.44082 14.8406 9.56705C15.2252 9.80055 15.6111 10.0314 15.9992 10.2591C16.1954 10.3743 16.4844 10.3105 16.594 10.1031C16.7036 9.89568 16.6475 9.63109 16.4381 9.50802Z" fill="#232323"/>
<path d="M27.8835 14.5463C27.7799 14.54 27.6767 14.5323 27.5734 14.5223C27.5191 14.517 27.4649 14.5112 27.4106 14.5047C27.3877 14.502 27.3645 14.4991 27.3416 14.4962C27.2652 14.4862 27.3961 14.5044 27.3205 14.4931C27.1203 14.4628 26.9214 14.4264 26.7241 14.3811C26.326 14.2896 25.9364 14.166 25.5544 14.0221C25.4614 13.9871 25.369 13.951 25.2768 13.9138C25.1627 13.8677 25.125 13.8524 25.0336 13.8129C24.9101 13.7596 24.7863 13.7119 24.6606 13.6648C24.535 13.6176 24.4198 13.5739 24.2992 13.5288C24.2536 13.5117 24.208 13.4937 24.1619 13.4782C24.1158 13.4626 24.1696 13.4866 24.1888 13.4906C24.1285 13.4782 24.0631 13.4337 24.0073 13.4084C22.4681 12.7092 20.9378 11.9889 19.4454 11.1936C19.0171 10.9654 18.5919 10.7314 18.1696 10.4918C17.9457 10.3648 17.7239 10.2343 17.5007 10.1062C17.4351 10.0686 17.3664 10.0375 17.2955 10.0116C17.276 10.0045 17.2552 9.99978 17.236 9.99187C17.2081 9.98318 17.2096 9.98291 17.2405 9.99108L17.1973 9.96526C17.099 9.89463 16.991 9.83138 16.8864 9.76998C16.6902 9.65455 16.4012 9.71859 16.2916 9.92599C16.182 10.1334 16.2381 10.3977 16.4475 10.5211C16.5321 10.5709 16.6135 10.6254 16.6965 10.6779C16.8148 10.7527 16.9404 10.7904 17.0642 10.8505C17.0086 10.8236 17.1127 10.8874 17.1272 10.8958C17.1778 10.9253 17.2286 10.9548 17.2795 10.9843C17.3798 11.0426 17.4805 11.1003 17.5811 11.158C17.9641 11.377 18.3495 11.5913 18.7378 11.801C19.4886 12.2066 20.2491 12.594 21.0165 12.9672C21.7944 13.3454 22.579 13.7096 23.3661 14.068C23.6598 14.2019 23.9533 14.3249 24.2549 14.4385C24.3627 14.4791 24.4696 14.5236 24.5792 14.5595C24.6272 14.5753 24.5697 14.5532 24.5508 14.5455C24.6021 14.5663 24.6527 14.5893 24.7038 14.6109C24.8245 14.662 24.9454 14.7129 25.0668 14.7616C25.972 15.1248 26.9077 15.3567 27.8829 15.4165C28.1103 15.4305 28.3276 15.2065 28.3176 14.9817C28.3065 14.7342 28.1266 14.5618 27.8829 14.5468L27.8835 14.5463Z" fill="#232323"/>
<path d="M13.8975 8.59065C13.3303 8.60409 12.7631 8.62808 12.1957 8.61727C11.6301 8.60673 11.0651 8.54401 10.5045 8.46864C10.525 8.47127 10.5629 8.47681 10.47 8.46389C10.4365 8.45915 10.4033 8.4544 10.3701 8.44966C10.3035 8.43991 10.2368 8.4299 10.1702 8.41935C10.0282 8.39695 9.88645 8.37271 9.74499 8.34635C9.46654 8.29444 9.18967 8.23435 8.91517 8.16425C8.64884 8.09626 8.38066 8.03907 8.11881 7.95448C8.07798 7.9413 8.03715 7.92259 7.99552 7.91257C7.93678 7.89861 8.10933 7.9695 8.03082 7.92707C7.99184 7.90599 7.95258 7.88675 7.91518 7.86303C7.86091 7.82877 7.78557 7.75472 7.8833 7.84511C7.84774 7.81217 7.80875 7.78265 7.77371 7.74866C7.73868 7.71466 7.70627 7.68119 7.67466 7.64561C7.65833 7.62743 7.64252 7.60898 7.62698 7.59001C7.61908 7.58052 7.6117 7.57077 7.6038 7.56128C7.5548 7.50357 7.66913 7.65299 7.62619 7.59001C7.56639 7.50278 7.50712 7.41686 7.45654 7.32384C7.43151 7.27798 7.40912 7.23107 7.38646 7.18442C7.38067 7.17283 7.37645 7.16018 7.3704 7.14858C7.34616 7.10352 7.40754 7.24662 7.39121 7.19839C7.38172 7.17072 7.36934 7.14358 7.35933 7.11617C7.3214 7.01207 7.2911 6.90534 7.27003 6.7965C7.26502 6.7712 7.2616 6.74564 7.25685 6.72034C7.24421 6.65129 7.26818 6.8442 7.26054 6.74063C7.25659 6.68661 7.25264 6.63311 7.25264 6.57908C7.25264 6.52875 7.25738 6.47894 7.26028 6.42887C7.26555 6.33716 7.23736 6.5414 7.25738 6.45206C7.26344 6.42492 7.26766 6.39724 7.27398 6.3701C7.28557 6.32187 7.30111 6.27523 7.31692 6.22832C7.34879 6.13344 7.27714 6.30527 7.30875 6.2465C7.3235 6.21909 7.33615 6.19037 7.35169 6.16322C7.36565 6.13845 7.38172 6.115 7.39674 6.09075C7.45575 5.99509 7.35222 6.13713 7.392 6.09391C7.4352 6.047 7.47761 6.00168 7.52398 5.9574C7.60775 5.87729 7.47603 5.9856 7.52582 5.95292C7.55638 5.93289 7.58536 5.91102 7.61644 5.89178C7.64279 5.87544 7.79584 5.81615 7.80216 5.79401C7.79584 5.81615 7.70943 5.8288 7.76686 5.80903C7.7911 5.8006 7.81454 5.79058 7.83878 5.78215C7.87645 5.76897 7.91465 5.75685 7.95311 5.74578C8.04083 5.72048 8.13014 5.70046 8.22023 5.68464C8.24052 5.68122 8.2608 5.67805 8.28109 5.67463C8.3638 5.66066 8.21918 5.67911 8.27608 5.67542C8.32587 5.67226 8.37566 5.66488 8.42571 5.66145C8.54663 5.65276 8.66807 5.65038 8.78925 5.65144C9.01659 5.65355 9.23445 5.44983 9.22392 5.2166C9.21338 4.98337 9.03293 4.78414 8.78925 4.78177C8.08957 4.77518 7.26265 4.90352 6.78373 5.47144C6.39543 5.93158 6.31324 6.52848 6.44838 7.10405C6.56218 7.58922 6.83536 8.07966 7.21049 8.41092C7.45627 8.62781 7.71655 8.74429 8.03003 8.83706C8.59615 9.00467 9.18282 9.13116 9.76448 9.22946C10.447 9.34489 11.1467 9.4424 11.8385 9.47534C12.5247 9.50802 13.2115 9.4764 13.8975 9.46032C14.1246 9.45505 14.343 9.26425 14.3322 9.02549C14.3214 8.78672 14.1409 8.58485 13.8975 8.59065Z" fill="#232323"/>
<path d="M18.0529 1.03271C19.6951 1.76929 21.3406 2.49797 22.986 3.22717C24.5818 3.9345 26.1735 4.65158 27.7707 5.35575C28.5347 5.69255 29.3136 6.02671 30.0131 6.4879C30.2033 6.61334 30.5023 6.53191 30.6079 6.33189C30.723 6.11421 30.655 5.8707 30.4519 5.73682C29.8308 5.32729 29.1453 5.02001 28.4672 4.71852C27.7122 4.38304 26.9578 4.04624 26.203 3.70997C24.5595 2.9776 22.9138 2.25051 21.2692 1.52025C20.3427 1.10887 19.4167 0.696436 18.4918 0.28163C18.2847 0.188866 18.0147 0.214956 17.8969 0.437643C17.7968 0.627389 17.8314 0.933354 18.0529 1.03271Z" fill="#232323"/>
<path d="M18.1393 0.200198C14.9578 0.208894 12.0016 1.55714 9.04794 2.57307C8.18362 2.87034 7.31824 3.16419 6.46023 3.47937C6.24738 3.55764 6.0801 3.77796 6.15676 4.01435C6.22446 4.22334 6.46287 4.40201 6.69153 4.31795C8.19573 3.76531 9.72207 3.27487 11.2263 2.72197C12.6665 2.19253 14.1169 1.66862 15.6211 1.35053C15.8298 1.30652 16.0389 1.26646 16.2492 1.23115C16.3622 1.21218 16.4755 1.19505 16.589 1.17818C16.7476 1.15472 16.5089 1.1874 16.668 1.16737C16.7168 1.16131 16.7655 1.15525 16.8142 1.14945C17.2542 1.09833 17.6965 1.07118 18.1396 1.07013C18.3669 1.0696 18.5848 0.870633 18.5742 0.635295C18.5637 0.399958 18.383 0.199407 18.1393 0.200198Z" fill="#232323"/>
<path d="M6.3517 3.53208C5.26398 4.35352 4.40518 5.40213 3.64808 6.52822C2.8533 7.71071 2.13886 8.94933 1.39861 10.1663C0.979228 10.856 0.433393 11.5839 0.446038 12.4288C0.449462 12.6562 0.643613 12.8742 0.880704 12.8636C1.11779 12.8531 1.31906 12.6726 1.31537 12.4288C1.31458 12.3835 1.31721 12.3387 1.31748 12.2936C1.31827 12.1573 1.30773 12.3321 1.31985 12.2538C1.33197 12.1755 1.35251 12.093 1.37649 12.0148C1.38518 11.986 1.39466 11.9576 1.40467 11.9294C1.40362 11.932 1.45631 11.7942 1.42707 11.8646C1.4621 11.7802 1.50399 11.698 1.5464 11.6174C1.70525 11.3161 1.89124 11.0289 2.06826 10.7379C2.45419 10.1033 2.84012 9.46902 3.22605 8.83442C3.56193 8.28232 3.89649 7.72942 4.25108 7.18917C4.59986 6.65814 4.94417 6.17192 5.31851 5.72312C5.54348 5.45326 5.78005 5.19315 6.03083 4.94674C6.15597 4.82367 6.28452 4.70429 6.41677 4.58886C6.48289 4.53115 6.55006 4.47422 6.61829 4.41862C6.64674 4.39543 6.67519 4.37223 6.70391 4.34957C6.72683 4.33139 6.75001 4.3132 6.77319 4.29502C6.74342 4.31821 6.74922 4.31399 6.79031 4.28263C6.97129 4.14612 7.08378 3.90103 6.94627 3.68757C6.83088 3.50863 6.54558 3.38503 6.35143 3.53155L6.3517 3.53208Z" fill="#232323"/>
<path d="M0.593034 12.7901C1.58355 13.582 2.93812 13.9283 4.12331 13.3622C4.71788 13.0781 5.19707 12.5793 5.65966 12.1218C6.12514 11.6611 6.57799 11.1875 7.02108 10.7053C7.52371 10.1582 8.01423 9.59947 8.48999 9.02891C8.63541 8.85445 8.6736 8.58248 8.48999 8.41408C8.3293 8.2665 8.03082 8.2275 7.8754 8.41408C7.07482 9.37362 6.23605 10.3026 5.35855 11.1925C5.14807 11.406 4.93495 11.6174 4.71867 11.825C4.51583 12.0198 4.27716 12.239 4.0946 12.3679C3.9771 12.4509 3.85408 12.5268 3.72553 12.5914C3.69839 12.6051 3.67099 12.618 3.64333 12.6307C3.71631 12.5969 3.5946 12.6496 3.59144 12.6509C3.52795 12.6744 3.46315 12.695 3.39781 12.7126C3.33248 12.7303 3.26689 12.7448 3.2005 12.7566C3.17416 12.7614 3.14729 12.7659 3.12068 12.7695C3.20603 12.7582 3.11699 12.7682 3.09566 12.7701C2.95419 12.7822 2.81167 12.7822 2.67021 12.7714C2.64308 12.7693 2.61621 12.7664 2.58907 12.764C2.48475 12.7545 2.63675 12.7753 2.54271 12.7577C2.46183 12.7424 2.38149 12.7279 2.3014 12.7079C2.16073 12.6728 2.02348 12.6275 1.8886 12.5745C1.81537 12.5455 1.9787 12.6175 1.85883 12.5616C1.82116 12.5442 1.78349 12.5268 1.74635 12.5084C1.67812 12.4746 1.61121 12.4385 1.54535 12.4001C1.47949 12.3616 1.41521 12.3215 1.35225 12.2791C1.32933 12.2636 1.30668 12.248 1.28428 12.2319C1.26189 12.2159 1.23976 12.1998 1.21764 12.1832C1.25109 12.2095 1.24793 12.2069 1.20815 12.1753C1.03086 12.0335 0.764266 11.9892 0.593561 12.1753C0.448936 12.3329 0.403888 12.6386 0.593561 12.7901H0.593034Z" fill="#232323"/>
<path d="M1.15283 12.9495C0.91574 13.3261 0.747933 13.7457 0.655468 14.1808C0.563002 14.6159 0.514267 15.1018 0.73239 15.5074C1.05536 16.1085 1.81932 16.157 2.42074 16.1251C2.92996 16.098 3.42864 15.995 3.9094 15.8266C4.11067 15.7559 4.24475 15.5562 4.18548 15.3403C4.13174 15.1451 3.90176 14.9933 3.69945 15.0641C3.25503 15.2199 2.81483 15.3166 2.3641 15.3374C2.21368 15.3443 2.06299 15.3467 1.91284 15.3353C1.89097 15.3337 1.75636 15.3142 1.86647 15.3327C1.82696 15.3261 1.78771 15.3195 1.74845 15.3108C1.7092 15.3021 1.67232 15.2921 1.63518 15.2802C1.61674 15.2744 1.59882 15.2681 1.58065 15.2613C1.62648 15.2816 1.63623 15.2858 1.60963 15.2734C1.58275 15.2557 1.55062 15.2444 1.52296 15.2275C1.50715 15.2178 1.49187 15.2078 1.47659 15.197C1.51953 15.2312 1.5248 15.2347 1.49187 15.2067C1.47422 15.188 1.40336 15.096 1.46052 15.1825C1.43866 15.1495 1.41969 15.1166 1.40099 15.0818C1.44788 15.1677 1.39387 15.0526 1.38755 15.027C1.38465 15.0159 1.36753 14.9147 1.37332 14.9619C1.35778 14.8396 1.3649 14.7092 1.38044 14.5871C1.43444 14.1694 1.59724 13.7264 1.83486 13.3485C1.94866 13.1677 1.87306 12.9129 1.69313 12.8078C1.5032 12.6965 1.26663 12.7685 1.15257 12.9495H1.15283Z" fill="#232323"/>
<path d="M5.04954 15.4178C5.79559 15.6874 6.65781 15.7607 7.42308 15.5251C8.16965 15.2953 8.74684 14.7843 9.34193 14.3049C10.5377 13.3419 11.671 12.3057 12.8361 11.3067C13.4897 10.7464 14.1538 10.198 14.8419 9.68064C15.0123 9.55256 15.1003 9.33909 14.9836 9.13986C14.8854 8.97199 14.6146 8.86895 14.4431 8.99808C13.212 9.92362 12.054 10.9366 10.8959 11.951C10.3369 12.4406 9.7766 12.9285 9.20389 13.402C8.63119 13.8756 8.11565 14.3492 7.4763 14.6646C7.3567 14.7237 7.53768 14.6438 7.41412 14.692C7.37435 14.7076 7.33457 14.7223 7.29426 14.736C7.19943 14.7685 7.10275 14.7956 7.00501 14.8177C6.81982 14.8594 6.64885 14.872 6.44759 14.8728C6.03426 14.8741 5.65966 14.7998 5.25976 14.6551C5.06509 14.5848 4.81851 14.7342 4.77373 14.9313C4.72315 15.1537 4.84117 15.3422 5.04981 15.4175L5.04954 15.4178Z" fill="#232323"/>
<path d="M9.42439 14.2662C9.70916 14.5228 10.0277 14.7885 10.4138 14.8681C10.8872 14.9658 11.3345 14.8193 11.7674 14.6364C11.9639 14.5534 12.0068 14.263 11.9091 14.0957C11.79 13.8919 11.5658 13.8703 11.3685 13.9539C11.2284 14.0132 11.0395 14.0667 10.872 14.1041C10.8251 14.1115 10.8266 14.1117 10.877 14.1046C10.8556 14.107 10.8343 14.1088 10.8129 14.1104C10.7821 14.1123 10.7513 14.1133 10.7205 14.113C10.7092 14.113 10.5896 14.1088 10.6559 14.112C10.7223 14.1152 10.6104 14.1028 10.5967 14.0996C10.5695 14.0933 10.5424 14.0856 10.5158 14.0769C10.4981 14.0711 10.4805 14.0651 10.4631 14.0582C10.514 14.0806 10.5195 14.083 10.4794 14.0648C10.4183 14.0335 10.3583 14.0016 10.3006 13.9639C10.2745 13.9468 10.2497 13.9283 10.2239 13.9109C10.1889 13.8846 10.1897 13.8856 10.2263 13.9141C10.2086 13.9004 10.1912 13.8861 10.1739 13.8722C10.1088 13.8189 10.0458 13.7633 9.9834 13.7069C9.82481 13.5641 9.58087 13.5504 9.42465 13.7069C9.2795 13.8521 9.26554 14.1225 9.42465 14.2659L9.42439 14.2662Z" fill="#232323"/>
<path d="M30.3376 6.5999C31.1205 6.6787 31.8924 6.70426 32.6577 6.49133C33.5057 6.25546 34.3355 5.93658 35.1685 5.65249C35.6516 5.48778 36.135 5.32307 36.6181 5.1581C36.8328 5.08484 36.997 4.85609 36.9216 4.62312C36.8526 4.40992 36.6173 4.24073 36.3868 4.31953C35.5515 4.60441 34.7159 4.88929 33.8805 5.17417C33.469 5.31437 33.0594 5.46143 32.6437 5.58898C32.4475 5.64933 32.2486 5.70573 32.047 5.74605C32.0278 5.75 32.0086 5.75343 31.9893 5.75685C31.9775 5.75896 31.8953 5.7724 31.948 5.76449C31.9864 5.7587 31.8816 5.77187 31.8624 5.77372C31.7696 5.78268 31.6764 5.78795 31.5834 5.79111C31.1674 5.80455 30.7512 5.7724 30.3376 5.73076C30.1105 5.70783 29.8932 5.94712 29.9029 6.1656C29.9143 6.4207 30.0945 6.57592 30.3376 6.60043V6.5999Z" fill="#232323"/>
<path d="M8.78872 5.65117C10.8857 5.50465 12.9871 5.4103 15.0787 5.19368C15.6878 5.13069 16.2955 5.05585 16.9017 4.96914C17.1275 4.93699 17.2713 4.63814 17.2052 4.43417C17.1251 4.1867 16.9125 4.09578 16.6704 4.13057C15.7218 4.26603 14.6615 4.3725 13.6572 4.45419C12.6233 4.53826 11.5877 4.60204 10.5521 4.6666C9.96417 4.70323 9.37618 4.74039 8.78846 4.78124C8.56217 4.79705 8.34273 4.96993 8.35379 5.21608C8.3638 5.43797 8.54557 5.66778 8.78846 5.65091L8.78872 5.65117Z" fill="#232323"/>
<path d="M16.9025 4.96598C19.2781 5.22556 21.5168 5.46854 23.8587 5.9524C24.4828 6.08126 25.1037 6.22753 25.7172 6.39988C25.9359 6.46128 26.2001 6.32424 26.252 6.09629C26.3047 5.86543 26.1827 5.62719 25.9485 5.56131C23.6319 4.90985 21.2254 4.59466 18.8406 4.31399C18.1949 4.23809 17.5487 4.16694 16.9025 4.09631C16.6757 4.07154 16.4581 4.31399 16.4678 4.53115C16.4794 4.78783 16.6596 4.93936 16.9025 4.96598Z" fill="#232323"/>
<path d="M28.1311 15.398C30.4506 15.0433 32.7459 14.5339 34.9967 13.8706C35.6279 13.6845 36.2551 13.4864 36.8787 13.2768C37.0939 13.2046 37.2572 12.974 37.1821 12.7419C37.1129 12.5279 36.8781 12.3605 36.6474 12.4383C34.4237 13.1857 32.1506 13.7836 29.8466 14.225C29.1998 14.3489 28.5507 14.4601 27.8998 14.5597C27.6743 14.5943 27.5297 14.8894 27.5963 15.0947C27.6759 15.3403 27.8893 15.4355 28.1311 15.3983V15.398Z" fill="#232323"/>
<path d="M14.0092 9.03919C14.3206 9.0861 14.6319 9.13301 14.9433 9.18018C14.9931 9.18756 15.0145 9.1114 14.9644 9.10402C14.653 9.05711 14.3416 9.0102 14.0303 8.96303C13.9805 8.95565 13.9591 9.03181 14.0092 9.03919Z" fill="#232323"/>
<path d="M15.3156 8.84655C15.0798 8.74008 14.8617 8.65522 14.6017 8.63387C14.3601 8.61411 14.1164 8.6091 13.8743 8.59724C13.6823 8.58775 13.5187 8.76749 13.5187 8.95301C13.5187 9.15357 13.6817 9.2993 13.8743 9.30879C14.2679 9.32803 14.6109 9.30483 14.9565 9.46085C15.1314 9.53991 15.339 9.51118 15.4431 9.3333C15.5321 9.18097 15.4915 8.92587 15.3156 8.84655Z" fill="#232323"/>
<path d="M11.7674 14.6364C12.4876 14.199 13.1246 13.6392 13.7405 13.0679C14.0448 12.7856 14.3456 12.4994 14.6541 12.2219C14.8008 12.0899 14.9494 11.9597 15.1009 11.8329C15.1783 11.7681 15.2565 11.7043 15.3358 11.6419C15.3516 11.6295 15.3675 11.6171 15.3833 11.6047C15.3398 11.6384 15.3927 11.5976 15.3985 11.5931C15.441 11.5612 15.4836 11.5291 15.5266 11.4977C15.8859 11.2352 16.2676 11.0041 16.6767 10.8278C16.8727 10.7435 16.9167 10.4552 16.8184 10.287C16.6999 10.0844 16.4747 10.0604 16.2779 10.1453C14.7674 10.7957 13.6804 12.1194 12.4515 13.1619C12.3619 13.2381 12.2713 13.313 12.1794 13.3865C12.0764 13.469 12.0569 13.4843 11.9483 13.5641C11.7608 13.7025 11.5674 13.8326 11.3683 13.9536C11.186 14.0643 11.1175 14.3081 11.2265 14.4944C11.3356 14.6807 11.584 14.7474 11.7671 14.6362L11.7674 14.6364Z" fill="#232323"/>
<path d="M16.3632 10.2156C16.4428 10.2391 16.3271 10.1861 16.3991 10.2277C16.4107 10.2343 16.4749 10.2847 16.4325 10.2478L16.8156 9.751C16.667 9.67168 16.5184 9.59262 16.3701 9.51329L16.1264 10.0912C16.1622 10.0986 16.1975 10.1068 16.2323 10.1176C16.2473 10.1221 16.2621 10.1271 16.2766 10.1326C16.2494 10.1197 16.2529 10.1213 16.2871 10.1373C16.4367 10.2072 16.6348 10.1843 16.7197 10.0238C16.7934 9.88382 16.7663 9.66562 16.6061 9.59103C16.5052 9.54386 16.4035 9.50354 16.2945 9.48114C16.1388 9.44952 15.9852 9.51329 15.9215 9.6643C15.8627 9.80344 15.9112 9.98476 16.0508 10.0593C16.1994 10.1387 16.348 10.2177 16.4963 10.297C16.6364 10.3716 16.8061 10.3426 16.9041 10.2156C16.9942 10.0989 16.9989 9.90359 16.8793 9.80028C16.7739 9.70936 16.6657 9.6448 16.5313 9.60527C16.3727 9.55862 16.1799 9.6614 16.1425 9.82611C16.1051 9.99082 16.1933 10.1653 16.3632 10.2151V10.2156Z" fill="#232323"/>
<path d="M11.5002 8.68315C10.544 9.19125 9.66569 9.84719 8.82718 10.529C7.95469 11.2387 7.22735 12.0946 6.40807 12.8615C5.94127 13.2985 5.44496 13.723 4.94391 14.1073C4.77478 14.2369 4.68495 14.4475 4.80218 14.648C4.89965 14.8146 5.1723 14.9205 5.34275 14.7898C6.27082 14.0783 7.12593 13.2958 7.93678 12.4541C8.32771 12.048 8.71997 11.6419 9.15279 11.2798C9.55979 10.9393 9.93571 10.6462 10.3627 10.3387C10.8548 9.98449 11.363 9.65007 11.8988 9.36545C12.0872 9.2653 12.1451 9.00361 12.0406 8.82467C11.9291 8.63387 11.6891 8.58248 11.5 8.68289L11.5002 8.68315Z" fill="#232323"/>
<path d="M4.81166 14.1974C4.67916 14.3378 4.54665 14.4791 4.40387 14.6093C4.37015 14.6399 4.3359 14.6699 4.30113 14.6991C4.29033 14.7081 4.17916 14.7948 4.24317 14.7468C4.16888 14.8025 4.09275 14.8552 4.01557 14.9063C3.97078 14.9358 3.92679 14.9637 3.87884 14.9875C3.85145 15.0009 3.82379 15.0135 3.79586 15.0262C3.77637 15.0349 3.66177 15.0831 3.76214 15.0417C3.7005 15.067 3.63859 15.0921 3.57563 15.114C3.54586 15.1242 3.51504 15.1319 3.48554 15.1422C3.47368 15.1453 3.46156 15.1482 3.44945 15.1506C3.50371 15.1361 3.55798 15.1366 3.61225 15.1527C3.40993 15.1142 3.17627 15.2091 3.12621 15.4289C3.08196 15.6236 3.18496 15.874 3.40229 15.9151C3.58643 15.9502 3.7495 15.894 3.91783 15.8266C4.05877 15.7702 4.20708 15.7151 4.3388 15.6381C4.73263 15.4083 5.06008 15.0855 5.37067 14.7566C5.51714 14.6014 5.52451 14.3515 5.37067 14.1976C5.21682 14.0437 4.95892 14.0419 4.81193 14.1976L4.81166 14.1974Z" fill="#232323"/>
<path d="M8.80558 25.7943C9.59536 25.7584 10.3864 25.7429 11.1773 25.7605C11.4004 25.7655 11.6233 25.7732 11.8461 25.7837C11.897 25.7861 11.897 25.707 11.8461 25.7047C11.0574 25.667 10.2674 25.6665 9.47839 25.6896C9.25421 25.6962 9.02976 25.7049 8.80558 25.7149C8.755 25.7173 8.75474 25.7964 8.80558 25.794V25.7943Z" fill="#232323"/>
<path d="M20.9633 30.8924C21.3511 31.1203 21.7373 31.3509 22.1219 31.5844C22.3166 31.7025 22.6082 31.6337 22.7167 31.4284C22.8253 31.2231 22.7686 30.9596 22.5608 30.8333C22.1762 30.5999 21.7902 30.369 21.4022 30.1413C21.2059 30.0261 20.917 30.0899 20.8074 30.2973C20.6978 30.5047 20.7539 30.7693 20.9633 30.8924Z" fill="#232323"/>
<path d="M9.51791 25.8541C9.62144 25.8604 9.7247 25.8681 9.82797 25.8781C9.88224 25.8833 9.9365 25.8891 9.99077 25.8957C10.0137 25.8984 10.0369 25.9013 10.0598 25.9042C10.1362 25.9142 10.0053 25.896 10.0809 25.9073C10.2811 25.9376 10.48 25.974 10.6773 26.0193C11.0753 26.1108 11.4649 26.2344 11.8469 26.3783C11.9399 26.4133 12.0324 26.4494 12.1246 26.4866C12.2387 26.5327 12.2763 26.548 12.3677 26.5875C12.4913 26.6408 12.6151 26.6885 12.7408 26.7356C12.8664 26.7828 12.9815 26.8265 13.1022 26.8716C13.1478 26.8887 13.1933 26.9067 13.2394 26.9222C13.2855 26.9378 13.2318 26.9138 13.2126 26.9098C13.2729 26.9222 13.3382 26.9667 13.3941 26.992C14.9333 27.6912 16.4636 28.4115 17.956 29.2068C18.3843 29.435 18.8095 29.669 19.2318 29.9086C19.4557 30.0356 19.6775 30.1661 19.9006 30.2942C19.9662 30.3318 20.035 30.3629 20.1058 30.3888C20.1253 30.3959 20.1461 30.4006 20.1654 30.4085C20.1933 30.4172 20.1917 30.4175 20.1609 30.4093L20.2041 30.4351C20.3024 30.5058 20.4104 30.569 20.515 30.6304C20.7112 30.7458 21.0002 30.6818 21.1098 30.4744C21.2202 30.2657 21.1633 30.0027 20.9538 29.8793C20.8693 29.8295 20.7879 29.775 20.7049 29.7225C20.5866 29.6477 20.4609 29.61 20.3371 29.5499C20.3927 29.5768 20.2887 29.513 20.2742 29.5046C20.2236 29.4751 20.1728 29.4456 20.1219 29.416C20.0215 29.3578 19.9209 29.3001 19.8203 29.2424C19.4372 29.0234 19.0518 28.8091 18.6635 28.5994C17.9128 28.1938 17.1522 27.8064 16.3848 27.4332C15.6069 27.055 14.8224 26.6908 14.0353 26.3324C13.7415 26.1985 13.4481 26.0755 13.1464 25.9619C13.0387 25.9213 12.9317 25.8768 12.8222 25.8409C12.7742 25.8251 12.8316 25.8472 12.8506 25.8549C12.7992 25.8341 12.7487 25.8111 12.6976 25.7895C12.5769 25.7384 12.456 25.6875 12.3345 25.6388C11.4294 25.2756 10.4937 25.0437 9.51843 24.9839C9.29109 24.9699 9.07376 25.1939 9.08377 25.4187C9.09483 25.6662 9.27476 25.8385 9.51843 25.8536L9.51791 25.8541Z" fill="#232323"/>
<path d="M23.5041 31.8097C24.0713 31.7963 24.6385 31.7723 25.2059 31.7831C25.7715 31.7937 26.3366 31.8564 26.8972 31.9318C26.8766 31.9291 26.8387 31.9236 26.9317 31.9365C26.9651 31.9412 26.9983 31.946 27.0315 31.9507C27.0982 31.9605 27.1648 31.9705 27.2315 31.981C27.3735 32.0034 27.5152 32.0277 27.6566 32.054C27.9351 32.106 28.212 32.166 28.4865 32.2361C28.7528 32.3041 29.021 32.3613 29.2828 32.4459C29.3237 32.4591 29.3645 32.4778 29.4061 32.4878C29.4649 32.5018 29.2923 32.4309 29.3708 32.4733C29.4098 32.4944 29.449 32.5136 29.4865 32.5374C29.5407 32.5716 29.6161 32.6457 29.5183 32.5553C29.5539 32.5882 29.5929 32.6177 29.6279 32.6517C29.663 32.6857 29.6954 32.7192 29.727 32.7548C29.7433 32.773 29.7591 32.7914 29.7747 32.8104C29.7826 32.8199 29.7899 32.8296 29.7978 32.8391C29.8468 32.8968 29.7325 32.7474 29.7754 32.8104C29.8352 32.8976 29.8945 32.9835 29.9451 33.0766C29.9701 33.1224 29.9925 33.1693 30.0152 33.216C30.021 33.2276 30.0252 33.2402 30.0312 33.2518C30.0555 33.2969 29.9941 33.1538 30.0104 33.202C30.0199 33.2297 30.0323 33.2568 30.0423 33.2842C30.0802 33.3883 30.1105 33.4951 30.1316 33.6039C30.1366 33.6292 30.14 33.6548 30.1448 33.6801C30.1574 33.7491 30.1335 33.5562 30.1411 33.6598C30.145 33.7138 30.149 33.7673 30.149 33.8213C30.149 33.8716 30.1443 33.9215 30.1414 33.9715C30.1361 34.0632 30.1643 33.859 30.1443 33.9483C30.1382 33.9755 30.134 34.0032 30.1277 34.0303C30.1161 34.0785 30.1005 34.1252 30.0847 34.1721C30.0528 34.267 30.1245 34.0951 30.0929 34.1539C30.0781 34.1813 30.0655 34.21 30.0499 34.2372C30.036 34.2619 30.0199 34.2854 30.0049 34.3096C29.9459 34.4053 30.0494 34.2633 30.0096 34.3065C29.9664 34.3534 29.924 34.3987 29.8777 34.443C29.7939 34.5231 29.9256 34.4148 29.8758 34.4475C29.8453 34.4675 29.8163 34.4894 29.7852 34.5086C29.7588 34.525 29.6058 34.5843 29.5995 34.6064C29.6058 34.5843 29.6922 34.5716 29.6348 34.5914C29.6105 34.5998 29.5871 34.6098 29.5629 34.6182C29.5252 34.6314 29.487 34.6435 29.4485 34.6546C29.3608 34.6799 29.2715 34.6999 29.1814 34.7158C29.1611 34.7192 29.1408 34.7223 29.1205 34.7258C29.0378 34.7397 29.1825 34.7213 29.1256 34.725C29.0758 34.7281 29.026 34.7355 28.9759 34.7389C28.855 34.7476 28.7336 34.75 28.6124 34.749C28.385 34.7469 28.1672 34.9506 28.1777 35.1838C28.1883 35.417 28.3687 35.6163 28.6124 35.6186C29.3121 35.6252 30.139 35.4969 30.6179 34.929C31.0062 34.4688 31.0884 33.8719 30.9533 33.2963C30.8395 32.8112 30.5663 32.3207 30.1911 31.9895C29.9454 31.7726 29.6851 31.6561 29.3716 31.5633C28.8055 31.3957 28.2188 31.2692 27.6372 31.1709C26.9546 31.0555 26.2549 30.958 25.5631 30.9251C24.8769 30.8924 24.1901 30.924 23.5041 30.9401C23.2771 30.9453 23.0587 31.1361 23.0695 31.3749C23.0797 31.606 23.2607 31.8155 23.5041 31.8097Z" fill="#232323"/>
<path d="M19.3485 39.3677C17.7062 38.6311 16.0608 37.9024 14.4154 37.1732C12.8195 36.4659 11.2279 35.7488 9.63066 35.0446C8.8667 34.7078 8.08773 34.3737 7.38831 33.9125C7.19811 33.7871 6.89911 33.8685 6.79348 34.0685C6.67836 34.2862 6.74632 34.5297 6.94943 34.6636C7.5706 35.0731 8.25606 35.3804 8.93414 35.6819C9.68914 36.0174 10.4436 36.3542 11.1984 36.6904C12.8419 37.4228 14.4876 38.1499 16.1322 38.8801C17.0587 39.2915 17.9847 39.704 18.9096 40.1188C19.1166 40.2115 19.3867 40.1854 19.5044 39.9628C19.6045 39.773 19.57 39.467 19.3485 39.3677Z" fill="#232323"/>
<path d="M19.2621 40.2002C22.4436 40.1915 25.3998 38.8433 28.3534 37.8273C29.2178 37.5301 30.0831 37.2362 30.9411 36.921C31.154 36.8427 31.3213 36.6224 31.2446 36.386C31.1769 36.1771 30.9385 35.9984 30.7098 36.0824C29.2056 36.6351 27.6793 37.1255 26.1751 37.6784C24.7349 38.2079 23.2844 38.7318 21.7802 39.0499C21.5716 39.0939 21.3624 39.1339 21.1522 39.1692C21.0392 39.1882 20.9259 39.2053 20.8124 39.2222C20.6538 39.2457 20.8925 39.213 20.7333 39.233C20.6846 39.2391 20.6359 39.2451 20.5871 39.2509C20.1472 39.3021 19.7049 39.3292 19.2618 39.3303C19.0345 39.3308 18.8166 39.5298 18.8271 39.7651C18.8377 40.0004 19.0181 40.2007 19.2618 40.1999L19.2621 40.2002Z" fill="#232323"/>
<path d="M31.0497 36.8683C32.1374 36.0469 32.9962 34.9983 33.7533 33.8722C34.5481 32.6897 35.2625 31.4511 36.0028 30.2341C36.4221 29.5444 36.968 28.8165 36.9553 27.9716C36.9519 27.7442 36.7578 27.5262 36.5207 27.5368C36.2836 27.5473 36.0823 27.7278 36.086 27.9716C36.0868 28.0169 36.0842 28.0617 36.0839 28.1068C36.0831 28.2431 36.0936 28.0683 36.0815 28.1466C36.0694 28.2249 36.0489 28.3074 36.0249 28.3856C36.0162 28.4143 36.0067 28.4428 35.9967 28.471C35.9977 28.4684 35.9451 28.6062 35.9743 28.5358C35.9393 28.6202 35.8974 28.7024 35.855 28.783C35.6961 29.0843 35.5101 29.3715 35.3331 29.6625C34.9472 30.297 34.5612 30.9314 34.1753 31.566C33.8394 32.1181 33.5049 32.671 33.1503 33.2112C32.8015 33.7423 32.4572 34.2285 32.0829 34.6773C31.8579 34.9471 31.6213 35.2072 31.3705 35.4537C31.2454 35.5767 31.1168 35.6961 30.9846 35.8115C30.9185 35.8693 30.8513 35.9262 30.7831 35.9818C30.7546 36.005 30.7262 36.0282 30.6975 36.0508C30.6745 36.069 30.6514 36.0872 30.6282 36.1054C30.6579 36.0822 30.6521 36.0864 30.6111 36.1178C30.4301 36.2543 30.3176 36.4994 30.4551 36.7128C30.5705 36.8918 30.8558 37.0154 31.0499 36.8688L31.0497 36.8683Z" fill="#232323"/>
<path d="M36.8083 27.6103C35.8178 26.8184 34.4632 26.4721 33.2781 27.0382C32.6835 27.3223 32.2043 27.8211 31.7417 28.2786C31.2762 28.7393 30.8234 29.2129 30.3803 29.6951C29.8777 30.2422 29.3871 30.8009 28.9114 31.3715C28.766 31.5459 28.7278 31.8179 28.9114 31.9863C29.0721 32.1339 29.3705 32.1729 29.526 31.9863C30.3265 31.0268 31.1653 30.0978 32.0428 29.2079C32.2533 28.9944 32.4664 28.783 32.6827 28.5754C32.8855 28.3806 33.1242 28.1614 33.3068 28.0325C33.4243 27.9495 33.5473 27.8736 33.6758 27.809C33.703 27.7953 33.7304 27.7824 33.758 27.7697C33.6851 27.8035 33.8068 27.7508 33.8099 27.7494C33.8734 27.726 33.9382 27.7054 34.0036 27.6878C34.0689 27.6701 34.1345 27.6556 34.2009 27.6438C34.2272 27.639 34.2541 27.6345 34.2807 27.6309C34.1953 27.6422 34.2844 27.6322 34.3057 27.6303C34.4472 27.6182 34.5897 27.6182 34.7312 27.629C34.7583 27.6311 34.7852 27.634 34.8123 27.6364C34.9166 27.6459 34.7646 27.6251 34.8587 27.6427C34.9395 27.658 35.0199 27.6725 35.1 27.6925C35.2406 27.7276 35.3779 27.7729 35.5128 27.8259C35.586 27.8549 35.4227 27.7829 35.5425 27.8388C35.5802 27.8562 35.6179 27.8736 35.655 27.892C35.7232 27.9258 35.7902 27.9619 35.856 28.0003C35.9219 28.0388 35.9862 28.0789 36.0491 28.1213C36.072 28.1368 36.0947 28.1524 36.1171 28.1685C36.1395 28.1845 36.1616 28.2006 36.1837 28.2172C36.1503 28.1909 36.1534 28.1935 36.1932 28.2251C36.3705 28.3669 36.6371 28.4112 36.8078 28.2251C36.9524 28.0675 36.9975 27.7618 36.8078 27.6103H36.8083Z" fill="#232323"/>
<path d="M36.2488 27.4509C36.4859 27.0743 36.6537 26.6547 36.7462 26.2196C36.8384 25.7861 36.8874 25.2986 36.6692 24.893C36.3463 24.2919 35.5823 24.2434 34.9809 24.2753C34.4717 24.3024 33.973 24.4054 33.4922 24.5738C33.291 24.6445 33.1569 24.8442 33.2161 25.0601C33.2699 25.2553 33.4999 25.4071 33.7022 25.3362C34.1466 25.1805 34.5868 25.0838 35.0375 25.063C35.188 25.0561 35.3386 25.0537 35.4888 25.0651C35.5107 25.0667 35.6453 25.0862 35.5352 25.0677C35.5747 25.0743 35.6139 25.0809 35.6532 25.0896C35.6924 25.0983 35.7293 25.1083 35.7665 25.1201C35.7849 25.1259 35.8028 25.1323 35.821 25.1391C35.7751 25.1188 35.7654 25.1146 35.792 25.127C35.8189 25.1447 35.851 25.156 35.8787 25.1729C35.8945 25.1826 35.9098 25.1926 35.925 25.2034C35.8821 25.1692 35.8768 25.1657 35.9098 25.1937C35.9274 25.2124 35.9983 25.3044 35.9411 25.2179C35.963 25.2509 35.9819 25.2838 36.0006 25.3186C35.9538 25.2327 36.0078 25.3478 36.0141 25.3734C36.017 25.3845 36.0341 25.4857 36.0283 25.4385C36.0438 25.5608 36.0367 25.6912 36.0212 25.8132C35.9672 26.231 35.8044 26.674 35.5668 27.0519C35.453 27.2327 35.5286 27.4875 35.7085 27.5926C35.8984 27.7039 36.135 27.6319 36.2491 27.4509H36.2488Z" fill="#232323"/>
<path d="M32.3521 24.9826C31.606 24.713 30.7438 24.6397 29.9786 24.8753C29.2133 25.1109 28.6548 25.6161 28.0597 26.0955C26.864 27.0585 25.7307 28.0947 24.5655 29.0937C23.9119 29.654 23.2478 30.2024 22.5597 30.7198C22.3893 30.8478 22.3013 31.0613 22.418 31.2605C22.5163 31.4284 22.7871 31.5314 22.9586 31.4023C24.1896 30.4768 25.3476 29.4637 26.5057 28.4494C27.0647 27.9598 27.625 27.4719 28.1977 26.9984C28.7538 26.5385 29.286 26.0512 29.9253 25.7358C30.0449 25.6767 29.864 25.7566 29.9875 25.7084C30.0273 25.6928 30.0671 25.6781 30.1074 25.6644C30.2022 25.6319 30.2989 25.6048 30.3966 25.5827C30.5818 25.541 30.7528 25.5284 30.954 25.5276C31.3674 25.5263 31.742 25.6006 32.1419 25.7453C32.3365 25.8156 32.5831 25.6662 32.6279 25.4691C32.6785 25.2466 32.5605 25.0582 32.3518 24.9828L32.3521 24.9826Z" fill="#232323"/>
<path d="M27.977 26.1342C27.6922 25.8776 27.3737 25.6119 26.9875 25.5323C26.5141 25.4345 26.0668 25.5811 25.634 25.764C25.4375 25.847 25.3945 26.1374 25.4923 26.3047C25.6113 26.5085 25.8355 26.5301 26.0328 26.4465C26.173 26.3872 26.3619 26.3337 26.5294 26.2963C26.5763 26.2889 26.5747 26.2887 26.5244 26.2958C26.5457 26.2934 26.5671 26.2916 26.5884 26.29C26.6192 26.2881 26.6501 26.2871 26.6809 26.2873C26.6922 26.2873 26.8118 26.2916 26.7454 26.2884C26.679 26.2852 26.791 26.2976 26.8047 26.3008C26.8318 26.3071 26.859 26.3148 26.8856 26.3235C26.9032 26.3293 26.9209 26.3353 26.9383 26.3422C26.8874 26.3198 26.8819 26.3174 26.9219 26.3356C26.983 26.3669 27.0431 26.3988 27.1008 26.4365C27.1269 26.4536 27.1516 26.4721 27.1775 26.4895C27.2125 26.5158 27.2117 26.5148 27.1751 26.4863C27.1927 26.5 27.2101 26.5143 27.2275 26.5282C27.2926 26.5815 27.3555 26.6371 27.418 26.6935C27.5766 26.8363 27.8205 26.85 27.9767 26.6935C28.1219 26.5482 28.1358 26.2779 27.9767 26.1345L27.977 26.1342Z" fill="#232323"/>
<path d="M7.06376 33.8005C6.28083 33.7217 5.50897 33.6961 4.7437 33.9091C3.8957 34.1449 3.06589 34.4638 2.23291 34.7479C1.74977 34.9126 1.26637 35.0773 0.783233 35.2423C0.568535 35.3156 0.404415 35.5443 0.479757 35.7773C0.548777 35.9905 0.784023 36.1597 1.01453 36.0809C1.84988 35.796 2.68549 35.5111 3.52084 35.2262C3.93232 35.086 4.34196 34.939 4.75766 34.8114C4.95392 34.7511 5.15281 34.6947 5.35434 34.6544C5.37357 34.6504 5.3928 34.647 5.41203 34.6435C5.42388 34.6414 5.50607 34.628 5.45339 34.6359C5.41493 34.6417 5.51977 34.6285 5.539 34.6267C5.63173 34.6177 5.72499 34.6124 5.81798 34.6093C6.23394 34.5958 6.65017 34.628 7.06376 34.6696C7.29084 34.6926 7.50817 34.4533 7.49842 34.2348C7.4871 33.9797 7.30691 33.8245 7.06376 33.8V33.8005Z" fill="#232323"/>
<path d="M28.6126 34.7492C26.5157 34.8957 24.4143 34.9901 22.3226 35.2067C21.7136 35.2697 21.1058 35.3446 20.4997 35.4313C20.2739 35.4634 20.1301 35.7623 20.1962 35.9662C20.2763 36.2137 20.4889 36.3046 20.731 36.2698C21.6796 36.1344 22.7399 36.0279 23.7441 35.9462C24.7781 35.8621 25.8137 35.7984 26.8492 35.7338C27.4372 35.6972 28.0252 35.66 28.6129 35.6192C28.8392 35.6033 29.0586 35.4305 29.0476 35.1843C29.0376 34.9624 28.8558 34.7326 28.6129 34.7495L28.6126 34.7492Z" fill="#232323"/>
<path d="M20.4989 35.4344C18.1232 35.1748 15.8846 34.9319 13.5426 34.448C12.9186 34.3191 12.2977 34.1729 11.6841 34.0005C11.4655 33.9391 11.2012 34.0762 11.1494 34.3041C11.0975 34.5321 11.2186 34.7732 11.4528 34.8391C13.7695 35.4906 16.1759 35.8057 18.5608 36.0864C19.2065 36.1623 19.8527 36.2335 20.4989 36.3041C20.7257 36.3289 20.9433 36.0864 20.9335 35.8693C20.922 35.6126 20.7418 35.461 20.4989 35.4344Z" fill="#232323"/>
<path d="M9.27028 25.0023C6.95075 25.3571 4.65545 25.8665 2.40467 26.5298C1.77348 26.7159 1.14624 26.914 0.522697 27.1235C0.307472 27.1958 0.144143 27.4264 0.219221 27.6585C0.288504 27.8725 0.523224 28.0399 0.753992 27.9621C2.97764 27.2147 5.25081 26.6168 7.5548 26.1753C8.20153 26.0515 8.85063 25.9403 9.50157 25.8407C9.72707 25.8061 9.8717 25.511 9.80505 25.3057C9.72549 25.0601 9.51211 24.9649 9.27028 25.0021V25.0023Z" fill="#232323"/>
<path d="M23.3922 31.3612C23.0808 31.3143 22.7694 31.2674 22.458 31.2202C22.4083 31.2128 22.3869 31.289 22.437 31.2964C22.7483 31.3433 23.0597 31.3902 23.3711 31.4374C23.4209 31.4447 23.4422 31.3686 23.3922 31.3612Z" fill="#232323"/>
<path d="M22.0861 31.5539C22.3218 31.6603 22.54 31.7452 22.8 31.7665C23.0415 31.7863 23.2852 31.7913 23.5273 31.8032C23.7194 31.8126 23.883 31.6329 23.883 31.4474C23.883 31.2468 23.7199 31.1011 23.5273 31.0916C23.1337 31.0724 22.7908 31.0956 22.4451 30.9396C22.2702 30.8605 22.0626 30.8892 21.9586 31.0671C21.8695 31.2194 21.9101 31.4745 22.0861 31.5539Z" fill="#232323"/>
<path d="M25.634 25.764C24.9138 26.2014 24.2768 26.7612 23.6609 27.3325C23.3566 27.6148 23.0558 27.901 22.7473 28.1785C22.6006 28.3105 22.452 28.4407 22.3005 28.5675C22.2231 28.6323 22.1448 28.6961 22.0655 28.7585C22.0497 28.7709 22.0339 28.7833 22.0181 28.7957C22.0616 28.762 22.0086 28.8028 22.0028 28.8073C21.9604 28.8392 21.9177 28.8713 21.8748 28.9027C21.5155 29.1652 21.1338 29.3963 20.7246 29.5726C20.5287 29.6569 20.4847 29.9452 20.5829 30.1134C20.7015 30.316 20.9267 30.34 21.1235 30.2551C22.634 29.6047 23.7209 28.281 24.9499 27.2385C25.0394 27.1623 25.13 27.0874 25.222 27.0139C25.325 26.9314 25.3445 26.9161 25.453 26.8363C25.6406 26.6979 25.8339 26.5678 26.0331 26.4468C26.2154 26.3361 26.2839 26.0923 26.1748 25.906C26.0658 25.7197 25.8173 25.653 25.6343 25.7642L25.634 25.764Z" fill="#232323"/>
<path d="M21.0381 30.1848C20.9586 30.1613 21.0742 30.2143 21.0023 30.1727C20.9907 30.1661 20.9264 30.1157 20.9688 30.1526C20.8411 30.3181 20.7136 30.4836 20.5858 30.6494C20.7344 30.7287 20.883 30.8078 21.0313 30.8871L21.275 30.3092C21.2391 30.3018 21.2038 30.2936 21.1691 30.2828C21.154 30.2783 21.1393 30.2733 21.1248 30.2678C21.1519 30.2807 21.1485 30.2791 21.1143 30.2631C20.9646 30.1932 20.7665 30.2161 20.6817 30.3766C20.6079 30.5166 20.6351 30.7348 20.7952 30.8094C20.8961 30.8565 20.9978 30.8969 21.1069 30.9193C21.2626 30.9509 21.4162 30.8871 21.4799 30.7361C21.5387 30.597 21.4902 30.4156 21.3506 30.3411C21.202 30.2617 21.0534 30.1827 20.9051 30.1033C20.765 30.0288 20.5953 30.0578 20.4973 30.1848C20.4072 30.3015 20.4025 30.4968 20.5221 30.6001C20.6274 30.691 20.7357 30.7556 20.8701 30.7951C21.0286 30.8418 21.2215 30.739 21.2589 30.5743C21.2963 30.4096 21.208 30.2351 21.0381 30.1853V30.1848Z" fill="#232323"/>
<path d="M25.9011 31.7172C26.8574 31.2091 27.7357 30.5532 28.5742 29.8714C29.4467 29.1617 30.174 28.3058 30.9933 27.5389C31.4601 27.1019 31.9564 26.6774 32.4575 26.2931C32.6266 26.1635 32.7164 25.9529 32.5992 25.7524C32.5017 25.5858 32.2291 25.4799 32.0586 25.6106C31.1305 26.3221 30.2754 27.1046 29.4646 27.9463C29.0737 28.3524 28.6814 28.7585 28.2486 29.1206C27.8416 29.4611 27.4657 29.7542 27.0386 30.0617C26.5465 30.4159 26.0384 30.7503 25.5025 31.0349C25.3142 31.1351 25.2562 31.3968 25.3608 31.5757C25.4723 31.7665 25.7122 31.8179 25.9014 31.7175L25.9011 31.7172Z" fill="#232323"/>
<path d="M32.59 26.203C32.7225 26.0626 32.855 25.9213 32.9978 25.7911C33.0315 25.7605 33.0657 25.7305 33.1005 25.7012C33.1113 25.6923 33.2225 25.6056 33.1585 25.6535C33.2327 25.5979 33.3089 25.5452 33.3861 25.4941C33.4308 25.4646 33.4748 25.4367 33.5228 25.4129C33.5502 25.3995 33.5778 25.3868 33.6058 25.3742C33.6253 25.3655 33.7399 25.3173 33.6395 25.3587C33.7011 25.3334 33.763 25.3083 33.826 25.2864C33.8558 25.2762 33.8866 25.2685 33.9161 25.2582C33.9279 25.2551 33.9401 25.2522 33.9522 25.2498C33.8979 25.2643 33.8436 25.2638 33.7894 25.2477C33.9917 25.2862 34.2254 25.1913 34.2754 24.9715C34.3197 24.7768 34.2167 24.5264 33.9993 24.4853C33.8152 24.4502 33.6521 24.5064 33.4838 24.5738C33.3429 24.6302 33.1945 24.6853 33.0628 24.7623C32.669 24.9921 32.3415 25.3149 32.031 25.6438C31.8845 25.799 31.8771 26.0489 32.031 26.2028C32.1848 26.3567 32.4427 26.3585 32.5897 26.2028L32.59 26.203Z" fill="#232323"/>
<path d="M11.7674 14.6364C11.3345 14.8193 10.8872 14.9658 10.4138 14.8681C10.0277 14.7885 9.70916 14.5228 9.42439 14.2662L9.42465 14.2659C9.26554 14.1225 9.2795 13.8521 9.42465 13.7069C9.58087 13.5504 9.82481 13.5641 9.9834 13.7069C10.0458 13.7633 10.1088 13.8189 10.1739 13.8722C10.1912 13.8861 10.2086 13.9004 10.2263 13.9141C10.1897 13.8856 10.1889 13.8846 10.2239 13.9109C10.2497 13.9283 10.2745 13.9468 10.3006 13.9639C10.3583 14.0016 10.4183 14.0335 10.4794 14.0648C10.5195 14.083 10.514 14.0806 10.4631 14.0582C10.4805 14.0651 10.4981 14.0711 10.5158 14.0769C10.5424 14.0856 10.5695 14.0933 10.5967 14.0996C10.6104 14.1028 10.7223 14.1152 10.6559 14.112C10.5896 14.1088 10.7092 14.113 10.7205 14.113C10.7513 14.1133 10.7821 14.1123 10.8129 14.1104C10.8343 14.1088 10.8556 14.107 10.877 14.1046C10.8266 14.1117 10.8251 14.1115 10.872 14.1041C11.0395 14.0667 11.2284 14.0132 11.3685 13.9539C11.5658 13.8703 11.79 13.8919 11.9091 14.0957C12.0068 14.263 11.9639 14.5534 11.7674 14.6364ZM11.7674 14.6364C12.4876 14.199 13.1246 13.6392 13.7405 13.0679C14.0448 12.7856 14.3456 12.4994 14.6541 12.2219C14.8008 12.0899 14.9494 11.9597 15.1009 11.8329C15.1783 11.7681 15.2565 11.7043 15.3358 11.6419C15.3516 11.6295 15.3675 11.6171 15.3833 11.6047C15.3398 11.6384 15.3927 11.5976 15.3985 11.5931C15.441 11.5612 15.4836 11.5291 15.5266 11.4977C15.8859 11.2352 16.2676 11.0041 16.6767 10.8278C16.8727 10.7435 16.9167 10.4552 16.8184 10.287C16.6999 10.0844 16.4747 10.0604 16.2779 10.1453C14.7674 10.7957 13.6804 12.1194 12.4515 13.1619C12.3619 13.2381 12.2713 13.313 12.1794 13.3865C12.0764 13.469 12.0569 13.4843 11.9483 13.5641C11.7608 13.7025 11.5674 13.8326 11.3683 13.9536C11.186 14.0643 11.1175 14.3081 11.2265 14.4944C11.3356 14.6807 11.584 14.7474 11.7671 14.6362L11.7674 14.6364ZM25.634 25.764C26.0668 25.5811 26.5141 25.4345 26.9875 25.5323C27.3737 25.6119 27.6922 25.8776 27.977 26.1342L27.9767 26.1345C28.1358 26.2779 28.1219 26.5482 27.9767 26.6935C27.8205 26.85 27.5766 26.8363 27.418 26.6935C27.3555 26.6371 27.2926 26.5815 27.2275 26.5282C27.2101 26.5143 27.1927 26.5 27.1751 26.4863C27.2117 26.5148 27.2125 26.5158 27.1775 26.4895C27.1516 26.4721 27.1269 26.4536 27.1008 26.4365C27.0431 26.3988 26.983 26.3669 26.9219 26.3356C26.8819 26.3174 26.8874 26.3198 26.9383 26.3422C26.9209 26.3353 26.9032 26.3293 26.8856 26.3235C26.859 26.3148 26.8318 26.3071 26.8047 26.3008C26.791 26.2976 26.679 26.2852 26.7454 26.2884C26.8118 26.2916 26.6922 26.2873 26.6809 26.2873C26.6501 26.2871 26.6192 26.2881 26.5884 26.29C26.5671 26.2916 26.5457 26.2934 26.5244 26.2958C26.5747 26.2887 26.5763 26.2889 26.5294 26.2963C26.3619 26.3337 26.173 26.3872 26.0328 26.4465C25.8355 26.5301 25.6113 26.5085 25.4923 26.3047C25.3945 26.1374 25.4375 25.847 25.634 25.764ZM25.634 25.764C24.9138 26.2014 24.2768 26.7612 23.6609 27.3325C23.3566 27.6148 23.0558 27.901 22.7473 28.1785C22.6006 28.3105 22.452 28.4407 22.3005 28.5675C22.2231 28.6323 22.1448 28.6961 22.0655 28.7585C22.0497 28.7709 22.0339 28.7833 22.0181 28.7957C22.0616 28.762 22.0086 28.8028 22.0028 28.8073C21.9604 28.8392 21.9177 28.8713 21.8748 28.9027C21.5155 29.1652 21.1338 29.3963 20.7246 29.5726C20.5287 29.6569 20.4847 29.9452 20.5829 30.1134C20.7015 30.316 20.9267 30.34 21.1235 30.2551C22.634 29.6047 23.7209 28.281 24.9499 27.2385C25.0394 27.1623 25.13 27.0874 25.222 27.0139C25.325 26.9314 25.3445 26.9161 25.453 26.8363C25.6406 26.6979 25.8339 26.5678 26.0331 26.4468C26.2154 26.3361 26.2839 26.0923 26.1748 25.906C26.0658 25.7197 25.8173 25.653 25.6343 25.7642L25.634 25.764ZM28.596 14.6061C27.8063 14.642 27.0152 14.6575 26.2244 14.6399C26.0012 14.6348 25.7784 14.6272 25.5555 14.6167C25.5047 14.6143 25.5047 14.6934 25.5555 14.6957C26.3442 14.7334 27.1343 14.7339 27.9232 14.7107C28.1474 14.7042 28.3719 14.6955 28.596 14.6854C28.6466 14.6831 28.6469 14.604 28.596 14.6064V14.6061ZM16.4381 9.50802C16.0503 9.28006 15.6641 9.04947 15.2795 8.81598C15.0848 8.69791 14.7932 8.76669 14.6846 8.97199C14.5761 9.17728 14.6327 9.44082 14.8406 9.56705C15.2252 9.80055 15.6111 10.0314 15.9992 10.2591C16.1954 10.3743 16.4844 10.3105 16.594 10.1031C16.7036 9.89568 16.6475 9.63109 16.4381 9.50802ZM27.8835 14.5463C27.7799 14.54 27.6767 14.5323 27.5734 14.5223C27.5191 14.517 27.4649 14.5112 27.4106 14.5047C27.3877 14.502 27.3645 14.4991 27.3416 14.4962C27.2652 14.4862 27.3961 14.5044 27.3205 14.4931C27.1203 14.4628 26.9214 14.4264 26.7241 14.3811C26.326 14.2896 25.9364 14.166 25.5544 14.0221C25.4614 13.9871 25.369 13.951 25.2768 13.9138C25.1627 13.8677 25.125 13.8524 25.0336 13.8129C24.9101 13.7596 24.7863 13.7119 24.6606 13.6648C24.535 13.6176 24.4198 13.5739 24.2992 13.5288C24.2536 13.5117 24.208 13.4937 24.1619 13.4782C24.1158 13.4626 24.1696 13.4866 24.1888 13.4906C24.1285 13.4782 24.0631 13.4337 24.0073 13.4084C22.4681 12.7092 20.9378 11.9889 19.4454 11.1936C19.0171 10.9654 18.5919 10.7314 18.1696 10.4918C17.9457 10.3648 17.7239 10.2343 17.5007 10.1062C17.4351 10.0686 17.3664 10.0375 17.2955 10.0116C17.276 10.0045 17.2552 9.99978 17.236 9.99187C17.2081 9.98318 17.2096 9.98291 17.2405 9.99108L17.1973 9.96526C17.099 9.89463 16.991 9.83138 16.8864 9.76998C16.6902 9.65455 16.4012 9.71859 16.2916 9.92599C16.182 10.1334 16.2381 10.3977 16.4475 10.5211C16.5321 10.5709 16.6135 10.6254 16.6965 10.6779C16.8148 10.7527 16.9404 10.7904 17.0642 10.8505C17.0086 10.8236 17.1127 10.8874 17.1272 10.8958C17.1778 10.9253 17.2286 10.9548 17.2795 10.9843C17.3798 11.0426 17.4805 11.1003 17.5811 11.158C17.9641 11.377 18.3495 11.5913 18.7378 11.801C19.4886 12.2066 20.2491 12.594 21.0165 12.9672C21.7944 13.3454 22.579 13.7096 23.3661 14.068C23.6598 14.2019 23.9533 14.3249 24.2549 14.4385C24.3627 14.4791 24.4696 14.5236 24.5792 14.5595C24.6272 14.5753 24.5697 14.5532 24.5508 14.5455C24.6021 14.5663 24.6527 14.5893 24.7038 14.6109C24.8245 14.662 24.9454 14.7129 25.0668 14.7616C25.972 15.1248 26.9077 15.3567 27.8829 15.4165C28.1103 15.4305 28.3276 15.2065 28.3176 14.9817C28.3065 14.7342 28.1266 14.5618 27.8829 14.5468L27.8835 14.5463ZM13.8975 8.59065C13.3303 8.60409 12.7631 8.62808 12.1957 8.61727C11.6301 8.60673 11.0651 8.54401 10.5045 8.46864C10.525 8.47127 10.5629 8.47681 10.47 8.46389C10.4365 8.45915 10.4033 8.4544 10.3701 8.44966C10.3035 8.43991 10.2368 8.4299 10.1702 8.41935C10.0282 8.39695 9.88645 8.37271 9.74499 8.34635C9.46654 8.29444 9.18967 8.23435 8.91517 8.16425C8.64884 8.09626 8.38066 8.03907 8.11881 7.95448C8.07798 7.9413 8.03715 7.92259 7.99552 7.91257C7.93678 7.89861 8.10933 7.9695 8.03082 7.92707C7.99184 7.90599 7.95258 7.88675 7.91518 7.86303C7.86091 7.82877 7.78557 7.75472 7.8833 7.84511C7.84774 7.81217 7.80875 7.78265 7.77371 7.74866C7.73868 7.71466 7.70627 7.68119 7.67466 7.64561C7.65833 7.62743 7.64252 7.60898 7.62698 7.59001C7.61908 7.58052 7.6117 7.57077 7.6038 7.56128C7.5548 7.50357 7.66913 7.65299 7.62619 7.59001C7.56639 7.50278 7.50712 7.41686 7.45654 7.32384C7.43151 7.27798 7.40912 7.23107 7.38646 7.18442C7.38067 7.17283 7.37645 7.16018 7.3704 7.14858C7.34616 7.10352 7.40754 7.24662 7.39121 7.19839C7.38172 7.17072 7.36934 7.14358 7.35933 7.11617C7.3214 7.01207 7.2911 6.90534 7.27003 6.7965C7.26502 6.7712 7.2616 6.74564 7.25685 6.72034C7.24421 6.65129 7.26818 6.8442 7.26054 6.74063C7.25659 6.68661 7.25264 6.63311 7.25264 6.57908C7.25264 6.52875 7.25738 6.47894 7.26028 6.42887C7.26555 6.33716 7.23736 6.5414 7.25738 6.45206C7.26344 6.42492 7.26766 6.39724 7.27398 6.3701C7.28557 6.32187 7.30111 6.27523 7.31692 6.22832C7.34879 6.13344 7.27714 6.30527 7.30875 6.2465C7.3235 6.21909 7.33615 6.19037 7.35169 6.16322C7.36565 6.13845 7.38172 6.115 7.39674 6.09075C7.45575 5.99509 7.35222 6.13713 7.392 6.09391C7.4352 6.047 7.47761 6.00168 7.52398 5.9574C7.60775 5.87729 7.47603 5.9856 7.52582 5.95292C7.55638 5.93289 7.58536 5.91102 7.61644 5.89178C7.64279 5.87544 7.79584 5.81615 7.80216 5.79401C7.79584 5.81615 7.70943 5.8288 7.76686 5.80903C7.7911 5.8006 7.81454 5.79058 7.83878 5.78215C7.87645 5.76897 7.91465 5.75685 7.95311 5.74578C8.04083 5.72048 8.13014 5.70046 8.22023 5.68464C8.24052 5.68122 8.2608 5.67805 8.28109 5.67463C8.3638 5.66066 8.21918 5.67911 8.27608 5.67542C8.32587 5.67226 8.37566 5.66488 8.42571 5.66145C8.54663 5.65276 8.66807 5.65038 8.78925 5.65144C9.01659 5.65355 9.23445 5.44983 9.22392 5.2166C9.21338 4.98337 9.03293 4.78414 8.78925 4.78177C8.08957 4.77518 7.26265 4.90352 6.78373 5.47144C6.39543 5.93158 6.31324 6.52848 6.44838 7.10405C6.56218 7.58922 6.83536 8.07966 7.21049 8.41092C7.45627 8.62781 7.71655 8.74429 8.03003 8.83706C8.59615 9.00467 9.18282 9.13116 9.76448 9.22946C10.447 9.34489 11.1467 9.4424 11.8385 9.47534C12.5247 9.50802 13.2115 9.4764 13.8975 9.46032C14.1246 9.45505 14.343 9.26425 14.3322 9.02549C14.3214 8.78672 14.1409 8.58485 13.8975 8.59065ZM18.0529 1.03271C19.6951 1.76929 21.3406 2.49797 22.986 3.22717C24.5818 3.9345 26.1735 4.65158 27.7707 5.35575C28.5347 5.69255 29.3136 6.02671 30.0131 6.4879C30.2033 6.61334 30.5023 6.53191 30.6079 6.33189C30.723 6.11421 30.655 5.8707 30.4519 5.73682C29.8308 5.32729 29.1453 5.02001 28.4672 4.71852C27.7122 4.38304 26.9578 4.04624 26.203 3.70997C24.5595 2.9776 22.9138 2.25051 21.2692 1.52025C20.3427 1.10887 19.4167 0.696436 18.4918 0.28163C18.2847 0.188866 18.0147 0.214956 17.8969 0.437643C17.7968 0.627389 17.8314 0.933354 18.0529 1.03271ZM18.1393 0.200198C14.9578 0.208894 12.0016 1.55714 9.04794 2.57307C8.18362 2.87034 7.31824 3.16419 6.46023 3.47937C6.24738 3.55764 6.0801 3.77796 6.15676 4.01435C6.22446 4.22334 6.46287 4.40201 6.69153 4.31795C8.19573 3.76531 9.72207 3.27487 11.2263 2.72197C12.6665 2.19253 14.1169 1.66862 15.6211 1.35053C15.8298 1.30652 16.0389 1.26646 16.2492 1.23115C16.3622 1.21218 16.4755 1.19505 16.589 1.17818C16.7476 1.15472 16.5089 1.1874 16.668 1.16737C16.7168 1.16131 16.7655 1.15525 16.8142 1.14945C17.2542 1.09833 17.6965 1.07118 18.1396 1.07013C18.3669 1.0696 18.5848 0.870633 18.5742 0.635295C18.5637 0.399958 18.383 0.199407 18.1393 0.200198ZM6.3517 3.53208C5.26398 4.35352 4.40518 5.40213 3.64808 6.52822C2.8533 7.71071 2.13886 8.94933 1.39861 10.1663C0.979228 10.856 0.433393 11.5839 0.446038 12.4288C0.449462 12.6562 0.643613 12.8742 0.880704 12.8636C1.11779 12.8531 1.31906 12.6726 1.31537 12.4288C1.31458 12.3835 1.31721 12.3387 1.31748 12.2936C1.31827 12.1573 1.30773 12.3321 1.31985 12.2538C1.33197 12.1755 1.35251 12.093 1.37649 12.0148C1.38518 11.986 1.39466 11.9576 1.40467 11.9294C1.40362 11.932 1.45631 11.7942 1.42707 11.8646C1.4621 11.7802 1.50399 11.698 1.5464 11.6174C1.70525 11.3161 1.89124 11.0289 2.06826 10.7379C2.45419 10.1033 2.84012 9.46902 3.22605 8.83442C3.56193 8.28232 3.89649 7.72942 4.25108 7.18917C4.59986 6.65814 4.94417 6.17192 5.31851 5.72312C5.54348 5.45326 5.78005 5.19315 6.03083 4.94674C6.15597 4.82367 6.28452 4.70429 6.41677 4.58886C6.48289 4.53115 6.55006 4.47422 6.61829 4.41862C6.64674 4.39543 6.67519 4.37223 6.70391 4.34957C6.72683 4.33139 6.75001 4.3132 6.77319 4.29502C6.74342 4.31821 6.74922 4.31399 6.79031 4.28263C6.97129 4.14612 7.08378 3.90103 6.94627 3.68757C6.83088 3.50863 6.54558 3.38503 6.35143 3.53155L6.3517 3.53208ZM0.593034 12.7901C1.58355 13.582 2.93812 13.9283 4.12331 13.3622C4.71788 13.0781 5.19707 12.5793 5.65966 12.1218C6.12514 11.6611 6.57799 11.1875 7.02108 10.7053C7.52371 10.1582 8.01423 9.59947 8.48999 9.02891C8.63541 8.85445 8.6736 8.58248 8.48999 8.41408C8.3293 8.2665 8.03082 8.2275 7.8754 8.41408C7.07482 9.37362 6.23605 10.3026 5.35855 11.1925C5.14807 11.406 4.93495 11.6174 4.71867 11.825C4.51583 12.0198 4.27716 12.239 4.0946 12.3679C3.9771 12.4509 3.85408 12.5268 3.72553 12.5914C3.69839 12.6051 3.67099 12.618 3.64333 12.6307C3.71631 12.5969 3.5946 12.6496 3.59144 12.6509C3.52795 12.6744 3.46315 12.695 3.39781 12.7126C3.33248 12.7303 3.26689 12.7448 3.2005 12.7566C3.17416 12.7614 3.14729 12.7659 3.12068 12.7695C3.20603 12.7582 3.11699 12.7682 3.09566 12.7701C2.95419 12.7822 2.81167 12.7822 2.67021 12.7714C2.64308 12.7693 2.61621 12.7664 2.58907 12.764C2.48475 12.7545 2.63675 12.7753 2.54271 12.7577C2.46183 12.7424 2.38149 12.7279 2.3014 12.7079C2.16073 12.6728 2.02348 12.6275 1.8886 12.5745C1.81537 12.5455 1.9787 12.6175 1.85883 12.5616C1.82116 12.5442 1.78349 12.5268 1.74635 12.5084C1.67812 12.4746 1.61121 12.4385 1.54535 12.4001C1.47949 12.3616 1.41521 12.3215 1.35225 12.2791C1.32933 12.2636 1.30668 12.248 1.28428 12.2319C1.26189 12.2159 1.23976 12.1998 1.21764 12.1832C1.25109 12.2095 1.24793 12.2069 1.20815 12.1753C1.03086 12.0335 0.764266 11.9892 0.593561 12.1753C0.448936 12.3329 0.403888 12.6386 0.593561 12.7901H0.593034ZM1.15283 12.9495C0.91574 13.3261 0.747933 13.7457 0.655468 14.1808C0.563002 14.6159 0.514267 15.1018 0.73239 15.5074C1.05536 16.1085 1.81932 16.157 2.42074 16.1251C2.92996 16.098 3.42864 15.995 3.9094 15.8266C4.11067 15.7559 4.24475 15.5562 4.18548 15.3403C4.13174 15.1451 3.90176 14.9933 3.69945 15.0641C3.25503 15.2199 2.81483 15.3166 2.3641 15.3374C2.21368 15.3443 2.06299 15.3467 1.91284 15.3353C1.89097 15.3337 1.75636 15.3142 1.86647 15.3327C1.82696 15.3261 1.78771 15.3195 1.74845 15.3108C1.7092 15.3021 1.67232 15.2921 1.63518 15.2802C1.61674 15.2744 1.59882 15.2681 1.58065 15.2613C1.62648 15.2816 1.63623 15.2858 1.60963 15.2734C1.58275 15.2557 1.55062 15.2444 1.52296 15.2275C1.50715 15.2178 1.49187 15.2078 1.47659 15.197C1.51953 15.2312 1.5248 15.2347 1.49187 15.2067C1.47422 15.188 1.40336 15.096 1.46052 15.1825C1.43866 15.1495 1.41969 15.1166 1.40099 15.0818C1.44788 15.1677 1.39387 15.0526 1.38755 15.027C1.38465 15.0159 1.36753 14.9147 1.37332 14.9619C1.35778 14.8396 1.3649 14.7092 1.38044 14.5871C1.43444 14.1694 1.59724 13.7264 1.83486 13.3485C1.94866 13.1677 1.87306 12.9129 1.69313 12.8078C1.5032 12.6965 1.26663 12.7685 1.15257 12.9495H1.15283ZM5.04954 15.4178C5.79559 15.6874 6.65781 15.7607 7.42308 15.5251C8.16965 15.2953 8.74684 14.7843 9.34193 14.3049C10.5377 13.3419 11.671 12.3057 12.8361 11.3067C13.4897 10.7464 14.1538 10.198 14.8419 9.68064C15.0123 9.55256 15.1003 9.33909 14.9836 9.13986C14.8854 8.97199 14.6146 8.86895 14.4431 8.99808C13.212 9.92362 12.054 10.9366 10.8959 11.951C10.3369 12.4406 9.7766 12.9285 9.20389 13.402C8.63119 13.8756 8.11565 14.3492 7.4763 14.6646C7.3567 14.7237 7.53768 14.6438 7.41412 14.692C7.37435 14.7076 7.33457 14.7223 7.29426 14.736C7.19943 14.7685 7.10275 14.7956 7.00501 14.8177C6.81982 14.8594 6.64885 14.872 6.44759 14.8728C6.03426 14.8741 5.65966 14.7998 5.25976 14.6551C5.06509 14.5848 4.81851 14.7342 4.77373 14.9313C4.72315 15.1537 4.84117 15.3422 5.04981 15.4175L5.04954 15.4178ZM30.3376 6.5999C31.1205 6.6787 31.8924 6.70426 32.6577 6.49133C33.5057 6.25546 34.3355 5.93658 35.1685 5.65249C35.6516 5.48778 36.135 5.32307 36.6181 5.1581C36.8328 5.08484 36.997 4.85609 36.9216 4.62312C36.8526 4.40992 36.6173 4.24073 36.3868 4.31953C35.5515 4.60441 34.7159 4.88929 33.8805 5.17417C33.469 5.31437 33.0594 5.46143 32.6437 5.58898C32.4475 5.64933 32.2486 5.70573 32.047 5.74605C32.0278 5.75 32.0086 5.75343 31.9893 5.75685C31.9775 5.75896 31.8953 5.7724 31.948 5.76449C31.9864 5.7587 31.8816 5.77187 31.8624 5.77372C31.7696 5.78268 31.6764 5.78795 31.5834 5.79111C31.1674 5.80455 30.7512 5.7724 30.3376 5.73076C30.1105 5.70783 29.8932 5.94712 29.9029 6.1656C29.9143 6.4207 30.0945 6.57592 30.3376 6.60043V6.5999ZM8.78872 5.65117C10.8857 5.50465 12.9871 5.4103 15.0787 5.19368C15.6878 5.13069 16.2955 5.05585 16.9017 4.96914C17.1275 4.93699 17.2713 4.63814 17.2052 4.43417C17.1251 4.1867 16.9125 4.09578 16.6704 4.13057C15.7218 4.26603 14.6615 4.3725 13.6572 4.45419C12.6233 4.53826 11.5877 4.60204 10.5521 4.6666C9.96417 4.70323 9.37618 4.74039 8.78846 4.78124C8.56217 4.79705 8.34273 4.96993 8.35379 5.21608C8.3638 5.43797 8.54557 5.66778 8.78846 5.65091L8.78872 5.65117ZM16.9025 4.96598C19.2781 5.22556 21.5168 5.46854 23.8587 5.9524C24.4828 6.08126 25.1037 6.22753 25.7172 6.39988C25.9359 6.46128 26.2001 6.32424 26.252 6.09629C26.3047 5.86543 26.1827 5.62719 25.9485 5.56131C23.6319 4.90985 21.2254 4.59466 18.8406 4.31399C18.1949 4.23809 17.5487 4.16694 16.9025 4.09631C16.6757 4.07154 16.4581 4.31399 16.4678 4.53115C16.4794 4.78783 16.6596 4.93936 16.9025 4.96598ZM28.1311 15.398C30.4506 15.0433 32.7459 14.5339 34.9967 13.8706C35.6279 13.6845 36.2551 13.4864 36.8787 13.2768C37.0939 13.2046 37.2572 12.974 37.1821 12.7419C37.1129 12.5279 36.8781 12.3605 36.6474 12.4383C34.4237 13.1857 32.1506 13.7836 29.8466 14.225C29.1998 14.3489 28.5507 14.4601 27.8998 14.5597C27.6743 14.5943 27.5297 14.8894 27.5963 15.0947C27.6759 15.3403 27.8893 15.4355 28.1311 15.3983V15.398ZM14.0092 9.03919C14.3206 9.0861 14.6319 9.13301 14.9433 9.18018C14.9931 9.18756 15.0145 9.1114 14.9644 9.10402C14.653 9.05711 14.3416 9.0102 14.0303 8.96303C13.9805 8.95565 13.9591 9.03181 14.0092 9.03919ZM15.3156 8.84655C15.0798 8.74008 14.8617 8.65522 14.6017 8.63387C14.3601 8.61411 14.1164 8.6091 13.8743 8.59724C13.6823 8.58775 13.5187 8.76749 13.5187 8.95301C13.5187 9.15357 13.6817 9.2993 13.8743 9.30879C14.2679 9.32803 14.6109 9.30483 14.9565 9.46085C15.1314 9.53991 15.339 9.51118 15.4431 9.3333C15.5321 9.18097 15.4915 8.92587 15.3156 8.84655ZM16.3632 10.2156C16.4428 10.2391 16.3271 10.1861 16.3991 10.2277C16.4107 10.2343 16.4749 10.2847 16.4325 10.2478L16.8156 9.751C16.667 9.67168 16.5184 9.59262 16.3701 9.51329L16.1264 10.0912C16.1622 10.0986 16.1975 10.1068 16.2323 10.1176C16.2473 10.1221 16.2621 10.1271 16.2766 10.1326C16.2494 10.1197 16.2529 10.1213 16.2871 10.1373C16.4367 10.2072 16.6348 10.1843 16.7197 10.0238C16.7934 9.88382 16.7663 9.66562 16.6061 9.59103C16.5052 9.54386 16.4035 9.50354 16.2945 9.48114C16.1388 9.44952 15.9852 9.51329 15.9215 9.6643C15.8627 9.80344 15.9112 9.98476 16.0508 10.0593C16.1994 10.1387 16.348 10.2177 16.4963 10.297C16.6364 10.3716 16.8061 10.3426 16.9041 10.2156C16.9942 10.0989 16.9989 9.90359 16.8793 9.80028C16.7739 9.70936 16.6657 9.6448 16.5313 9.60527C16.3727 9.55862 16.1799 9.6614 16.1425 9.82611C16.1051 9.99082 16.1933 10.1653 16.3632 10.2151V10.2156ZM11.5002 8.68315C10.544 9.19125 9.66569 9.84719 8.82718 10.529C7.95469 11.2387 7.22735 12.0946 6.40807 12.8615C5.94127 13.2985 5.44496 13.723 4.94391 14.1073C4.77478 14.2369 4.68495 14.4475 4.80218 14.648C4.89965 14.8146 5.1723 14.9205 5.34275 14.7898C6.27082 14.0783 7.12593 13.2958 7.93678 12.4541C8.32771 12.048 8.71997 11.6419 9.15279 11.2798C9.55979 10.9393 9.93571 10.6462 10.3627 10.3387C10.8548 9.98449 11.363 9.65007 11.8988 9.36545C12.0872 9.2653 12.1451 9.00361 12.0406 8.82467C11.9291 8.63387 11.6891 8.58248 11.5 8.68289L11.5002 8.68315ZM4.81166 14.1974C4.67916 14.3378 4.54665 14.4791 4.40387 14.6093C4.37015 14.6399 4.3359 14.6699 4.30113 14.6991C4.29033 14.7081 4.17916 14.7948 4.24317 14.7468C4.16888 14.8025 4.09275 14.8552 4.01557 14.9063C3.97078 14.9358 3.92679 14.9637 3.87884 14.9875C3.85145 15.0009 3.82379 15.0135 3.79586 15.0262C3.77637 15.0349 3.66177 15.0831 3.76214 15.0417C3.7005 15.067 3.63859 15.0921 3.57563 15.114C3.54586 15.1242 3.51504 15.1319 3.48554 15.1422C3.47368 15.1453 3.46156 15.1482 3.44945 15.1506C3.50371 15.1361 3.55798 15.1366 3.61225 15.1527C3.40993 15.1142 3.17627 15.2091 3.12621 15.4289C3.08196 15.6236 3.18496 15.874 3.40229 15.9151C3.58643 15.9502 3.7495 15.894 3.91783 15.8266C4.05877 15.7702 4.20708 15.7151 4.3388 15.6381C4.73263 15.4083 5.06008 15.0855 5.37067 14.7566C5.51714 14.6014 5.52451 14.3515 5.37067 14.1976C5.21682 14.0437 4.95892 14.0419 4.81193 14.1976L4.81166 14.1974ZM8.80558 25.7943C9.59536 25.7584 10.3864 25.7429 11.1773 25.7605C11.4004 25.7655 11.6233 25.7732 11.8461 25.7837C11.897 25.7861 11.897 25.707 11.8461 25.7047C11.0574 25.667 10.2674 25.6665 9.47839 25.6896C9.25421 25.6962 9.02976 25.7049 8.80558 25.7149C8.755 25.7173 8.75474 25.7964 8.80558 25.794V25.7943ZM20.9633 30.8924C21.3511 31.1203 21.7373 31.3509 22.1219 31.5844C22.3166 31.7025 22.6082 31.6337 22.7167 31.4284C22.8253 31.2231 22.7686 30.9596 22.5608 30.8333C22.1762 30.5999 21.7902 30.369 21.4022 30.1413C21.2059 30.0261 20.917 30.0899 20.8074 30.2973C20.6978 30.5047 20.7539 30.7693 20.9633 30.8924ZM9.51791 25.8541C9.62144 25.8604 9.7247 25.8681 9.82797 25.8781C9.88224 25.8833 9.9365 25.8891 9.99077 25.8957C10.0137 25.8984 10.0369 25.9013 10.0598 25.9042C10.1362 25.9142 10.0053 25.896 10.0809 25.9073C10.2811 25.9376 10.48 25.974 10.6773 26.0193C11.0753 26.1108 11.4649 26.2344 11.8469 26.3783C11.9399 26.4133 12.0324 26.4494 12.1246 26.4866C12.2387 26.5327 12.2763 26.548 12.3677 26.5875C12.4913 26.6408 12.6151 26.6885 12.7408 26.7356C12.8664 26.7828 12.9815 26.8265 13.1022 26.8716C13.1478 26.8887 13.1933 26.9067 13.2394 26.9222C13.2855 26.9378 13.2318 26.9138 13.2126 26.9098C13.2729 26.9222 13.3382 26.9667 13.3941 26.992C14.9333 27.6912 16.4636 28.4115 17.956 29.2068C18.3843 29.435 18.8095 29.669 19.2318 29.9086C19.4557 30.0356 19.6775 30.1661 19.9006 30.2942C19.9662 30.3318 20.035 30.3629 20.1058 30.3888C20.1253 30.3959 20.1461 30.4006 20.1654 30.4085C20.1933 30.4172 20.1917 30.4175 20.1609 30.4093L20.2041 30.4351C20.3024 30.5058 20.4104 30.569 20.515 30.6304C20.7112 30.7458 21.0002 30.6818 21.1098 30.4744C21.2202 30.2657 21.1633 30.0027 20.9538 29.8793C20.8693 29.8295 20.7879 29.775 20.7049 29.7225C20.5866 29.6477 20.4609 29.61 20.3371 29.5499C20.3927 29.5768 20.2887 29.513 20.2742 29.5046C20.2236 29.4751 20.1728 29.4456 20.1219 29.416C20.0215 29.3578 19.9209 29.3001 19.8203 29.2424C19.4372 29.0234 19.0518 28.8091 18.6635 28.5994C17.9128 28.1938 17.1522 27.8064 16.3848 27.4332C15.6069 27.055 14.8224 26.6908 14.0353 26.3324C13.7415 26.1985 13.4481 26.0755 13.1464 25.9619C13.0387 25.9213 12.9317 25.8768 12.8222 25.8409C12.7742 25.8251 12.8316 25.8472 12.8506 25.8549C12.7992 25.8341 12.7487 25.8111 12.6976 25.7895C12.5769 25.7384 12.456 25.6875 12.3345 25.6388C11.4294 25.2756 10.4937 25.0437 9.51843 24.9839C9.29109 24.9699 9.07376 25.1939 9.08377 25.4187C9.09483 25.6662 9.27476 25.8385 9.51843 25.8536L9.51791 25.8541ZM23.5041 31.8097C24.0713 31.7963 24.6385 31.7723 25.2059 31.7831C25.7715 31.7937 26.3366 31.8564 26.8972 31.9318C26.8766 31.9291 26.8387 31.9236 26.9317 31.9365C26.9651 31.9412 26.9983 31.946 27.0315 31.9507C27.0982 31.9605 27.1648 31.9705 27.2315 31.981C27.3735 32.0034 27.5152 32.0277 27.6566 32.054C27.9351 32.106 28.212 32.166 28.4865 32.2361C28.7528 32.3041 29.021 32.3613 29.2828 32.4459C29.3237 32.4591 29.3645 32.4778 29.4061 32.4878C29.4649 32.5018 29.2923 32.4309 29.3708 32.4733C29.4098 32.4944 29.449 32.5136 29.4865 32.5374C29.5407 32.5716 29.6161 32.6457 29.5183 32.5553C29.5539 32.5882 29.5929 32.6177 29.6279 32.6517C29.663 32.6857 29.6954 32.7192 29.727 32.7548C29.7433 32.773 29.7591 32.7914 29.7747 32.8104C29.7826 32.8199 29.7899 32.8296 29.7978 32.8391C29.8468 32.8968 29.7325 32.7474 29.7754 32.8104C29.8352 32.8976 29.8945 32.9835 29.9451 33.0766C29.9701 33.1224 29.9925 33.1693 30.0152 33.216C30.021 33.2276 30.0252 33.2402 30.0312 33.2518C30.0555 33.2969 29.9941 33.1538 30.0104 33.202C30.0199 33.2297 30.0323 33.2568 30.0423 33.2842C30.0802 33.3883 30.1105 33.4951 30.1316 33.6039C30.1366 33.6292 30.14 33.6548 30.1448 33.6801C30.1574 33.7491 30.1335 33.5562 30.1411 33.6598C30.145 33.7138 30.149 33.7673 30.149 33.8213C30.149 33.8716 30.1443 33.9215 30.1414 33.9715C30.1361 34.0632 30.1643 33.859 30.1443 33.9483C30.1382 33.9755 30.134 34.0032 30.1277 34.0303C30.1161 34.0785 30.1005 34.1252 30.0847 34.1721C30.0528 34.267 30.1245 34.0951 30.0929 34.1539C30.0781 34.1813 30.0655 34.21 30.0499 34.2372C30.036 34.2619 30.0199 34.2854 30.0049 34.3096C29.9459 34.4053 30.0494 34.2633 30.0096 34.3065C29.9664 34.3534 29.924 34.3987 29.8777 34.443C29.7939 34.5231 29.9256 34.4148 29.8758 34.4475C29.8453 34.4675 29.8163 34.4894 29.7852 34.5086C29.7588 34.525 29.6058 34.5843 29.5995 34.6064C29.6058 34.5843 29.6922 34.5716 29.6348 34.5914C29.6105 34.5998 29.5871 34.6098 29.5629 34.6182C29.5252 34.6314 29.487 34.6435 29.4485 34.6546C29.3608 34.6799 29.2715 34.6999 29.1814 34.7158C29.1611 34.7192 29.1408 34.7223 29.1205 34.7258C29.0378 34.7397 29.1825 34.7213 29.1256 34.725C29.0758 34.7281 29.026 34.7355 28.9759 34.7389C28.855 34.7476 28.7336 34.75 28.6124 34.749C28.385 34.7469 28.1672 34.9506 28.1777 35.1838C28.1883 35.417 28.3687 35.6163 28.6124 35.6186C29.3121 35.6252 30.139 35.4969 30.6179 34.929C31.0062 34.4688 31.0884 33.8719 30.9533 33.2963C30.8395 32.8112 30.5663 32.3207 30.1911 31.9895C29.9454 31.7726 29.6851 31.6561 29.3716 31.5633C28.8055 31.3957 28.2188 31.2692 27.6372 31.1709C26.9546 31.0555 26.2549 30.958 25.5631 30.9251C24.8769 30.8924 24.1901 30.924 23.5041 30.9401C23.2771 30.9453 23.0587 31.1361 23.0695 31.3749C23.0797 31.606 23.2607 31.8155 23.5041 31.8097ZM19.3485 39.3677C17.7062 38.6311 16.0608 37.9024 14.4154 37.1732C12.8195 36.4659 11.2279 35.7488 9.63066 35.0446C8.8667 34.7078 8.08773 34.3737 7.38831 33.9125C7.19811 33.7871 6.89911 33.8685 6.79348 34.0685C6.67836 34.2862 6.74632 34.5297 6.94943 34.6636C7.5706 35.0731 8.25606 35.3804 8.93414 35.6819C9.68914 36.0174 10.4436 36.3542 11.1984 36.6904C12.8419 37.4228 14.4876 38.1499 16.1322 38.8801C17.0587 39.2915 17.9847 39.704 18.9096 40.1188C19.1166 40.2115 19.3867 40.1854 19.5044 39.9628C19.6045 39.773 19.57 39.467 19.3485 39.3677ZM19.2621 40.2002C22.4436 40.1915 25.3998 38.8433 28.3534 37.8273C29.2178 37.5301 30.0831 37.2362 30.9411 36.921C31.154 36.8427 31.3213 36.6224 31.2446 36.386C31.1769 36.1771 30.9385 35.9984 30.7098 36.0824C29.2056 36.6351 27.6793 37.1255 26.1751 37.6784C24.7349 38.2079 23.2844 38.7318 21.7802 39.0499C21.5716 39.0939 21.3624 39.1339 21.1522 39.1692C21.0392 39.1882 20.9259 39.2053 20.8124 39.2222C20.6538 39.2457 20.8925 39.213 20.7333 39.233C20.6846 39.2391 20.6359 39.2451 20.5871 39.2509C20.1472 39.3021 19.7049 39.3292 19.2618 39.3303C19.0345 39.3308 18.8166 39.5298 18.8271 39.7651C18.8377 40.0004 19.0181 40.2007 19.2618 40.1999L19.2621 40.2002ZM31.0497 36.8683C32.1374 36.0469 32.9962 34.9983 33.7533 33.8722C34.5481 32.6897 35.2625 31.4511 36.0028 30.2341C36.4221 29.5444 36.968 28.8165 36.9553 27.9716C36.9519 27.7442 36.7578 27.5262 36.5207 27.5368C36.2836 27.5473 36.0823 27.7278 36.086 27.9716C36.0868 28.0169 36.0842 28.0617 36.0839 28.1068C36.0831 28.2431 36.0936 28.0683 36.0815 28.1466C36.0694 28.2249 36.0489 28.3074 36.0249 28.3856C36.0162 28.4143 36.0067 28.4428 35.9967 28.471C35.9977 28.4684 35.9451 28.6062 35.9743 28.5358C35.9393 28.6202 35.8974 28.7024 35.855 28.783C35.6961 29.0843 35.5101 29.3715 35.3331 29.6625C34.9472 30.297 34.5612 30.9314 34.1753 31.566C33.8394 32.1181 33.5049 32.671 33.1503 33.2112C32.8015 33.7423 32.4572 34.2285 32.0829 34.6773C31.8579 34.9471 31.6213 35.2072 31.3705 35.4537C31.2454 35.5767 31.1168 35.6961 30.9846 35.8115C30.9185 35.8693 30.8513 35.9262 30.7831 35.9818C30.7546 36.005 30.7262 36.0282 30.6975 36.0508C30.6745 36.069 30.6514 36.0872 30.6282 36.1054C30.6579 36.0822 30.6521 36.0864 30.6111 36.1178C30.4301 36.2543 30.3176 36.4994 30.4551 36.7128C30.5705 36.8918 30.8558 37.0154 31.0499 36.8688L31.0497 36.8683ZM36.8083 27.6103C35.8178 26.8184 34.4632 26.4721 33.2781 27.0382C32.6835 27.3223 32.2043 27.8211 31.7417 28.2786C31.2762 28.7393 30.8234 29.2129 30.3803 29.6951C29.8777 30.2422 29.3871 30.8009 28.9114 31.3715C28.766 31.5459 28.7278 31.8179 28.9114 31.9863C29.0721 32.1339 29.3705 32.1729 29.526 31.9863C30.3265 31.0268 31.1653 30.0978 32.0428 29.2079C32.2533 28.9944 32.4664 28.783 32.6827 28.5754C32.8855 28.3806 33.1242 28.1614 33.3068 28.0325C33.4243 27.9495 33.5473 27.8736 33.6758 27.809C33.703 27.7953 33.7304 27.7824 33.758 27.7697C33.6851 27.8035 33.8068 27.7508 33.8099 27.7494C33.8734 27.726 33.9382 27.7054 34.0036 27.6878C34.0689 27.6701 34.1345 27.6556 34.2009 27.6438C34.2272 27.639 34.2541 27.6345 34.2807 27.6309C34.1953 27.6422 34.2844 27.6322 34.3057 27.6303C34.4472 27.6182 34.5897 27.6182 34.7312 27.629C34.7583 27.6311 34.7852 27.634 34.8123 27.6364C34.9166 27.6459 34.7646 27.6251 34.8587 27.6427C34.9395 27.658 35.0199 27.6725 35.1 27.6925C35.2406 27.7276 35.3779 27.7729 35.5128 27.8259C35.586 27.8549 35.4227 27.7829 35.5425 27.8388C35.5802 27.8562 35.6179 27.8736 35.655 27.892C35.7232 27.9258 35.7902 27.9619 35.856 28.0003C35.9219 28.0388 35.9862 28.0789 36.0491 28.1213C36.072 28.1368 36.0947 28.1524 36.1171 28.1685C36.1395 28.1845 36.1616 28.2006 36.1837 28.2172C36.1503 28.1909 36.1534 28.1935 36.1932 28.2251C36.3705 28.3669 36.6371 28.4112 36.8078 28.2251C36.9524 28.0675 36.9975 27.7618 36.8078 27.6103H36.8083ZM36.2488 27.4509C36.4859 27.0743 36.6537 26.6547 36.7462 26.2196C36.8384 25.7861 36.8874 25.2986 36.6692 24.893C36.3463 24.2919 35.5823 24.2434 34.9809 24.2753C34.4717 24.3024 33.973 24.4054 33.4922 24.5738C33.291 24.6445 33.1569 24.8442 33.2161 25.0601C33.2699 25.2553 33.4999 25.4071 33.7022 25.3362C34.1466 25.1805 34.5868 25.0838 35.0375 25.063C35.188 25.0561 35.3386 25.0537 35.4888 25.0651C35.5107 25.0667 35.6453 25.0862 35.5352 25.0677C35.5747 25.0743 35.6139 25.0809 35.6532 25.0896C35.6924 25.0983 35.7293 25.1083 35.7665 25.1201C35.7849 25.1259 35.8028 25.1323 35.821 25.1391C35.7751 25.1188 35.7654 25.1146 35.792 25.127C35.8189 25.1447 35.851 25.156 35.8787 25.1729C35.8945 25.1826 35.9098 25.1926 35.925 25.2034C35.8821 25.1692 35.8768 25.1657 35.9098 25.1937C35.9274 25.2124 35.9983 25.3044 35.9411 25.2179C35.963 25.2509 35.9819 25.2838 36.0006 25.3186C35.9538 25.2327 36.0078 25.3478 36.0141 25.3734C36.017 25.3845 36.0341 25.4857 36.0283 25.4385C36.0438 25.5608 36.0367 25.6912 36.0212 25.8132C35.9672 26.231 35.8044 26.674 35.5668 27.0519C35.453 27.2327 35.5286 27.4875 35.7085 27.5926C35.8984 27.7039 36.135 27.6319 36.2491 27.4509H36.2488ZM32.3521 24.9826C31.606 24.713 30.7438 24.6397 29.9786 24.8753C29.2133 25.1109 28.6548 25.6161 28.0597 26.0955C26.864 27.0585 25.7307 28.0947 24.5655 29.0937C23.9119 29.654 23.2478 30.2024 22.5597 30.7198C22.3893 30.8478 22.3013 31.0613 22.418 31.2605C22.5163 31.4284 22.7871 31.5314 22.9586 31.4023C24.1896 30.4768 25.3476 29.4637 26.5057 28.4494C27.0647 27.9598 27.625 27.4719 28.1977 26.9984C28.7538 26.5385 29.286 26.0512 29.9253 25.7358C30.0449 25.6767 29.864 25.7566 29.9875 25.7084C30.0273 25.6928 30.0671 25.6781 30.1074 25.6644C30.2022 25.6319 30.2989 25.6048 30.3966 25.5827C30.5818 25.541 30.7528 25.5284 30.954 25.5276C31.3674 25.5263 31.742 25.6006 32.1419 25.7453C32.3365 25.8156 32.5831 25.6662 32.6279 25.4691C32.6785 25.2466 32.5605 25.0582 32.3518 24.9828L32.3521 24.9826ZM7.06376 33.8005C6.28083 33.7217 5.50897 33.6961 4.7437 33.9091C3.8957 34.1449 3.06589 34.4638 2.23291 34.7479C1.74977 34.9126 1.26637 35.0773 0.783233 35.2423C0.568535 35.3156 0.404415 35.5443 0.479757 35.7773C0.548777 35.9905 0.784023 36.1597 1.01453 36.0809C1.84988 35.796 2.68549 35.5111 3.52084 35.2262C3.93232 35.086 4.34196 34.939 4.75766 34.8114C4.95392 34.7511 5.15281 34.6947 5.35434 34.6544C5.37357 34.6504 5.3928 34.647 5.41203 34.6435C5.42388 34.6414 5.50607 34.628 5.45339 34.6359C5.41493 34.6417 5.51977 34.6285 5.539 34.6267C5.63173 34.6177 5.72499 34.6124 5.81798 34.6093C6.23394 34.5958 6.65017 34.628 7.06376 34.6696C7.29084 34.6926 7.50817 34.4533 7.49842 34.2348C7.4871 33.9797 7.30691 33.8245 7.06376 33.8V33.8005ZM28.6126 34.7492C26.5157 34.8957 24.4143 34.9901 22.3226 35.2067C21.7136 35.2697 21.1058 35.3446 20.4997 35.4313C20.2739 35.4634 20.1301 35.7623 20.1962 35.9662C20.2763 36.2137 20.4889 36.3046 20.731 36.2698C21.6796 36.1344 22.7399 36.0279 23.7441 35.9462C24.7781 35.8621 25.8137 35.7984 26.8492 35.7338C27.4372 35.6972 28.0252 35.66 28.6129 35.6192C28.8392 35.6033 29.0586 35.4305 29.0476 35.1843C29.0376 34.9624 28.8558 34.7326 28.6129 34.7495L28.6126 34.7492ZM20.4989 35.4344C18.1232 35.1748 15.8846 34.9319 13.5426 34.448C12.9186 34.3191 12.2977 34.1729 11.6841 34.0005C11.4655 33.9391 11.2012 34.0762 11.1494 34.3041C11.0975 34.5321 11.2186 34.7732 11.4528 34.8391C13.7695 35.4906 16.1759 35.8057 18.5608 36.0864C19.2065 36.1623 19.8527 36.2335 20.4989 36.3041C20.7257 36.3289 20.9433 36.0864 20.9335 35.8693C20.922 35.6126 20.7418 35.461 20.4989 35.4344ZM9.27028 25.0023C6.95075 25.3571 4.65545 25.8665 2.40467 26.5298C1.77348 26.7159 1.14624 26.914 0.522697 27.1235C0.307472 27.1958 0.144143 27.4264 0.219221 27.6585C0.288504 27.8725 0.523224 28.0399 0.753992 27.9621C2.97764 27.2147 5.25081 26.6168 7.5548 26.1753C8.20153 26.0515 8.85063 25.9403 9.50157 25.8407C9.72707 25.8061 9.8717 25.511 9.80505 25.3057C9.72549 25.0601 9.51211 24.9649 9.27028 25.0021V25.0023ZM23.3922 31.3612C23.0808 31.3143 22.7694 31.2674 22.458 31.2202C22.4083 31.2128 22.3869 31.289 22.437 31.2964C22.7483 31.3433 23.0597 31.3902 23.3711 31.4374C23.4209 31.4447 23.4422 31.3686 23.3922 31.3612ZM22.0861 31.5539C22.3218 31.6603 22.54 31.7452 22.8 31.7665C23.0415 31.7863 23.2852 31.7913 23.5273 31.8032C23.7194 31.8126 23.883 31.6329 23.883 31.4474C23.883 31.2468 23.7199 31.1011 23.5273 31.0916C23.1337 31.0724 22.7908 31.0956 22.4451 30.9396C22.2702 30.8605 22.0626 30.8892 21.9586 31.0671C21.8695 31.2194 21.9101 31.4745 22.0861 31.5539ZM21.0381 30.1848C20.9586 30.1613 21.0742 30.2143 21.0023 30.1727C20.9907 30.1661 20.9264 30.1157 20.9688 30.1526C20.8411 30.3181 20.7136 30.4836 20.5858 30.6494C20.7344 30.7287 20.883 30.8078 21.0313 30.8871L21.275 30.3092C21.2391 30.3018 21.2038 30.2936 21.1691 30.2828C21.154 30.2783 21.1393 30.2733 21.1248 30.2678C21.1519 30.2807 21.1485 30.2791 21.1143 30.2631C20.9646 30.1932 20.7665 30.2161 20.6817 30.3766C20.6079 30.5166 20.6351 30.7348 20.7952 30.8094C20.8961 30.8565 20.9978 30.8969 21.1069 30.9193C21.2626 30.9509 21.4162 30.8871 21.4799 30.7361C21.5387 30.597 21.4902 30.4156 21.3506 30.3411C21.202 30.2617 21.0534 30.1827 20.9051 30.1033C20.765 30.0288 20.5953 30.0578 20.4973 30.1848C20.4072 30.3015 20.4025 30.4968 20.5221 30.6001C20.6274 30.691 20.7357 30.7556 20.8701 30.7951C21.0286 30.8418 21.2215 30.739 21.2589 30.5743C21.2963 30.4096 21.208 30.2351 21.0381 30.1853V30.1848ZM25.9011 31.7172C26.8574 31.2091 27.7357 30.5532 28.5742 29.8714C29.4467 29.1617 30.174 28.3058 30.9933 27.5389C31.4601 27.1019 31.9564 26.6774 32.4575 26.2931C32.6266 26.1635 32.7164 25.9529 32.5992 25.7524C32.5017 25.5858 32.2291 25.4799 32.0586 25.6106C31.1305 26.3221 30.2754 27.1046 29.4646 27.9463C29.0737 28.3524 28.6814 28.7585 28.2486 29.1206C27.8416 29.4611 27.4657 29.7542 27.0386 30.0617C26.5465 30.4159 26.0384 30.7503 25.5025 31.0349C25.3142 31.1351 25.2562 31.3968 25.3608 31.5757C25.4723 31.7665 25.7122 31.8179 25.9014 31.7175L25.9011 31.7172ZM32.59 26.203C32.7225 26.0626 32.855 25.9213 32.9978 25.7911C33.0315 25.7605 33.0657 25.7305 33.1005 25.7012C33.1113 25.6923 33.2225 25.6056 33.1585 25.6535C33.2327 25.5979 33.3089 25.5452 33.3861 25.4941C33.4308 25.4646 33.4748 25.4367 33.5228 25.4129C33.5502 25.3995 33.5778 25.3868 33.6058 25.3742C33.6253 25.3655 33.7399 25.3173 33.6395 25.3587C33.7011 25.3334 33.763 25.3083 33.826 25.2864C33.8558 25.2762 33.8866 25.2685 33.9161 25.2582C33.9279 25.2551 33.9401 25.2522 33.9522 25.2498C33.8979 25.2643 33.8436 25.2638 33.7894 25.2477C33.9917 25.2862 34.2254 25.1913 34.2754 24.9715C34.3197 24.7768 34.2167 24.5264 33.9993 24.4853C33.8152 24.4502 33.6521 24.5064 33.4838 24.5738C33.3429 24.6302 33.1945 24.6853 33.0628 24.7623C32.669 24.9921 32.3415 25.3149 32.031 25.6438C31.8845 25.799 31.8771 26.0489 32.031 26.2028C32.1848 26.3567 32.4427 26.3585 32.5897 26.2028L32.59 26.203Z" stroke="#232323" stroke-width="0.4"/>
<path d="M64.4001 31.2002H60.8901V21.6602H54.7701V31.2002H51.2001V9.66019H54.7701V18.4502H60.8901V9.66019H64.4001V31.2002ZM76.2915 25.2302C76.2915 29.0702 74.8815 31.4702 71.0715 31.4702C68.7315 31.4702 67.3215 30.5402 66.1515 28.2902L68.8515 26.6402C69.3615 27.7202 70.0215 28.2302 70.9215 28.2302C72.2115 28.2302 72.7215 27.3602 72.7215 25.5302V9.66019H76.2915V25.2302ZM99.8875 31.2002H88.7875V25.6802H83.6875L81.6475 31.2002H78.0175L86.3575 9.66019H99.5275V12.9002H92.3575V18.5102H97.6075V21.6302H92.3575V27.9602H99.8875V31.2002ZM88.4275 12.8102L84.8275 22.5302H88.7875V12.8102H88.4275ZM113.21 31.2002H102.44V9.66019H106.01V27.9602H113.21V31.2002ZM118.901 31.2002H115.331V9.66019H120.851C125.591 9.66019 128.021 11.6402 128.021 16.0802C128.021 20.4002 125.531 22.6502 120.851 22.6502H118.901V31.2002ZM118.901 19.5002H121.001C122.741 19.5002 124.361 18.7202 124.361 16.0802C124.361 13.7702 123.161 12.9002 121.061 12.9002H118.901V19.5002ZM141.11 31.2002H136.22V9.66019H141.17C147.11 9.66019 149.84 12.6602 149.84 20.1902C149.84 27.2702 147.44 31.2002 141.11 31.2002ZM139.85 27.9002H141.38C144.77 27.9002 146.21 25.5002 146.21 20.2202C146.21 14.7602 144.62 12.9602 141.47 12.9602H139.85V27.9002ZM155.683 13.0502H152.383V9.51019H155.683V13.0502ZM155.623 31.2002H152.443V15.6002H155.623V31.2002ZM172.45 31.2002H169.24L162.37 16.3202H162.31V31.2002H159.13V9.66019H163.24L169.15 22.7402H169.21V9.66019H172.45V31.2002ZM195.126 31.2002H191.916L185.046 16.3202H184.986V31.2002H181.806V9.66019H185.916L191.826 22.7402H191.886V9.66019H195.126V31.2002ZM218.716 31.2002H207.616V25.6802H202.516L200.476 31.2002H196.846L205.186 9.66019H218.356V12.9002H211.186V18.5102H216.436V21.6302H211.186V27.9602H218.716V31.2002ZM207.256 12.8102L203.656 22.5302H207.616V12.8102H207.256ZM232.278 14.7602L229.188 15.3602C228.738 13.5302 227.958 12.3902 226.278 12.3902C224.778 12.3902 223.848 13.2302 223.848 14.6102C223.848 19.1102 232.668 18.5702 232.668 25.6202C232.668 29.3702 230.208 31.4702 226.368 31.4702C222.528 31.4702 220.728 29.6102 220.038 25.7402L223.338 25.1702C223.758 27.3602 224.568 28.4702 226.488 28.4702C228.108 28.4702 229.218 27.5702 229.218 25.8902C229.218 21.1502 220.488 21.7202 220.488 14.8202C220.488 11.4902 222.678 9.39019 226.248 9.39019C229.998 9.39019 231.678 11.4902 232.278 14.7602ZM241.695 31.2002H238.155V12.9002H233.715V9.66019H246.135V12.9002H241.695V31.2002ZM259.885 31.2002H248.485V9.66019H259.495V12.9002H252.055V18.5102H257.605V21.6302H252.055V27.9602H259.885V31.2002Z" fill="#D52122"/>
</svg>
