<svg width="38" height="41" viewBox="0 0 38 41" fill="none" xmlns="http://www.w3.org/2000/svg">
<path d="M28.5965 14.6061C27.8068 14.642 27.0157 14.6575 26.2248 14.6399C26.0017 14.6348 25.7788 14.6272 25.556 14.6167C25.5051 14.6143 25.5051 14.6934 25.556 14.6957C26.3447 14.7334 27.1347 14.7339 27.9237 14.7107C28.1479 14.7042 28.3724 14.6955 28.5965 14.6854C28.6471 14.6831 28.6474 14.604 28.5965 14.6064V14.6061Z" fill="#232323"/>
<path d="M16.4385 9.50802C16.0508 9.28006 15.6646 9.04947 15.28 8.81598C15.0853 8.69791 14.7937 8.76669 14.6851 8.97199C14.5766 9.17728 14.6332 9.44082 14.8411 9.56705C15.2257 9.80055 15.6116 10.0314 15.9997 10.2591C16.1959 10.3743 16.4849 10.3105 16.5945 10.1031C16.7041 9.89568 16.648 9.63109 16.4385 9.50802Z" fill="#232323"/>
<path d="M27.8839 14.5463C27.7804 14.54 27.6771 14.5323 27.5739 14.5223C27.5196 14.517 27.4654 14.5112 27.4111 14.5047C27.3882 14.502 27.365 14.4991 27.3421 14.4962C27.2657 14.4862 27.3966 14.5044 27.321 14.4931C27.1208 14.4628 26.9219 14.4264 26.7246 14.3811C26.3265 14.2896 25.9369 14.166 25.5549 14.0221C25.4619 13.9871 25.3695 13.951 25.2773 13.9138C25.1632 13.8677 25.1255 13.8524 25.0341 13.8129C24.9106 13.7596 24.7868 13.7119 24.6611 13.6648C24.5354 13.6176 24.4203 13.5739 24.2997 13.5288C24.2541 13.5117 24.2085 13.4937 24.1624 13.4782C24.1163 13.4626 24.1701 13.4866 24.1893 13.4906C24.129 13.4782 24.0636 13.4337 24.0078 13.4084C22.4685 12.7092 20.9383 11.9889 19.4459 11.1936C19.0176 10.9654 18.5924 10.7314 18.1701 10.4918C17.9462 10.3648 17.7244 10.2343 17.5012 10.1062C17.4356 10.0686 17.3669 10.0375 17.296 10.0116C17.2765 10.0045 17.2557 9.99978 17.2365 9.99187C17.2086 9.98318 17.2101 9.98291 17.241 9.99108L17.1978 9.96526C17.0995 9.89463 16.9915 9.83138 16.8869 9.76998C16.6906 9.65455 16.4017 9.71859 16.2921 9.92599C16.1825 10.1334 16.2386 10.3977 16.448 10.5211C16.5326 10.5709 16.614 10.6254 16.697 10.6779C16.8152 10.7527 16.9409 10.7904 17.0647 10.8505C17.0091 10.8236 17.1132 10.8874 17.1277 10.8958C17.1783 10.9253 17.2291 10.9548 17.2799 10.9843C17.3803 11.0426 17.4809 11.1003 17.5816 11.158C17.9646 11.377 18.35 11.5913 18.7383 11.801C19.4891 12.2066 20.2496 12.594 21.017 12.9672C21.7949 13.3454 22.5794 13.7096 23.3666 14.068C23.6603 14.2019 23.9538 14.3249 24.2554 14.4385C24.3632 14.4791 24.4701 14.5236 24.5797 14.5595C24.6276 14.5753 24.5702 14.5532 24.5512 14.5455C24.6026 14.5663 24.6532 14.5893 24.7043 14.6109C24.825 14.662 24.9459 14.7129 25.0673 14.7616C25.9725 15.1248 26.9082 15.3567 27.8834 15.4165C28.1108 15.4305 28.3281 15.2065 28.3181 14.9817C28.307 14.7342 28.1271 14.5618 27.8834 14.5468L27.8839 14.5463Z" fill="#232323"/>
<path d="M13.898 8.59065C13.3308 8.60409 12.7636 8.62808 12.1962 8.61727C11.6306 8.60673 11.0655 8.54401 10.505 8.46864C10.5255 8.47127 10.5634 8.47681 10.4704 8.46389C10.437 8.45915 10.4038 8.4544 10.3706 8.44966C10.304 8.43991 10.2373 8.4299 10.1707 8.41935C10.0287 8.39695 9.88694 8.37271 9.74548 8.34635C9.46703 8.29444 9.19016 8.23435 8.91566 8.16425C8.64933 8.09626 8.38115 8.03907 8.1193 7.95448C8.07847 7.9413 8.03763 7.92259 7.99601 7.91257C7.93727 7.89861 8.10982 7.9695 8.03131 7.92707C7.99232 7.90599 7.95307 7.88675 7.91566 7.86303C7.8614 7.82877 7.78606 7.75472 7.88379 7.84511C7.84823 7.81217 7.80924 7.78265 7.7742 7.74866C7.73916 7.71466 7.70676 7.68119 7.67515 7.64561C7.65882 7.62743 7.64301 7.60898 7.62747 7.59001C7.61957 7.58052 7.61219 7.57077 7.60429 7.56128C7.55529 7.50357 7.66962 7.65299 7.62668 7.59001C7.56688 7.50278 7.50761 7.41686 7.45703 7.32384C7.432 7.27798 7.40961 7.23107 7.38695 7.18442C7.38116 7.17283 7.37694 7.16018 7.37088 7.14858C7.34665 7.10352 7.40803 7.24662 7.39169 7.19839C7.38221 7.17072 7.36983 7.14358 7.35982 7.11617C7.32188 7.01207 7.29159 6.90534 7.27051 6.7965C7.26551 6.7712 7.26208 6.74564 7.25734 6.72034C7.2447 6.65129 7.26867 6.8442 7.26103 6.74063C7.25708 6.68661 7.25313 6.63311 7.25313 6.57908C7.25313 6.52875 7.25787 6.47894 7.26077 6.42887C7.26604 6.33716 7.23785 6.5414 7.25787 6.45206C7.26393 6.42492 7.26814 6.39724 7.27447 6.3701C7.28606 6.32187 7.3016 6.27523 7.31741 6.22832C7.34928 6.13344 7.27763 6.30527 7.30924 6.2465C7.32399 6.21909 7.33664 6.19037 7.35218 6.16322C7.36614 6.13845 7.38221 6.115 7.39723 6.09075C7.45624 5.99509 7.35271 6.13713 7.39248 6.09391C7.43569 6.047 7.4781 6.00168 7.52447 5.9574C7.60824 5.87729 7.47652 5.9856 7.52631 5.95292C7.55687 5.93289 7.58585 5.91102 7.61693 5.89178C7.64327 5.87544 7.79633 5.81615 7.80265 5.79401C7.79633 5.81615 7.70992 5.8288 7.76735 5.80903C7.79159 5.8006 7.81503 5.79058 7.83927 5.78215C7.87694 5.76897 7.91514 5.75685 7.9536 5.74578C8.04132 5.72048 8.13063 5.70046 8.22072 5.68464C8.24101 5.68122 8.26129 5.67805 8.28157 5.67463C8.36429 5.66066 8.21967 5.67911 8.27657 5.67542C8.32636 5.67226 8.37615 5.66488 8.4262 5.66145C8.54712 5.65276 8.66856 5.65038 8.78974 5.65144C9.01708 5.65355 9.23494 5.44983 9.2244 5.2166C9.21387 4.98337 9.03341 4.78414 8.78974 4.78177C8.09006 4.77518 7.26314 4.90352 6.78422 5.47144C6.39592 5.93158 6.31372 6.52848 6.44887 7.10405C6.56267 7.58922 6.83585 8.07966 7.21098 8.41092C7.45676 8.62781 7.71704 8.74429 8.03052 8.83706C8.59664 9.00467 9.18331 9.13116 9.76497 9.22946C10.4475 9.34489 11.1472 9.4424 11.839 9.47534C12.5252 9.50802 13.212 9.4764 13.898 9.46032C14.1251 9.45505 14.3434 9.26425 14.3326 9.02549C14.3218 8.78672 14.1414 8.58485 13.898 8.59065Z" fill="#232323"/>
<path d="M18.0534 1.03271C19.6956 1.76929 21.341 2.49797 22.9865 3.22717C24.5823 3.9345 26.174 4.65158 27.7712 5.35575C28.5352 5.69255 29.3141 6.02671 30.0135 6.4879C30.2037 6.61334 30.5027 6.53191 30.6084 6.33189C30.7235 6.11421 30.6555 5.8707 30.4524 5.73682C29.8312 5.32729 29.1458 5.02001 28.4677 4.71852C27.7127 4.38304 26.9582 4.04624 26.2035 3.70997C24.5599 2.9776 22.9143 2.25051 21.2697 1.52025C20.3432 1.10887 19.4172 0.696436 18.4923 0.28163C18.2852 0.188866 18.0152 0.214956 17.8974 0.437643C17.7973 0.627389 17.8318 0.933354 18.0534 1.03271Z" fill="#232323"/>
<path d="M18.1398 0.200198C14.9583 0.208894 12.0021 1.55714 9.04843 2.57307C8.1841 2.87034 7.31872 3.16419 6.46072 3.47937C6.24787 3.55764 6.08059 3.77796 6.15724 4.01435C6.22495 4.22334 6.46335 4.40201 6.69201 4.31795C8.19622 3.76531 9.72256 3.27487 11.2268 2.72197C12.667 2.19253 14.1174 1.66862 15.6216 1.35053C15.8303 1.30652 16.0394 1.26646 16.2497 1.23115C16.3627 1.21218 16.4759 1.19505 16.5895 1.17818C16.7481 1.15472 16.5094 1.1874 16.6685 1.16737C16.7173 1.16131 16.766 1.15525 16.8147 1.14945C17.2547 1.09833 17.697 1.07118 18.1401 1.07013C18.3674 1.0696 18.5853 0.870633 18.5747 0.635295C18.5642 0.399958 18.3835 0.199407 18.1398 0.200198Z" fill="#232323"/>
<path d="M6.35219 3.53208C5.26447 4.35352 4.40567 5.40213 3.64856 6.52822C2.85378 7.71071 2.13935 8.94933 1.3991 10.1663C0.979716 10.856 0.433881 11.5839 0.446526 12.4288C0.449951 12.6562 0.644101 12.8742 0.881192 12.8636C1.11828 12.8531 1.31955 12.6726 1.31586 12.4288C1.31507 12.3835 1.3177 12.3387 1.31797 12.2936C1.31876 12.1573 1.30822 12.3321 1.32034 12.2538C1.33245 12.1755 1.353 12.093 1.37697 12.0148C1.38567 11.986 1.39515 11.9576 1.40516 11.9294C1.40411 11.932 1.45679 11.7942 1.42755 11.8646C1.46259 11.7802 1.50448 11.698 1.54689 11.6174C1.70574 11.3161 1.89172 11.0289 2.06875 10.7379C2.45468 10.1033 2.84061 9.46902 3.22654 8.83442C3.56242 8.28232 3.89698 7.72942 4.25156 7.18917C4.60035 6.65814 4.94466 6.17192 5.319 5.72312C5.54397 5.45326 5.78053 5.19315 6.03132 4.94674C6.15645 4.82367 6.28501 4.70429 6.41725 4.58886C6.48338 4.53115 6.55055 4.47422 6.61878 4.41862C6.64723 4.39543 6.67568 4.37223 6.7044 4.34957C6.72731 4.33139 6.7505 4.3132 6.77368 4.29502C6.74391 4.31821 6.74971 4.31399 6.7908 4.28263C6.97178 4.14612 7.08427 3.90103 6.94676 3.68757C6.83137 3.50863 6.54607 3.38503 6.35192 3.53155L6.35219 3.53208Z" fill="#232323"/>
<path d="M0.593522 12.7901C1.58403 13.582 2.93861 13.9283 4.1238 13.3622C4.71837 13.0781 5.19755 12.5793 5.66014 12.1218C6.12563 11.6611 6.57847 11.1875 7.02157 10.7053C7.5242 10.1582 8.01472 9.59947 8.49048 9.02891C8.63589 8.85445 8.67409 8.58248 8.49048 8.41408C8.32978 8.2665 8.03131 8.2275 7.87589 8.41408C7.07531 9.37362 6.23654 10.3026 5.35904 11.1925C5.14856 11.406 4.93544 11.6174 4.71916 11.825C4.51631 12.0198 4.27764 12.239 4.09508 12.3679C3.97759 12.4509 3.85457 12.5268 3.72601 12.5914C3.69888 12.6051 3.67148 12.618 3.64382 12.6307C3.71679 12.5969 3.59509 12.6496 3.59193 12.6509C3.52844 12.6744 3.46363 12.695 3.3983 12.7126C3.33297 12.7303 3.26738 12.7448 3.20099 12.7566C3.17465 12.7614 3.14778 12.7659 3.12117 12.7695C3.20652 12.7582 3.11748 12.7682 3.09614 12.7701C2.95468 12.7822 2.81216 12.7822 2.6707 12.7714C2.64356 12.7693 2.61669 12.7664 2.58956 12.764C2.48524 12.7545 2.63724 12.7753 2.5432 12.7577C2.46232 12.7424 2.38197 12.7279 2.30189 12.7079C2.16122 12.6728 2.02397 12.6275 1.88909 12.5745C1.81586 12.5455 1.97918 12.6175 1.85932 12.5616C1.82165 12.5442 1.78398 12.5268 1.74684 12.5084C1.67861 12.4746 1.61169 12.4385 1.54584 12.4001C1.47998 12.3616 1.4157 12.3215 1.35274 12.2791C1.32982 12.2636 1.30716 12.248 1.28477 12.2319C1.26238 12.2159 1.24025 12.1998 1.21812 12.1832C1.25158 12.2095 1.24842 12.2069 1.20864 12.1753C1.03135 12.0335 0.764754 11.9892 0.594049 12.1753C0.449424 12.3329 0.404377 12.6386 0.594049 12.7901H0.593522Z" fill="#232323"/>
<path d="M1.15332 12.9495C0.916229 13.3261 0.748421 13.7457 0.655956 14.1808C0.563491 14.6159 0.514756 15.1018 0.732879 15.5074C1.05585 16.1085 1.81981 16.157 2.42123 16.1251C2.93044 16.098 3.42912 15.995 3.90989 15.8266C4.11115 15.7559 4.24524 15.5562 4.18597 15.3403C4.13223 15.1451 3.90225 14.9933 3.69993 15.0641C3.25552 15.2199 2.81532 15.3166 2.36459 15.3374C2.21417 15.3443 2.06348 15.3467 1.91333 15.3353C1.89146 15.3337 1.75685 15.3142 1.86696 15.3327C1.82745 15.3261 1.78819 15.3195 1.74894 15.3108C1.70969 15.3021 1.67281 15.2921 1.63567 15.2802C1.61723 15.2744 1.59931 15.2681 1.58114 15.2613C1.62697 15.2816 1.63672 15.2858 1.61011 15.2734C1.58324 15.2557 1.5511 15.2444 1.52344 15.2275C1.50764 15.2178 1.49236 15.2078 1.47708 15.197C1.52002 15.2312 1.52529 15.2347 1.49236 15.2067C1.47471 15.188 1.40384 15.096 1.46101 15.1825C1.43914 15.1495 1.42018 15.1166 1.40147 15.0818C1.44836 15.1677 1.39436 15.0526 1.38804 15.027C1.38514 15.0159 1.36802 14.9147 1.37381 14.9619C1.35827 14.8396 1.36538 14.7092 1.38093 14.5871C1.43493 14.1694 1.59773 13.7264 1.83535 13.3485C1.94915 13.1677 1.87355 12.9129 1.69362 12.8078C1.50369 12.6965 1.26712 12.7685 1.15306 12.9495H1.15332Z" fill="#232323"/>
<path d="M5.05003 15.4178C5.79608 15.6874 6.6583 15.7607 7.42357 15.5251C8.17014 15.2953 8.74733 14.7843 9.34242 14.3049C10.5381 13.3419 11.6714 12.3057 12.8366 11.3067C13.4902 10.7464 14.1543 10.198 14.8424 9.68064C15.0128 9.55256 15.1008 9.33909 14.9841 9.13986C14.8859 8.97199 14.615 8.86895 14.4436 8.99808C13.2125 9.92362 12.0545 10.9366 10.8964 11.951C10.3374 12.4406 9.77709 12.9285 9.20438 13.402C8.63168 13.8756 8.11614 14.3492 7.47678 14.6646C7.35718 14.7237 7.53816 14.6438 7.41461 14.692C7.37483 14.7076 7.33506 14.7223 7.29475 14.736C7.19991 14.7685 7.10323 14.7956 7.0055 14.8177C6.82031 14.8594 6.64934 14.872 6.44808 14.8728C6.03475 14.8741 5.66014 14.7998 5.26025 14.6551C5.06557 14.5848 4.819 14.7342 4.77422 14.9313C4.72364 15.1537 4.84166 15.3422 5.0503 15.4175L5.05003 15.4178Z" fill="#232323"/>
<path d="M9.42488 14.2662C9.70965 14.5228 10.0281 14.7885 10.4143 14.8681C10.8877 14.9658 11.335 14.8193 11.7679 14.6364C11.9644 14.5534 12.0073 14.263 11.9096 14.0957C11.7905 13.8919 11.5663 13.8703 11.369 13.9539C11.2289 14.0132 11.04 14.0667 10.8724 14.1041C10.8256 14.1115 10.8271 14.1117 10.8775 14.1046C10.8561 14.107 10.8348 14.1088 10.8134 14.1104C10.7826 14.1123 10.7518 14.1133 10.721 14.113C10.7096 14.113 10.59 14.1088 10.6564 14.112C10.7228 14.1152 10.6109 14.1028 10.5972 14.0996C10.57 14.0933 10.5429 14.0856 10.5163 14.0769C10.4986 14.0711 10.481 14.0651 10.4636 14.0582C10.5144 14.0806 10.52 14.083 10.4799 14.0648C10.4188 14.0335 10.3588 14.0016 10.3011 13.9639C10.275 13.9468 10.2502 13.9283 10.2244 13.9109C10.1894 13.8846 10.1902 13.8856 10.2268 13.9141C10.2091 13.9004 10.1917 13.8861 10.1743 13.8722C10.1093 13.8189 10.0463 13.7633 9.98388 13.7069C9.8253 13.5641 9.58136 13.5504 9.42514 13.7069C9.27999 13.8521 9.26603 14.1225 9.42514 14.2659L9.42488 14.2662Z" fill="#232323"/>
<path d="M30.3381 6.5999C31.121 6.6787 31.8929 6.70426 32.6582 6.49133C33.5062 6.25546 34.336 5.93658 35.1689 5.65249C35.6521 5.48778 36.1355 5.32307 36.6186 5.1581C36.8333 5.08484 36.9974 4.85609 36.9221 4.62312C36.8531 4.40992 36.6178 4.24073 36.3873 4.31953C35.552 4.60441 34.7164 4.88929 33.881 5.17417C33.4695 5.31437 33.0599 5.46143 32.6442 5.58898C32.4479 5.64933 32.249 5.70573 32.0475 5.74605C32.0283 5.75 32.0091 5.75343 31.9898 5.75685C31.978 5.75896 31.8958 5.7724 31.9485 5.76449C31.9869 5.7587 31.8821 5.77187 31.8629 5.77372C31.7701 5.78268 31.6769 5.78795 31.5839 5.79111C31.1679 5.80455 30.7517 5.7724 30.3381 5.73076C30.111 5.70783 29.8937 5.94712 29.9034 6.1656C29.9148 6.4207 30.095 6.57592 30.3381 6.60043V6.5999Z" fill="#232323"/>
<path d="M8.78921 5.65117C10.8861 5.50465 12.9876 5.4103 15.0792 5.19368C15.6883 5.13069 16.296 5.05585 16.9022 4.96914C17.1279 4.93699 17.2718 4.63814 17.2057 4.43417C17.1256 4.1867 16.913 4.09578 16.6709 4.13057C15.7223 4.26603 14.6619 4.3725 13.6577 4.45419C12.6238 4.53826 11.5882 4.60204 10.5526 4.6666C9.96465 4.70323 9.37667 4.74039 8.78895 4.78124C8.56266 4.79705 8.34322 4.96993 8.35428 5.21608C8.36429 5.43797 8.54606 5.66778 8.78895 5.65091L8.78921 5.65117Z" fill="#232323"/>
<path d="M16.903 4.96598C19.2786 5.22556 21.5173 5.46854 23.8592 5.9524C24.4833 6.08126 25.1042 6.22753 25.7177 6.39988C25.9364 6.46128 26.2006 6.32424 26.2525 6.09629C26.3052 5.86543 26.1832 5.62719 25.949 5.56131C23.6324 4.90985 21.2259 4.59466 18.8411 4.31399C18.1954 4.23809 17.5492 4.16694 16.903 4.09631C16.6762 4.07154 16.4586 4.31399 16.4683 4.53115C16.4799 4.78783 16.6601 4.93936 16.903 4.96598Z" fill="#232323"/>
<path d="M28.1316 15.398C30.4511 15.0433 32.7464 14.5339 34.9972 13.8706C35.6284 13.6845 36.2556 13.4864 36.8792 13.2768C37.0944 13.2046 37.2577 12.974 37.1826 12.7419C37.1133 12.5279 36.8786 12.3605 36.6479 12.4383C34.4242 13.1857 32.151 13.7836 29.8471 14.225C29.2003 14.3489 28.5512 14.4601 27.9003 14.5597C27.6748 14.5943 27.5302 14.8894 27.5968 15.0947C27.6764 15.3403 27.8897 15.4355 28.1316 15.3983V15.398Z" fill="#232323"/>
<path d="M14.0097 9.03919C14.3211 9.0861 14.6324 9.13301 14.9438 9.18018C14.9936 9.18756 15.0149 9.1114 14.9649 9.10402C14.6535 9.05711 14.3421 9.0102 14.0308 8.96303C13.981 8.95565 13.9596 9.03181 14.0097 9.03919Z" fill="#232323"/>
<path d="M15.316 8.84655C15.0803 8.74008 14.8622 8.65522 14.6021 8.63387C14.3606 8.61411 14.1169 8.6091 13.8748 8.59724C13.6828 8.58775 13.5192 8.76749 13.5192 8.95301C13.5192 9.15357 13.6822 9.2993 13.8748 9.30879C14.2684 9.32803 14.6114 9.30483 14.957 9.46085C15.1319 9.53991 15.3395 9.51118 15.4435 9.3333C15.5326 9.18097 15.492 8.92587 15.316 8.84655Z" fill="#232323"/>
<path d="M11.7679 14.6364C12.4881 14.199 13.1251 13.6392 13.741 13.0679C14.0452 12.7856 14.3461 12.4994 14.6546 12.2219C14.8013 12.0899 14.9499 11.9597 15.1013 11.8329C15.1788 11.7681 15.257 11.7043 15.3363 11.6419C15.3521 11.6295 15.3679 11.6171 15.3838 11.6047C15.3403 11.6384 15.3932 11.5976 15.399 11.5931C15.4414 11.5612 15.4841 11.5291 15.5271 11.4977C15.8864 11.2352 16.2681 11.0041 16.6772 10.8278C16.8732 10.7435 16.9172 10.4552 16.8189 10.287C16.7004 10.0844 16.4752 10.0604 16.2784 10.1453C14.7678 10.7957 13.6809 12.1194 12.452 13.1619C12.3624 13.2381 12.2718 13.313 12.1799 13.3865C12.0769 13.469 12.0574 13.4843 11.9488 13.5641C11.7613 13.7025 11.5679 13.8326 11.3688 13.9536C11.1865 14.0643 11.118 14.3081 11.227 14.4944C11.3361 14.6807 11.5845 14.7474 11.7676 14.6362L11.7679 14.6364Z" fill="#232323"/>
<path d="M16.3637 10.2156C16.4433 10.2391 16.3276 10.1861 16.3996 10.2277C16.4111 10.2343 16.4754 10.2847 16.433 10.2478L16.816 9.751C16.6675 9.67168 16.5189 9.59262 16.3706 9.51329L16.1269 10.0912C16.1627 10.0986 16.198 10.1068 16.2328 10.1176C16.2478 10.1221 16.2626 10.1271 16.2771 10.1326C16.2499 10.1197 16.2533 10.1213 16.2876 10.1373C16.4372 10.2072 16.6353 10.1843 16.7202 10.0238C16.7939 9.88382 16.7668 9.66562 16.6066 9.59103C16.5057 9.54386 16.404 9.50354 16.295 9.48114C16.1393 9.44952 15.9857 9.51329 15.9219 9.6643C15.8632 9.80344 15.9117 9.98476 16.0513 10.0593C16.1999 10.1387 16.3484 10.2177 16.4968 10.297C16.6369 10.3716 16.8066 10.3426 16.9046 10.2156C16.9946 10.0989 16.9994 9.90359 16.8798 9.80028C16.7744 9.70936 16.6661 9.6448 16.5318 9.60527C16.3732 9.55862 16.1804 9.6614 16.143 9.82611C16.1056 9.99082 16.1938 10.1653 16.3637 10.2151V10.2156Z" fill="#232323"/>
<path d="M11.5007 8.68315C10.5445 9.19125 9.66618 9.84719 8.82767 10.529C7.95518 11.2387 7.22784 12.0946 6.40856 12.8615C5.94176 13.2985 5.44545 13.723 4.94439 14.1073C4.77527 14.2369 4.68544 14.4475 4.80267 14.648C4.90014 14.8146 5.17279 14.9205 5.34323 14.7898C6.27131 14.0783 7.12642 13.2958 7.93727 12.4541C8.3282 12.048 8.72045 11.6419 9.15328 11.2798C9.56028 10.9393 9.9362 10.6462 10.3632 10.3387C10.8553 9.98449 11.3635 9.65007 11.8993 9.36545C12.0877 9.2653 12.1456 9.00361 12.041 8.82467C11.9296 8.63387 11.6896 8.58248 11.5005 8.68289L11.5007 8.68315Z" fill="#232323"/>
<path d="M4.81215 14.1974C4.67964 14.3378 4.54714 14.4791 4.40436 14.6093C4.37064 14.6399 4.33639 14.6699 4.30162 14.6991C4.29082 14.7081 4.17965 14.7948 4.24366 14.7468C4.16937 14.8025 4.09324 14.8552 4.01605 14.9063C3.97127 14.9358 3.92728 14.9637 3.87933 14.9875C3.85194 15.0009 3.82427 15.0135 3.79635 15.0262C3.77686 15.0349 3.66226 15.0831 3.76263 15.0417C3.70099 15.067 3.63908 15.0921 3.57612 15.114C3.54635 15.1242 3.51553 15.1319 3.48603 15.1422C3.47417 15.1453 3.46205 15.1482 3.44994 15.1506C3.5042 15.1361 3.55847 15.1366 3.61274 15.1527C3.41042 15.1142 3.17675 15.2091 3.1267 15.4289C3.08244 15.6236 3.18545 15.874 3.40278 15.9151C3.58692 15.9502 3.74999 15.894 3.91832 15.8266C4.05926 15.7702 4.20757 15.7151 4.33929 15.6381C4.73312 15.4083 5.06057 15.0855 5.37116 14.7566C5.51763 14.6014 5.525 14.3515 5.37116 14.1976C5.21731 14.0437 4.95941 14.0419 4.81241 14.1976L4.81215 14.1974Z" fill="#232323"/>
<path d="M8.80607 25.7943C9.59585 25.7584 10.3869 25.7429 11.1778 25.7605C11.4009 25.7655 11.6238 25.7732 11.8466 25.7837C11.8975 25.7861 11.8975 25.707 11.8466 25.7047C11.0579 25.667 10.2679 25.6665 9.47888 25.6896C9.2547 25.6962 9.03025 25.7049 8.80607 25.7149C8.75549 25.7173 8.75523 25.7964 8.80607 25.794V25.7943Z" fill="#232323"/>
<path d="M20.9638 30.8924C21.3516 31.1203 21.7378 31.3509 22.1224 31.5844C22.3171 31.7025 22.6087 31.6337 22.7172 31.4284C22.8258 31.2231 22.7691 30.9596 22.5613 30.8333C22.1767 30.5999 21.7907 30.369 21.4027 30.1413C21.2064 30.0261 20.9174 30.0899 20.8079 30.2973C20.6983 30.5047 20.7544 30.7693 20.9638 30.8924Z" fill="#232323"/>
<path d="M9.5184 25.8541C9.62193 25.8604 9.72519 25.8681 9.82846 25.8781C9.88272 25.8833 9.93699 25.8891 9.99126 25.8957C10.0142 25.8984 10.0374 25.9013 10.0603 25.9042C10.1367 25.9142 10.0057 25.896 10.0814 25.9073C10.2816 25.9376 10.4805 25.974 10.6778 26.0193C11.0758 26.1108 11.4654 26.2344 11.8474 26.3783C11.9404 26.4133 12.0329 26.4494 12.1251 26.4866C12.2391 26.5327 12.2768 26.548 12.3682 26.5875C12.4918 26.6408 12.6156 26.6885 12.7412 26.7356C12.8669 26.7828 12.982 26.8265 13.1027 26.8716C13.1483 26.8887 13.1938 26.9067 13.2399 26.9222C13.286 26.9378 13.2323 26.9138 13.2131 26.9098C13.2734 26.9222 13.3387 26.9667 13.3946 26.992C14.9338 27.6912 16.4641 28.4115 17.9564 29.2068C18.3848 29.435 18.81 29.669 19.2323 29.9086C19.4562 30.0356 19.678 30.1661 19.9011 30.2942C19.9667 30.3318 20.0355 30.3629 20.1063 30.3888C20.1258 30.3959 20.1466 30.4006 20.1659 30.4085C20.1938 30.4172 20.1922 30.4175 20.1614 30.4093L20.2046 30.4351C20.3029 30.5058 20.4109 30.569 20.5154 30.6304C20.7117 30.7458 21.0007 30.6818 21.1103 30.4744C21.2207 30.2657 21.1638 30.0027 20.9543 29.8793C20.8698 29.8295 20.7884 29.775 20.7054 29.7225C20.5871 29.6477 20.4614 29.61 20.3376 29.5499C20.3932 29.5768 20.2892 29.513 20.2747 29.5046C20.2241 29.4751 20.1732 29.4456 20.1224 29.416C20.022 29.3578 19.9214 29.3001 19.8208 29.2424C19.4377 29.0234 19.0523 28.8091 18.664 28.5994C17.9132 28.1938 17.1527 27.8064 16.3853 27.4332C15.6074 27.055 14.8229 26.6908 14.0358 26.3324C13.742 26.1985 13.4486 26.0755 13.1469 25.9619C13.0392 25.9213 12.9322 25.8768 12.8226 25.8409C12.7747 25.8251 12.8321 25.8472 12.8511 25.8549C12.7997 25.8341 12.7491 25.8111 12.698 25.7895C12.5774 25.7384 12.4565 25.6875 12.335 25.6388C11.4299 25.2756 10.4942 25.0437 9.51892 24.9839C9.29158 24.9699 9.07425 25.1939 9.08426 25.4187C9.09532 25.6662 9.27525 25.8385 9.51892 25.8536L9.5184 25.8541Z" fill="#232323"/>
<path d="M23.5046 31.8097C24.0718 31.7963 24.639 31.7723 25.2064 31.7831C25.772 31.7937 26.3371 31.8564 26.8977 31.9318C26.8771 31.9291 26.8392 31.9236 26.9322 31.9365C26.9656 31.9412 26.9988 31.946 27.032 31.9507C27.0987 31.9605 27.1653 31.9705 27.232 31.981C27.3739 32.0034 27.5157 32.0277 27.6571 32.054C27.9356 32.106 28.2125 32.166 28.4869 32.2361C28.7533 32.3041 29.0215 32.3613 29.2833 32.4459C29.3241 32.4591 29.365 32.4778 29.4066 32.4878C29.4653 32.5018 29.2928 32.4309 29.3713 32.4733C29.4103 32.4944 29.4495 32.5136 29.4869 32.5374C29.5412 32.5716 29.6166 32.6457 29.5188 32.5553C29.5544 32.5882 29.5934 32.6177 29.6284 32.6517C29.6634 32.6857 29.6958 32.7192 29.7275 32.7548C29.7438 32.773 29.7596 32.7914 29.7751 32.8104C29.783 32.8199 29.7904 32.8296 29.7983 32.8391C29.8473 32.8968 29.733 32.7474 29.7759 32.8104C29.8357 32.8976 29.895 32.9835 29.9456 33.0766C29.9706 33.1224 29.993 33.1693 30.0157 33.216C30.0215 33.2276 30.0257 33.2402 30.0317 33.2518C30.056 33.2969 29.9946 33.1538 30.0109 33.202C30.0204 33.2297 30.0328 33.2568 30.0428 33.2842C30.0807 33.3883 30.111 33.4951 30.1321 33.6039C30.1371 33.6292 30.1405 33.6548 30.1453 33.6801C30.1579 33.7491 30.1339 33.5562 30.1416 33.6598C30.1455 33.7138 30.1495 33.7673 30.1495 33.8213C30.1495 33.8716 30.1447 33.9215 30.1418 33.9715C30.1366 34.0632 30.1648 33.859 30.1447 33.9483C30.1387 33.9755 30.1345 34.0032 30.1281 34.0303C30.1166 34.0785 30.101 34.1252 30.0852 34.1721C30.0533 34.267 30.125 34.0951 30.0934 34.1539C30.0786 34.1813 30.066 34.21 30.0504 34.2372C30.0365 34.2619 30.0204 34.2854 30.0054 34.3096C29.9464 34.4053 30.0499 34.2633 30.0101 34.3065C29.9669 34.3534 29.9245 34.3987 29.8781 34.443C29.7944 34.5231 29.9261 34.4148 29.8763 34.4475C29.8457 34.4675 29.8168 34.4894 29.7857 34.5086C29.7593 34.525 29.6063 34.5843 29.6 34.6064C29.6063 34.5843 29.6927 34.5716 29.6353 34.5914C29.611 34.5998 29.5876 34.6098 29.5633 34.6182C29.5257 34.6314 29.4875 34.6435 29.449 34.6546C29.3613 34.6799 29.272 34.6999 29.1819 34.7158C29.1616 34.7192 29.1413 34.7223 29.121 34.7258C29.0383 34.7397 29.1829 34.7213 29.126 34.725C29.0763 34.7281 29.0265 34.7355 28.9764 34.7389C28.8555 34.7476 28.7341 34.75 28.6129 34.749C28.3855 34.7469 28.1677 34.9506 28.1782 35.1838C28.1887 35.417 28.3692 35.6163 28.6129 35.6186C29.3126 35.6252 30.1395 35.4969 30.6184 34.929C31.0067 34.4688 31.0889 33.8719 30.9537 33.2963C30.8399 32.8112 30.5668 32.3207 30.1916 31.9895C29.9458 31.7726 29.6856 31.6561 29.3721 31.5633C28.806 31.3957 28.2193 31.2692 27.6376 31.1709C26.9551 31.0555 26.2554 30.958 25.5636 30.9251C24.8774 30.8924 24.1906 30.924 23.5046 30.9401C23.2775 30.9453 23.0592 31.1361 23.07 31.3749C23.0802 31.606 23.2612 31.8155 23.5046 31.8097Z" fill="#232323"/>
<path d="M19.349 39.3677C17.7067 38.6311 16.0613 37.9024 14.4159 37.1732C12.82 36.4659 11.2283 35.7488 9.63115 35.0446C8.86719 34.7078 8.08821 34.3737 7.3888 33.9125C7.1986 33.7871 6.8996 33.8685 6.79396 34.0685C6.67884 34.2862 6.74681 34.5297 6.94992 34.6636C7.57109 35.0731 8.25655 35.3804 8.93463 35.6819C9.68963 36.0174 10.4441 36.3542 11.1988 36.6904C12.8424 37.4228 14.4881 38.1499 16.1327 38.8801C17.0592 39.2915 17.9852 39.704 18.9101 40.1188C19.1171 40.2115 19.3872 40.1854 19.5049 39.9628C19.605 39.773 19.5705 39.467 19.349 39.3677Z" fill="#232323"/>
<path d="M19.2626 40.2002C22.444 40.1915 25.4003 38.8433 28.3539 37.8273C29.2182 37.5301 30.0836 37.2362 30.9416 36.921C31.1545 36.8427 31.3218 36.6224 31.2451 36.386C31.1774 36.1771 30.939 35.9984 30.7103 36.0824C29.2061 36.6351 27.6798 37.1255 26.1756 37.6784C24.7354 38.2079 23.2849 38.7318 21.7807 39.0499C21.5721 39.0939 21.3629 39.1339 21.1527 39.1692C21.0397 39.1882 20.9264 39.2053 20.8129 39.2222C20.6543 39.2457 20.8929 39.213 20.7338 39.233C20.6851 39.2391 20.6364 39.2451 20.5876 39.2509C20.1477 39.3021 19.7054 39.3292 19.2623 39.3303C19.0349 39.3308 18.8171 39.5298 18.8276 39.7651C18.8382 40.0004 19.0186 40.2007 19.2623 40.1999L19.2626 40.2002Z" fill="#232323"/>
<path d="M31.0502 36.8683C32.1379 36.0469 32.9967 34.9983 33.7538 33.8722C34.5486 32.6897 35.263 31.4511 36.0032 30.2341C36.4226 29.5444 36.9685 28.8165 36.9558 27.9716C36.9524 27.7442 36.7582 27.5262 36.5212 27.5368C36.2841 27.5473 36.0828 27.7278 36.0865 27.9716C36.0873 28.0169 36.0846 28.0617 36.0844 28.1068C36.0836 28.2431 36.0941 28.0683 36.082 28.1466C36.0699 28.2249 36.0493 28.3074 36.0254 28.3856C36.0167 28.4143 36.0072 28.4428 35.9972 28.471C35.9982 28.4684 35.9455 28.6062 35.9748 28.5358C35.9398 28.6202 35.8979 28.7024 35.8555 28.783C35.6966 29.0843 35.5106 29.3715 35.3336 29.6625C34.9477 30.297 34.5617 30.9314 34.1758 31.566C33.8399 32.1181 33.5054 32.671 33.1508 33.2112C32.802 33.7423 32.4577 34.2285 32.0833 34.6773C31.8584 34.9471 31.6218 35.2072 31.371 35.4537C31.2459 35.5767 31.1173 35.6961 30.9851 35.8115C30.919 35.8693 30.8518 35.9262 30.7836 35.9818C30.7551 36.005 30.7267 36.0282 30.6979 36.0508C30.675 36.069 30.6518 36.0872 30.6287 36.1054C30.6584 36.0822 30.6526 36.0864 30.6115 36.1178C30.4306 36.2543 30.3181 36.4994 30.4556 36.7128C30.571 36.8918 30.8563 37.0154 31.0504 36.8688L31.0502 36.8683Z" fill="#232323"/>
<path d="M36.8088 27.6103C35.8183 26.8184 34.4637 26.4721 33.2785 27.0382C32.684 27.3223 32.2048 27.8211 31.7422 28.2786C31.2767 28.7393 30.8239 29.2129 30.3808 29.6951C29.8781 30.2422 29.3876 30.8009 28.9119 31.3715C28.7664 31.5459 28.7283 31.8179 28.9119 31.9863C29.0726 32.1339 29.371 32.1729 29.5265 31.9863C30.327 31.0268 31.1658 30.0978 32.0433 29.2079C32.2538 28.9944 32.4669 28.783 32.6832 28.5754C32.886 28.3806 33.1247 28.1614 33.3073 28.0325C33.4247 27.9495 33.5478 27.8736 33.6763 27.809C33.7035 27.7953 33.7309 27.7824 33.7585 27.7697C33.6855 27.8035 33.8073 27.7508 33.8104 27.7494C33.8739 27.726 33.9387 27.7054 34.004 27.6878C34.0694 27.6701 34.135 27.6556 34.2014 27.6438C34.2277 27.639 34.2546 27.6345 34.2812 27.6309C34.1958 27.6422 34.2849 27.6322 34.3062 27.6303C34.4477 27.6182 34.5902 27.6182 34.7316 27.629C34.7588 27.6311 34.7856 27.634 34.8128 27.6364C34.9171 27.6459 34.7651 27.6251 34.8591 27.6427C34.94 27.658 35.0204 27.6725 35.1005 27.6925C35.2411 27.7276 35.3784 27.7729 35.5133 27.8259C35.5865 27.8549 35.4232 27.7829 35.543 27.8388C35.5807 27.8562 35.6184 27.8736 35.6555 27.892C35.7237 27.9258 35.7906 27.9619 35.8565 28.0003C35.9224 28.0388 35.9866 28.0789 36.0496 28.1213C36.0725 28.1368 36.0952 28.1524 36.1176 28.1685C36.14 28.1845 36.1621 28.2006 36.1842 28.2172C36.1508 28.1909 36.1539 28.1935 36.1937 28.2251C36.371 28.3669 36.6376 28.4112 36.8083 28.2251C36.9529 28.0675 36.998 27.7618 36.8083 27.6103H36.8088Z" fill="#232323"/>
<path d="M36.2493 27.4509C36.4864 27.0743 36.6542 26.6547 36.7467 26.2196C36.8389 25.7861 36.8879 25.2986 36.6697 24.893C36.3468 24.2919 35.5828 24.2434 34.9814 24.2753C34.4722 24.3024 33.9735 24.4054 33.4927 24.5738C33.2915 24.6445 33.1574 24.8442 33.2166 25.0601C33.2704 25.2553 33.5004 25.4071 33.7027 25.3362C34.1471 25.1805 34.5873 25.0838 35.038 25.063C35.1884 25.0561 35.3391 25.0537 35.4893 25.0651C35.5111 25.0667 35.6458 25.0862 35.5356 25.0677C35.5752 25.0743 35.6144 25.0809 35.6537 25.0896C35.6929 25.0983 35.7298 25.1083 35.7669 25.1201C35.7854 25.1259 35.8033 25.1323 35.8215 25.1391C35.7756 25.1188 35.7659 25.1146 35.7925 25.127C35.8194 25.1447 35.8515 25.156 35.8792 25.1729C35.895 25.1826 35.9102 25.1926 35.9255 25.2034C35.8826 25.1692 35.8773 25.1657 35.9102 25.1937C35.9279 25.2124 35.9988 25.3044 35.9416 25.2179C35.9635 25.2509 35.9824 25.2838 36.0011 25.3186C35.9542 25.2327 36.0082 25.3478 36.0146 25.3734C36.0175 25.3845 36.0346 25.4857 36.0288 25.4385C36.0443 25.5608 36.0372 25.6912 36.0217 25.8132C35.9677 26.231 35.8049 26.674 35.5673 27.0519C35.4535 27.2327 35.5291 27.4875 35.709 27.5926C35.8989 27.7039 36.1355 27.6319 36.2496 27.4509H36.2493Z" fill="#232323"/>
<path d="M32.3526 24.9826C31.6065 24.713 30.7443 24.6397 29.979 24.8753C29.2138 25.1109 28.6553 25.6161 28.0602 26.0955C26.8645 27.0585 25.7312 28.0947 24.566 29.0937C23.9124 29.654 23.2483 30.2024 22.5602 30.7198C22.3898 30.8478 22.3018 31.0613 22.4185 31.2605C22.5167 31.4284 22.7876 31.5314 22.9591 31.4023C24.1901 30.4768 25.3481 29.4637 26.5062 28.4494C27.0652 27.9598 27.6255 27.4719 28.1982 26.9984C28.7543 26.5385 29.2865 26.0512 29.9258 25.7358C30.0454 25.6767 29.8644 25.7566 29.988 25.7084C30.0278 25.6928 30.0676 25.6781 30.1079 25.6644C30.2027 25.6319 30.2994 25.6048 30.3971 25.5827C30.5823 25.541 30.7533 25.5284 30.9545 25.5276C31.3679 25.5263 31.7425 25.6006 32.1424 25.7453C32.337 25.8156 32.5836 25.6662 32.6284 25.4691C32.679 25.2466 32.561 25.0582 32.3523 24.9828L32.3526 24.9826Z" fill="#232323"/>
<path d="M27.9775 26.1342C27.6927 25.8776 27.3742 25.6119 26.988 25.5323C26.5146 25.4345 26.0673 25.5811 25.6345 25.764C25.438 25.847 25.395 26.1374 25.4928 26.3047C25.6118 26.5085 25.836 26.5301 26.0333 26.4465C26.1735 26.3872 26.3624 26.3337 26.5299 26.2963C26.5768 26.2889 26.5752 26.2887 26.5249 26.2958C26.5462 26.2934 26.5676 26.2916 26.5889 26.29C26.6197 26.2881 26.6506 26.2871 26.6814 26.2873C26.6927 26.2873 26.8123 26.2916 26.7459 26.2884C26.6795 26.2852 26.7915 26.2976 26.8052 26.3008C26.8323 26.3071 26.8595 26.3148 26.8861 26.3235C26.9037 26.3293 26.9214 26.3353 26.9387 26.3422C26.8879 26.3198 26.8824 26.3174 26.9224 26.3356C26.9835 26.3669 27.0436 26.3988 27.1013 26.4365C27.1274 26.4536 27.1521 26.4721 27.1779 26.4895C27.213 26.5158 27.2122 26.5148 27.1756 26.4863C27.1932 26.5 27.2106 26.5143 27.228 26.5282C27.2931 26.5815 27.356 26.6371 27.4185 26.6935C27.5771 26.8363 27.821 26.85 27.9772 26.6935C28.1224 26.5482 28.1363 26.2779 27.9772 26.1345L27.9775 26.1342Z" fill="#232323"/>
<path d="M7.06425 33.8005C6.28132 33.7217 5.50946 33.6961 4.74419 33.9091C3.89619 34.1449 3.06638 34.4638 2.2334 34.7479C1.75026 34.9126 1.26686 35.0773 0.783721 35.2423C0.569023 35.3156 0.404904 35.5443 0.480246 35.7773C0.549265 35.9905 0.784512 36.1597 1.01502 36.0809C1.85036 35.796 2.68598 35.5111 3.52133 35.2262C3.93281 35.086 4.34245 34.939 4.75815 34.8114C4.95441 34.7511 5.1533 34.6947 5.35482 34.6544C5.37406 34.6504 5.39329 34.647 5.41252 34.6435C5.42437 34.6414 5.50656 34.628 5.45388 34.6359C5.41541 34.6417 5.52026 34.6285 5.53949 34.6267C5.63222 34.6177 5.72548 34.6124 5.81847 34.6093C6.23443 34.5958 6.65066 34.628 7.06425 34.6696C7.29133 34.6926 7.50866 34.4533 7.49891 34.2348C7.48758 33.9797 7.3074 33.8245 7.06425 33.8V33.8005Z" fill="#232323"/>
<path d="M28.6131 34.7492C26.5162 34.8957 24.4148 34.9901 22.3231 35.2067C21.7141 35.2697 21.1063 35.3446 20.5002 35.4313C20.2744 35.4634 20.1306 35.7623 20.1967 35.9662C20.2768 36.2137 20.4894 36.3046 20.7315 36.2698C21.6801 36.1344 22.7404 36.0279 23.7446 35.9462C24.7786 35.8621 25.8141 35.7984 26.8497 35.7338C27.4377 35.6972 28.0257 35.66 28.6134 35.6192C28.8397 35.6033 29.0591 35.4305 29.0481 35.1843C29.0381 34.9624 28.8563 34.7326 28.6134 34.7495L28.6131 34.7492Z" fill="#232323"/>
<path d="M20.4994 35.4344C18.1237 35.1748 15.8851 34.9319 13.5431 34.448C12.9191 34.3191 12.2981 34.1729 11.6846 34.0005C11.466 33.9391 11.2017 34.0762 11.1498 34.3041C11.0979 34.5321 11.2191 34.7732 11.4533 34.8391C13.77 35.4906 16.1764 35.8057 18.5613 36.0864C19.207 36.1623 19.8532 36.2335 20.4994 36.3041C20.7262 36.3289 20.9438 36.0864 20.934 35.8693C20.9224 35.6126 20.7423 35.461 20.4994 35.4344Z" fill="#232323"/>
<path d="M9.27077 25.0023C6.95123 25.3571 4.65594 25.8665 2.40516 26.5298C1.77397 26.7159 1.14673 26.914 0.523185 27.1235C0.30796 27.1958 0.144631 27.4264 0.21971 27.6585C0.288993 27.8725 0.523712 28.0399 0.75448 27.9621C2.97813 27.2147 5.2513 26.6168 7.55529 26.1753C8.20202 26.0515 8.85112 25.9403 9.50206 25.8407C9.72756 25.8061 9.87219 25.511 9.80554 25.3057C9.72598 25.0601 9.5126 24.9649 9.27077 25.0021V25.0023Z" fill="#232323"/>
<path d="M23.3927 31.3612C23.0813 31.3143 22.7699 31.2674 22.4585 31.2202C22.4087 31.2128 22.3874 31.289 22.4375 31.2964C22.7488 31.3433 23.0602 31.3902 23.3716 31.4374C23.4214 31.4447 23.4427 31.3686 23.3927 31.3612Z" fill="#232323"/>
<path d="M22.0866 31.5539C22.3223 31.6603 22.5405 31.7452 22.8005 31.7665C23.042 31.7863 23.2857 31.7913 23.5278 31.8032C23.7198 31.8126 23.8834 31.6329 23.8834 31.4474C23.8834 31.2468 23.7204 31.1011 23.5278 31.0916C23.1342 31.0724 22.7912 31.0956 22.4456 30.9396C22.2707 30.8605 22.0631 30.8892 21.9591 31.0671C21.87 31.2194 21.9106 31.4745 22.0866 31.5539Z" fill="#232323"/>
<path d="M25.6345 25.764C24.9143 26.2014 24.2773 26.7612 23.6614 27.3325C23.3571 27.6148 23.0563 27.901 22.7478 28.1785C22.601 28.3105 22.4525 28.4407 22.301 28.5675C22.2235 28.6323 22.1453 28.6961 22.066 28.7585C22.0502 28.7709 22.0344 28.7833 22.0186 28.7957C22.0621 28.762 22.0091 28.8028 22.0033 28.8073C21.9609 28.8392 21.9182 28.8713 21.8753 28.9027C21.516 29.1652 21.1342 29.3963 20.7251 29.5726C20.5291 29.6569 20.4851 29.9452 20.5834 30.1134C20.702 30.316 20.9272 30.34 21.124 30.2551C22.6345 29.6047 23.7214 28.281 24.9503 27.2385C25.0399 27.1623 25.1305 27.0874 25.2225 27.0139C25.3255 26.9314 25.345 26.9161 25.4535 26.8363C25.6411 26.6979 25.8344 26.5678 26.0336 26.4468C26.2159 26.3361 26.2844 26.0923 26.1753 25.906C26.0663 25.7197 25.8178 25.653 25.6347 25.7642L25.6345 25.764Z" fill="#232323"/>
<path d="M21.0386 30.1848C20.9591 30.1613 21.0747 30.2143 21.0028 30.1727C20.9912 30.1661 20.9269 30.1157 20.9693 30.1526C20.8416 30.3181 20.7141 30.4836 20.5863 30.6494C20.7349 30.7287 20.8835 30.8078 21.0318 30.8871L21.2754 30.3092C21.2396 30.3018 21.2043 30.2936 21.1695 30.2828C21.1545 30.2783 21.1398 30.2733 21.1253 30.2678C21.1524 30.2807 21.149 30.2791 21.1148 30.2631C20.9651 30.1932 20.767 30.2161 20.6822 30.3766C20.6084 30.5166 20.6356 30.7348 20.7957 30.8094C20.8966 30.8565 20.9983 30.8969 21.1074 30.9193C21.2631 30.9509 21.4166 30.8871 21.4804 30.7361C21.5391 30.597 21.4907 30.4156 21.3511 30.3411C21.2025 30.2617 21.0539 30.1827 20.9056 30.1033C20.7654 30.0288 20.5958 30.0578 20.4978 30.1848C20.4077 30.3015 20.403 30.4968 20.5226 30.6001C20.6279 30.691 20.7362 30.7556 20.8705 30.7951C21.0291 30.8418 21.222 30.739 21.2594 30.5743C21.2968 30.4096 21.2085 30.2351 21.0386 30.1853V30.1848Z" fill="#232323"/>
<path d="M25.9016 31.7172C26.8579 31.2091 27.7362 30.5532 28.5747 29.8714C29.4472 29.1617 30.1745 28.3058 30.9938 27.5389C31.4606 27.1019 31.9569 26.6774 32.4579 26.2931C32.6271 26.1635 32.7169 25.9529 32.5997 25.7524C32.5022 25.5858 32.2295 25.4799 32.0591 25.6106C31.131 26.3221 30.2759 27.1046 29.4651 27.9463C29.0741 28.3524 28.6819 28.7585 28.2491 29.1206C27.8421 29.4611 27.4661 29.7542 27.0391 30.0617C26.547 30.4159 26.0389 30.7503 25.503 31.0349C25.3147 31.1351 25.2567 31.3968 25.3613 31.5757C25.4727 31.7665 25.7127 31.8179 25.9019 31.7175L25.9016 31.7172Z" fill="#232323"/>
<path d="M32.5905 26.203C32.723 26.0626 32.8555 25.9213 32.9983 25.7911C33.032 25.7605 33.0662 25.7305 33.101 25.7012C33.1118 25.6923 33.223 25.6056 33.1589 25.6535C33.2332 25.5979 33.3094 25.5452 33.3866 25.4941C33.4313 25.4646 33.4753 25.4367 33.5233 25.4129C33.5507 25.3995 33.5783 25.3868 33.6063 25.3742C33.6257 25.3655 33.7403 25.3173 33.64 25.3587C33.7016 25.3334 33.7635 25.3083 33.8265 25.2864C33.8563 25.2762 33.8871 25.2685 33.9166 25.2582C33.9284 25.2551 33.9406 25.2522 33.9527 25.2498C33.8984 25.2643 33.8441 25.2638 33.7899 25.2477C33.9922 25.2862 34.2259 25.1913 34.2759 24.9715C34.3202 24.7768 34.2172 24.5264 33.9998 24.4853C33.8157 24.4502 33.6526 24.5064 33.4843 24.5738C33.3433 24.6302 33.195 24.6853 33.0633 24.7623C32.6695 24.9921 32.342 25.3149 32.0314 25.6438C31.885 25.799 31.8776 26.0489 32.0314 26.2028C32.1853 26.3567 32.4432 26.3585 32.5902 26.2028L32.5905 26.203Z" fill="#232323"/>
<path d="M11.7679 14.6364C11.335 14.8193 10.8877 14.9658 10.4143 14.8681C10.0281 14.7885 9.70965 14.5228 9.42488 14.2662L9.42514 14.2659C9.26603 14.1225 9.27999 13.8521 9.42514 13.7069C9.58136 13.5504 9.8253 13.5641 9.98388 13.7069C10.0463 13.7633 10.1093 13.8189 10.1743 13.8722C10.1917 13.8861 10.2091 13.9004 10.2268 13.9141C10.1902 13.8856 10.1894 13.8846 10.2244 13.9109C10.2502 13.9283 10.275 13.9468 10.3011 13.9639C10.3588 14.0016 10.4188 14.0335 10.4799 14.0648C10.52 14.083 10.5144 14.0806 10.4636 14.0582C10.481 14.0651 10.4986 14.0711 10.5163 14.0769C10.5429 14.0856 10.57 14.0933 10.5972 14.0996C10.6109 14.1028 10.7228 14.1152 10.6564 14.112C10.59 14.1088 10.7096 14.113 10.721 14.113C10.7518 14.1133 10.7826 14.1123 10.8134 14.1104C10.8348 14.1088 10.8561 14.107 10.8775 14.1046C10.8271 14.1117 10.8256 14.1115 10.8724 14.1041C11.04 14.0667 11.2289 14.0132 11.369 13.9539C11.5663 13.8703 11.7905 13.8919 11.9096 14.0957C12.0073 14.263 11.9644 14.5534 11.7679 14.6364ZM11.7679 14.6364C12.4881 14.199 13.1251 13.6392 13.741 13.0679C14.0452 12.7856 14.3461 12.4994 14.6546 12.2219C14.8013 12.0899 14.9499 11.9597 15.1013 11.8329C15.1788 11.7681 15.257 11.7043 15.3363 11.6419C15.3521 11.6295 15.3679 11.6171 15.3838 11.6047C15.3403 11.6384 15.3932 11.5976 15.399 11.5931C15.4414 11.5612 15.4841 11.5291 15.5271 11.4977C15.8864 11.2352 16.2681 11.0041 16.6772 10.8278C16.8732 10.7435 16.9172 10.4552 16.8189 10.287C16.7004 10.0844 16.4752 10.0604 16.2784 10.1453C14.7678 10.7957 13.6809 12.1194 12.452 13.1619C12.3624 13.2381 12.2718 13.313 12.1799 13.3865C12.0769 13.469 12.0574 13.4843 11.9488 13.5641C11.7613 13.7025 11.5679 13.8326 11.3688 13.9536C11.1865 14.0643 11.118 14.3081 11.227 14.4944C11.3361 14.6807 11.5845 14.7474 11.7676 14.6362L11.7679 14.6364ZM25.6345 25.764C26.0673 25.5811 26.5146 25.4345 26.988 25.5323C27.3742 25.6119 27.6927 25.8776 27.9775 26.1342L27.9772 26.1345C28.1363 26.2779 28.1224 26.5482 27.9772 26.6935C27.821 26.85 27.5771 26.8363 27.4185 26.6935C27.356 26.6371 27.2931 26.5815 27.228 26.5282C27.2106 26.5143 27.1932 26.5 27.1756 26.4863C27.2122 26.5148 27.213 26.5158 27.1779 26.4895C27.1521 26.4721 27.1274 26.4536 27.1013 26.4365C27.0436 26.3988 26.9835 26.3669 26.9224 26.3356C26.8824 26.3174 26.8879 26.3198 26.9387 26.3422C26.9214 26.3353 26.9037 26.3293 26.8861 26.3235C26.8595 26.3148 26.8323 26.3071 26.8052 26.3008C26.7915 26.2976 26.6795 26.2852 26.7459 26.2884C26.8123 26.2916 26.6927 26.2873 26.6814 26.2873C26.6506 26.2871 26.6197 26.2881 26.5889 26.29C26.5676 26.2916 26.5462 26.2934 26.5249 26.2958C26.5752 26.2887 26.5768 26.2889 26.5299 26.2963C26.3624 26.3337 26.1735 26.3872 26.0333 26.4465C25.836 26.5301 25.6118 26.5085 25.4928 26.3047C25.395 26.1374 25.438 25.847 25.6345 25.764ZM25.6345 25.764C24.9143 26.2014 24.2773 26.7612 23.6614 27.3325C23.3571 27.6148 23.0563 27.901 22.7478 28.1785C22.601 28.3105 22.4525 28.4407 22.301 28.5675C22.2235 28.6323 22.1453 28.6961 22.066 28.7585C22.0502 28.7709 22.0344 28.7833 22.0186 28.7957C22.0621 28.762 22.0091 28.8028 22.0033 28.8073C21.9609 28.8392 21.9182 28.8713 21.8753 28.9027C21.516 29.1652 21.1342 29.3963 20.7251 29.5726C20.5291 29.6569 20.4851 29.9452 20.5834 30.1134C20.702 30.316 20.9272 30.34 21.124 30.2551C22.6345 29.6047 23.7214 28.281 24.9503 27.2385C25.0399 27.1623 25.1305 27.0874 25.2225 27.0139C25.3255 26.9314 25.345 26.9161 25.4535 26.8363C25.6411 26.6979 25.8344 26.5678 26.0336 26.4468C26.2159 26.3361 26.2844 26.0923 26.1753 25.906C26.0663 25.7197 25.8178 25.653 25.6347 25.7642L25.6345 25.764ZM28.5965 14.6061C27.8068 14.642 27.0157 14.6575 26.2248 14.6399C26.0017 14.6348 25.7788 14.6272 25.556 14.6167C25.5051 14.6143 25.5051 14.6934 25.556 14.6957C26.3447 14.7334 27.1347 14.7339 27.9237 14.7107C28.1479 14.7042 28.3724 14.6955 28.5965 14.6854C28.6471 14.6831 28.6474 14.604 28.5965 14.6064V14.6061ZM16.4385 9.50802C16.0508 9.28006 15.6646 9.04947 15.28 8.81598C15.0853 8.69791 14.7937 8.76669 14.6851 8.97199C14.5766 9.17728 14.6332 9.44082 14.8411 9.56705C15.2257 9.80055 15.6116 10.0314 15.9997 10.2591C16.1959 10.3743 16.4849 10.3105 16.5945 10.1031C16.7041 9.89568 16.648 9.63109 16.4385 9.50802ZM27.8839 14.5463C27.7804 14.54 27.6771 14.5323 27.5739 14.5223C27.5196 14.517 27.4654 14.5112 27.4111 14.5047C27.3882 14.502 27.365 14.4991 27.3421 14.4962C27.2657 14.4862 27.3966 14.5044 27.321 14.4931C27.1208 14.4628 26.9219 14.4264 26.7246 14.3811C26.3265 14.2896 25.9369 14.166 25.5549 14.0221C25.4619 13.9871 25.3695 13.951 25.2773 13.9138C25.1632 13.8677 25.1255 13.8524 25.0341 13.8129C24.9106 13.7596 24.7868 13.7119 24.6611 13.6648C24.5354 13.6176 24.4203 13.5739 24.2997 13.5288C24.2541 13.5117 24.2085 13.4937 24.1624 13.4782C24.1163 13.4626 24.1701 13.4866 24.1893 13.4906C24.129 13.4782 24.0636 13.4337 24.0078 13.4084C22.4685 12.7092 20.9383 11.9889 19.4459 11.1936C19.0176 10.9654 18.5924 10.7314 18.1701 10.4918C17.9462 10.3648 17.7244 10.2343 17.5012 10.1062C17.4356 10.0686 17.3669 10.0375 17.296 10.0116C17.2765 10.0045 17.2557 9.99978 17.2365 9.99187C17.2086 9.98318 17.2101 9.98291 17.241 9.99108L17.1978 9.96526C17.0995 9.89463 16.9915 9.83138 16.8869 9.76998C16.6906 9.65455 16.4017 9.71859 16.2921 9.92599C16.1825 10.1334 16.2386 10.3977 16.448 10.5211C16.5326 10.5709 16.614 10.6254 16.697 10.6779C16.8152 10.7527 16.9409 10.7904 17.0647 10.8505C17.0091 10.8236 17.1132 10.8874 17.1277 10.8958C17.1783 10.9253 17.2291 10.9548 17.2799 10.9843C17.3803 11.0426 17.4809 11.1003 17.5816 11.158C17.9646 11.377 18.35 11.5913 18.7383 11.801C19.4891 12.2066 20.2496 12.594 21.017 12.9672C21.7949 13.3454 22.5794 13.7096 23.3666 14.068C23.6603 14.2019 23.9538 14.3249 24.2554 14.4385C24.3632 14.4791 24.4701 14.5236 24.5797 14.5595C24.6276 14.5753 24.5702 14.5532 24.5512 14.5455C24.6026 14.5663 24.6532 14.5893 24.7043 14.6109C24.825 14.662 24.9459 14.7129 25.0673 14.7616C25.9725 15.1248 26.9082 15.3567 27.8834 15.4165C28.1108 15.4305 28.3281 15.2065 28.3181 14.9817C28.307 14.7342 28.1271 14.5618 27.8834 14.5468L27.8839 14.5463ZM13.898 8.59065C13.3308 8.60409 12.7636 8.62808 12.1962 8.61727C11.6306 8.60673 11.0655 8.54401 10.505 8.46864C10.5255 8.47127 10.5634 8.47681 10.4704 8.46389C10.437 8.45915 10.4038 8.4544 10.3706 8.44966C10.304 8.43991 10.2373 8.4299 10.1707 8.41935C10.0287 8.39695 9.88694 8.37271 9.74548 8.34635C9.46703 8.29444 9.19016 8.23435 8.91566 8.16425C8.64933 8.09626 8.38115 8.03907 8.1193 7.95448C8.07847 7.9413 8.03763 7.92259 7.99601 7.91257C7.93727 7.89861 8.10982 7.9695 8.03131 7.92707C7.99232 7.90599 7.95307 7.88675 7.91566 7.86303C7.8614 7.82877 7.78606 7.75472 7.88379 7.84511C7.84823 7.81217 7.80924 7.78265 7.7742 7.74866C7.73916 7.71466 7.70676 7.68119 7.67515 7.64561C7.65882 7.62743 7.64301 7.60898 7.62747 7.59001C7.61957 7.58052 7.61219 7.57077 7.60429 7.56128C7.55529 7.50357 7.66962 7.65299 7.62668 7.59001C7.56688 7.50278 7.50761 7.41686 7.45703 7.32384C7.432 7.27798 7.40961 7.23107 7.38695 7.18442C7.38116 7.17283 7.37694 7.16018 7.37088 7.14858C7.34665 7.10352 7.40803 7.24662 7.39169 7.19839C7.38221 7.17072 7.36983 7.14358 7.35982 7.11617C7.32188 7.01207 7.29159 6.90534 7.27051 6.7965C7.26551 6.7712 7.26208 6.74564 7.25734 6.72034C7.2447 6.65129 7.26867 6.8442 7.26103 6.74063C7.25708 6.68661 7.25313 6.63311 7.25313 6.57908C7.25313 6.52875 7.25787 6.47894 7.26077 6.42887C7.26604 6.33716 7.23785 6.5414 7.25787 6.45206C7.26393 6.42492 7.26814 6.39724 7.27447 6.3701C7.28606 6.32187 7.3016 6.27523 7.31741 6.22832C7.34928 6.13344 7.27763 6.30527 7.30924 6.2465C7.32399 6.21909 7.33664 6.19037 7.35218 6.16322C7.36614 6.13845 7.38221 6.115 7.39723 6.09075C7.45624 5.99509 7.35271 6.13713 7.39248 6.09391C7.43569 6.047 7.4781 6.00168 7.52447 5.9574C7.60824 5.87729 7.47652 5.9856 7.52631 5.95292C7.55687 5.93289 7.58585 5.91102 7.61693 5.89178C7.64327 5.87544 7.79633 5.81615 7.80265 5.79401C7.79633 5.81615 7.70992 5.8288 7.76735 5.80903C7.79159 5.8006 7.81503 5.79058 7.83927 5.78215C7.87694 5.76897 7.91514 5.75685 7.9536 5.74578C8.04132 5.72048 8.13063 5.70046 8.22072 5.68464C8.24101 5.68122 8.26129 5.67805 8.28157 5.67463C8.36429 5.66066 8.21967 5.67911 8.27657 5.67542C8.32636 5.67226 8.37615 5.66488 8.4262 5.66145C8.54712 5.65276 8.66856 5.65038 8.78974 5.65144C9.01708 5.65355 9.23494 5.44983 9.2244 5.2166C9.21387 4.98337 9.03341 4.78414 8.78974 4.78177C8.09006 4.77518 7.26314 4.90352 6.78422 5.47144C6.39592 5.93158 6.31372 6.52848 6.44887 7.10405C6.56267 7.58922 6.83585 8.07966 7.21098 8.41092C7.45676 8.62781 7.71704 8.74429 8.03052 8.83706C8.59664 9.00467 9.18331 9.13116 9.76497 9.22946C10.4475 9.34489 11.1472 9.4424 11.839 9.47534C12.5252 9.50802 13.212 9.4764 13.898 9.46032C14.1251 9.45505 14.3434 9.26425 14.3326 9.02549C14.3218 8.78672 14.1414 8.58485 13.898 8.59065ZM18.0534 1.03271C19.6956 1.76929 21.341 2.49797 22.9865 3.22717C24.5823 3.9345 26.174 4.65158 27.7712 5.35575C28.5352 5.69255 29.3141 6.02671 30.0135 6.4879C30.2037 6.61334 30.5027 6.53191 30.6084 6.33189C30.7235 6.11421 30.6555 5.8707 30.4524 5.73682C29.8312 5.32729 29.1458 5.02001 28.4677 4.71852C27.7127 4.38304 26.9582 4.04624 26.2035 3.70997C24.5599 2.9776 22.9143 2.25051 21.2697 1.52025C20.3432 1.10887 19.4172 0.696436 18.4923 0.28163C18.2852 0.188866 18.0152 0.214956 17.8974 0.437643C17.7973 0.627389 17.8318 0.933354 18.0534 1.03271ZM18.1398 0.200198C14.9583 0.208894 12.0021 1.55714 9.04843 2.57307C8.1841 2.87034 7.31872 3.16419 6.46072 3.47937C6.24787 3.55764 6.08059 3.77796 6.15724 4.01435C6.22495 4.22334 6.46335 4.40201 6.69201 4.31795C8.19622 3.76531 9.72256 3.27487 11.2268 2.72197C12.667 2.19253 14.1174 1.66862 15.6216 1.35053C15.8303 1.30652 16.0394 1.26646 16.2497 1.23115C16.3627 1.21218 16.4759 1.19505 16.5895 1.17818C16.7481 1.15472 16.5094 1.1874 16.6685 1.16737C16.7173 1.16131 16.766 1.15525 16.8147 1.14945C17.2547 1.09833 17.697 1.07118 18.1401 1.07013C18.3674 1.0696 18.5853 0.870633 18.5747 0.635295C18.5642 0.399958 18.3835 0.199407 18.1398 0.200198ZM6.35219 3.53208C5.26447 4.35352 4.40567 5.40213 3.64856 6.52822C2.85378 7.71071 2.13935 8.94933 1.3991 10.1663C0.979716 10.856 0.433881 11.5839 0.446526 12.4288C0.449951 12.6562 0.644101 12.8742 0.881192 12.8636C1.11828 12.8531 1.31955 12.6726 1.31586 12.4288C1.31507 12.3835 1.3177 12.3387 1.31797 12.2936C1.31876 12.1573 1.30822 12.3321 1.32034 12.2538C1.33245 12.1755 1.353 12.093 1.37697 12.0148C1.38567 11.986 1.39515 11.9576 1.40516 11.9294C1.40411 11.932 1.45679 11.7942 1.42755 11.8646C1.46259 11.7802 1.50448 11.698 1.54689 11.6174C1.70574 11.3161 1.89172 11.0289 2.06875 10.7379C2.45468 10.1033 2.84061 9.46902 3.22654 8.83442C3.56242 8.28232 3.89698 7.72942 4.25156 7.18917C4.60035 6.65814 4.94466 6.17192 5.319 5.72312C5.54397 5.45326 5.78053 5.19315 6.03132 4.94674C6.15645 4.82367 6.28501 4.70429 6.41725 4.58886C6.48338 4.53115 6.55055 4.47422 6.61878 4.41862C6.64723 4.39543 6.67568 4.37223 6.7044 4.34957C6.72731 4.33139 6.7505 4.3132 6.77368 4.29502C6.74391 4.31821 6.74971 4.31399 6.7908 4.28263C6.97178 4.14612 7.08427 3.90103 6.94676 3.68757C6.83137 3.50863 6.54607 3.38503 6.35192 3.53155L6.35219 3.53208ZM0.593522 12.7901C1.58403 13.582 2.93861 13.9283 4.1238 13.3622C4.71837 13.0781 5.19755 12.5793 5.66014 12.1218C6.12563 11.6611 6.57847 11.1875 7.02157 10.7053C7.5242 10.1582 8.01472 9.59947 8.49048 9.02891C8.63589 8.85445 8.67409 8.58248 8.49048 8.41408C8.32978 8.2665 8.03131 8.2275 7.87589 8.41408C7.07531 9.37362 6.23654 10.3026 5.35904 11.1925C5.14856 11.406 4.93544 11.6174 4.71916 11.825C4.51631 12.0198 4.27764 12.239 4.09508 12.3679C3.97759 12.4509 3.85457 12.5268 3.72601 12.5914C3.69888 12.6051 3.67148 12.618 3.64382 12.6307C3.71679 12.5969 3.59509 12.6496 3.59193 12.6509C3.52844 12.6744 3.46363 12.695 3.3983 12.7126C3.33297 12.7303 3.26738 12.7448 3.20099 12.7566C3.17465 12.7614 3.14778 12.7659 3.12117 12.7695C3.20652 12.7582 3.11748 12.7682 3.09614 12.7701C2.95468 12.7822 2.81216 12.7822 2.6707 12.7714C2.64356 12.7693 2.61669 12.7664 2.58956 12.764C2.48524 12.7545 2.63724 12.7753 2.5432 12.7577C2.46232 12.7424 2.38197 12.7279 2.30189 12.7079C2.16122 12.6728 2.02397 12.6275 1.88909 12.5745C1.81586 12.5455 1.97918 12.6175 1.85932 12.5616C1.82165 12.5442 1.78398 12.5268 1.74684 12.5084C1.67861 12.4746 1.61169 12.4385 1.54584 12.4001C1.47998 12.3616 1.4157 12.3215 1.35274 12.2791C1.32982 12.2636 1.30716 12.248 1.28477 12.2319C1.26238 12.2159 1.24025 12.1998 1.21812 12.1832C1.25158 12.2095 1.24842 12.2069 1.20864 12.1753C1.03135 12.0335 0.764754 11.9892 0.594049 12.1753C0.449424 12.3329 0.404377 12.6386 0.594049 12.7901H0.593522ZM1.15332 12.9495C0.916229 13.3261 0.748421 13.7457 0.655956 14.1808C0.563491 14.6159 0.514756 15.1018 0.732879 15.5074C1.05585 16.1085 1.81981 16.157 2.42123 16.1251C2.93044 16.098 3.42912 15.995 3.90989 15.8266C4.11115 15.7559 4.24524 15.5562 4.18597 15.3403C4.13223 15.1451 3.90225 14.9933 3.69993 15.0641C3.25552 15.2199 2.81532 15.3166 2.36459 15.3374C2.21417 15.3443 2.06348 15.3467 1.91333 15.3353C1.89146 15.3337 1.75685 15.3142 1.86696 15.3327C1.82745 15.3261 1.78819 15.3195 1.74894 15.3108C1.70969 15.3021 1.67281 15.2921 1.63567 15.2802C1.61723 15.2744 1.59931 15.2681 1.58114 15.2613C1.62697 15.2816 1.63672 15.2858 1.61011 15.2734C1.58324 15.2557 1.5511 15.2444 1.52344 15.2275C1.50764 15.2178 1.49236 15.2078 1.47708 15.197C1.52002 15.2312 1.52529 15.2347 1.49236 15.2067C1.47471 15.188 1.40384 15.096 1.46101 15.1825C1.43914 15.1495 1.42018 15.1166 1.40147 15.0818C1.44836 15.1677 1.39436 15.0526 1.38804 15.027C1.38514 15.0159 1.36802 14.9147 1.37381 14.9619C1.35827 14.8396 1.36538 14.7092 1.38093 14.5871C1.43493 14.1694 1.59773 13.7264 1.83535 13.3485C1.94915 13.1677 1.87355 12.9129 1.69362 12.8078C1.50369 12.6965 1.26712 12.7685 1.15306 12.9495H1.15332ZM5.05003 15.4178C5.79608 15.6874 6.6583 15.7607 7.42357 15.5251C8.17014 15.2953 8.74733 14.7843 9.34242 14.3049C10.5381 13.3419 11.6714 12.3057 12.8366 11.3067C13.4902 10.7464 14.1543 10.198 14.8424 9.68064C15.0128 9.55256 15.1008 9.33909 14.9841 9.13986C14.8859 8.97199 14.615 8.86895 14.4436 8.99808C13.2125 9.92362 12.0545 10.9366 10.8964 11.951C10.3374 12.4406 9.77709 12.9285 9.20438 13.402C8.63168 13.8756 8.11614 14.3492 7.47678 14.6646C7.35718 14.7237 7.53816 14.6438 7.41461 14.692C7.37483 14.7076 7.33506 14.7223 7.29475 14.736C7.19991 14.7685 7.10323 14.7956 7.0055 14.8177C6.82031 14.8594 6.64934 14.872 6.44808 14.8728C6.03475 14.8741 5.66014 14.7998 5.26025 14.6551C5.06557 14.5848 4.819 14.7342 4.77422 14.9313C4.72364 15.1537 4.84166 15.3422 5.0503 15.4175L5.05003 15.4178ZM30.3381 6.5999C31.121 6.6787 31.8929 6.70426 32.6582 6.49133C33.5062 6.25546 34.336 5.93658 35.1689 5.65249C35.6521 5.48778 36.1355 5.32307 36.6186 5.1581C36.8333 5.08484 36.9974 4.85609 36.9221 4.62312C36.8531 4.40992 36.6178 4.24073 36.3873 4.31953C35.552 4.60441 34.7164 4.88929 33.881 5.17417C33.4695 5.31437 33.0599 5.46143 32.6442 5.58898C32.4479 5.64933 32.249 5.70573 32.0475 5.74605C32.0283 5.75 32.0091 5.75343 31.9898 5.75685C31.978 5.75896 31.8958 5.7724 31.9485 5.76449C31.9869 5.7587 31.8821 5.77187 31.8629 5.77372C31.7701 5.78268 31.6769 5.78795 31.5839 5.79111C31.1679 5.80455 30.7517 5.7724 30.3381 5.73076C30.111 5.70783 29.8937 5.94712 29.9034 6.1656C29.9148 6.4207 30.095 6.57592 30.3381 6.60043V6.5999ZM8.78921 5.65117C10.8861 5.50465 12.9876 5.4103 15.0792 5.19368C15.6883 5.13069 16.296 5.05585 16.9022 4.96914C17.1279 4.93699 17.2718 4.63814 17.2057 4.43417C17.1256 4.1867 16.913 4.09578 16.6709 4.13057C15.7223 4.26603 14.6619 4.3725 13.6577 4.45419C12.6238 4.53826 11.5882 4.60204 10.5526 4.6666C9.96465 4.70323 9.37667 4.74039 8.78895 4.78124C8.56266 4.79705 8.34322 4.96993 8.35428 5.21608C8.36429 5.43797 8.54606 5.66778 8.78895 5.65091L8.78921 5.65117ZM16.903 4.96598C19.2786 5.22556 21.5173 5.46854 23.8592 5.9524C24.4833 6.08126 25.1042 6.22753 25.7177 6.39988C25.9364 6.46128 26.2006 6.32424 26.2525 6.09629C26.3052 5.86543 26.1832 5.62719 25.949 5.56131C23.6324 4.90985 21.2259 4.59466 18.8411 4.31399C18.1954 4.23809 17.5492 4.16694 16.903 4.09631C16.6762 4.07154 16.4586 4.31399 16.4683 4.53115C16.4799 4.78783 16.6601 4.93936 16.903 4.96598ZM28.1316 15.398C30.4511 15.0433 32.7464 14.5339 34.9972 13.8706C35.6284 13.6845 36.2556 13.4864 36.8792 13.2768C37.0944 13.2046 37.2577 12.974 37.1826 12.7419C37.1133 12.5279 36.8786 12.3605 36.6479 12.4383C34.4242 13.1857 32.151 13.7836 29.8471 14.225C29.2003 14.3489 28.5512 14.4601 27.9003 14.5597C27.6748 14.5943 27.5302 14.8894 27.5968 15.0947C27.6764 15.3403 27.8897 15.4355 28.1316 15.3983V15.398ZM14.0097 9.03919C14.3211 9.0861 14.6324 9.13301 14.9438 9.18018C14.9936 9.18756 15.0149 9.1114 14.9649 9.10402C14.6535 9.05711 14.3421 9.0102 14.0308 8.96303C13.981 8.95565 13.9596 9.03181 14.0097 9.03919ZM15.316 8.84655C15.0803 8.74008 14.8622 8.65522 14.6021 8.63387C14.3606 8.61411 14.1169 8.6091 13.8748 8.59724C13.6828 8.58775 13.5192 8.76749 13.5192 8.95301C13.5192 9.15357 13.6822 9.2993 13.8748 9.30879C14.2684 9.32803 14.6114 9.30483 14.957 9.46085C15.1319 9.53991 15.3395 9.51118 15.4435 9.3333C15.5326 9.18097 15.492 8.92587 15.316 8.84655ZM16.3637 10.2156C16.4433 10.2391 16.3276 10.1861 16.3996 10.2277C16.4111 10.2343 16.4754 10.2847 16.433 10.2478L16.816 9.751C16.6675 9.67168 16.5189 9.59262 16.3706 9.51329L16.1269 10.0912C16.1627 10.0986 16.198 10.1068 16.2328 10.1176C16.2478 10.1221 16.2626 10.1271 16.2771 10.1326C16.2499 10.1197 16.2533 10.1213 16.2876 10.1373C16.4372 10.2072 16.6353 10.1843 16.7202 10.0238C16.7939 9.88382 16.7668 9.66562 16.6066 9.59103C16.5057 9.54386 16.404 9.50354 16.295 9.48114C16.1393 9.44952 15.9857 9.51329 15.9219 9.6643C15.8632 9.80344 15.9117 9.98476 16.0513 10.0593C16.1999 10.1387 16.3484 10.2177 16.4968 10.297C16.6369 10.3716 16.8066 10.3426 16.9046 10.2156C16.9946 10.0989 16.9994 9.90359 16.8798 9.80028C16.7744 9.70936 16.6661 9.6448 16.5318 9.60527C16.3732 9.55862 16.1804 9.6614 16.143 9.82611C16.1056 9.99082 16.1938 10.1653 16.3637 10.2151V10.2156ZM11.5007 8.68315C10.5445 9.19125 9.66618 9.84719 8.82767 10.529C7.95518 11.2387 7.22784 12.0946 6.40856 12.8615C5.94176 13.2985 5.44545 13.723 4.94439 14.1073C4.77527 14.2369 4.68544 14.4475 4.80267 14.648C4.90014 14.8146 5.17279 14.9205 5.34323 14.7898C6.27131 14.0783 7.12642 13.2958 7.93727 12.4541C8.3282 12.048 8.72045 11.6419 9.15328 11.2798C9.56028 10.9393 9.9362 10.6462 10.3632 10.3387C10.8553 9.98449 11.3635 9.65007 11.8993 9.36545C12.0877 9.2653 12.1456 9.00361 12.041 8.82467C11.9296 8.63387 11.6896 8.58248 11.5005 8.68289L11.5007 8.68315ZM4.81215 14.1974C4.67964 14.3378 4.54714 14.4791 4.40436 14.6093C4.37064 14.6399 4.33639 14.6699 4.30162 14.6991C4.29082 14.7081 4.17965 14.7948 4.24366 14.7468C4.16937 14.8025 4.09324 14.8552 4.01605 14.9063C3.97127 14.9358 3.92728 14.9637 3.87933 14.9875C3.85194 15.0009 3.82427 15.0135 3.79635 15.0262C3.77686 15.0349 3.66226 15.0831 3.76263 15.0417C3.70099 15.067 3.63908 15.0921 3.57612 15.114C3.54635 15.1242 3.51553 15.1319 3.48603 15.1422C3.47417 15.1453 3.46205 15.1482 3.44994 15.1506C3.5042 15.1361 3.55847 15.1366 3.61274 15.1527C3.41042 15.1142 3.17675 15.2091 3.1267 15.4289C3.08244 15.6236 3.18545 15.874 3.40278 15.9151C3.58692 15.9502 3.74999 15.894 3.91832 15.8266C4.05926 15.7702 4.20757 15.7151 4.33929 15.6381C4.73312 15.4083 5.06057 15.0855 5.37116 14.7566C5.51763 14.6014 5.525 14.3515 5.37116 14.1976C5.21731 14.0437 4.95941 14.0419 4.81241 14.1976L4.81215 14.1974ZM8.80607 25.7943C9.59585 25.7584 10.3869 25.7429 11.1778 25.7605C11.4009 25.7655 11.6238 25.7732 11.8466 25.7837C11.8975 25.7861 11.8975 25.707 11.8466 25.7047C11.0579 25.667 10.2679 25.6665 9.47888 25.6896C9.2547 25.6962 9.03025 25.7049 8.80607 25.7149C8.75549 25.7173 8.75523 25.7964 8.80607 25.794V25.7943ZM20.9638 30.8924C21.3516 31.1203 21.7378 31.3509 22.1224 31.5844C22.3171 31.7025 22.6087 31.6337 22.7172 31.4284C22.8258 31.2231 22.7691 30.9596 22.5613 30.8333C22.1767 30.5999 21.7907 30.369 21.4027 30.1413C21.2064 30.0261 20.9174 30.0899 20.8079 30.2973C20.6983 30.5047 20.7544 30.7693 20.9638 30.8924ZM9.5184 25.8541C9.62193 25.8604 9.72519 25.8681 9.82846 25.8781C9.88272 25.8833 9.93699 25.8891 9.99126 25.8957C10.0142 25.8984 10.0374 25.9013 10.0603 25.9042C10.1367 25.9142 10.0057 25.896 10.0814 25.9073C10.2816 25.9376 10.4805 25.974 10.6778 26.0193C11.0758 26.1108 11.4654 26.2344 11.8474 26.3783C11.9404 26.4133 12.0329 26.4494 12.1251 26.4866C12.2391 26.5327 12.2768 26.548 12.3682 26.5875C12.4918 26.6408 12.6156 26.6885 12.7412 26.7356C12.8669 26.7828 12.982 26.8265 13.1027 26.8716C13.1483 26.8887 13.1938 26.9067 13.2399 26.9222C13.286 26.9378 13.2323 26.9138 13.2131 26.9098C13.2734 26.9222 13.3387 26.9667 13.3946 26.992C14.9338 27.6912 16.4641 28.4115 17.9564 29.2068C18.3848 29.435 18.81 29.669 19.2323 29.9086C19.4562 30.0356 19.678 30.1661 19.9011 30.2942C19.9667 30.3318 20.0355 30.3629 20.1063 30.3888C20.1258 30.3959 20.1466 30.4006 20.1659 30.4085C20.1938 30.4172 20.1922 30.4175 20.1614 30.4093L20.2046 30.4351C20.3029 30.5058 20.4109 30.569 20.5154 30.6304C20.7117 30.7458 21.0007 30.6818 21.1103 30.4744C21.2207 30.2657 21.1638 30.0027 20.9543 29.8793C20.8698 29.8295 20.7884 29.775 20.7054 29.7225C20.5871 29.6477 20.4614 29.61 20.3376 29.5499C20.3932 29.5768 20.2892 29.513 20.2747 29.5046C20.2241 29.4751 20.1732 29.4456 20.1224 29.416C20.022 29.3578 19.9214 29.3001 19.8208 29.2424C19.4377 29.0234 19.0523 28.8091 18.664 28.5994C17.9132 28.1938 17.1527 27.8064 16.3853 27.4332C15.6074 27.055 14.8229 26.6908 14.0358 26.3324C13.742 26.1985 13.4486 26.0755 13.1469 25.9619C13.0392 25.9213 12.9322 25.8768 12.8226 25.8409C12.7747 25.8251 12.8321 25.8472 12.8511 25.8549C12.7997 25.8341 12.7491 25.8111 12.698 25.7895C12.5774 25.7384 12.4565 25.6875 12.335 25.6388C11.4299 25.2756 10.4942 25.0437 9.51892 24.9839C9.29158 24.9699 9.07425 25.1939 9.08426 25.4187C9.09532 25.6662 9.27525 25.8385 9.51892 25.8536L9.5184 25.8541ZM23.5046 31.8097C24.0718 31.7963 24.639 31.7723 25.2064 31.7831C25.772 31.7937 26.3371 31.8564 26.8977 31.9318C26.8771 31.9291 26.8392 31.9236 26.9322 31.9365C26.9656 31.9412 26.9988 31.946 27.032 31.9507C27.0987 31.9605 27.1653 31.9705 27.232 31.981C27.3739 32.0034 27.5157 32.0277 27.6571 32.054C27.9356 32.106 28.2125 32.166 28.4869 32.2361C28.7533 32.3041 29.0215 32.3613 29.2833 32.4459C29.3241 32.4591 29.365 32.4778 29.4066 32.4878C29.4653 32.5018 29.2928 32.4309 29.3713 32.4733C29.4103 32.4944 29.4495 32.5136 29.4869 32.5374C29.5412 32.5716 29.6166 32.6457 29.5188 32.5553C29.5544 32.5882 29.5934 32.6177 29.6284 32.6517C29.6634 32.6857 29.6958 32.7192 29.7275 32.7548C29.7438 32.773 29.7596 32.7914 29.7751 32.8104C29.783 32.8199 29.7904 32.8296 29.7983 32.8391C29.8473 32.8968 29.733 32.7474 29.7759 32.8104C29.8357 32.8976 29.895 32.9835 29.9456 33.0766C29.9706 33.1224 29.993 33.1693 30.0157 33.216C30.0215 33.2276 30.0257 33.2402 30.0317 33.2518C30.056 33.2969 29.9946 33.1538 30.0109 33.202C30.0204 33.2297 30.0328 33.2568 30.0428 33.2842C30.0807 33.3883 30.111 33.4951 30.1321 33.6039C30.1371 33.6292 30.1405 33.6548 30.1453 33.6801C30.1579 33.7491 30.1339 33.5562 30.1416 33.6598C30.1455 33.7138 30.1495 33.7673 30.1495 33.8213C30.1495 33.8716 30.1447 33.9215 30.1418 33.9715C30.1366 34.0632 30.1648 33.859 30.1447 33.9483C30.1387 33.9755 30.1345 34.0032 30.1281 34.0303C30.1166 34.0785 30.101 34.1252 30.0852 34.1721C30.0533 34.267 30.125 34.0951 30.0934 34.1539C30.0786 34.1813 30.066 34.21 30.0504 34.2372C30.0365 34.2619 30.0204 34.2854 30.0054 34.3096C29.9464 34.4053 30.0499 34.2633 30.0101 34.3065C29.9669 34.3534 29.9245 34.3987 29.8781 34.443C29.7944 34.5231 29.9261 34.4148 29.8763 34.4475C29.8457 34.4675 29.8168 34.4894 29.7857 34.5086C29.7593 34.525 29.6063 34.5843 29.6 34.6064C29.6063 34.5843 29.6927 34.5716 29.6353 34.5914C29.611 34.5998 29.5876 34.6098 29.5633 34.6182C29.5257 34.6314 29.4875 34.6435 29.449 34.6546C29.3613 34.6799 29.272 34.6999 29.1819 34.7158C29.1616 34.7192 29.1413 34.7223 29.121 34.7258C29.0383 34.7397 29.1829 34.7213 29.126 34.725C29.0763 34.7281 29.0265 34.7355 28.9764 34.7389C28.8555 34.7476 28.7341 34.75 28.6129 34.749C28.3855 34.7469 28.1677 34.9506 28.1782 35.1838C28.1887 35.417 28.3692 35.6163 28.6129 35.6186C29.3126 35.6252 30.1395 35.4969 30.6184 34.929C31.0067 34.4688 31.0889 33.8719 30.9537 33.2963C30.8399 32.8112 30.5668 32.3207 30.1916 31.9895C29.9458 31.7726 29.6856 31.6561 29.3721 31.5633C28.806 31.3957 28.2193 31.2692 27.6376 31.1709C26.9551 31.0555 26.2554 30.958 25.5636 30.9251C24.8774 30.8924 24.1906 30.924 23.5046 30.9401C23.2775 30.9453 23.0592 31.1361 23.07 31.3749C23.0802 31.606 23.2612 31.8155 23.5046 31.8097ZM19.349 39.3677C17.7067 38.6311 16.0613 37.9024 14.4159 37.1732C12.82 36.4659 11.2283 35.7488 9.63115 35.0446C8.86719 34.7078 8.08821 34.3737 7.3888 33.9125C7.1986 33.7871 6.8996 33.8685 6.79396 34.0685C6.67884 34.2862 6.74681 34.5297 6.94992 34.6636C7.57109 35.0731 8.25655 35.3804 8.93463 35.6819C9.68963 36.0174 10.4441 36.3542 11.1988 36.6904C12.8424 37.4228 14.4881 38.1499 16.1327 38.8801C17.0592 39.2915 17.9852 39.704 18.9101 40.1188C19.1171 40.2115 19.3872 40.1854 19.5049 39.9628C19.605 39.773 19.5705 39.467 19.349 39.3677ZM19.2626 40.2002C22.444 40.1915 25.4003 38.8433 28.3539 37.8273C29.2182 37.5301 30.0836 37.2362 30.9416 36.921C31.1545 36.8427 31.3218 36.6224 31.2451 36.386C31.1774 36.1771 30.939 35.9984 30.7103 36.0824C29.2061 36.6351 27.6798 37.1255 26.1756 37.6784C24.7354 38.2079 23.2849 38.7318 21.7807 39.0499C21.5721 39.0939 21.3629 39.1339 21.1527 39.1692C21.0397 39.1882 20.9264 39.2053 20.8129 39.2222C20.6543 39.2457 20.8929 39.213 20.7338 39.233C20.6851 39.2391 20.6364 39.2451 20.5876 39.2509C20.1477 39.3021 19.7054 39.3292 19.2623 39.3303C19.0349 39.3308 18.8171 39.5298 18.8276 39.7651C18.8382 40.0004 19.0186 40.2007 19.2623 40.1999L19.2626 40.2002ZM31.0502 36.8683C32.1379 36.0469 32.9967 34.9983 33.7538 33.8722C34.5486 32.6897 35.263 31.4511 36.0032 30.2341C36.4226 29.5444 36.9685 28.8165 36.9558 27.9716C36.9524 27.7442 36.7582 27.5262 36.5212 27.5368C36.2841 27.5473 36.0828 27.7278 36.0865 27.9716C36.0873 28.0169 36.0846 28.0617 36.0844 28.1068C36.0836 28.2431 36.0941 28.0683 36.082 28.1466C36.0699 28.2249 36.0493 28.3074 36.0254 28.3856C36.0167 28.4143 36.0072 28.4428 35.9972 28.471C35.9982 28.4684 35.9455 28.6062 35.9748 28.5358C35.9398 28.6202 35.8979 28.7024 35.8555 28.783C35.6966 29.0843 35.5106 29.3715 35.3336 29.6625C34.9477 30.297 34.5617 30.9314 34.1758 31.566C33.8399 32.1181 33.5054 32.671 33.1508 33.2112C32.802 33.7423 32.4577 34.2285 32.0833 34.6773C31.8584 34.9471 31.6218 35.2072 31.371 35.4537C31.2459 35.5767 31.1173 35.6961 30.9851 35.8115C30.919 35.8693 30.8518 35.9262 30.7836 35.9818C30.7551 36.005 30.7267 36.0282 30.6979 36.0508C30.675 36.069 30.6518 36.0872 30.6287 36.1054C30.6584 36.0822 30.6526 36.0864 30.6115 36.1178C30.4306 36.2543 30.3181 36.4994 30.4556 36.7128C30.571 36.8918 30.8563 37.0154 31.0504 36.8688L31.0502 36.8683ZM36.8088 27.6103C35.8183 26.8184 34.4637 26.4721 33.2785 27.0382C32.684 27.3223 32.2048 27.8211 31.7422 28.2786C31.2767 28.7393 30.8239 29.2129 30.3808 29.6951C29.8781 30.2422 29.3876 30.8009 28.9119 31.3715C28.7664 31.5459 28.7283 31.8179 28.9119 31.9863C29.0726 32.1339 29.371 32.1729 29.5265 31.9863C30.327 31.0268 31.1658 30.0978 32.0433 29.2079C32.2538 28.9944 32.4669 28.783 32.6832 28.5754C32.886 28.3806 33.1247 28.1614 33.3073 28.0325C33.4247 27.9495 33.5478 27.8736 33.6763 27.809C33.7035 27.7953 33.7309 27.7824 33.7585 27.7697C33.6855 27.8035 33.8073 27.7508 33.8104 27.7494C33.8739 27.726 33.9387 27.7054 34.004 27.6878C34.0694 27.6701 34.135 27.6556 34.2014 27.6438C34.2277 27.639 34.2546 27.6345 34.2812 27.6309C34.1958 27.6422 34.2849 27.6322 34.3062 27.6303C34.4477 27.6182 34.5902 27.6182 34.7316 27.629C34.7588 27.6311 34.7856 27.634 34.8128 27.6364C34.9171 27.6459 34.7651 27.6251 34.8591 27.6427C34.94 27.658 35.0204 27.6725 35.1005 27.6925C35.2411 27.7276 35.3784 27.7729 35.5133 27.8259C35.5865 27.8549 35.4232 27.7829 35.543 27.8388C35.5807 27.8562 35.6184 27.8736 35.6555 27.892C35.7237 27.9258 35.7906 27.9619 35.8565 28.0003C35.9224 28.0388 35.9866 28.0789 36.0496 28.1213C36.0725 28.1368 36.0952 28.1524 36.1176 28.1685C36.14 28.1845 36.1621 28.2006 36.1842 28.2172C36.1508 28.1909 36.1539 28.1935 36.1937 28.2251C36.371 28.3669 36.6376 28.4112 36.8083 28.2251C36.9529 28.0675 36.998 27.7618 36.8083 27.6103H36.8088ZM36.2493 27.4509C36.4864 27.0743 36.6542 26.6547 36.7467 26.2196C36.8389 25.7861 36.8879 25.2986 36.6697 24.893C36.3468 24.2919 35.5828 24.2434 34.9814 24.2753C34.4722 24.3024 33.9735 24.4054 33.4927 24.5738C33.2915 24.6445 33.1574 24.8442 33.2166 25.0601C33.2704 25.2553 33.5004 25.4071 33.7027 25.3362C34.1471 25.1805 34.5873 25.0838 35.038 25.063C35.1884 25.0561 35.3391 25.0537 35.4893 25.0651C35.5111 25.0667 35.6458 25.0862 35.5356 25.0677C35.5752 25.0743 35.6144 25.0809 35.6537 25.0896C35.6929 25.0983 35.7298 25.1083 35.7669 25.1201C35.7854 25.1259 35.8033 25.1323 35.8215 25.1391C35.7756 25.1188 35.7659 25.1146 35.7925 25.127C35.8194 25.1447 35.8515 25.156 35.8792 25.1729C35.895 25.1826 35.9102 25.1926 35.9255 25.2034C35.8826 25.1692 35.8773 25.1657 35.9102 25.1937C35.9279 25.2124 35.9988 25.3044 35.9416 25.2179C35.9635 25.2509 35.9824 25.2838 36.0011 25.3186C35.9542 25.2327 36.0082 25.3478 36.0146 25.3734C36.0175 25.3845 36.0346 25.4857 36.0288 25.4385C36.0443 25.5608 36.0372 25.6912 36.0217 25.8132C35.9677 26.231 35.8049 26.674 35.5673 27.0519C35.4535 27.2327 35.5291 27.4875 35.709 27.5926C35.8989 27.7039 36.1355 27.6319 36.2496 27.4509H36.2493ZM32.3526 24.9826C31.6065 24.713 30.7443 24.6397 29.979 24.8753C29.2138 25.1109 28.6553 25.6161 28.0602 26.0955C26.8645 27.0585 25.7312 28.0947 24.566 29.0937C23.9124 29.654 23.2483 30.2024 22.5602 30.7198C22.3898 30.8478 22.3018 31.0613 22.4185 31.2605C22.5167 31.4284 22.7876 31.5314 22.9591 31.4023C24.1901 30.4768 25.3481 29.4637 26.5062 28.4494C27.0652 27.9598 27.6255 27.4719 28.1982 26.9984C28.7543 26.5385 29.2865 26.0512 29.9258 25.7358C30.0454 25.6767 29.8644 25.7566 29.988 25.7084C30.0278 25.6928 30.0676 25.6781 30.1079 25.6644C30.2027 25.6319 30.2994 25.6048 30.3971 25.5827C30.5823 25.541 30.7533 25.5284 30.9545 25.5276C31.3679 25.5263 31.7425 25.6006 32.1424 25.7453C32.337 25.8156 32.5836 25.6662 32.6284 25.4691C32.679 25.2466 32.561 25.0582 32.3523 24.9828L32.3526 24.9826ZM7.06425 33.8005C6.28132 33.7217 5.50946 33.6961 4.74419 33.9091C3.89619 34.1449 3.06638 34.4638 2.2334 34.7479C1.75026 34.9126 1.26686 35.0773 0.783721 35.2423C0.569023 35.3156 0.404904 35.5443 0.480246 35.7773C0.549265 35.9905 0.784512 36.1597 1.01502 36.0809C1.85036 35.796 2.68598 35.5111 3.52133 35.2262C3.93281 35.086 4.34245 34.939 4.75815 34.8114C4.95441 34.7511 5.1533 34.6947 5.35482 34.6544C5.37406 34.6504 5.39329 34.647 5.41252 34.6435C5.42437 34.6414 5.50656 34.628 5.45388 34.6359C5.41541 34.6417 5.52026 34.6285 5.53949 34.6267C5.63222 34.6177 5.72548 34.6124 5.81847 34.6093C6.23443 34.5958 6.65066 34.628 7.06425 34.6696C7.29133 34.6926 7.50866 34.4533 7.49891 34.2348C7.48758 33.9797 7.3074 33.8245 7.06425 33.8V33.8005ZM28.6131 34.7492C26.5162 34.8957 24.4148 34.9901 22.3231 35.2067C21.7141 35.2697 21.1063 35.3446 20.5002 35.4313C20.2744 35.4634 20.1306 35.7623 20.1967 35.9662C20.2768 36.2137 20.4894 36.3046 20.7315 36.2698C21.6801 36.1344 22.7404 36.0279 23.7446 35.9462C24.7786 35.8621 25.8141 35.7984 26.8497 35.7338C27.4377 35.6972 28.0257 35.66 28.6134 35.6192C28.8397 35.6033 29.0591 35.4305 29.0481 35.1843C29.0381 34.9624 28.8563 34.7326 28.6134 34.7495L28.6131 34.7492ZM20.4994 35.4344C18.1237 35.1748 15.8851 34.9319 13.5431 34.448C12.9191 34.3191 12.2981 34.1729 11.6846 34.0005C11.466 33.9391 11.2017 34.0762 11.1498 34.3041C11.0979 34.5321 11.2191 34.7732 11.4533 34.8391C13.77 35.4906 16.1764 35.8057 18.5613 36.0864C19.207 36.1623 19.8532 36.2335 20.4994 36.3041C20.7262 36.3289 20.9438 36.0864 20.934 35.8693C20.9224 35.6126 20.7423 35.461 20.4994 35.4344ZM9.27077 25.0023C6.95123 25.3571 4.65594 25.8665 2.40516 26.5298C1.77397 26.7159 1.14673 26.914 0.523185 27.1235C0.30796 27.1958 0.144631 27.4264 0.21971 27.6585C0.288993 27.8725 0.523712 28.0399 0.75448 27.9621C2.97813 27.2147 5.2513 26.6168 7.55529 26.1753C8.20202 26.0515 8.85112 25.9403 9.50206 25.8407C9.72756 25.8061 9.87219 25.511 9.80554 25.3057C9.72598 25.0601 9.5126 24.9649 9.27077 25.0021V25.0023ZM23.3927 31.3612C23.0813 31.3143 22.7699 31.2674 22.4585 31.2202C22.4087 31.2128 22.3874 31.289 22.4375 31.2964C22.7488 31.3433 23.0602 31.3902 23.3716 31.4374C23.4214 31.4447 23.4427 31.3686 23.3927 31.3612ZM22.0866 31.5539C22.3223 31.6603 22.5405 31.7452 22.8005 31.7665C23.042 31.7863 23.2857 31.7913 23.5278 31.8032C23.7198 31.8126 23.8834 31.6329 23.8834 31.4474C23.8834 31.2468 23.7204 31.1011 23.5278 31.0916C23.1342 31.0724 22.7912 31.0956 22.4456 30.9396C22.2707 30.8605 22.0631 30.8892 21.9591 31.0671C21.87 31.2194 21.9106 31.4745 22.0866 31.5539ZM21.0386 30.1848C20.9591 30.1613 21.0747 30.2143 21.0028 30.1727C20.9912 30.1661 20.9269 30.1157 20.9693 30.1526C20.8416 30.3181 20.7141 30.4836 20.5863 30.6494C20.7349 30.7287 20.8835 30.8078 21.0318 30.8871L21.2754 30.3092C21.2396 30.3018 21.2043 30.2936 21.1695 30.2828C21.1545 30.2783 21.1398 30.2733 21.1253 30.2678C21.1524 30.2807 21.149 30.2791 21.1148 30.2631C20.9651 30.1932 20.767 30.2161 20.6822 30.3766C20.6084 30.5166 20.6356 30.7348 20.7957 30.8094C20.8966 30.8565 20.9983 30.8969 21.1074 30.9193C21.2631 30.9509 21.4166 30.8871 21.4804 30.7361C21.5391 30.597 21.4907 30.4156 21.3511 30.3411C21.2025 30.2617 21.0539 30.1827 20.9056 30.1033C20.7654 30.0288 20.5958 30.0578 20.4978 30.1848C20.4077 30.3015 20.403 30.4968 20.5226 30.6001C20.6279 30.691 20.7362 30.7556 20.8705 30.7951C21.0291 30.8418 21.222 30.739 21.2594 30.5743C21.2968 30.4096 21.2085 30.2351 21.0386 30.1853V30.1848ZM25.9016 31.7172C26.8579 31.2091 27.7362 30.5532 28.5747 29.8714C29.4472 29.1617 30.1745 28.3058 30.9938 27.5389C31.4606 27.1019 31.9569 26.6774 32.4579 26.2931C32.6271 26.1635 32.7169 25.9529 32.5997 25.7524C32.5022 25.5858 32.2295 25.4799 32.0591 25.6106C31.131 26.3221 30.2759 27.1046 29.4651 27.9463C29.0741 28.3524 28.6819 28.7585 28.2491 29.1206C27.8421 29.4611 27.4661 29.7542 27.0391 30.0617C26.547 30.4159 26.0389 30.7503 25.503 31.0349C25.3147 31.1351 25.2567 31.3968 25.3613 31.5757C25.4727 31.7665 25.7127 31.8179 25.9019 31.7175L25.9016 31.7172ZM32.5905 26.203C32.723 26.0626 32.8555 25.9213 32.9983 25.7911C33.032 25.7605 33.0662 25.7305 33.101 25.7012C33.1118 25.6923 33.223 25.6056 33.1589 25.6535C33.2332 25.5979 33.3094 25.5452 33.3866 25.4941C33.4313 25.4646 33.4753 25.4367 33.5233 25.4129C33.5507 25.3995 33.5783 25.3868 33.6063 25.3742C33.6257 25.3655 33.7403 25.3173 33.64 25.3587C33.7016 25.3334 33.7635 25.3083 33.8265 25.2864C33.8563 25.2762 33.8871 25.2685 33.9166 25.2582C33.9284 25.2551 33.9406 25.2522 33.9527 25.2498C33.8984 25.2643 33.8441 25.2638 33.7899 25.2477C33.9922 25.2862 34.2259 25.1913 34.2759 24.9715C34.3202 24.7768 34.2172 24.5264 33.9998 24.4853C33.8157 24.4502 33.6526 24.5064 33.4843 24.5738C33.3433 24.6302 33.195 24.6853 33.0633 24.7623C32.6695 24.9921 32.342 25.3149 32.0314 25.6438C31.885 25.799 31.8776 26.0489 32.0314 26.2028C32.1853 26.3567 32.4432 26.3585 32.5902 26.2028L32.5905 26.203Z" stroke="#232323" stroke-width="0.4"/>
</svg>
