<svg width="58" height="58" viewBox="0 0 58 58" fill="none" xmlns="http://www.w3.org/2000/svg">
<g clip-path="url(#clip0_1593_15168)">
<path d="M4.15818 46.0896C3.43168 46.2598 2.55368 46.3588 2.16106 47.0674C1.31708 48.853 2.34037 50.5333 4.37768 50.589C16.6881 50.7344 29.0913 50.0474 41.4728 49.6668C43.4514 49.6111 45.4918 49.6637 47.4704 49.4966C48.5679 49.41 49.9405 49.3728 51.0813 49.3202C53.0969 49.1903 56.2256 49.7906 56.1328 46.7735V46.7147C56.0648 41.8935 51.1802 46.0958 51.7088 42.0729C52.0056 39.7799 52.593 37.6014 52.5528 35.2805C52.4415 33.7364 52.1818 32.0746 51.477 30.7007C50.7196 29.3824 48.9512 29.0266 47.727 29.8868C45.7948 31.1618 46.3141 33.7611 46.1967 35.853C46.1781 36.7968 46.1287 37.6107 46.2461 38.5545C46.308 39.7211 46.9572 41.9801 46.3605 42.6795C46.0946 42.9889 45.7175 43.1096 45.2507 43.1777C41.6429 43.1901 37.8186 42.4195 34.2232 42.599C33.3699 42.6114 32.4827 42.8249 31.6294 42.8094C29.6045 42.7847 30.8071 39.6376 30.7267 38.2729C30.7422 36.0851 30.9864 33.331 30.2692 31.2391C29.4159 29.1596 27.1591 28.2003 25.4928 30.0168C24.6704 30.7007 24.4849 31.8426 24.5251 32.8916C24.4756 34.2996 24.723 35.6457 24.9054 36.9856C25.0198 38.0346 24.9981 39.1394 25.097 40.2008C25.1311 40.863 25.3227 41.6799 24.8374 42.2091C24.2191 42.794 23.1277 42.7599 22.2992 42.8032C19.6127 42.8125 16.9076 43.4531 14.2334 43.3819C13.1792 43.3819 12.8515 42.3453 12.8515 41.4417C12.7402 39.161 12.227 36.8649 11.9179 34.6338C11.652 33.3929 11.9519 31.6538 10.7462 30.874C9.8033 30.4408 8.02567 30.3201 7.34554 31.3258C6.47373 33.1577 6.26969 35.6271 6.26351 37.5055C6.32225 38.9413 6.5201 40.4793 6.63758 41.9708C6.69323 42.6949 6.7767 43.3695 6.8138 44.0194C6.81998 44.3567 6.8138 44.6104 6.63449 44.858C6.09966 45.4243 5.03617 45.8235 4.15818 46.0958V46.0896ZM7.70106 40.7454C7.74435 39.4241 7.53412 38.1213 7.29608 36.8216C7.25279 35.3919 7.16314 32.9442 8.78928 32.3624C10.74 31.9602 10.1866 35.4167 10.3969 36.5864C10.4927 38.4214 11.3738 39.7428 11.3923 41.6614C11.4294 42.5062 11.2068 43.4995 11.2903 44.301C11.6057 46.0029 15.7978 44.8085 17.0591 44.7713C18.8274 44.4959 20.6545 44.598 22.4167 44.4155C23.4647 44.2762 24.6611 44.2577 25.5237 43.5769C26.4728 42.7599 26.8499 41.5314 26.8097 40.2317C26.6552 38.2512 26.4851 36.735 26.2378 34.6152C26.1914 33.6002 25.7215 31.7404 26.6521 31.2175C27.1529 30.939 27.8454 30.9792 28.2937 31.3474C29.1067 32.0932 28.8471 33.5971 28.9954 34.6647C29.0727 35.6643 29.1964 36.6514 29.1809 37.6509C29.1871 39.0125 28.7729 40.2689 28.8007 41.7542C28.7605 43.2519 29.2304 44.7621 31.0111 44.728C34.9992 44.3845 39.0274 44.465 43.0217 44.6599C48.9729 45.4088 48.5153 42.4969 47.9279 37.7345C47.7764 35.7757 47.4147 33.6714 48.4195 31.9106C48.7843 31.2608 49.6623 30.8523 50.2496 31.4836C51.2482 32.7462 51.1586 34.869 51.2575 36.3667C51.3502 38.5483 50.8803 40.6154 50.5526 42.7352C50.1755 45.7244 51.9283 45.3748 54.1388 45.7492C54.7323 45.9287 55.1466 46.7085 54.8746 47.1881C54.4819 47.6647 53.7214 47.7761 53.0104 47.8225L51.5141 47.8813C49.925 48.0205 49.9652 48.0051 48.4689 48.135C44.2088 48.5064 39.8776 48.494 35.5928 48.3486C33.4101 48.2681 31.2523 48.6425 29.0727 48.7694C24.5282 48.7787 19.9033 48.9551 15.3557 48.9458C12.5115 48.8746 9.59617 49.0015 6.79216 49.0943C6.00691 49.0758 2.78246 49.1222 2.78555 48.2403C2.78555 48.0298 2.87211 47.7482 3.32347 47.6492C3.91704 47.5192 4.85996 47.3769 5.43498 47.1293C8.87584 45.7028 7.80618 43.7842 7.71034 40.7454H7.70106Z" fill="#232323"/>
<path d="M2.54734 28.5963C5.13804 28.7727 7.7751 28.4818 10.3751 28.4106C14.8794 28.2033 19.393 27.9867 23.9036 27.9403C33.9294 27.9031 43.8841 28.3271 53.8944 28.0609C55.6751 28.0455 57.5919 27.3894 57.5269 25.344V25.2883C57.3507 22.6116 55.4494 20.4021 53.8047 18.4061C50.741 14.7454 47.1889 12.1027 43.6615 9.07007C41.9735 7.594 40.5916 6.21385 38.9438 4.91108C38.0102 4.21791 37.1013 3.65781 36.2295 2.92441C33.4069 0.448822 29.187 -0.983926 25.6348 0.789216C23.4677 1.99297 21.5231 3.65162 19.56 5.2917C13.8221 10.7875 7.66999 16.1472 2.87814 22.4878C1.49004 24.3568 -1.8117 28.1012 2.54734 28.5932V28.5963ZM3.82723 23.6296C7.34538 19.2881 11.7663 15.6706 15.7358 11.8304C17.9555 9.68587 20.0268 7.39285 22.3794 5.38144C24.2622 3.87442 26.216 1.9218 28.6861 1.73922C32.869 1.6402 36.6963 5.48356 39.794 7.95605C44.7775 12.4307 50.3762 16.3514 54.3117 21.841C54.9548 22.7137 55.7122 23.9267 55.4896 24.9819L55.4804 25.0283C54.8868 27.0676 52.0364 26.4147 50.3855 26.4116C47.3496 26.3249 44.3509 26.5354 41.3274 26.3497C28.7974 25.6287 16.2211 26.4828 3.66029 26.8417C1.27364 26.7489 3.04199 24.6261 3.83032 23.6327L3.82723 23.6296Z" fill="#232323"/>
<path d="M55.8327 51.2142C53.9871 50.6169 51.7983 50.7593 49.829 50.7748C47.5753 50.8181 45.3277 50.9078 43.0771 51.013C34.0499 51.437 25.001 51.8981 15.949 52.028C13.8283 52.028 11.7415 51.9383 9.6578 51.8795C6.81978 51.9012 0.673843 51.273 0.00298362 54.8378V54.8781C-0.012474 57.233 3.29854 57.9478 5.26784 57.9664C8.03166 58.0778 10.2019 57.858 12.7648 57.8488C18.3233 57.7838 23.6871 58.0963 29.1746 57.8302C31.3788 57.7033 33.3141 57.8147 35.5122 57.8828C39.0056 57.9416 42.6134 57.9107 46.113 57.7714C49.4889 57.4527 53.0473 57.7869 56.1512 56.2396C58.6738 54.9028 58.6615 52.1023 55.8327 51.2111V51.2142ZM54.5652 55.0204C53.8511 55.2772 53.0473 55.4196 52.2806 55.5124C49.2107 55.8838 46.0852 55.7631 43.0029 55.825C39.7537 55.8807 36.2387 56.0787 32.8627 56.1499C25.2298 56.286 17.5783 56.1623 9.93913 56.3417C7.62976 56.3325 4.94632 56.611 2.75753 55.9797C1.91973 55.7445 1.36016 55.104 2.10522 54.55L2.12995 54.5315C3.25835 53.6464 5.80577 53.6279 7.40408 53.6372C10.0875 53.6557 12.9101 53.6619 15.6306 53.6495C19.3652 53.6743 23.0564 53.4855 26.6921 53.3277C29.326 53.2411 31.9786 53.2844 34.6465 53.1142C39.7136 52.6748 44.7373 52.4613 49.8197 52.3282C51.3593 52.2818 53.0133 52.1271 54.5127 52.4148C56.9086 52.8821 56.7756 54.2715 54.5652 55.0235V55.0204Z" fill="#232323"/>
</g>
<defs>
<clipPath id="clip0_1593_15168">
<rect width="58" height="58" fill="white"/>
</clipPath>
</defs>
</svg>
