<svg width="1480" height="79" viewBox="0 0 1480 79" fill="none" xmlns="http://www.w3.org/2000/svg">
<path d="M16 32.1107C10.6667 32.1473 5.33333 32.1838 0 32.2204C0 21.4806 0 10.7408 0 0.00094986C5.33333 0.037529 10.6667 0.07411 16 0.110689C24.9802 0.172445 34.0146 0.234203 43.0126 0.295959C58.0968 0.374941 73.417 0.279604 88.7645 0.264605C159.445 0.144875 230.095 0.505939 300.975 0.994118C518.582 2.59159 736.543 5.05799 954.075 6.67517C1022.64 7.14949 1090.69 7.63936 1159.07 8.08125C1195.22 8.30388 1231.3 8.53332 1267.45 8.77427C1312.02 9.16933 1356.58 9.81577 1401.14 10.318C1425.45 10.5967 1449.73 10.869 1474 11.039C1475.99 11.0524 1477.97 11.0659 1479.96 11.0793C1479.96 15.052 1479.96 19.0248 1479.96 22.9975C1477.97 23.0114 1475.99 23.0252 1474 23.039C1449.68 23.2023 1425.4 23.2632 1401.08 23.3179C1356.52 23.4267 1311.88 23.3913 1267.45 23.6076C1231.3 23.8622 1195.23 24.1283 1159.08 24.4013C1090.68 24.8967 1022.64 25.3442 954.072 25.8072C736.471 27.1762 518.485 27.6961 300.971 29.085C230.136 29.5665 159.556 30.1753 89.0287 31.2635C73.6731 31.488 58.5275 31.7932 43.0126 31.9254C34.0146 31.9872 24.9802 32.0489 16 32.1107Z" fill="#232323"/>
<path d="M0 78.1465C0 60.4798 0 42.8132 0 25.1465C9.11576 25.2488 18.2864 25.3511 27.4202 25.4534C42.4238 25.5896 58.099 25.4631 73.672 25.4567C145.527 25.3516 217.296 25.9691 289.278 26.7771C510.235 29.4067 731.466 33.3395 952.231 35.9985C1021.83 36.7833 1090.91 37.5913 1160.31 38.3273C1197 38.7 1233.63 39.0829 1270.33 39.483C1315.67 40.1237 1360.86 41.141 1406.08 41.9421C1430.75 42.386 1455.39 42.8205 1480 43.1015C1480 49.7265 1480 56.3515 1480 62.9765C1455.28 63.2475 1430.63 63.3648 1405.93 63.4728C1360.71 63.6837 1315.33 63.6782 1270.34 64.0508C1233.64 64.4714 1197.03 64.9093 1160.33 65.3574C1090.89 66.1738 1021.83 66.9182 952.225 67.686C731.29 69.9727 509.999 70.9858 289.268 73.3025C217.395 74.1005 145.799 75.0896 74.3186 76.7964C58.7258 77.1493 43.4779 77.6236 27.4202 77.8396C18.2864 77.9419 9.11576 78.0442 0 78.1465Z" fill="#232323"/>
<rect y="17.9629" width="1480" height="34.4923" fill="#232323"/>
</svg>
