<svg width="301" height="26" viewBox="0 0 301 26" fill="none" xmlns="http://www.w3.org/2000/svg">
<path d="M0 25.9118C0 17.5785 0 9.24514 0 0.911808C1.85395 0.960035 3.71907 1.00826 5.57668 1.05649C7.11212 1.13393 10.9015 0.819418 14.0317 0.651952C29.1526 -0.220198 44.0339 -0.0874233 58.8479 0.297572C104.121 1.67622 149.01 4.78785 193.672 6.19955C207.817 6.57689 221.899 6.98511 235.946 7.29779C243.407 7.44099 250.878 7.59771 258.346 7.77756C268.084 8.20673 276.981 9.12313 286.184 9.7536C291.16 10.1063 296.144 10.4448 300.995 10.581C300.998 13.706 301.002 16.831 301.005 19.956C295.819 20.0786 290.779 19.9941 285.721 19.8993C276.525 19.7427 267.023 19.2961 258.367 19.3671C250.911 19.5743 243.487 19.8043 236.025 20.0481C221.832 20.4679 207.82 20.7914 193.653 21.1461C148.465 22.0611 103.392 21.2804 58.8158 22.2415C44.3395 22.6122 30.0023 23.246 16.0257 24.7885C12.8298 25.0994 10.3656 25.5825 5.57668 25.7671C3.71907 25.8154 1.85395 25.8636 0 25.9118Z" fill="#FBFBFB"/>
</svg>
