<svg width="52" height="629" viewBox="0 0 52 629" fill="none" xmlns="http://www.w3.org/2000/svg">
<g clip-path="url(#clip0_2895_7772)">
<mask id="mask0_2895_7772" style="mask-type:alpha" maskUnits="userSpaceOnUse" x="0" y="-198" width="53" height="1026">
<path d="M30.0338 -198H22.0248V288.854C9.55039 290.78 0 301.563 0 314.577C0 327.591 9.55039 338.374 22.0248 340.3V827.154H30.0338V340.3C42.5082 338.374 52.0586 327.591 52.0586 314.577C52.0586 301.563 42.5082 290.78 30.0338 288.854V-198Z" fill="#C4C4C4"/>
</mask>
<g mask="url(#mask0_2895_7772)">
<rect y="-198" width="52.0586" height="1025.15" fill="#FBFBFB"/>
<path d="M34.7907 309.885C34.129 309.914 33.4662 309.927 32.8036 309.913C32.6167 309.909 32.4299 309.902 32.2432 309.894C32.2006 309.892 32.2006 309.957 32.2432 309.959C32.904 309.99 33.566 309.99 34.227 309.971C34.4148 309.966 34.6029 309.959 34.7907 309.95C34.8331 309.948 34.8333 309.883 34.7907 309.885Z" fill="#232323"/>
<path d="M24.6043 305.679C24.2794 305.491 23.9558 305.301 23.6336 305.108C23.4705 305.011 23.2261 305.067 23.1352 305.237C23.0443 305.406 23.0917 305.624 23.2659 305.728C23.5881 305.92 23.9115 306.111 24.2366 306.299C24.401 306.394 24.6431 306.341 24.7349 306.17C24.8268 305.999 24.7798 305.78 24.6043 305.679Z" fill="#232323"/>
<path d="M34.1937 309.836C34.1069 309.83 34.0204 309.824 33.9339 309.816C33.8884 309.811 33.843 309.807 33.7975 309.801C33.7783 309.799 33.7589 309.797 33.7397 309.794C33.6757 309.786 33.7854 309.801 33.722 309.792C33.5543 309.767 33.3876 309.737 33.2223 309.699C32.8888 309.624 32.5624 309.522 32.2423 309.403C32.1644 309.374 32.087 309.344 32.0097 309.314C31.9141 309.276 31.8826 309.263 31.806 309.23C31.7025 309.187 31.5987 309.147 31.4935 309.108C31.3882 309.069 31.2917 309.033 31.1906 308.996C31.1524 308.982 31.1143 308.967 31.0756 308.954C31.037 308.942 31.082 308.961 31.0982 308.965C31.0476 308.954 30.9929 308.918 30.9461 308.897C29.6564 308.32 28.3743 307.726 27.124 307.07C26.7651 306.881 26.4088 306.688 26.055 306.491C25.8674 306.386 25.6816 306.278 25.4946 306.172C25.4397 306.141 25.3821 306.116 25.3227 306.094C25.3064 306.089 25.2889 306.085 25.2728 306.078C25.2494 306.071 25.2508 306.071 25.2766 306.077L25.2404 306.056C25.1581 305.998 25.0676 305.946 24.9799 305.895C24.8155 305.8 24.5734 305.853 24.4816 306.024C24.3897 306.195 24.4368 306.413 24.6122 306.515C24.6831 306.556 24.7513 306.601 24.8208 306.644C24.9199 306.706 25.0252 306.737 25.1289 306.786C25.0823 306.764 25.1695 306.817 25.1817 306.824C25.224 306.848 25.2666 306.873 25.3092 306.897C25.3933 306.945 25.4776 306.993 25.562 307.04C25.8829 307.221 26.2058 307.398 26.5311 307.571C27.1602 307.905 27.7974 308.225 28.4403 308.533C29.0921 308.845 29.7494 309.145 30.4089 309.441C30.655 309.551 30.9008 309.653 31.1536 309.747C31.2438 309.78 31.3334 309.817 31.4253 309.846C31.4654 309.859 31.4173 309.841 31.4014 309.835C31.4445 309.852 31.4868 309.871 31.5297 309.889C31.6307 309.931 31.732 309.973 31.8338 310.013C32.5922 310.313 33.3762 310.504 34.1932 310.553C34.3837 310.565 34.5658 310.38 34.5574 310.195C34.5481 309.991 34.3974 309.848 34.1932 309.836L34.1937 309.836Z" fill="#232323"/>
<path d="M22.4757 304.922C22.0005 304.933 21.5253 304.953 21.0499 304.944C20.576 304.935 20.1026 304.884 19.6329 304.821C19.6501 304.824 19.6819 304.828 19.604 304.818C19.576 304.814 19.5481 304.81 19.5203 304.806C19.4645 304.798 19.4087 304.79 19.3528 304.781C19.2338 304.762 19.1151 304.742 18.9966 304.721C18.7633 304.678 18.5313 304.628 18.3013 304.57C18.0782 304.514 17.8535 304.467 17.6341 304.397C17.5999 304.386 17.5657 304.371 17.5308 304.363C17.4816 304.351 17.6262 304.41 17.5604 304.375C17.5277 304.357 17.4948 304.341 17.4635 304.322C17.418 304.294 17.3549 304.232 17.4368 304.307C17.407 304.28 17.3743 304.256 17.345 304.227C17.3156 304.199 17.2885 304.172 17.262 304.142C17.2483 304.127 17.2351 304.112 17.222 304.097C17.2154 304.089 17.2092 304.081 17.2026 304.073C17.1616 304.025 17.2573 304.149 17.2214 304.097C17.1713 304.025 17.1216 303.954 17.0792 303.877C17.0583 303.839 17.0395 303.8 17.0205 303.762C17.0157 303.752 17.0121 303.742 17.0071 303.732C16.9868 303.695 17.0382 303.813 17.0245 303.774C17.0165 303.751 17.0062 303.728 16.9978 303.706C16.966 303.62 16.9406 303.532 16.923 303.442C16.9188 303.421 16.9159 303.4 16.9119 303.379C16.9013 303.322 16.9214 303.481 16.915 303.396C16.9117 303.351 16.9084 303.307 16.9084 303.263C16.9084 303.221 16.9124 303.18 16.9148 303.139C16.9192 303.063 16.8956 303.231 16.9124 303.158C16.9174 303.135 16.921 303.113 16.9263 303.09C16.936 303.05 16.949 303.012 16.9623 302.973C16.989 302.895 16.9289 303.037 16.9554 302.988C16.9678 302.966 16.9784 302.942 16.9914 302.919C17.0031 302.899 17.0165 302.88 17.0291 302.86C17.0786 302.781 16.9918 302.898 17.0252 302.862C17.0614 302.824 17.0969 302.786 17.1357 302.75C17.2059 302.684 17.0956 302.773 17.1373 302.746C17.1629 302.729 17.1872 302.711 17.2132 302.696C17.2353 302.682 17.3635 302.633 17.3688 302.615C17.3635 302.633 17.2911 302.644 17.3392 302.627C17.3595 302.62 17.3792 302.612 17.3995 302.605C17.431 302.594 17.4631 302.584 17.4953 302.575C17.5688 302.554 17.6436 302.538 17.7191 302.525C17.7361 302.522 17.7531 302.519 17.7701 302.516C17.8394 302.505 17.7182 302.52 17.7659 302.517C17.8076 302.514 17.8493 302.508 17.8912 302.506C17.9925 302.498 18.0943 302.496 18.1958 302.497C18.3863 302.499 18.5688 302.331 18.56 302.139C18.5512 301.946 18.4 301.782 18.1958 301.78C17.6096 301.774 16.9168 301.88 16.5155 302.349C16.1902 302.728 16.1213 303.221 16.2346 303.696C16.3299 304.096 16.5588 304.501 16.8731 304.774C17.079 304.953 17.2971 305.049 17.5597 305.125C18.034 305.264 18.5256 305.368 19.0129 305.449C19.5848 305.544 20.171 305.625 20.7506 305.652C21.3256 305.679 21.901 305.653 22.4757 305.64C22.666 305.635 22.8489 305.478 22.8399 305.281C22.8308 305.084 22.6796 304.917 22.4757 304.922Z" fill="#232323"/>
<path d="M25.9573 298.687C27.3332 299.295 28.7118 299.896 30.0904 300.497C31.4275 301.081 32.761 301.672 34.0992 302.253C34.7393 302.531 35.3919 302.807 35.9779 303.187C36.1373 303.291 36.3878 303.224 36.4763 303.059C36.5728 302.879 36.5158 302.678 36.3456 302.568C35.8252 302.23 35.2509 301.976 34.6828 301.728C34.0502 301.451 33.4181 301.173 32.7857 300.896C31.4087 300.291 30.0299 299.692 28.652 299.089C27.8757 298.75 27.0999 298.409 26.325 298.067C26.1515 297.991 25.9253 298.012 25.8266 298.196C25.7427 298.352 25.7716 298.605 25.9573 298.687Z" fill="#232323"/>
<path d="M26.0297 298C23.3641 298.007 20.8872 299.119 18.4126 299.958C17.6884 300.203 16.9634 300.445 16.2445 300.705C16.0661 300.77 15.926 300.952 15.9902 301.147C16.0469 301.319 16.2467 301.466 16.4383 301.397C17.6986 300.941 18.9774 300.537 20.2377 300.08C21.4443 299.644 22.6596 299.211 23.9198 298.949C24.0947 298.913 24.2699 298.88 24.446 298.851C24.5407 298.835 24.6356 298.821 24.7308 298.807C24.8636 298.787 24.6637 298.814 24.797 298.798C24.8378 298.793 24.8786 298.788 24.9195 298.783C25.2881 298.741 25.6586 298.719 26.0299 298.718C26.2204 298.717 26.4029 298.553 26.3941 298.359C26.3852 298.165 26.2338 297.999 26.0297 298Z" fill="#232323"/>
<path d="M16.1536 300.749C15.2422 301.426 14.5227 302.292 13.8884 303.221C13.2225 304.196 12.6239 305.218 12.0037 306.222C11.6523 306.791 11.195 307.392 11.2056 308.089C11.2084 308.276 11.3711 308.456 11.5697 308.447C11.7684 308.439 11.937 308.29 11.9339 308.089C11.9333 308.051 11.9355 308.014 11.9357 307.977C11.9364 307.865 11.9275 308.009 11.9377 307.944C11.9478 307.88 11.965 307.812 11.9851 307.747C11.9924 307.723 12.0004 307.7 12.0087 307.677C12.0079 307.679 12.052 307.565 12.0275 307.623C12.0569 307.554 12.092 307.486 12.1275 307.419C12.2606 307.171 12.4164 306.934 12.5647 306.694C12.8881 306.17 13.2114 305.647 13.5348 305.123C13.8162 304.668 14.0965 304.212 14.3936 303.766C14.6858 303.328 14.9743 302.927 15.2879 302.556C15.4764 302.334 15.6746 302.119 15.8847 301.916C15.9896 301.814 16.0973 301.716 16.2081 301.621C16.2635 301.573 16.3198 301.526 16.3769 301.48C16.4008 301.461 16.4246 301.442 16.4486 301.423C16.4678 301.408 16.4873 301.393 16.5067 301.378C16.4818 301.397 16.4866 301.394 16.521 301.368C16.6727 301.255 16.7669 301.053 16.6517 300.877C16.555 300.729 16.316 300.627 16.1533 300.748L16.1536 300.749Z" fill="#232323"/>
<path d="M11.3287 308.387C12.1586 309.04 13.2935 309.326 14.2865 308.859C14.7847 308.624 15.1862 308.213 15.5737 307.835C15.9637 307.455 16.3431 307.065 16.7144 306.667C17.1355 306.215 17.5465 305.754 17.9451 305.284C18.0669 305.14 18.0989 304.915 17.9451 304.776C17.8105 304.655 17.5604 304.623 17.4302 304.776C16.7594 305.568 16.0567 306.334 15.3215 307.069C15.1451 307.245 14.9665 307.419 14.7853 307.59C14.6154 307.751 14.4154 307.932 14.2625 308.038C14.164 308.107 14.061 308.169 13.9532 308.223C13.9305 308.234 13.9076 308.245 13.8844 308.255C13.9455 308.227 13.8436 308.271 13.8409 308.272C13.7877 308.291 13.7334 308.308 13.6787 308.323C13.6239 308.337 13.569 308.349 13.5134 308.359C13.4913 308.363 13.4688 308.367 13.4465 308.37C13.518 308.36 13.4434 308.369 13.4255 308.37C13.307 308.38 13.1876 308.38 13.0691 308.371C13.0463 308.369 13.0238 308.367 13.0011 308.365C12.9137 308.357 13.041 308.374 12.9622 308.36C12.8945 308.347 12.8272 308.335 12.7601 308.319C12.6422 308.29 12.5272 308.253 12.4142 308.209C12.3528 308.185 12.4897 308.244 12.3893 308.198C12.3577 308.184 12.3261 308.169 12.295 308.154C12.2379 308.126 12.1818 308.097 12.1266 308.065C12.0714 308.033 12.0176 308 11.9648 307.965C11.9456 307.952 11.9266 307.939 11.9079 307.926C11.8891 307.913 11.8706 307.9 11.852 307.886C11.8801 307.908 11.8774 307.906 11.8441 307.879C11.6956 307.762 11.4722 307.726 11.3292 307.879C11.208 308.009 11.1703 308.262 11.3292 308.387H11.3287Z" fill="#232323"/>
<path d="M11.7977 308.518C11.5991 308.829 11.4585 309.175 11.381 309.534C11.3036 309.893 11.2627 310.294 11.4455 310.628C11.7161 311.124 12.3562 311.164 12.86 311.138C13.2867 311.116 13.7045 311.031 14.1073 310.892C14.2759 310.833 14.3883 310.669 14.3386 310.491C14.2936 310.33 14.1009 310.204 13.9314 310.263C13.559 310.391 13.1902 310.471 12.8126 310.488C12.6866 310.494 12.5603 310.496 12.4345 310.486C12.4162 310.485 12.3034 310.469 12.3957 310.484C12.3626 310.479 12.3297 310.473 12.2968 310.466C12.2639 310.459 12.233 310.451 12.2019 310.441C12.1864 310.436 12.1714 310.431 12.1562 310.425C12.1946 310.442 12.2028 310.446 12.1805 310.435C12.158 310.421 12.131 310.411 12.1078 310.398C12.0946 310.39 12.0818 310.381 12.069 310.372C12.105 310.401 12.1094 310.403 12.0818 310.38C12.067 310.365 12.0076 310.289 12.0555 310.36C12.0372 310.333 12.0213 310.306 12.0057 310.277C12.0449 310.348 11.9997 310.253 11.9944 310.232C11.992 310.223 11.9776 310.139 11.9825 310.178C11.9695 310.078 11.9754 309.97 11.9884 309.869C12.0337 309.525 12.1701 309.159 12.3692 308.847C12.4645 308.698 12.4012 308.488 12.2504 308.401C12.0913 308.309 11.8933 308.369 11.7977 308.518Z" fill="#232323"/>
<path d="M15.0626 310.555C15.6876 310.777 16.41 310.837 17.0512 310.643C17.6767 310.453 18.1603 310.032 18.6589 309.636C19.6607 308.842 20.6102 307.987 21.5864 307.163C22.134 306.701 22.6905 306.248 23.267 305.821C23.4098 305.716 23.4835 305.54 23.3857 305.375C23.3034 305.237 23.0765 305.152 22.9328 305.258C21.9014 306.022 20.9311 306.858 19.9609 307.694C19.4925 308.098 19.0231 308.501 18.5432 308.892C18.0634 309.282 17.6315 309.673 17.0958 309.933C16.9956 309.982 17.1472 309.916 17.0437 309.956C17.0104 309.969 16.977 309.981 16.9433 309.992C16.8638 310.019 16.7828 310.041 16.7009 310.059C16.5458 310.094 16.4025 310.104 16.2339 310.105C15.8876 310.106 15.5737 310.045 15.2387 309.925C15.0756 309.867 14.869 309.991 14.8315 310.153C14.7891 310.337 14.8878 310.492 15.0626 310.555Z" fill="#232323"/>
<path d="M18.728 309.604C18.9666 309.816 19.2334 310.035 19.557 310.101C19.9536 310.182 20.3284 310.061 20.691 309.91C20.8557 309.841 20.8916 309.602 20.8098 309.464C20.71 309.296 20.5222 309.278 20.3568 309.347C20.2394 309.396 20.0812 309.44 19.9408 309.471C19.9015 309.477 19.9028 309.477 19.945 309.471C19.9271 309.473 19.9092 309.475 19.8914 309.476C19.8655 309.477 19.8397 309.478 19.8139 309.478C19.8044 309.478 19.7042 309.475 19.7598 309.477C19.8154 309.48 19.7216 309.47 19.7102 309.467C19.6874 309.462 19.6647 309.455 19.6424 309.448C19.6276 309.444 19.6128 309.439 19.5982 309.433C19.6408 309.451 19.6455 309.453 19.6119 309.438C19.5607 309.412 19.5104 309.386 19.4621 309.355C19.4402 309.341 19.4195 309.326 19.3978 309.311C19.3685 309.29 19.3691 309.29 19.3998 309.314C19.385 309.303 19.3705 309.291 19.3559 309.279C19.3014 309.235 19.2486 309.19 19.1963 309.143C19.0635 309.025 18.8591 309.014 18.7282 309.143C18.6066 309.263 18.5947 309.486 18.728 309.604Z" fill="#232323"/>
<path d="M36.2499 303.28C36.9058 303.345 37.5525 303.366 38.1937 303.19C38.9042 302.996 39.5994 302.733 40.2973 302.498C40.7021 302.362 41.1071 302.226 41.5119 302.09C41.6918 302.03 41.8293 301.841 41.7662 301.649C41.7084 301.473 41.5113 301.333 41.3181 301.398C40.6182 301.633 39.9181 301.869 39.2183 302.104C38.8735 302.219 38.5303 302.341 38.182 302.446C38.0176 302.496 37.8509 302.542 37.6821 302.575C37.666 302.579 37.6499 302.581 37.6337 302.584C37.6238 302.586 37.5549 302.597 37.5991 302.591C37.6313 302.586 37.5435 302.597 37.5274 302.598C37.4497 302.606 37.3715 302.61 37.2936 302.613C36.9451 302.624 36.5964 302.597 36.2499 302.563C36.0596 302.544 35.8775 302.741 35.8857 302.921C35.8952 303.132 36.0461 303.26 36.2499 303.28V303.28Z" fill="#232323"/>
<path d="M18.1954 302.497C19.9523 302.376 21.7129 302.298 23.4654 302.12C23.9757 302.068 24.4849 302.006 24.9927 301.934C25.1819 301.908 25.3024 301.661 25.247 301.493C25.1799 301.289 25.0018 301.214 24.799 301.243C24.0042 301.354 23.1158 301.442 22.2744 301.51C21.4081 301.579 20.5405 301.632 19.6729 301.685C19.1802 301.715 18.6876 301.746 18.1952 301.779C18.0056 301.792 17.8217 301.935 17.831 302.138C17.8394 302.321 17.9919 302.511 18.1954 302.497Z" fill="#232323"/>
<path d="M24.9934 301.932C26.9838 302.146 28.8594 302.346 30.8216 302.746C31.3445 302.852 31.8647 302.973 32.3787 303.115C32.5619 303.165 32.7833 303.052 32.8268 302.864C32.8709 302.674 32.7687 302.477 32.5725 302.423C30.6316 301.885 28.6153 301.625 26.6172 301.394C26.0762 301.331 25.5348 301.273 24.9934 301.214C24.8034 301.194 24.6211 301.394 24.6292 301.573C24.6389 301.785 24.7899 301.91 24.9934 301.932Z" fill="#232323"/>
<path d="M34.4011 310.538C36.3445 310.246 38.2676 309.825 40.1534 309.278C40.6823 309.125 41.2078 308.961 41.7302 308.788C41.9105 308.729 42.0474 308.538 41.9845 308.347C41.9264 308.17 41.7298 308.032 41.5364 308.096C39.6734 308.713 37.7688 309.206 35.8384 309.571C35.2966 309.673 34.7527 309.764 34.2074 309.847C34.0184 309.875 33.8973 310.119 33.9531 310.288C34.0198 310.491 34.1985 310.569 34.4011 310.538Z" fill="#232323"/>
<path d="M22.5693 305.292C22.8302 305.331 23.0911 305.37 23.3519 305.408C23.3937 305.415 23.4115 305.352 23.3696 305.346C23.1087 305.307 22.8478 305.268 22.5869 305.229C22.5452 305.223 22.5274 305.286 22.5693 305.292Z" fill="#232323"/>
<path d="M23.6638 305.133C23.4663 305.045 23.2835 304.975 23.0657 304.958C22.8633 304.941 22.6591 304.937 22.4563 304.928C22.2954 304.92 22.1583 305.068 22.1583 305.221C22.1583 305.387 22.2949 305.507 22.4563 305.515C22.786 305.53 23.0734 305.511 23.363 305.64C23.5095 305.705 23.6835 305.682 23.7706 305.535C23.8452 305.409 23.8113 305.199 23.6638 305.133Z" fill="#232323"/>
<path d="M20.691 309.91C21.2944 309.549 21.8281 309.087 22.3442 308.616C22.5991 308.383 22.8511 308.147 23.1096 307.918C23.2325 307.809 23.357 307.702 23.4839 307.597C23.5488 307.544 23.6144 307.491 23.6808 307.439C23.6941 307.429 23.7073 307.419 23.7205 307.409C23.6841 307.437 23.7285 307.403 23.7333 307.399C23.7689 307.373 23.8046 307.346 23.8406 307.32C24.1417 307.104 24.4615 306.913 24.8042 306.768C24.9685 306.698 25.0053 306.46 24.923 306.322C24.8237 306.154 24.635 306.135 24.4701 306.205C23.2045 306.741 22.2938 307.833 21.2642 308.693C21.1892 308.756 21.1132 308.818 21.0362 308.879C20.9499 308.947 20.9336 308.959 20.8426 309.025C20.6855 309.139 20.5237 309.247 20.3568 309.347C20.2041 309.438 20.1465 309.639 20.2379 309.793C20.3293 309.946 20.5376 310.002 20.691 309.91Z" fill="#232323"/>
<path d="M24.5416 306.263C24.6083 306.282 24.5114 306.238 24.5716 306.273C24.5813 306.278 24.6352 306.32 24.5996 306.289L24.9206 305.879C24.7961 305.814 24.6716 305.749 24.5473 305.683L24.3432 306.16C24.3732 306.166 24.4028 306.173 24.4319 306.182C24.4445 306.186 24.4568 306.19 24.469 306.194C24.4462 306.184 24.4491 306.185 24.4778 306.198C24.6032 306.256 24.7692 306.237 24.8402 306.104C24.902 305.989 24.8793 305.809 24.7451 305.747C24.6606 305.709 24.5754 305.675 24.484 305.657C24.3535 305.631 24.2249 305.683 24.1715 305.808C24.1222 305.923 24.1629 306.072 24.2798 306.134C24.4043 306.199 24.5288 306.264 24.6531 306.33C24.7705 306.391 24.9126 306.368 24.9947 306.263C25.0702 306.166 25.0742 306.005 24.974 305.92C24.8857 305.845 24.795 305.792 24.6824 305.759C24.5495 305.721 24.388 305.805 24.3566 305.941C24.3253 306.077 24.3992 306.221 24.5416 306.262V306.263Z" fill="#232323"/>
<path d="M20.4672 304.998C19.666 305.418 18.9301 305.959 18.2276 306.521C17.4966 307.107 16.8872 307.813 16.2008 308.446C15.8097 308.806 15.3939 309.156 14.9741 309.473C14.8324 309.58 14.7571 309.754 14.8553 309.919C14.937 310.057 15.1654 310.144 15.3082 310.036C16.0858 309.449 16.8022 308.804 17.4816 308.109C17.8091 307.774 18.1378 307.439 18.5004 307.141C18.8414 306.86 19.1564 306.618 19.5142 306.364C19.9265 306.072 20.3522 305.796 20.8011 305.561C20.959 305.479 21.0075 305.263 20.9199 305.115C20.8265 304.958 20.6257 304.916 20.4672 304.998Z" fill="#232323"/>
<path d="M14.8633 309.548C14.7522 309.664 14.6412 309.78 14.5216 309.887C14.4933 309.913 14.4646 309.938 14.4355 309.962C14.4265 309.969 14.3333 310.041 14.387 310.001C14.3247 310.047 14.2609 310.09 14.1963 310.133C14.1587 310.157 14.1219 310.18 14.0817 310.199C14.0587 310.211 14.0356 310.221 14.0122 310.231C13.9958 310.239 13.8998 310.278 13.9839 310.244C13.9323 310.265 13.8804 310.286 13.8277 310.304C13.8027 310.312 13.7769 310.319 13.7522 310.327C13.7422 310.33 13.7321 310.332 13.7219 310.334C13.7674 310.322 13.8129 310.323 13.8583 310.336C13.6888 310.304 13.4931 310.382 13.4511 310.564C13.414 310.724 13.5003 310.931 13.6824 310.965C13.8367 310.994 13.9733 310.947 14.1144 310.892C14.2325 310.845 14.3567 310.8 14.4671 310.736C14.797 310.547 15.0714 310.28 15.3316 310.009C15.4543 309.881 15.4605 309.675 15.3316 309.548C15.2027 309.421 14.9864 309.419 14.8633 309.548Z" fill="#232323"/>
<path d="M18.2095 319.115C18.8712 319.086 19.534 319.073 20.1966 319.087C20.3836 319.091 20.5703 319.098 20.757 319.106C20.7996 319.108 20.7996 319.043 20.757 319.041C20.0962 319.01 19.4343 319.01 18.7732 319.029C18.5854 319.034 18.3973 319.041 18.2095 319.05C18.1671 319.052 18.1669 319.117 18.2095 319.115Z" fill="#232323"/>
<path d="M28.3957 323.321C28.7206 323.509 29.0442 323.699 29.3664 323.892C29.5295 323.989 29.7739 323.933 29.8648 323.763C29.9557 323.594 29.9083 323.376 29.7341 323.272C29.4119 323.08 29.0885 322.889 28.7634 322.701C28.599 322.606 28.3569 322.659 28.2651 322.83C28.1732 323.001 28.2203 323.22 28.3957 323.321Z" fill="#232323"/>
<path d="M18.8063 319.164C18.8931 319.17 18.9796 319.176 19.0661 319.184C19.1116 319.189 19.157 319.193 19.2025 319.199C19.2217 319.201 19.2411 319.203 19.2603 319.206C19.3243 319.214 19.2146 319.199 19.278 319.208C19.4457 319.233 19.6124 319.263 19.7777 319.301C20.1112 319.376 20.4376 319.478 20.7577 319.597C20.8356 319.626 20.913 319.656 20.9903 319.686C21.0859 319.724 21.1174 319.737 21.194 319.77C21.2975 319.813 21.4013 319.853 21.5065 319.892C21.6118 319.931 21.7083 319.967 21.8094 320.004C21.8476 320.018 21.8857 320.033 21.9244 320.046C21.963 320.058 21.918 320.039 21.9018 320.035C21.9524 320.046 22.0071 320.082 22.0539 320.103C23.3436 320.68 24.6257 321.274 25.876 321.93C26.2349 322.119 26.5912 322.312 26.945 322.509C27.1326 322.614 27.3184 322.722 27.5054 322.828C27.5603 322.859 27.6179 322.884 27.6773 322.906C27.6936 322.911 27.7111 322.915 27.7272 322.922C27.7506 322.929 27.7492 322.929 27.7234 322.923L27.7596 322.944C27.8419 323.002 27.9324 323.054 28.0201 323.105C28.1845 323.2 28.4266 323.147 28.5184 322.976C28.6109 322.804 28.5632 322.587 28.3878 322.485C28.3169 322.444 28.2487 322.399 28.1792 322.356C28.0801 322.294 27.9748 322.263 27.8711 322.214C27.9177 322.236 27.8305 322.183 27.8183 322.176C27.776 322.152 27.7334 322.127 27.6908 322.103C27.6067 322.055 27.5224 322.007 27.438 321.96C27.1171 321.779 26.7942 321.602 26.4689 321.429C25.8398 321.095 25.2026 320.775 24.5597 320.467C23.9079 320.155 23.2506 319.855 22.5911 319.559C22.345 319.449 22.0992 319.347 21.8464 319.253C21.7562 319.22 21.6666 319.183 21.5747 319.154C21.5346 319.141 21.5827 319.159 21.5986 319.165C21.5555 319.148 21.5132 319.129 21.4704 319.111C21.3693 319.069 21.268 319.027 21.1662 318.987C20.4078 318.687 19.6239 318.496 18.8068 318.447C18.6163 318.435 18.4342 318.62 18.4426 318.805C18.4519 319.009 18.6026 319.152 18.8068 319.164L18.8063 319.164Z" fill="#232323"/>
<path d="M30.5245 324.078C30.9997 324.067 31.4749 324.047 31.9503 324.056C32.4242 324.065 32.8976 324.116 33.3673 324.179C33.3501 324.176 33.3183 324.172 33.3962 324.182C33.4243 324.186 33.4521 324.19 33.4799 324.194C33.5357 324.202 33.5916 324.211 33.6474 324.219C33.7664 324.238 33.8851 324.258 34.0036 324.279C34.2369 324.322 34.4689 324.372 34.6989 324.43C34.922 324.486 35.1467 324.533 35.3661 324.603C35.4003 324.614 35.4345 324.629 35.4694 324.637C35.5186 324.649 35.3741 324.59 35.4398 324.625C35.4725 324.643 35.5054 324.659 35.5367 324.678C35.5822 324.706 35.6453 324.768 35.5634 324.693C35.5932 324.72 35.6259 324.744 35.6553 324.773C35.6846 324.801 35.7118 324.828 35.7382 324.858C35.7519 324.873 35.7652 324.888 35.7782 324.903C35.7848 324.911 35.791 324.919 35.7976 324.927C35.8387 324.975 35.7429 324.851 35.7789 324.903C35.829 324.975 35.8786 325.046 35.921 325.123C35.942 325.161 35.9607 325.2 35.9797 325.238C35.9846 325.248 35.9881 325.258 35.9932 325.268C36.0135 325.305 35.962 325.187 35.9757 325.226C35.9837 325.249 35.9941 325.272 36.0024 325.294C36.0342 325.38 36.0596 325.468 36.0773 325.558C36.0815 325.579 36.0843 325.6 36.0883 325.621C36.0989 325.678 36.0788 325.519 36.0852 325.604C36.0885 325.649 36.0918 325.693 36.0918 325.737C36.0918 325.779 36.0879 325.82 36.0854 325.861C36.081 325.937 36.1046 325.769 36.0879 325.842C36.0828 325.865 36.0792 325.887 36.0739 325.91C36.0642 325.95 36.0512 325.988 36.038 326.027C36.0113 326.105 36.0713 325.963 36.0448 326.012C36.0325 326.034 36.0219 326.058 36.0088 326.081C35.9971 326.101 35.9837 326.12 35.9711 326.14C35.9217 326.219 36.0084 326.102 35.9751 326.138C35.9389 326.176 35.9033 326.214 35.8645 326.25C35.7943 326.316 35.9047 326.227 35.8629 326.254C35.8373 326.271 35.8131 326.289 35.787 326.304C35.7649 326.318 35.6367 326.367 35.6314 326.385C35.6367 326.367 35.7091 326.356 35.661 326.373C35.6407 326.38 35.621 326.388 35.6007 326.395C35.5692 326.406 35.5372 326.416 35.5049 326.425C35.4314 326.446 35.3566 326.462 35.2811 326.475C35.2641 326.478 35.2472 326.481 35.2302 326.484C35.1609 326.495 35.282 326.48 35.2344 326.483C35.1926 326.486 35.1509 326.492 35.109 326.494C35.0077 326.502 34.9059 326.504 34.8044 326.503C34.6139 326.501 34.4314 326.669 34.4402 326.861C34.449 327.054 34.6002 327.218 34.8044 327.22C35.3906 327.226 36.0834 327.12 36.4847 326.651C36.81 326.272 36.8789 325.779 36.7657 325.304C36.6703 324.904 36.4414 324.499 36.1271 324.226C35.9212 324.047 35.7031 323.951 35.4405 323.875C34.9662 323.736 34.4746 323.632 33.9873 323.551C33.4154 323.456 32.8292 323.375 32.2496 323.348C31.6747 323.321 31.0993 323.347 30.5245 323.36C30.3343 323.365 30.1513 323.522 30.1603 323.719C30.1689 323.91 30.3206 324.083 30.5245 324.078Z" fill="#232323"/>
<path d="M27.0427 330.313C25.6668 329.705 24.2882 329.104 22.9096 328.503C21.5725 327.919 20.239 327.328 18.9008 326.747C18.2607 326.469 17.6081 326.193 17.0221 325.813C16.8627 325.709 16.6122 325.776 16.5237 325.941C16.4272 326.121 16.4842 326.322 16.6544 326.432C17.1748 326.77 17.7491 327.024 18.3172 327.272C18.9498 327.549 19.5819 327.827 20.2143 328.104C21.5913 328.709 22.9701 329.308 24.348 329.911C25.1243 330.25 25.9001 330.591 26.675 330.933C26.8485 331.009 27.0747 330.988 27.1734 330.804C27.2573 330.648 27.2284 330.395 27.0427 330.313Z" fill="#232323"/>
<path d="M26.9703 331C29.6359 330.993 32.1128 329.881 34.5874 329.042C35.3116 328.797 36.0366 328.555 36.7555 328.295C36.9339 328.23 37.074 328.048 37.0098 327.853C36.9531 327.681 36.7533 327.534 36.5617 327.603C35.3014 328.059 34.0226 328.463 32.7623 328.92C31.5557 329.356 30.3404 329.789 29.0802 330.051C28.9054 330.087 28.7301 330.12 28.554 330.149C28.4593 330.165 28.3644 330.179 28.2693 330.193C28.1364 330.213 28.3363 330.186 28.203 330.202C28.1622 330.207 28.1214 330.212 28.0805 330.217C27.7119 330.259 27.3414 330.281 26.9701 330.282C26.7796 330.283 26.5971 330.447 26.6059 330.641C26.6148 330.835 26.7662 331.001 26.9703 331Z" fill="#232323"/>
<path d="M36.8465 328.251C37.7578 327.574 38.4773 326.708 39.1116 325.779C39.7775 324.804 40.3761 323.782 40.9963 322.778C41.3477 322.209 41.805 321.608 41.7944 320.911C41.7916 320.724 41.6289 320.544 41.4303 320.553C41.2316 320.561 41.063 320.71 41.0661 320.911C41.0667 320.949 41.0645 320.986 41.0643 321.023C41.0636 321.135 41.0725 320.991 41.0623 321.056C41.0522 321.12 41.035 321.188 41.0149 321.253C41.0076 321.277 40.9996 321.3 40.9913 321.323C40.9921 321.321 40.948 321.435 40.9725 321.377C40.9431 321.446 40.908 321.514 40.8725 321.581C40.7394 321.829 40.5836 322.066 40.4353 322.306C40.1119 322.83 39.7886 323.353 39.4652 323.877C39.1838 324.332 38.9035 324.788 38.6064 325.234C38.3142 325.672 38.0257 326.073 37.7121 326.444C37.5236 326.666 37.3254 326.881 37.1153 327.084C37.0104 327.186 36.9027 327.284 36.7919 327.379C36.7365 327.427 36.6803 327.474 36.6231 327.52C36.5992 327.539 36.5754 327.558 36.5514 327.577C36.5322 327.592 36.5127 327.607 36.4933 327.622C36.5182 327.603 36.5134 327.606 36.479 327.632C36.3273 327.745 36.2331 327.947 36.3483 328.123C36.445 328.271 36.684 328.373 36.8467 328.252L36.8465 328.251Z" fill="#232323"/>
<path d="M41.6713 320.613C40.8414 319.96 39.7065 319.674 38.7135 320.141C38.2153 320.376 37.8138 320.787 37.4263 321.165C37.0363 321.545 36.6569 321.935 36.2856 322.333C35.8645 322.785 35.4535 323.246 35.0549 323.716C34.9331 323.86 34.9011 324.085 35.0549 324.224C35.1895 324.345 35.4396 324.377 35.5698 324.224C36.2406 323.432 36.9433 322.666 37.6785 321.931C37.8549 321.755 38.0335 321.581 38.2147 321.41C38.3846 321.249 38.5846 321.068 38.7375 320.962C38.836 320.893 38.939 320.831 39.0468 320.777C39.0695 320.766 39.0924 320.755 39.1156 320.745C39.0545 320.773 39.1565 320.729 39.1591 320.728C39.2123 320.709 39.2666 320.692 39.3213 320.677C39.3761 320.663 39.431 320.651 39.4866 320.641C39.5087 320.637 39.5312 320.633 39.5535 320.63C39.482 320.64 39.5566 320.631 39.5745 320.63C39.693 320.62 39.8124 320.62 39.9309 320.629C39.9537 320.631 39.9762 320.633 39.9989 320.635C40.0863 320.643 39.959 320.626 40.0378 320.64C40.1055 320.653 40.1728 320.665 40.2399 320.681C40.3578 320.71 40.4728 320.747 40.5858 320.791C40.6472 320.815 40.5103 320.756 40.6107 320.802C40.6423 320.816 40.6739 320.831 40.705 320.846C40.7622 320.874 40.8182 320.903 40.8734 320.935C40.9286 320.967 40.9824 321 41.0352 321.035C41.0544 321.048 41.0734 321.061 41.0921 321.074C41.1109 321.087 41.1294 321.1 41.148 321.114C41.1199 321.092 41.1226 321.094 41.1559 321.121C41.3044 321.238 41.5278 321.274 41.6708 321.121C41.792 320.991 41.8297 320.738 41.6708 320.613H41.6713Z" fill="#232323"/>
<path d="M41.2025 320.482C41.4011 320.171 41.5417 319.825 41.6192 319.466C41.6964 319.108 41.7375 318.706 41.5547 318.372C41.2841 317.876 40.6441 317.836 40.1402 317.862C39.7135 317.884 39.2957 317.969 38.8929 318.108C38.7243 318.167 38.6119 318.331 38.6616 318.509C38.7066 318.67 38.8993 318.796 39.0688 318.737C39.4412 318.609 39.81 318.529 40.1876 318.512C40.3137 318.506 40.4399 318.504 40.5657 318.514C40.584 318.515 40.6968 318.531 40.6046 318.516C40.6377 318.521 40.6706 318.527 40.7034 318.534C40.7363 318.541 40.7672 318.549 40.7983 318.559C40.8138 318.564 40.8288 318.569 40.844 318.575C40.8056 318.558 40.7975 318.554 40.8198 318.565C40.8423 318.579 40.8692 318.589 40.8924 318.602C40.9056 318.61 40.9184 318.619 40.9312 318.628C40.8952 318.599 40.8908 318.597 40.9184 318.62C40.9332 318.635 40.9926 318.711 40.9447 318.64C40.963 318.667 40.9789 318.694 40.9946 318.723C40.9553 318.652 41.0005 318.747 41.0058 318.768C41.0082 318.777 41.0226 318.861 41.0177 318.822C41.0308 318.922 41.0248 319.03 41.0118 319.131C40.9665 319.475 40.8301 319.841 40.631 320.153C40.5357 320.302 40.599 320.512 40.7498 320.599C40.9089 320.691 41.1069 320.631 41.2025 320.482Z" fill="#232323"/>
<path d="M37.9377 318.445C37.3126 318.223 36.5902 318.163 35.949 318.357C35.3078 318.551 34.8399 318.968 34.3413 319.364C33.3395 320.158 32.39 321.013 31.4138 321.837C30.8662 322.299 30.3098 322.752 29.7333 323.179C29.5905 323.284 29.5167 323.46 29.6145 323.625C29.6968 323.763 29.9237 323.848 30.0674 323.742C31.0988 322.978 32.0691 322.142 33.0393 321.306C33.5077 320.902 33.9772 320.499 34.457 320.108C34.9229 319.729 35.3688 319.327 35.9044 319.067C36.0046 319.018 35.853 319.084 35.9565 319.044C35.9899 319.031 36.0232 319.019 36.057 319.008C36.1364 318.981 36.2174 318.959 36.2993 318.941C36.4545 318.906 36.5977 318.896 36.7663 318.895C37.1126 318.894 37.4265 318.955 37.7615 319.075C37.9246 319.133 38.1312 319.009 38.1688 318.847C38.2111 318.663 38.1125 318.508 37.9377 318.445Z" fill="#232323"/>
<path d="M34.272 319.396C34.0334 319.184 33.7666 318.965 33.443 318.899C33.0464 318.818 32.6716 318.939 32.309 319.09C32.1443 319.159 32.1084 319.398 32.1903 319.536C32.29 319.704 32.4778 319.722 32.6432 319.653C32.7606 319.604 32.9188 319.56 33.0592 319.529C33.0985 319.523 33.0972 319.523 33.055 319.529C33.0729 319.527 33.0908 319.525 33.1086 319.524C33.1345 319.523 33.1603 319.522 33.1861 319.522C33.1956 319.522 33.2958 319.525 33.2402 319.523C33.1846 319.52 33.2784 319.53 33.2899 319.533C33.3126 319.538 33.3353 319.545 33.3576 319.552C33.3724 319.556 33.3872 319.561 33.4018 319.567C33.3592 319.549 33.3545 319.547 33.3881 319.562C33.4393 319.588 33.4896 319.614 33.5379 319.645C33.5598 319.659 33.5805 319.674 33.6022 319.689C33.6315 319.71 33.6309 319.71 33.6002 319.686C33.615 319.697 33.6295 319.709 33.6441 319.721C33.6986 319.765 33.7514 319.81 33.8037 319.857C33.9365 319.975 34.1409 319.986 34.2718 319.857C34.3934 319.737 34.4053 319.514 34.272 319.396Z" fill="#232323"/>
<path d="M16.7501 325.72C16.0942 325.655 15.4475 325.634 14.8063 325.81C14.0958 326.004 13.4006 326.267 12.7027 326.502C12.2979 326.638 11.8929 326.774 11.4881 326.91C11.3082 326.97 11.1707 327.159 11.2338 327.351C11.2916 327.527 11.4887 327.667 11.6819 327.602C12.3818 327.367 13.0819 327.132 13.7818 326.896C14.1265 326.781 14.4697 326.659 14.818 326.554C14.9824 326.504 15.1491 326.458 15.3179 326.425C15.334 326.421 15.3502 326.419 15.3663 326.416C15.3762 326.414 15.4451 326.403 15.4009 326.409C15.3687 326.414 15.4565 326.403 15.4726 326.402C15.5503 326.394 15.6285 326.39 15.7064 326.387C16.0549 326.376 16.4036 326.403 16.7501 326.437C16.9404 326.456 17.1225 326.259 17.1143 326.079C17.1048 325.868 16.9539 325.74 16.7501 325.72V325.72Z" fill="#232323"/>
<path d="M34.8044 326.503C33.0475 326.624 31.2871 326.702 29.5346 326.88C29.0243 326.932 28.5151 326.994 28.0073 327.066C27.8181 327.092 27.6976 327.339 27.753 327.507C27.8201 327.711 27.9982 327.786 28.2011 327.757C28.9958 327.646 29.8842 327.558 30.7256 327.49C31.5919 327.421 32.4595 327.368 33.3272 327.315C33.8198 327.285 34.3124 327.254 34.8048 327.221C34.9944 327.208 35.1783 327.065 35.169 326.862C35.1606 326.679 35.0083 326.489 34.8048 326.503L34.8044 326.503Z" fill="#232323"/>
<path d="M28.0066 327.068C26.0162 326.854 24.1406 326.654 22.1784 326.254C21.6555 326.148 21.1353 326.027 20.6213 325.885C20.4381 325.835 20.2167 325.948 20.1732 326.136C20.1297 326.324 20.2313 326.523 20.4275 326.577C22.3684 327.115 24.3847 327.375 26.3828 327.606C26.9238 327.669 27.4652 327.727 28.0066 327.786C28.1966 327.806 28.3789 327.606 28.3708 327.427C28.3611 327.215 28.2101 327.09 28.0066 327.068Z" fill="#232323"/>
<path d="M18.5989 318.462C16.6555 318.754 14.7324 319.175 12.8466 319.722C12.3177 319.875 11.7922 320.039 11.2698 320.212C11.0895 320.271 10.9526 320.462 11.0155 320.653C11.0736 320.83 11.2702 320.968 11.4636 320.904C13.3266 320.287 15.2312 319.794 17.1616 319.43C17.7034 319.327 18.2473 319.236 18.7926 319.153C18.9816 319.125 19.1027 318.881 19.0469 318.712C18.9802 318.509 18.8015 318.431 18.5989 318.462Z" fill="#232323"/>
<path d="M30.4307 323.708C30.1698 323.669 29.9089 323.63 29.6481 323.592C29.6063 323.585 29.5885 323.648 29.6304 323.654C29.8913 323.693 30.1522 323.732 30.4131 323.771C30.4548 323.777 30.4726 323.714 30.4307 323.708Z" fill="#232323"/>
<path d="M29.3364 323.867C29.5339 323.955 29.7167 324.025 29.9345 324.042C30.1369 324.059 30.3411 324.063 30.5439 324.072C30.7048 324.08 30.8419 323.932 30.8419 323.779C30.8419 323.613 30.7053 323.493 30.5439 323.485C30.2142 323.47 29.9268 323.489 29.6372 323.36C29.4907 323.295 29.3168 323.318 29.2296 323.465C29.155 323.591 29.189 323.801 29.3364 323.867Z" fill="#232323"/>
<path d="M32.309 319.09C31.7056 319.451 31.1719 319.913 30.6558 320.384C30.4009 320.617 30.1489 320.853 29.8904 321.082C29.7675 321.191 29.643 321.298 29.5161 321.403C29.4512 321.456 29.3856 321.509 29.3192 321.561C29.306 321.571 29.2927 321.581 29.2795 321.591C29.3159 321.563 29.2715 321.597 29.2667 321.601C29.2311 321.627 29.1954 321.654 29.1594 321.68C28.8583 321.896 28.5385 322.087 28.1958 322.232C28.0315 322.302 27.9947 322.54 28.077 322.678C28.1763 322.846 28.365 322.865 28.5299 322.795C29.7955 322.259 30.7062 321.167 31.7358 320.307C31.8108 320.244 31.8868 320.182 31.9638 320.121C32.0501 320.053 32.0664 320.041 32.1574 319.975C32.3145 319.861 32.4763 319.753 32.6432 319.653C32.7959 319.562 32.8535 319.361 32.7621 319.207C32.6707 319.054 32.4624 318.998 32.309 319.09Z" fill="#232323"/>
<path d="M28.4584 322.737C28.3917 322.718 28.4886 322.762 28.4284 322.727C28.4187 322.722 28.3648 322.68 28.4004 322.711C28.2933 322.847 28.1865 322.984 28.0794 323.121C28.2039 323.186 28.3284 323.251 28.4527 323.317L28.6568 322.84C28.6268 322.834 28.5972 322.827 28.5681 322.818C28.5555 322.814 28.5432 322.81 28.531 322.806C28.5538 322.816 28.5509 322.815 28.5222 322.802C28.3968 322.744 28.2308 322.763 28.1598 322.896C28.098 323.011 28.1207 323.191 28.2549 323.253C28.3394 323.291 28.4246 323.325 28.516 323.343C28.6465 323.369 28.7751 323.317 28.8285 323.192C28.8778 323.077 28.8372 322.928 28.7202 322.866C28.5957 322.801 28.4712 322.736 28.3469 322.67C28.2295 322.609 28.0874 322.632 28.0053 322.737C27.9298 322.834 27.9258 322.995 28.026 323.08C28.1143 323.155 28.205 323.208 28.3176 323.241C28.4505 323.279 28.612 323.195 28.6434 323.059C28.6747 322.923 28.6008 322.779 28.4584 322.738V322.737Z" fill="#232323"/>
<path d="M32.5328 324.002C33.334 323.582 34.0699 323.041 34.7724 322.479C35.5034 321.893 36.1128 321.187 36.7992 320.554C37.1903 320.194 37.6061 319.844 38.0259 319.527C38.1676 319.42 38.2429 319.246 38.1447 319.081C38.063 318.943 37.8346 318.856 37.6918 318.964C36.9142 319.551 36.1978 320.196 35.5184 320.891C35.1909 321.226 34.8622 321.561 34.4996 321.859C34.1586 322.14 33.8436 322.382 33.4858 322.636C33.0736 322.928 32.6478 323.204 32.1989 323.439C32.041 323.521 31.9925 323.737 32.0801 323.885C32.1735 324.042 32.3743 324.084 32.5328 324.002Z" fill="#232323"/>
<path d="M38.137 319.452C38.248 319.336 38.359 319.22 38.4786 319.113C38.5069 319.087 38.5356 319.063 38.5647 319.038C38.5738 319.031 38.6669 318.959 38.6133 318.999C38.6755 318.953 38.7393 318.91 38.804 318.867C38.8415 318.843 38.8784 318.82 38.9185 318.801C38.9415 318.789 38.9646 318.779 38.988 318.769C39.0044 318.761 39.1004 318.722 39.0163 318.756C39.0679 318.735 39.1198 318.714 39.1726 318.696C39.1975 318.688 39.2233 318.681 39.248 318.673C39.258 318.67 39.2681 318.668 39.2783 318.666C39.2328 318.678 39.1874 318.677 39.1419 318.664C39.3114 318.696 39.5072 318.618 39.5491 318.436C39.5862 318.276 39.4999 318.069 39.3178 318.035C39.1635 318.006 39.0269 318.053 38.8859 318.108C38.7678 318.155 38.6435 318.2 38.5332 318.264C38.2032 318.453 37.9288 318.72 37.6686 318.991C37.5459 319.119 37.5397 319.325 37.6686 319.452C37.7975 319.579 38.0138 319.581 38.137 319.452Z" fill="#232323"/>
</g>
</g>
<defs>
<clipPath id="clip0_2895_7772">
<rect width="52" height="629" fill="white"/>
</clipPath>
</defs>
</svg>
