<svg width="249" height="207" viewBox="0 0 249 207" fill="none" xmlns="http://www.w3.org/2000/svg">
<path d="M4.95458 70.0146C4.94556 69.3773 4.92204 68.871 4.88404 68.4956C4.83729 68.0795 4.60284 67.6823 4.1807 67.3042C4.20366 66.6174 4.21651 66.0819 4.21925 65.6978C4.26272 65.3049 4.17372 64.7913 3.95226 64.157C4.09142 63.0191 4.4489 62.0048 5.0247 61.114C5.64123 60.2145 6.34512 59.4241 7.13636 58.7427C7.91885 58.0207 8.76396 57.3917 9.67167 56.8558C10.5706 56.2792 11.4216 55.7768 12.2246 55.3486C12.1896 55.1857 12.0906 55.1217 11.9277 55.1567C11.7647 55.1917 11.7021 55.0986 11.7399 54.8774C13.8522 53.9976 15.9252 52.9344 17.9588 51.688C20.0331 50.4328 22.1657 49.2503 24.3565 48.1405C26.5473 47.0307 28.8518 46.1523 31.2698 45.5051C33.679 44.8172 36.3111 44.5716 39.1661 44.7681C39.434 45.222 39.7587 45.6424 40.1401 46.0292C40.5215 46.4161 40.9029 46.803 41.2843 47.1898C41.6977 47.5272 42.0703 47.8734 42.4023 48.2282C42.7342 48.5831 42.9686 48.9802 43.1056 49.4196C43.6907 49.7627 44.1827 50.1685 44.5816 50.6368C45.0125 51.0557 45.218 51.7147 45.198 52.614C44.8199 53.0361 44.4214 53.4626 44.0025 53.8935C43.5837 54.3244 43.1401 54.7393 42.6717 55.1382C40.7423 55.0838 38.8741 55.3146 37.0671 55.8305C35.2602 56.3464 33.6409 56.8433 32.2094 57.3212C31.6563 56.9286 31.0785 56.8183 30.4762 56.9903C29.8652 57.1215 29.2352 57.3634 28.5864 57.7158C27.9696 58.0187 27.3572 58.342 26.7491 58.6857C26.1323 58.9886 25.53 59.1606 24.9422 59.2016C24.5816 59.7052 24.0521 60.1173 23.3538 60.4377C22.6468 60.7174 21.8946 60.9855 21.0974 61.2419C21.1004 61.4544 21.1718 61.5882 21.3115 61.6434C21.4512 61.6987 21.5065 61.8572 21.4776 62.1192C21.8415 62.4246 22.2853 62.6062 22.8092 62.6642C23.3243 62.6814 23.8394 62.6986 24.3545 62.7159C24.9103 62.7243 25.4182 62.807 25.8781 62.964C26.3292 63.0802 26.6683 63.3696 26.8955 63.8322C27.6376 63.7154 28.3128 63.7835 28.9211 64.0364C29.5207 64.2486 30.0563 64.5597 30.5279 64.9698C30.9995 65.3799 31.3781 65.8527 31.6635 66.388C31.9402 66.8826 32.1063 67.3583 32.1618 67.8152C32.4122 68.1876 32.6102 68.3155 32.7556 68.1991C32.9418 68.0738 33.1878 68.1276 33.4934 68.3602C33.7876 68.9363 34.2942 69.5094 35.0133 70.0794C35.7644 70.6 36.386 71.2123 36.8781 71.9163C37.222 73.1209 37.5194 74.2077 37.7701 75.1767C38.0615 76.1369 38.1042 77.1292 37.898 78.1537C37.5905 80.0949 36.938 81.9184 35.9406 83.6242C34.9432 85.33 33.7275 86.9122 32.2935 88.3708C30.8914 89.7799 29.3613 91.0888 27.7031 92.2972C26.0361 93.4649 24.3633 94.5061 22.6846 95.4206C22.5129 95.4149 22.3092 95.4586 22.0735 95.5519C21.8786 95.6364 21.8116 95.5229 21.8725 95.2115C21.5759 95.6161 21.1919 95.9117 20.7205 96.0981C20.2899 96.2759 19.7851 96.4056 19.206 96.4873C18.6764 96.6011 18.1221 96.6988 17.543 96.7806C17.0046 96.8536 16.4794 96.9877 15.9673 97.1829C15.5714 96.927 15.1959 96.6667 14.8408 96.402C14.5263 96.1286 14.2395 95.7854 13.9803 95.3723C13.7679 95.3753 13.6398 95.2749 13.5961 95.0712C13.5843 94.8181 13.4766 94.7133 13.2729 94.7571C13.2379 94.5941 13.232 94.4675 13.2553 94.3773C13.2785 94.2871 13.3017 94.1969 13.325 94.1066C13.4617 93.9494 13.5053 93.8548 13.4558 93.8229C13.4383 93.7414 13.3641 93.6934 13.2331 93.6789C13.1341 93.6149 13.0148 93.5553 12.8751 93.5001C12.7761 93.4361 12.7339 93.3386 12.7484 93.2077C12.8733 92.7973 12.8426 92.3564 12.6561 91.8851C12.5016 91.3642 12.3471 90.8434 12.1927 90.3225C12.0382 89.8017 11.9739 89.3041 11.9999 88.8297C12.0171 88.3146 12.2759 87.8329 12.7763 87.3845C14.4815 87.1887 16.0324 86.7704 17.429 86.1296C18.8663 85.4799 20.1755 84.73 21.3566 83.8797C22.5785 83.0206 23.7101 82.1383 24.7515 81.2328C25.8249 80.2778 26.8707 79.3926 27.8889 78.5773C27.9236 78.1437 28.0325 77.7581 28.2157 77.4204C28.4396 77.074 28.6679 76.748 28.9006 76.4423C29.1245 76.0959 29.3281 75.7539 29.5113 75.4162C29.6857 75.0378 29.7859 74.6114 29.8119 74.1371C29.8176 73.9654 29.7914 73.8431 29.7331 73.7704C29.6749 73.6977 29.6007 73.6497 29.5104 73.6265C29.4115 73.5625 29.3125 73.4985 29.2135 73.4345C29.1145 73.3706 29.0476 73.2571 29.0126 73.0941C28.8816 73.0797 28.7506 73.0652 28.6197 73.0507C28.5294 73.0274 28.4436 73.0246 28.3621 73.0421C27.1892 72.7399 25.9727 72.5324 24.7125 72.4195C23.4524 72.3066 22.3668 72.1136 21.4558 71.8404C21.037 72.2713 20.5656 72.4578 20.0418 72.3998C19.5179 72.3419 18.8922 72.3058 18.1647 72.2916C16.4362 72.5776 14.7717 72.7646 13.1712 72.8526C11.6114 72.9319 10.053 72.8191 8.4959 72.5143C8.36193 72.2873 8.21634 72.1055 8.05913 71.9688C7.89317 71.7914 7.59488 71.7915 7.16427 71.9692C6.79161 71.6231 6.40733 71.3221 6.01144 71.0662C5.64753 70.7608 5.29525 70.4103 4.95458 70.0146ZM49.1076 87.1888C48.7117 86.9329 48.3842 86.5984 48.125 86.1853C47.9066 85.7634 47.5019 85.4668 46.9111 85.2954C46.6984 84.7018 46.4274 84.0355 46.0982 83.2965C45.801 82.508 45.4835 81.7238 45.1455 80.9441C44.8396 80.1148 44.5584 79.3016 44.3019 78.5043C44.0775 77.6576 43.952 76.8748 43.9255 76.156C43.9282 75.7719 43.976 75.3994 44.069 75.0385C44.2027 74.6688 44.3204 74.3239 44.4221 74.0038C44.5558 73.6341 44.6284 73.2776 44.6399 72.9342C44.6921 72.582 44.6425 72.2518 44.491 71.9434C44.7267 71.8501 44.843 71.6973 44.84 71.4849C44.869 71.2229 45.0552 71.0977 45.3986 71.1092C45.4913 70.1517 45.6174 69.251 45.7771 68.407C45.9368 67.563 46.1212 66.7349 46.3303 65.9229C46.5395 65.1109 46.7486 64.2989 46.9578 63.4869C47.1989 62.6253 47.3819 61.6911 47.5065 60.6841C46.674 60.1811 46.016 59.5979 45.5327 58.9346C45.0813 58.2218 44.691 57.4959 44.3618 56.7569C44.0326 56.0179 43.7442 55.2701 43.4964 54.5136C43.24 53.7164 42.9021 52.9366 42.4827 52.1743C42.814 51.3361 43.2779 50.6185 43.8742 50.0217C44.4617 49.3841 45.1322 48.8352 45.8858 48.3751C46.6713 47.8654 47.5354 47.4241 48.4781 47.0512C49.412 46.6375 50.4027 46.1904 51.4501 45.7097C53.2743 44.6787 54.9254 43.834 56.4035 43.1756C57.8728 42.4765 59.3188 41.8677 60.7416 41.349C62.1557 40.7896 63.6396 40.2578 65.1934 39.7537C66.7384 39.2088 68.5104 38.5299 70.5093 37.717C70.5762 37.8305 70.6505 37.8785 70.7319 37.861C70.8542 37.8347 70.9967 37.8041 71.1597 37.7691C71.3432 38.028 71.5978 38.1225 71.9237 38.0525C71.8975 37.9303 71.8552 37.8328 71.797 37.7601C71.7708 37.6379 71.7489 37.536 71.7314 37.4546C71.8129 37.4371 71.9191 37.4356 72.05 37.4501C72.2217 37.4558 72.3527 37.4703 72.4429 37.4935C72.5739 37.508 72.6757 37.4862 72.7485 37.4279C72.8124 37.3289 72.8022 37.182 72.7177 36.987C73.3903 37.7375 74.1748 38.3148 75.0713 38.7189C75.9591 39.0823 76.9152 39.3671 77.9397 39.5732C78.0591 39.9311 78.116 40.1959 78.1103 40.3676C78.1453 40.5305 78.1599 40.6979 78.1542 40.8696C78.1397 41.0005 78.1543 41.1679 78.198 41.3715C78.233 41.5345 78.3263 41.7702 78.4777 42.0786C78.0622 43.3185 77.4922 44.3358 76.768 45.1306C76.0845 45.9167 75.3092 46.5733 74.4422 47.1004C73.5753 47.6275 72.6297 48.0863 71.6055 48.4767C70.622 48.8584 69.6022 49.2692 68.5461 49.7091C67.5219 50.0996 66.4948 50.5758 65.4649 51.138C64.435 51.7001 63.4604 52.4208 62.5412 53.3001C62.1891 53.2478 61.8748 53.2727 61.5984 53.3747C61.3539 53.4272 61.0979 53.5248 60.8302 53.6675C60.5626 53.8102 60.2542 53.9617 59.905 54.1219C59.5966 54.2734 59.1892 54.3609 58.6829 54.3844C58.4182 54.7396 58.075 55.0264 57.6531 55.2448C57.272 55.4545 56.8705 55.6686 56.4486 55.8871C56.7485 56.2914 56.9262 56.722 56.9817 57.1789C57.078 57.627 57.2222 58.0009 57.4144 58.3006C59.1604 58.0961 61.0547 57.6892 63.0973 57.0801C65.1312 56.4302 67.1375 55.8501 69.1161 55.34C69.2006 55.5349 69.2109 55.6819 69.1469 55.7808C69.0829 55.8798 69.0728 56.0311 69.1165 56.2348C69.5357 56.4005 69.9476 56.6317 70.3522 56.9283C70.7568 57.225 71.1615 57.5216 71.5661 57.8183C72.0028 58.0654 72.4307 58.2718 72.8498 58.4375C73.2602 58.5625 73.7054 58.5521 74.1855 58.4064C74.4767 58.77 74.7111 59.1671 74.8889 59.5977C75.0666 60.0283 75.1061 60.51 75.0074 61.0426C74.3064 61.7471 73.6301 62.4677 72.9786 63.2043C72.3183 63.9001 71.6085 64.5639 70.8493 65.1958C70.1308 65.8189 69.3133 66.378 68.3968 66.8731C67.4803 67.3683 66.4474 67.718 65.298 67.9222C65.0943 67.9659 64.911 68.0053 64.748 68.0403C64.6258 68.0665 64.4454 68.0201 64.2067 67.9009C63.8431 68.192 63.3106 68.3916 62.6093 68.4996C61.94 68.5581 61.4032 68.7374 60.9988 69.0373C60.3847 68.9561 59.6907 68.9986 58.9167 69.1648C58.1834 69.3223 57.5097 69.3605 56.8956 69.2793C56.3898 70.4959 55.9379 71.7649 55.5398 73.0863C55.133 74.367 54.8251 75.7116 54.6162 77.1202C56.339 77.0059 57.7459 76.8103 58.8371 76.5333C59.9283 76.2563 60.9496 75.9518 61.9011 75.6196C62.8525 75.2874 63.8243 74.9508 64.8165 74.6099C65.8495 74.2602 67.124 73.9439 68.64 73.6609C69.5535 72.9533 70.6445 72.378 71.9131 71.9351C73.2137 71.4427 74.395 70.8907 75.4569 70.2791C75.8905 70.3138 76.2893 70.4839 76.6532 70.7893C77.0083 71.0539 77.3475 71.3433 77.6707 71.6575C78.0258 71.9221 78.3722 72.146 78.7099 72.3292C79.0475 72.5124 79.4317 72.5151 79.8623 72.3374C80.1097 72.4974 80.2844 72.7156 80.3864 72.992C80.5291 73.2596 80.6471 73.5113 80.7404 73.747C80.8743 73.9739 81.0199 74.1557 81.1771 74.2924C81.3256 74.3884 81.5584 74.381 81.8755 74.2703C81.4427 76.0253 80.8294 77.4355 80.0354 78.501C79.2821 79.5577 78.3469 80.4617 77.2298 81.2131C76.1447 81.9149 74.8747 82.5499 73.4199 83.118C71.9971 83.6367 70.404 84.2558 68.6408 84.9754C68.2102 85.1532 67.8232 85.2363 67.4798 85.2248C67.1684 85.1638 66.8497 85.1683 66.5238 85.2383C65.4269 85.687 64.106 86.1838 62.5609 86.7287C61.0566 87.2648 59.5057 87.6832 57.9082 87.9836C56.3107 88.2841 54.7393 88.4085 53.194 88.3568C51.6487 88.3052 50.2866 87.9158 49.1076 87.1888ZM108.992 74.3277C108.879 74.3947 108.788 74.3714 108.721 74.258C108.654 74.1445 108.608 74.0267 108.582 73.9044C108.596 73.7735 108.635 73.6585 108.699 73.5595C108.804 73.4518 108.947 73.4212 109.127 73.4677C108.457 72.9296 107.984 72.4133 107.708 71.9187C107.472 71.4153 107.067 70.8204 106.493 70.1339C106.589 69.9854 106.636 69.805 106.633 69.5925C106.621 69.3393 106.634 69.1022 106.672 68.881C106.669 68.6685 106.699 68.5128 106.763 68.4139C106.859 68.2654 107.006 68.2552 107.204 68.3831C107.026 67.9525 106.948 67.5858 106.968 67.2832C106.988 66.9805 107.013 66.6982 107.042 66.4363C107.111 66.1656 107.14 65.9037 107.129 65.6505C107.117 65.3974 106.994 65.1253 106.762 64.8344C107.308 63.609 107.572 62.359 107.554 61.0843C107.527 59.769 107.425 58.5977 107.247 57.5705C107.535 57.1251 107.736 56.5707 107.849 55.9071C108.003 55.2348 108.071 54.5596 108.053 53.8816C108.035 53.2035 107.961 52.5589 107.829 51.9479C107.689 51.2961 107.499 50.8044 107.257 50.4727C107.263 50.301 107.327 50.202 107.449 50.1758C107.603 50.1001 107.786 50.0607 107.999 50.0577C107.934 48.3669 107.728 46.5147 107.381 44.5011C107.074 42.4787 106.867 40.5203 106.758 38.6258C106.682 36.6819 106.841 34.943 107.236 33.4092C107.622 31.8346 108.525 30.6818 109.945 29.9507C110.449 30.9079 111.008 31.7254 111.623 32.4032C112.278 33.0722 112.949 33.7165 113.636 34.336C114.364 34.9468 115.091 35.5576 115.819 36.1684C116.547 36.7792 117.252 37.4802 117.933 38.2715C118.093 39.2172 118.223 40.3186 118.323 41.5757C118.463 42.8241 118.547 44.106 118.574 45.4213C118.641 46.728 118.679 47.9982 118.689 49.2321C118.739 50.4572 118.749 51.4991 118.721 52.3576C118.805 52.5525 118.978 52.6645 119.24 52.6934C119.494 52.6817 119.582 52.897 119.507 53.3394C120.627 52.8005 121.792 52.2732 123.003 51.7576C124.245 51.1924 125.451 50.6564 126.621 50.1495C127.822 49.5931 128.975 49.0048 130.077 48.3844C131.221 47.7553 132.265 47.0622 133.21 46.3051C133.035 44.2972 132.925 42.2966 132.88 40.3031C132.836 38.3097 132.461 36.3659 131.756 34.4718C131.956 34.2156 132.108 33.9274 132.209 33.6072C132.311 33.2871 132.516 33.0513 132.824 32.8998C132.379 32.0153 132.067 31.0595 131.889 30.0323C131.702 28.9644 131.655 27.9517 131.748 26.9942C131.881 26.028 132.184 25.1533 132.655 24.3703C133.117 23.5465 133.774 22.9365 134.627 22.5404C135.323 23.2007 135.971 23.9352 136.57 24.7439C137.17 25.5526 137.775 26.3818 138.383 27.2312C138.983 28.04 139.594 28.8036 140.218 29.5221C140.881 30.2319 141.641 30.7932 142.497 31.206C142.925 32.6056 143.342 34.0503 143.747 35.5401C144.144 36.9892 144.533 38.5037 144.915 40.0837C144.942 41.9957 144.899 43.88 144.787 45.7367C144.706 47.5439 144.774 49.4471 144.99 51.4463C144.743 51.8829 144.574 52.3879 144.484 52.9612C144.386 53.4938 144.291 54.0468 144.201 54.6201C144.143 55.144 144.045 55.6766 143.905 56.2179C143.766 56.7593 143.548 57.2323 143.251 57.6369C143.537 58.1722 143.675 58.7178 143.667 59.2737C143.69 59.78 143.96 60.3401 144.475 60.9539C144.828 62.1993 144.892 63.2934 144.669 64.2364C144.477 65.1299 144.1 65.9566 143.539 66.7164C143.01 67.4267 142.336 68.0614 141.519 68.6205C140.733 69.1302 139.944 69.6194 139.149 70.0883C138.689 69.9314 138.25 69.7701 137.831 69.6044C137.444 69.3892 136.992 69.273 136.477 69.2558L136.665 68.6402C135.675 68.0004 134.778 67.2981 133.975 66.5331C133.203 65.7186 132.711 64.7163 132.498 63.5261C132.489 63.4854 132.473 63.2118 132.45 62.7055C132.417 62.1584 132.381 61.5909 132.34 61.0031C132.339 60.4065 132.328 59.8551 132.304 59.3487C132.313 58.7929 132.312 58.4946 132.304 58.4539C131.189 58.8211 130.065 59.3396 128.93 60.0094C127.795 60.6793 126.694 61.4059 125.627 62.1892C124.591 62.923 123.625 63.6844 122.729 64.4735C121.865 65.2131 121.167 65.8318 120.635 66.3297C120.661 66.4519 120.634 66.82 120.552 67.4341C120.471 68.0482 120.358 68.7117 120.213 69.4248C120.059 70.0971 119.851 70.717 119.589 71.2846C119.368 71.8435 119.07 72.1419 118.695 72.1799C118.82 72.3661 118.937 72.5115 119.044 72.6163C119.143 72.6802 119.183 72.8636 119.162 73.1662C118.514 73.5186 117.939 73.9191 117.439 74.3674C116.979 74.8071 116.486 75.19 115.96 75.5162C115.442 75.8831 114.832 76.1205 114.131 76.2285C113.479 76.3685 112.632 76.2947 111.59 76.0071C111.529 75.7219 111.354 75.5037 111.066 75.3525C110.769 75.1606 110.461 75.0138 110.14 74.9121C109.861 74.8016 109.606 74.7072 109.376 74.6287C109.146 74.5502 109.018 74.4499 108.992 74.3277ZM155.005 64.4456C154.61 64.1897 154.282 63.8551 154.023 63.442C153.804 63.0202 153.4 62.7235 152.809 62.5521C152.596 61.9585 152.325 61.2922 151.996 60.5532C151.699 59.7647 151.381 58.9806 151.043 58.2008C150.737 57.3716 150.456 56.5583 150.2 55.761C149.975 54.9143 149.85 54.1315 149.823 53.4127C149.826 53.0286 149.874 52.6561 149.967 52.2952C150.1 51.9255 150.218 51.5806 150.32 51.2605C150.454 50.8908 150.526 50.5343 150.538 50.1909C150.59 49.8388 150.54 49.5085 150.389 49.2001C150.624 49.1068 150.741 48.954 150.738 48.7416C150.767 48.4797 150.953 48.3544 151.296 48.3659C151.389 47.4084 151.515 46.5077 151.675 45.6637C151.835 44.8197 152.019 43.9917 152.228 43.1796C152.437 42.3676 152.646 41.5556 152.856 40.7436C153.097 39.8821 153.28 38.9478 153.404 37.9409C152.572 37.4378 151.914 36.8546 151.43 36.1913C150.979 35.4786 150.589 34.7527 150.26 34.0136C149.93 33.2746 149.642 32.5269 149.394 31.7703C149.138 30.9731 148.8 30.1933 148.38 29.4311C148.712 28.5928 149.176 27.8752 149.772 27.2784C150.359 26.6408 151.03 26.0919 151.784 25.6318C152.569 25.1221 153.433 24.6809 154.376 24.3079C155.31 23.8943 156.301 23.4471 157.348 22.9665C159.172 21.9354 160.823 21.0907 162.301 20.4324C163.771 19.7333 165.217 19.1244 166.639 18.6057C168.053 18.0463 169.537 17.5146 171.091 17.0104C172.636 16.4655 174.408 15.7866 176.407 14.9738C176.474 15.0872 176.548 15.1352 176.63 15.1177C176.752 15.0915 176.895 15.0609 177.057 15.0259C177.241 15.2848 177.496 15.3792 177.822 15.3092C177.795 15.187 177.753 15.0896 177.695 15.0168C177.669 14.8946 177.647 14.7928 177.629 14.7113C177.711 14.6938 177.817 14.6923 177.948 14.7068C178.12 14.7125 178.25 14.727 178.341 14.7503C178.472 14.7647 178.574 14.7429 178.646 14.6846C178.71 14.5857 178.7 14.4387 178.615 14.2438C179.288 14.9943 180.073 15.5716 180.969 15.9757C181.857 16.339 182.813 16.6238 183.837 16.8299C183.957 17.1878 184.014 17.4526 184.008 17.6243C184.043 17.7873 184.058 17.9546 184.052 18.1263C184.037 18.2573 184.052 18.4246 184.096 18.6283C184.131 18.7912 184.224 19.0269 184.376 19.3353C183.96 20.5752 183.39 21.5926 182.666 22.3874C181.982 23.1734 181.207 23.83 180.34 24.3571C179.473 24.8843 178.527 25.343 177.503 25.7335C176.52 26.1151 175.5 26.5259 174.444 26.9658C173.42 27.3563 172.393 27.8326 171.363 28.3947C170.333 28.9568 169.358 29.6775 168.439 30.5568C168.087 30.5046 167.773 30.5295 167.496 30.6314C167.252 30.6839 166.996 30.7815 166.728 30.9243C166.46 31.067 166.152 31.2184 165.803 31.3787C165.494 31.5301 165.087 31.6176 164.581 31.6411C164.316 31.9963 163.973 32.2831 163.551 32.5015C163.17 32.7113 162.768 32.9253 162.346 33.1438C162.646 33.5482 162.824 33.9788 162.88 34.4356C162.976 34.8838 163.12 35.2576 163.312 35.5573C165.058 35.3528 166.952 34.9459 168.995 34.3368C171.029 33.6869 173.035 33.1069 175.014 32.5967C175.098 32.7916 175.109 32.9386 175.045 33.0376C174.981 33.1365 174.971 33.2879 175.014 33.4915C175.433 33.6572 175.845 33.8884 176.25 34.185C176.655 34.4817 177.059 34.7783 177.464 35.075C177.901 35.3221 178.328 35.5286 178.748 35.6943C179.158 35.8192 179.603 35.8088 180.083 35.6631C180.374 36.0267 180.609 36.4238 180.787 36.8545C180.964 37.2851 181.004 37.7667 180.905 38.2993C180.204 39.0039 179.528 39.7244 178.876 40.461C178.216 41.1568 177.506 41.8206 176.747 42.4525C176.029 43.0756 175.211 43.6347 174.295 44.1298C173.378 44.625 172.345 44.9747 171.196 45.1789C170.992 45.2227 170.809 45.262 170.646 45.297C170.524 45.3233 170.343 45.2768 170.104 45.1576C169.741 45.4488 169.208 45.6484 168.507 45.7564C167.838 45.8149 167.301 45.9941 166.897 46.294C166.283 46.2128 165.588 46.2553 164.814 46.4216C164.081 46.579 163.407 46.6172 162.793 46.536C162.288 47.7526 161.836 49.0217 161.438 50.3431C161.031 51.6237 160.723 52.9683 160.514 54.3769C162.237 54.2626 163.644 54.067 164.735 53.79C165.826 53.5131 166.847 53.2085 167.799 52.8763C168.75 52.5441 169.722 52.2075 170.714 51.8666C171.747 51.5169 173.022 51.2006 174.538 50.9176C175.451 50.21 176.542 49.6348 177.811 49.1918C179.111 48.6994 180.293 48.1474 181.355 47.5358C181.788 47.5705 182.187 47.7406 182.551 48.046C182.906 48.3106 183.245 48.6001 183.568 48.9142C183.924 49.1789 184.27 49.4028 184.608 49.586C184.945 49.7691 185.329 49.7719 185.76 49.5942C186.008 49.7541 186.182 49.9723 186.284 50.2487C186.427 50.5164 186.545 50.768 186.638 51.0037C186.772 51.2306 186.918 51.4125 187.075 51.5492C187.223 51.6451 187.456 51.6377 187.773 51.527C187.341 53.282 186.727 54.6923 185.933 55.7577C185.18 56.8144 184.245 57.7185 183.128 58.4698C182.042 59.1716 180.772 59.8066 179.318 60.3748C177.895 60.8934 176.302 61.5126 174.539 62.2322C174.108 62.4099 173.721 62.493 173.378 62.4815C173.066 62.4206 172.748 62.4251 172.422 62.4951C171.325 62.9437 170.004 63.4405 168.459 63.9854C166.954 64.5216 165.404 64.9399 163.806 65.2404C162.208 65.5408 160.637 65.6652 159.092 65.6136C157.546 65.5619 156.184 65.1726 155.005 64.4456ZM191.231 53.3413C191.036 53.4258 190.823 53.3226 190.59 53.0317C190.348 52.7001 190.09 52.3932 189.817 52.111L190.489 51.9666C190.011 51.1317 189.755 50.3344 189.719 49.5749C189.716 48.7659 189.742 47.9932 189.797 47.2569C189.843 46.4799 189.857 45.7524 189.839 45.0743C189.854 44.3468 189.639 43.647 189.197 42.975C189.427 43.0534 189.561 42.9821 189.598 42.7609C189.668 42.4902 189.688 42.1875 189.659 41.8529C189.662 41.4687 189.603 41.0977 189.484 40.7398C189.396 40.3325 189.306 40.0109 189.213 39.7753C189.471 38.3987 189.599 37.0076 189.595 35.602C189.632 34.1876 189.633 32.8024 189.597 31.4463C189.553 30.0495 189.542 28.7094 189.565 27.426C189.62 26.0931 189.773 24.8242 190.026 23.6193C190.579 23.4154 191.187 23.37 191.851 23.4832C192.546 23.5469 193.031 23.7198 193.304 24.002C194.357 22.753 195.224 21.331 195.904 19.736C196.584 18.1409 197.273 16.5866 197.971 15.073C198.701 13.5099 199.588 12.0836 200.632 10.7939C201.676 9.50422 203.113 8.55631 204.943 7.95017C206.07 8.43273 207.332 8.95015 208.729 9.50243C210.117 10.014 211.325 10.7773 212.353 11.7925C212.723 11.9262 213.076 12.0846 213.414 12.2678C213.784 12.4015 214.153 12.5352 214.523 12.6689L214.72 13.5855C215.404 13.9926 216.008 14.5234 216.532 15.178C217.088 15.783 217.596 16.4623 218.056 17.2158C218.548 17.9198 219.025 18.6486 219.485 19.4021C219.945 20.1556 220.433 20.8393 220.948 21.4531C220.919 21.715 220.926 21.9478 220.97 22.1515C221.046 22.3057 221.126 22.4803 221.211 22.6752C221.327 22.8207 221.432 23.0112 221.525 23.2469C221.61 23.4418 221.687 23.7023 221.757 24.0282C222.058 26.2223 221.721 28.1271 220.747 29.7427C219.805 31.3087 218.529 32.712 216.92 33.9525C215.344 35.1434 213.623 36.2588 211.758 37.2986C209.884 38.2976 208.207 39.3184 206.726 40.3609C206.761 40.5238 206.86 40.5878 207.023 40.5528C207.227 40.5091 207.314 40.6182 207.285 40.8801C208.665 41.3509 209.729 41.7404 210.477 42.0485C211.265 42.3479 211.98 42.5993 212.62 42.8027C213.293 42.9566 213.997 43.061 214.733 43.116C215.51 43.1622 216.561 43.1923 217.885 43.2062C219.209 43.2202 220.239 43.2546 220.976 43.3096C221.744 43.315 222.426 43.3176 223.023 43.3174C223.611 43.2763 224.239 43.2266 224.909 43.1681C225.578 43.1096 226.476 43.0233 227.602 42.9093C228.146 43.2612 228.626 43.712 229.043 44.2618C229.459 44.8117 229.794 45.379 230.048 45.9638C230.301 46.5486 230.448 47.1349 230.489 47.7228C230.562 48.2611 230.491 48.7239 230.276 49.111C230.352 49.2652 230.471 49.3248 230.634 49.2898C230.829 49.2053 231.033 49.1616 231.245 49.1586C231.004 49.4235 230.812 49.7204 230.669 50.0493C230.527 50.3782 230.384 50.7072 230.242 51.0361C230.1 51.365 229.912 51.6823 229.679 51.9879C229.487 52.2849 229.192 52.4974 228.794 52.6257C227.449 53.511 225.58 53.9338 223.185 53.8941C220.79 53.8545 217.676 53.5431 213.843 52.9599C211.951 52.6843 210.399 52.3998 209.185 52.1065C207.971 51.8131 206.904 51.5095 205.985 51.1956C205.056 50.841 204.184 50.4529 203.369 50.0313C202.546 49.569 201.598 49.0267 200.527 48.4044C200.414 48.4714 200.35 48.5704 200.335 48.7013C200.361 48.8235 200.318 48.9181 200.204 48.9851C200.35 50.6584 200.309 52.0524 200.08 53.167C199.891 54.273 199.503 55.443 198.916 56.6772C198.238 56.695 197.803 56.8523 197.611 57.1492C197.459 57.4374 197.243 57.7183 196.961 57.992C196.571 58.161 196.261 58.2062 196.031 58.1278C195.81 58.09 195.605 58.0275 195.415 57.9403C195.226 57.8531 195.017 57.7703 194.787 57.6918C194.557 57.6133 194.222 57.6426 193.783 57.7796C193.582 57.4392 193.385 57.1192 193.193 56.8195C192.992 56.4791 192.631 56.3861 192.11 56.5406C192.154 56.1477 192.129 55.8335 192.036 55.5978C191.934 55.3214 191.82 55.0901 191.695 54.9039C191.561 54.6769 191.427 54.45 191.293 54.2231C191.2 53.9874 191.179 53.6935 191.231 53.3413ZM205.643 21.0323C205.28 21.9201 204.843 22.7598 204.331 23.5516C203.81 24.3027 203.298 25.0945 202.795 25.927C202.324 26.71 201.932 27.5614 201.618 28.4812C201.295 29.3602 201.15 30.3715 201.183 31.5152C202.85 30.944 204.542 30.0906 206.258 28.9549C207.966 27.7784 209.581 26.6645 211.102 25.6133C210.575 24.1497 209.787 23.0617 208.739 22.3492C207.682 21.5959 206.65 21.157 205.643 21.0323Z" fill="#232323"/>
<path d="M202.304 72.6417C245.736 77.5343 244.663 114.213 243.452 120.268C241.495 130.054 241.89 127.77 235.235 141.464C234.272 143.447 230.593 150.391 223.397 161.547C219.823 167.088 215.364 171.608 211.974 175.103C208.583 178.599 206.13 180.734 202.305 183.456C193.53 189.702 186.4 193.503 183.129 194.881C180.085 196.047 177.817 196.781 176.354 197.132C175.663 197.288 175.076 197.4 173.587 197.72" stroke="#D52122" stroke-width="6" stroke-linecap="round"/>
<path d="M199.366 202.354C199.205 202.334 189.777 201.206 175.903 199.205C171.336 198.546 171.942 197.708 172.687 196.986C176.027 193.925 178.513 191.389 182.44 187.282C183.301 186.391 183.691 185.966 184.954 184.566" stroke="#D52122" stroke-width="6" stroke-linecap="round"/>
</svg>
