<svg width="182" height="392" viewBox="0 0 182 392" fill="none" xmlns="http://www.w3.org/2000/svg">
<path d="M9.16786 0C11.9171 0.078907 15.133 -0.0615419 17.505 1.69458C22.4084 5.32456 23.6555 12.9492 26.251 18.2342C27.8094 21.7814 30.0903 25.3868 31.5443 28.9665C33.2549 33.178 35.9988 35.8304 38.1936 39.6276C40.4158 43.4729 41.2373 48.241 43.2625 52.1968C44.6136 54.836 46.5189 57.1174 48.0299 59.6593C49.2353 61.7185 50.0782 64.1738 51.2911 66.2116C53.9476 70.6748 56.5758 75.0786 59.0397 79.6539C60.3699 82.1235 62.6131 84.4905 64.0934 86.9596C66.3598 90.6797 68.0533 94.6871 70.0002 98.5842C71.1743 100.934 73.3061 103.494 74.2961 105.817C75.8134 109.377 76.707 113.364 78.3335 116.919C79.9071 120.36 82.2349 123.367 83.6849 126.878C85.9077 132.723 88.0382 138.582 90.4017 144.378C91.3152 146.618 91.9159 149.079 92.8445 151.364L100.9 170.899C104.171 178.674 105.587 179.765 107.273 188.796C109.346 189.217 112.285 189.009 114.214 189.508C116.901 190.36 119.061 192.782 121.479 194.247C123.347 195.381 128.575 198.08 129.392 199.868C132.326 206.288 130.945 213.951 130.648 220.744C130.527 223.512 131.46 226.765 131.767 229.523C132.255 232.279 132.806 237.411 133.682 239.868C136.222 246.99 139.256 254.232 142.222 261.186C143.654 264.541 144.548 267.886 145.848 271.04C147.485 275.014 150.17 280.322 152.272 284.069C153.716 286.64 156.784 289.99 158.54 292.605C160.422 295.407 161.725 298.333 163.473 301.043C165.16 303.489 166.79 305.861 168.441 308.343C176.189 319.99 180.417 333.624 181.663 347.506C182 351.257 181.069 355.956 180.83 359.812C180.21 364.007 180.646 369.349 179.639 373.407C177.577 381.727 168.044 389.995 160.215 391.842C159.5 391.908 158.783 391.957 158.065 391.987C149.39 392.278 137.237 387.524 131.125 381.328C129.212 379.39 124.513 374.921 123.416 372.462C120.901 366.824 117.336 361.992 114.577 356.62C108.243 344.086 104.732 330.315 104.29 316.277C103.964 306.505 105.445 299.258 102.546 289.074C101.011 283.686 101.367 282.018 98.709 276.132C95.3562 268.711 93.3188 265.966 88.4872 259.551C83.1309 252.442 79.3712 247.136 71.6837 242.192C67.152 239.089 65.6714 230.974 65.5587 225.534C65.3636 216.137 69.4517 205.399 77.3192 199.779C79.0904 198.479 76.8702 195.93 75.8126 194.549C70.4285 187.52 67.3756 179.45 64.521 171.164C62.9157 167.012 58.9735 158.316 57.0235 154.321C54.1105 148.408 51.1233 142.532 48.0633 136.695C46.5077 133.796 44.4637 130.522 43.0501 127.654C40.1989 121.866 37.5582 115.964 34.6914 110.164C32.886 106.512 31.1453 102.35 29.4414 98.6099C28.3573 96.385 27.6798 93.1952 26.5254 91.0801C23.1754 84.9424 20.5143 79.002 18.0187 72.4685C16.7434 69.1302 13.7807 65.6659 12.0298 62.5045C9.81674 58.5089 7.70079 54.3337 5.89028 50.1322C5.38112 48.943 4.61648 47.1067 4.32914 45.859C3.88856 43.9448 3.89697 41.7648 3.38296 39.8473C2.44877 36.3616 0.882517 33.0161 0.684409 29.3674C0.725459 24.2336 -0.628656 13.2038 0.365197 8.73493C0.8532 6.63738 1.84934 4.69228 3.26593 3.07176C4.98414 1.08912 6.62509 0.173391 9.16786 0ZM149.444 371.349C153.496 371.929 156.809 371.778 160.426 369.602C159.99 358.956 161.259 353.481 158.674 342.644C152.892 317.651 132.927 300.453 123.898 276.816C121.551 270.672 119.357 263.052 116.645 257.067C111.61 245.956 108.52 234.947 108.125 222.687C107.98 218.17 109.627 214.574 108.979 209.255C106.336 206.017 103.698 204.398 100.207 202.199C98.3668 201.043 96.6277 198.992 94.6948 198.19C95.2858 195.953 94.9383 195.366 97.1228 194.554C98.5703 191.893 91.9422 179.441 90.4958 176.261C88.8028 172.538 87.5489 167.624 85.8396 164.018C81.5437 154.956 78.424 146.388 75.9495 136.69C74.1021 131.746 71.414 127.11 69.2366 122.304C68.6953 121.109 67.1517 118.88 66.3927 117.843C61.1154 110.632 56.7703 103.558 52.9721 95.4902C50.9191 92.4869 48.359 89.8704 46.1327 86.9861C44.3377 84.6605 43.2623 80.8393 41.6537 78.7949C37.0638 73.0418 33.9385 66.6669 29.9189 60.5676C29.1296 59.3697 27.9906 57.6258 27.2028 56.4808C25.2758 53.6792 22.1848 41.358 19.5814 40.1133C19.4774 46.9805 23.8243 55.5441 27.3792 61.1943C28.8471 63.5799 30.473 65.9586 31.8579 68.3855C33.5226 71.3025 34.3403 75.2022 35.906 78.0612C39.2973 84.2542 42.9708 89.4935 44.8606 96.4103C45.4687 98.6365 47.3876 101.573 48.1273 103.842C54.9807 122.439 67.31 138.36 74.9733 156.598C76.283 159.715 77.8544 162.845 79.2292 165.952C82.5121 173.373 85.1777 180.994 88.6616 188.334C90.2151 191.607 90.9746 195.466 93.1686 198.412C94.7626 200.609 96.0443 201.778 93.6155 204.079C92.1441 205.473 90.496 206.594 88.9308 207.876C82.601 212.835 79.9976 216.507 79.7674 224.796C79.7266 226.267 79.8224 227.322 80.9206 228.412C83.0149 230.491 87.3574 232.521 89.2115 234.682C92.8664 238.941 96.22 244.007 99.7546 248.377C103.262 252.71 107.059 257.046 110.154 261.707C111.847 264.523 113.16 267.552 114.647 270.478C115.694 272.536 117.318 274.607 117.969 276.801C118.654 279.378 118.552 282.051 119.171 284.664C119.634 286.617 120.567 288.808 120.888 290.749C121.475 294.298 121.498 298.08 121.972 301.655C122.873 308.448 121.459 315.302 122.391 322.092C122.58 324.291 122.93 326.454 123.223 328.64C123.762 332.667 125.799 336.214 127.072 339.937C129.351 346.607 131.816 352.805 135.225 358.989C136.318 360.971 137.232 363.341 138.864 364.998C141.295 367.447 146.206 370.126 149.444 371.349Z" fill="#D52122"/>
</svg>
