<svg width="205" height="276" viewBox="0 0 205 276" fill="none" xmlns="http://www.w3.org/2000/svg">
<path d="M42.7448 42.8865C48.2572 40.2957 52.9062 38.8059 58.5534 36.8485C72.7751 31.8668 85.1798 21.5512 100.07 19.2328C109.588 17.7415 121.622 23.4713 131.218 22.5192C133.503 22.2925 144.342 20.9106 146.051 21.6608C149.895 23.3501 150.135 25.4748 155.615 26.1041C156.033 30.6343 158.762 36.6581 160.672 40.7237C161.813 43.1556 164.759 48.7005 165.391 51.0326C167.823 60.0103 167.656 71.6721 165.391 80.6094C162.282 92.8904 154.534 104.535 145.362 113.098C143.812 114.546 141.228 116.847 139.458 117.91C139.695 119.613 139.728 120.318 139.697 122.016C138.117 123.041 134.542 125.432 133.511 126.818C127.069 135.467 127.792 140.515 117.814 146.702C117.164 147.987 116.545 150.188 115.918 151.124C113.795 154.3 108.548 156.166 106.533 159.342C105.36 161.191 106.278 162.947 104.909 165.811C102.025 171.846 113.199 181.819 102.726 189.663C96.1426 196.638 85.6869 192.112 80.7078 192.404C77.3381 192.961 69.6376 188.517 67.7924 185.652C66.1822 183.153 62.8358 178.634 64.4927 175.556C64.9386 174.728 65.8284 173.375 65.8582 172.374C65.4824 168.8 63.6857 166.001 64.047 162.247C64.5934 156.57 69.0518 152.759 71.2683 147.807C72.2324 145.653 72.624 142.366 73.0132 139.981C78.6134 134.113 81.3453 126.985 85.257 120.169C87.65 115.998 93.0224 110.249 96.1426 106.288C102.842 97.6715 110.347 101.38 113.199 78.4561C107.893 74.0868 101.911 71.6817 96.2693 73.0065C93.5147 73.653 85.1563 72.3254 82.4015 73.0065C75.6996 74.663 74.3306 78.4199 67.7924 80.6094C65.9126 81.2593 63.8622 85.2483 62.0773 86.1259C59.2433 87.546 58.158 92.9666 55.0149 93.1054C51.0737 99.0802 45.5362 101.461 40.8724 106.52C38.6419 106.618 36.1159 106.714 33.9855 106.075C30.3965 104.997 27.2736 102.759 23.4746 102.372C22.5125 102.273 20.8152 102.082 20.1349 101.38C19.3819 99.3489 23.8492 96.3445 17.1172 95.4053C15.9658 94.1002 15.7647 93.8521 14.118 93.2765C13.2183 82.7666 16.0183 79.1003 19.144 69.0971C19.8176 66.941 20.3221 64.4763 20.8762 62.2489C23.3623 60.1207 24.7603 58.8749 26.6281 56.2079C27.9832 54.2732 29.6629 49.7434 31.3398 48.6197C34.4972 46.5037 39.1987 44.6352 42.7448 42.8865Z" fill="#D52122"/>
<path d="M121.385 220.385C121.192 218.59 120.882 215.948 119.472 214.407C117.634 212.401 116.112 211.826 115.186 211.405C110.224 209.158 104.609 210.179 99.69 211.987C95.1311 213.658 87.8021 220.342 85.5724 224.724C85.1128 225.621 83.1936 229.626 82.4545 229.787C81.8023 229.323 80.9141 229.007 80.2868 228.549C75.5541 225.108 69.9766 218.281 64.8277 216.412C62.0265 215.397 59.6788 215.224 57.244 217.031C51.3125 221.425 51.4306 227.453 51.561 230.864C51.9585 241.237 58.1136 249.692 63.542 257.601C65.2065 260.028 66.927 261.785 68.3555 263.939C70.0325 266.471 73.7591 270.463 76.3242 272.487C77.7962 273.65 79.7962 274.95 81.6781 275.129C82.2122 275.179 82.5104 275.358 83.1501 275.074C83.4793 274.931 83.4855 274.919 83.6346 274.839C83.8519 274.727 84.0383 274.579 84.2557 274.473C85.591 273.396 87.0568 272.419 88.3487 271.422C88.6158 271.218 88.8828 270.995 89.1499 270.772C89.1499 270.716 89.1499 270.667 89.1313 270.63C89.1623 270.667 89.1996 270.679 89.2369 270.704C90.0381 270.036 90.8455 269.33 91.6964 268.711C91.8331 268.55 91.9697 268.383 92.1188 268.235C92.4169 267.937 92.7647 267.678 93.1063 267.436C98.3484 261.835 103.46 254.259 108.18 248.46C112.273 243.434 117.956 236.985 119.857 230.542C120.646 227.874 121.671 223.065 121.379 220.385H121.385Z" fill="#D52122"/>
</svg>
