<svg width="264" height="382" viewBox="0 0 264 382" fill="none" xmlns="http://www.w3.org/2000/svg">
<path d="M0.239567 112.713C-0.169513 108.946 0.756278 104.983 0.623194 101.351C0.624086 95.0848 -0.405758 87.5164 0.180395 81.2905C1.0191 72.3862 1.16379 62.0097 2.48414 53.3511C3.49992 46.6919 10.4699 36.9097 15.0533 32.1514C18.4501 28.6264 22.9473 25.9903 27.4132 24.0647C31.7425 22.0274 36.1195 19.3177 40.602 17.7182C45.7624 15.8775 51.2043 14.6757 56.469 13.1901C59.6628 12.31 63.4678 11.0076 66.6116 10.4044C71.6614 9.41928 76.734 8.55252 81.825 7.8064C85.8244 7.25016 90.58 6.79445 94.0473 6.04833C107.159 3.22691 122.431 -6.22693 133.501 6.42363C135.569 8.18618 137.708 9.90405 139.525 11.9347C144.109 17.0592 146.304 23.9932 148.181 30.648C152.027 44.2837 149.673 59.8607 148.707 73.8203L147.251 92.3215C146.745 98.5339 146.477 103.254 145.059 109.467C143.79 115.031 143.605 121.317 142.314 126.933C141.887 128.794 141.68 131.059 141.597 132.961C147.843 134.663 155.499 134.743 161.911 136.088C167.547 137.27 172.6 140.134 178.095 141.112C180.882 141.762 185.531 141.02 188.13 141.691C195.026 143.471 201.187 144.132 208.261 144.592C212.503 144.869 217.514 146.295 221.799 146.849C223.443 147.061 225.571 148.006 227.259 148.283C231.667 149.107 235.972 149.896 239.703 152.61C241.695 154.057 241.956 155.139 242.266 157.411C249.573 164.295 249.017 169.416 250.303 178.807C250.933 183.418 252.319 188.098 252.824 192.733C253.708 200.822 254.327 208.932 255.347 217.009C257.379 230.099 259.898 243.023 260.523 256.282C261.117 268.884 263.363 281.424 263.989 294.015C264.333 300.908 256.725 309.805 249.888 303.99C247.927 302.316 245.618 300.207 244.975 297.465C243.979 289.749 243.62 281.982 242.778 274.232C241.565 263.047 242.358 251.689 240.424 240.527C239.792 236.874 239.777 233.121 238.988 229.343C237.017 219.9 236.432 209.984 235.706 200.368C235.288 195.246 234.411 189.601 233.594 184.514C225.082 192.224 219.546 207.908 209.261 215.168C204.739 218.361 200.581 222.268 197.502 226.88C194.872 230.822 189.562 235.03 186.038 238.327C179.741 243.56 171.696 252.734 163.528 254.193C165.814 258.617 166.04 261.809 166.66 266.701C167.254 272.634 167.141 277.867 167.491 283.679C167.989 291.959 169.246 300.462 169.874 308.753C170.075 311.407 170.041 314.13 170.177 316.793L171.144 334.266L172.348 357.846C172.549 362.372 172.826 366.581 172.647 371.048C172.178 382.738 163.608 384.351 156.405 375.917C154.851 374.098 154.478 368.573 154.108 366.237C153.062 357.915 153.678 349.432 153.048 341.126L149.8 293.939L148.41 274.72C147.997 269.05 147.273 259.448 148.061 253.798C145.203 253.007 141.03 252.761 138.592 251.836C133.245 249.808 129.596 248.07 123.91 246.934C123.971 248.58 124.877 251.517 125.105 253.341C125.772 258.677 126.668 264.117 127.358 269.431C127.922 273.771 128.094 279.271 128.265 283.626L129.015 304.741C129.167 309.01 129.968 313.946 129.558 318.235C129.388 320.016 127.76 322.611 126.82 324.235C121.064 324.394 116.523 322.657 114.046 316.933C112.012 312.229 113.042 306.97 112.632 302.054C111.542 288.952 112.875 275.676 111.315 262.62C111 259.967 110.984 257.21 110.568 254.569C110.268 252.662 109.571 250.725 109.2 248.827C108.883 247.455 109.061 243.132 108.098 242.227C104.617 238.955 98.9114 238.729 94.636 237.472C92.3697 236.805 90.4826 235.569 88.2588 234.939C84.0198 233.738 79.8743 233.076 75.6303 231.978C70.8792 230.369 66.3568 229.132 61.555 227.802C51.1398 224.919 40.6638 222.821 30.1921 220.205C27.1276 219.439 25.1237 218.364 21.783 217.977C23.6344 227.101 24.2569 236.236 24.5302 245.509C24.7287 252.25 26.2168 259.219 26.8608 265.928C27.1703 269.15 26.8583 272.781 27.1444 276.037C27.5032 281.698 27.6644 287.135 27.218 292.807C27.0588 294.829 27.4168 297.372 27.455 299.459C27.6847 312.021 30.5755 324.66 29.3315 337.179C28.8852 341.686 25.2872 341.322 22.3774 343.673C21.4758 343.762 20.7784 343.898 19.8932 343.715L19.9477 343.455C20.8608 343.088 21.394 342.968 22.3352 342.735L22.3692 342.501C15.2297 339.214 13.7135 335.571 12.639 328.068C10.8712 315.722 10.1484 303.271 9.47155 290.827C9.29649 287.61 9.93534 283.883 9.93422 280.606C9.93042 270.28 9.50594 260.004 8.45577 249.731C7.88458 245.172 8.19273 240.494 7.84148 235.954C7.25041 228.31 6.47669 220.65 5.84141 213.007C5.56185 209.643 4.05928 206.254 4.11287 202.444C4.17942 197.717 7.34085 194.491 5.16482 190.01C4.12828 187.93 3.48809 184.966 3.22706 182.651C2.66949 177.699 1.10418 172.883 0.786648 167.919C0.365511 163.92 1.50923 159.236 1.27812 155.378C0.726578 146.17 0.209649 137.6 1.05617 128.372C1.47998 123.752 0.479611 117.515 0.239567 112.713ZM122.807 24.3328C121.962 23.466 119.333 20.5374 118.363 20.5999C114.606 20.8367 110.161 22.5747 106.555 23.5465C103.83 24.2725 101.088 24.936 98.3317 25.5346C94.098 26.4304 89.6761 27.0358 85.3805 27.6367C83.5392 27.8936 81.5619 27.8914 79.701 28.1706C66.271 30.2012 53.1725 33.398 41.0249 39.6238C38.1171 41.1138 33.3131 43.6605 31.2318 46.1379C28.6235 49.2452 24.7812 55.203 23.675 59.1123C23.1377 61.0112 23.1498 65.1461 23.0261 67.3711C22.7441 72.4509 21.7254 78.3842 21.6117 83.3434C21.4574 90.063 21.6859 97.035 21.578 103.793C21.5222 107.295 21.1805 111.153 21.2922 114.535C21.4094 118.081 21.844 121.635 21.8937 125.242C21.9994 132.856 21.4606 140.384 21.152 147.986C20.9943 151.868 21.1642 155.809 21.0008 159.669L20.4385 174.27C20.3441 176.271 19.9866 178.811 19.9908 180.726C23.6477 179.841 29.4753 176.258 33.1939 174.681C36.895 173.113 40.8726 171.627 44.4802 169.923C50.1001 167.267 55.7616 164.13 61.3279 161.42C67.6445 158.344 73.5384 155.836 79.7285 152.375C87.5184 148.021 93.9069 143.344 101.766 138.963C104.794 137.297 107.847 135.675 110.923 134.098C113.919 132.585 117.179 131.334 119.772 129.145C121.811 121.367 122.525 111.821 123.734 103.585C125.347 92.5873 125.705 82.1907 126.244 70.8135C126.956 55.7794 129.663 38.9469 122.993 24.6478C122.931 24.5428 122.869 24.4378 122.807 24.3328ZM213.81 178.65C216.46 175.914 220.33 172.094 222.355 169.04C216.645 168.022 210.989 166.612 205.226 165.828C199.896 165.104 193.588 165.365 188.356 164.05C179.462 161.811 170.171 162.939 161.498 160.169C150.495 155.903 139.993 156.048 128.671 153.461C127.783 153.372 125.338 152.84 124.597 153.072C115.012 156.101 106.803 163.136 98.166 167.939C85.8593 174.784 72.3907 180.391 60.0848 187.233C56.3355 189.32 36.4962 196.85 35.5222 198.764C45.2863 201.476 55.8922 203.203 65.7633 205.79C73.4013 207.791 80.5776 210.861 88.3053 212.165C94.4801 212.837 97.8615 214.958 103.445 216.605C114.732 219.933 124.133 224.289 135.681 227.384C140.835 228.766 152.309 234.535 158.178 232.589C169.079 225.416 179.397 214.933 187.717 204.9C190.102 202.026 193.934 199.89 196.553 197.207C202.437 191.066 207.843 184.738 213.81 178.65Z" fill="#D52122"/>
</svg>
