<svg width="301" height="16" viewBox="0 0 301 16" fill="none" xmlns="http://www.w3.org/2000/svg">
<path d="M0 15.3952C0 10.7285 0 6.06187 0 1.39521C1.85395 1.42221 3.71907 1.44922 5.57668 1.47623C7.82788 1.49602 11.3257 1.14442 14.4704 0.945385C29.3395 -0.0742378 44.1011 -0.110097 58.8408 0.108639C103.96 0.972529 148.89 3.57136 193.668 4.47119C207.818 4.68747 221.884 4.93473 235.962 5.08627C243.424 5.14432 250.886 5.21595 258.351 5.31065C267.851 5.62979 276.881 6.44283 286.082 6.96905C291.076 7.26503 296.073 7.54764 300.997 7.62689C300.999 9.37689 301.001 11.1269 301.003 12.8769C295.891 12.9426 290.863 12.8022 285.823 12.6506C276.626 12.3898 267.256 11.8398 258.363 11.8008C250.904 11.9228 243.469 12.0678 236.007 12.2264C221.847 12.4851 207.819 12.6476 193.657 12.8413C148.585 13.2444 103.552 11.9509 58.8228 12.3972C44.2722 12.6017 29.8154 13.0668 15.587 14.4618C12.4055 14.7412 9.64983 15.1872 5.57668 15.3142C3.71907 15.3412 1.85395 15.3682 0 15.3952Z" fill="#D52122"/>
</svg>
