<svg width="408" height="253" viewBox="0 0 408 253" fill="none" xmlns="http://www.w3.org/2000/svg">
<path d="M45.9012 6.12595C46.6395 6.06174 47.3817 6.05513 48.121 6.10612C52.7217 6.46425 62.1121 8.19609 66.8554 9.16045C67.8348 9.35946 72.6973 12.1255 74.0935 12.6052C75.8514 13.2094 78.4691 13.3933 79.9026 14.25C83.2693 15.9946 86.0424 19.8133 89.0206 21.8766C93.75 25.1538 96.7834 27.8361 100.241 32.4209C102.055 34.8257 105.353 36.9511 106.758 39.8822C108.617 43.7598 110.714 47.4949 112.664 51.3203C113.717 53.3878 114.354 55.9355 115.35 58.0734C117.923 63.5985 120.832 67.9928 124.8 72.5658C125.307 70.9043 125.806 69.1871 126.404 67.5461C128.795 60.9823 132.256 54.7851 135.405 48.5587C135.833 47.621 137.253 46.5405 137.669 45.672C139.296 42.2793 140.397 39.5387 143.429 37.0368C146.079 34.8494 149.053 34.8383 152.145 33.9511C159.11 31.952 165.395 33.5 171.901 36.1636C176.493 38.0486 179.037 43.1608 182.403 46.6092C184.233 48.698 186.45 50.388 188.256 52.4938C188.957 53.1019 188.983 54.6291 188.762 55.5354C186.676 64.0775 190.928 70.6562 192.777 78.6279C193.541 81.9221 193.537 86.2095 193.799 89.8122L195.09 108.421C195.442 113.976 197.003 120.827 196.103 126.42C195.224 131.89 194.524 137.785 193.417 143.166C192.708 146.615 191.029 150.582 190.15 154.224C195.261 157.361 200.19 158.435 204.486 163.572C208.678 168.586 207.531 178.813 207.228 185.045C207.087 187.992 205.545 196.765 204.172 198.93C201.244 203.533 194.67 207.617 190.525 210.934L170.63 226.982C166.561 230.032 163.771 234.121 159.486 237.136C152.873 241.789 145.988 242.941 138.689 245.67C134.87 247.098 130.565 251.418 125.741 251.964C120.647 252.54 116.193 251.669 111.121 252.544C105.392 253.331 97.3497 252.618 91.7729 251.196C90.3828 250.842 86.6835 247.974 85.1048 247.351C83.9003 246.739 79.6146 244.409 78.745 243.609C75.8414 240.937 72.2448 235.276 70.9239 231.491C70.3074 229.723 70.2514 227.554 70.0583 225.781C68.7499 213.776 73.0233 206.961 80.6532 198.134C78.8189 196.942 77.1826 196.396 75.3993 195.375C74.8517 195.062 72.6636 193.031 72.0683 192.513C67.3662 188.346 63.0147 183.799 59.057 178.919C57.6522 177.218 55.9246 174.983 54.5721 173.208C50.5822 167.975 44.9655 163.182 41.0786 158.156C37.823 153.947 35.0998 148.232 31.9578 143.489C28.0189 137.544 23.3256 131.952 19.5458 126.152C16.7505 121.863 13.7608 114.396 11.5351 109.713C9.05379 104.494 6.26609 98.9775 4.34728 93.5119C3.01811 89.726 2.25592 84.4311 1.27208 80.5071C0.145435 76.0139 1.10118 72.3937 0.980563 68.1002C0.907861 65.51 0.109083 62.1766 0.0597499 59.3678C-0.441375 48.8429 2.20682 41.9269 8.11362 33.3009C11.2592 28.7072 14.227 22.0036 19.2512 18.7373C22.2051 16.8168 27.793 14.5229 31.1653 13.2039C35.1354 11.651 42.2609 6.80962 45.9012 6.12595ZM170.662 153.584C179.612 144.538 179.12 137.562 180.228 125.529C180.991 117.226 181.482 108.684 180.253 100.392C179.206 93.854 180.164 87.573 178.841 81.1006C177.83 76.6685 174.975 71.9208 173.25 67.663C171.672 63.7704 170.579 59.5231 167.258 56.7481C164.894 54.6227 162.683 52.033 160.3 49.8609C155.411 50.1755 151.562 50.9352 148.189 54.9086C143.142 60.7285 141.522 67.3847 139.927 74.7145C139.46 76.8607 138.365 79.14 138.044 81.5163C137.276 87.1972 136.103 97.6633 128.757 98.4955C125.811 98.8293 120.236 95.9874 118.17 94.1227C116.48 92.7426 116.33 90.7704 115.191 89.408C111.195 84.6249 108.021 79.3938 104.43 74.3342C101.171 69.7435 97.3102 65.5159 93.467 61.4183C92.5037 60.4075 90.6202 57.8661 89.8014 57.1659C87.6378 55.3156 85.4272 54.071 83.0866 52.1631C80.235 49.8384 78.0629 46.829 75.5617 44.6212C69.9018 39.6249 63.2224 33.9315 56.5629 30.4178C55.1844 29.6904 50.6292 29.4928 48.9507 29.2268C46.3849 28.8203 43.9491 28.3271 41.4716 27.565C38.0938 28.5247 31.5947 32.7181 28.5899 34.8099C25.7823 36.7646 22.8957 42.8454 20.7732 45.6998C17.584 50.9777 19.2252 60.1912 19.5755 66.0726C19.9225 71.8975 19.1308 79.954 21.1568 85.4137C24.8674 95.4126 28.7527 105.622 33.8154 115.013C35.8891 118.866 38.6581 122.047 41.075 125.646C50.4403 140.161 60.9099 153.804 70.6902 168.019C72.2882 170.342 75.092 172.3 76.8173 174.573C78.5095 176.769 87.7457 190.956 90.5931 189.304C94.7279 186.904 98.5976 186.736 103.133 185.552C110.611 183.567 117.972 181.275 125.443 179.266C130.35 177.91 134.479 174.778 138.968 172.657C145.656 169.497 152.446 165.834 159.362 163.259C164.446 161.366 167.379 157.766 170.662 153.584ZM99.4224 236.687C104.124 239.187 108.218 236.343 112.875 235.481C115.097 235.136 117.778 235.54 119.905 234.813C123.712 233.512 127.03 230.802 130.645 229.093C135.786 226.661 141.767 225.311 146.542 222.084C151.989 218.401 155.99 213.111 161.761 209.685C164.189 208.179 167.048 204.541 169.536 202.855C173.983 199.482 178.643 196.229 183.151 192.94C184.346 192.069 185.799 190.379 186.51 189.064C187.865 185.973 188.562 178.967 187.561 175.804C186.971 173.937 185.429 172.397 183.751 171.58C181.964 170.71 178.25 170.187 176.299 170.107C171.847 171.997 172.4 173.388 168.618 175.979C166.151 177.668 162.573 178.497 159.791 179.475C158.563 179.907 156.077 181.647 154.772 182.258C150.809 184.074 148.024 188.07 144.184 189.931C142.018 190.98 139.237 191.748 136.963 192.609C133.887 193.773 130.669 195.114 127.386 195.483C116.949 196.654 106.32 199.18 96.7022 203.446C94.9661 204.218 93.8158 205.103 91.9452 205.698C90.5855 208.16 88.2234 214.473 87.3173 216.909C85.3701 222.147 89.9629 231.621 94.7565 234.201C95.779 234.751 98.5313 235.989 99.4224 236.687Z" fill="#232323"/>
<path d="M347.784 0C350.93 0.0372998 357.639 -0.115914 360.355 0.979707C366.408 3.4193 373.683 6.586 378.887 10.5346C381.942 12.8531 384.536 17.1706 387.182 19.958C389.002 22.0028 391.648 24.0428 393.149 25.8187C397.934 31.4869 399.742 38.296 402.041 45.0725C403.755 50.1231 406.224 55.0965 407.26 60.4676C407.796 63.2613 408.124 67.696 407.956 70.5147C407.683 75.0761 406.214 80.1836 405.409 84.7993C404.89 87.7661 404.045 96.2612 402.926 98.5955C400.438 103.788 397.292 111.439 394.018 116.124C392.408 118.454 388.048 121.551 386.908 123.949C384.786 128.409 382.855 132.6 380.153 136.803C378.885 138.778 377.964 141.566 376.602 143.611C375.144 145.696 373.376 148.089 371.806 150.056C366.752 156.393 362.692 163.664 355.417 167.706C354.032 168.476 351.468 171.013 349.962 172.103C345.81 175.109 342.435 179.269 338.302 182.315C335.618 184.365 332.176 186.145 329.785 188.326C329.766 190.504 330.255 192.337 330.441 194.411C331.263 203.48 334.199 212.599 328.839 220.886C324.996 226.821 321.748 228.327 315.25 229.871C308.385 231.499 302.885 231.259 295.941 230.489C293.248 230.194 290.231 230.35 287.613 229.675C273.479 226.032 260.586 221.459 248.229 213.81C243.119 210.489 239.55 206.315 235.162 202.243C233.24 200.13 228.609 197.564 226.98 195.517C224.254 192.093 219.734 188.303 217.203 185.061C212.582 179.135 207.752 170.114 207.514 162.494C207.669 158.97 207.71 151.704 209.52 148.647C211.869 144.687 215.029 138.301 218.027 134.906C221.391 131.098 225.321 131.721 229.796 131.618C230.726 123.4 227.809 114.097 226.803 106.028C225.887 98.6878 225.328 90.9779 225.085 83.5866C225.005 80.3413 225.706 76.9373 225.76 73.7206C225.871 67.2607 225.828 60.9867 226.716 54.558C226.756 53.3573 227.025 51.7791 227.006 50.633C226.82 39.6409 233.398 32.069 242.118 26.3716C245.932 23.8801 250.094 24.3787 254.352 24.8504C257.577 25.2075 261.105 24.8053 264.247 25.6516C265.758 26.0477 267.167 26.7626 268.38 27.7484C272.426 30.9921 278.922 40.5068 280.98 45.4047C282.878 49.9222 283.745 55.0594 286.223 59.4249C287.198 57.3415 288.118 53.4468 289.124 51.6137C293.323 44.114 298.261 36.2997 303.683 29.6304C308.215 24.356 314.027 19.9216 318.819 14.9742C323.039 10.6137 325.508 8.59759 330.845 5.79586C337.053 2.53685 340.716 0.421629 347.784 0ZM257.848 39.7684C254.336 39.0033 252.23 39.0972 249.152 40.999C245.375 43.3324 243.107 47.8596 242.297 52.1415C239.694 65.9342 240.725 79.8467 241.278 93.7499C241.405 96.9723 240.857 100.546 241.141 103.683C241.474 107.36 242.229 111.159 242.725 114.833C243.334 119.407 243.685 124.012 243.773 128.627C248.045 134.768 249.879 136.478 254.916 142.02C258.422 145.864 262.668 149.453 267.153 152.138C269.332 153.443 272.771 154.819 274.756 156.196C279.444 159.451 284.023 162.209 289.091 164.836C291.678 166.177 296.094 166.917 298.448 168.078C303.391 170.517 310.392 173.402 315.75 174.306C318.129 174.708 327.092 168.866 328.952 167.045C331.874 164.184 335.03 161.013 338.233 158.126C342.789 154.022 347.845 151.42 351.924 146.929C357.594 140.686 361.573 132.811 366.226 125.898C373.34 115.333 381.052 106.122 384.793 93.6287C385.721 90.1953 385.891 86.4372 386.639 82.9901C387.659 78.2882 389.125 74.1321 389.424 69.3079C389.901 61.6437 387.241 55.701 384.578 48.7505C383.497 45.9299 383.141 42.3605 381.788 39.5587C380.908 37.5838 380.266 36.4265 378.852 34.7813C377.372 33.0568 374.613 31.0915 373.277 29.4883C369.24 24.6476 361.491 16.2093 354.502 16.0309C354.195 16.024 353.888 16.0245 353.581 16.0325C348.223 16.8474 340.547 21.433 336.272 24.7982C333.078 27.6497 330.13 30.7022 326.993 33.625C323.11 37.2403 318.542 41.3874 315.353 45.6773C312.578 49.4123 307.906 56.6427 306.516 61.0047C304.597 67.0187 302.758 72.4859 300.088 78.236C297.671 84.1013 295.318 91.458 288.078 92.8547C285.003 93.3152 281.011 92.5971 278.53 90.7319C273.17 86.7009 272.53 79.4138 271.352 73.2659C270.092 66.6851 267.684 62.3503 264.877 56.4638C263.327 53.2053 262.996 48.4125 261.306 45.1209C260.197 42.7781 259.17 41.7873 257.848 39.7684ZM305.076 212.392C307.599 212.033 308.78 211.145 310.295 209.091C310.387 208.966 310.477 208.839 310.566 208.711C310.434 206.046 310.012 198.518 309.117 196.234C308.784 195.387 303.008 189.56 301.953 188.608C295.736 183.004 288.085 181.632 281.117 178.681C276.389 176.678 267.849 171.218 263.331 168.541C260.393 166.8 257.206 165.634 254.692 164.095C247.073 159.431 242.46 154.362 236.762 147.848C234.888 147.548 232.381 147.207 230.599 146.741C229.093 148.125 227.101 151.129 226.246 152.984C222.252 161.667 227.693 170.882 233.927 176.807C234.779 177.616 235.561 178.357 236.366 179.196C239.765 184.058 244.009 186.594 248.291 190.313C253.736 195.408 259.592 200.234 266.209 203.747C269.077 205.272 272.773 205.975 275.816 207.295C284.557 211.084 295.53 213.364 305.076 212.392Z" fill="#232323"/>
</svg>
