<svg width="30" height="30" viewBox="0 0 30 30" fill="none" xmlns="http://www.w3.org/2000/svg">
<path d="M15 17.6367C13.5469 17.6367 12.3574 16.4531 12.3574 14.9941C12.3574 14.4199 12.5449 13.8867 12.8554 13.4531C13.3359 12.791 14.1152 12.3516 14.9941 12.3516C15.873 12.3516 16.6523 12.7852 17.1328 13.4531C17.4433 13.8867 17.6308 14.4199 17.6308 14.9941C17.6367 16.4531 16.4531 17.6367 15 17.6367Z" fill="#D52122"/>
<path d="M9.23438 11.7715V9.22852H9.5625L11.7773 9.23438L11.7656 11.7773L9.23438 11.7715Z" fill="#D52122"/>
<path d="M10.8984 15C10.8984 17.2617 12.7383 19.1016 15 19.1016C17.2617 19.1016 19.1016 17.2617 19.1016 15C19.1016 14.4551 18.9902 13.9336 18.7969 13.459H21.0352V19.5996C21.0352 20.3906 20.3906 21.0352 19.5996 21.0352H10.4004C9.60938 21.0352 8.96484 20.3906 8.96484 19.5996V13.459H11.2031C11.0039 13.9336 10.8984 14.4551 10.8984 15Z" fill="#D52122"/>
<path d="M15 0C23.2852 0 30 6.71484 30 15C30 23.2852 23.2852 30 15 30C6.71484 30 0 23.2852 0 15C0 6.71484 6.71484 0 15 0ZM7.5 19.5996C7.5 21.1992 8.80078 22.5 10.4004 22.5H19.5996C21.1992 22.5 22.5 21.1992 22.5 19.5996V10.3945C22.5 8.79492 21.1992 7.49414 19.5996 7.49414H10.4004C8.80078 7.49414 7.5 8.79492 7.5 10.3945V19.5996Z" fill="#D52122"/>
</svg>
