<svg width="42" height="42" viewBox="0 0 42 42" fill="none" xmlns="http://www.w3.org/2000/svg">
<path d="M21 0C9.40188 0 0 9.40188 0 21C0 32.5981 9.40188 42 21 42C32.5981 42 42 32.5981 42 21C42 9.40188 32.5981 0 21 0ZM12.7553 14.4375H29.2053C30.0781 14.4375 29.6275 15.5575 29.1528 15.8441C28.6781 16.1284 22.1091 20.1031 21.8619 20.2497C21.6147 20.3962 21.2997 20.4684 20.9803 20.4684C20.673 20.4747 20.3695 20.3992 20.1009 20.2497L12.8078 15.8441C12.3331 15.5575 11.8847 14.4375 12.7553 14.4375ZM29.75 26.4688C29.75 26.9281 29.1988 27.5625 28.7788 27.5625H13.2212C12.8012 27.5625 12.25 26.9281 12.25 26.4688V18.4909C12.25 18.2897 12.2456 18.0294 12.6262 18.2503L20.1009 22.6581C20.3647 22.8194 20.6717 22.8957 20.9803 22.8769C21.2997 22.8769 21.5316 22.8528 21.8619 22.6581L29.3738 18.2525C29.7544 18.0294 29.75 18.2919 29.75 18.4931V26.4688Z" fill="#F6F6F6"/>
</svg>
