<svg width="55" height="55" viewBox="0 0 55 55" fill="none" xmlns="http://www.w3.org/2000/svg">
<path d="M8.64167 18.8054C3.92266 29.0747 8.53615 41.5336 18.8054 46.2526C29.0931 50.98 41.5419 46.3394 46.2609 36.0702C50.9884 25.7824 46.3763 13.3691 36.0887 8.64159C25.8194 3.92259 13.3691 8.51774 8.64167 18.8054ZM33.0234 29.9872C29.9226 36.735 25.0465 41.9525 20.2529 39.7497L19.5892 39.4447C18.1327 38.7754 17.612 37.5759 18.5095 36.1573C19.2361 35.0621 19.9458 34.0038 21.1348 32.3395C22.0184 31.0484 22.8515 30.9847 24.0952 31.5339L25.1916 32.0153C25.505 32.1593 25.8986 31.983 26.0994 31.7403C26.658 31.0591 27.4649 29.6435 28.2951 27.8367C29.1254 26.0299 29.6443 24.415 29.8272 23.6281C29.8805 23.3177 29.8402 22.9195 29.4531 22.7416L28.3652 22.2417C27.12 21.6472 26.6527 20.9635 27.0484 19.4707C27.5522 17.4023 27.9031 16.2014 28.244 14.9736C28.736 13.3685 30.0037 12.9908 31.4418 13.6517L32.1055 13.9567C36.9175 16.1679 36.1073 23.2762 33.0234 29.9872Z" fill="#F6F6F6"/>
</svg>
