<svg width="30" height="30" viewBox="0 0 30 30" fill="none" xmlns="http://www.w3.org/2000/svg">
<path fill-rule="evenodd" clip-rule="evenodd" d="M15 30C23.2843 30 30 23.2843 30 15C30 6.71573 23.2843 0 15 0C6.71573 0 0 6.71573 0 15C0 23.2843 6.71573 30 15 30ZM17.187 5.774C17.5929 5.77339 17.9982 5.77278 18.4034 5.76953C18.4366 7.01948 18.9419 8.14427 19.7463 8.9778C20.6127 9.76032 21.74 10.2676 22.9828 10.3538L23 10.3551V13.4556C21.826 13.426 20.722 13.1545 19.7267 12.6878L19.777 12.7088C19.3088 12.483 18.9109 12.2506 18.5336 11.9934C18.5309 12.8269 18.5312 13.6613 18.5315 14.4944C18.532 15.9065 18.5326 17.3174 18.5183 18.7251C18.455 19.866 18.0768 20.9064 17.4701 21.7752L17.4824 21.7561C16.4681 23.2127 14.8249 24.1689 12.9565 24.2255H12.9479C12.8724 24.2292 12.7833 24.2311 12.6937 24.2311C11.6314 24.2311 10.6386 23.9343 9.79243 23.419L9.81699 23.4332C8.27703 22.5041 7.21478 20.9144 7.01829 19.0656L7.01584 19.0403C7.00049 18.6555 6.99312 18.2708 7.00847 17.894C7.30934 14.9517 9.76787 12.6755 12.7563 12.6755C13.0922 12.6755 13.4213 12.7045 13.7412 12.7593L13.7068 12.7543C13.7156 13.4048 13.7043 14.0556 13.693 14.7063C13.6846 15.1942 13.6761 15.6822 13.6761 16.1701C13.4164 16.0759 13.1167 16.0211 12.8042 16.0211C11.6572 16.0211 10.6815 16.7562 10.3205 17.7825L10.315 17.801C10.2333 18.0639 10.186 18.3662 10.186 18.6789C10.186 18.8058 10.194 18.9314 10.2087 19.0545L10.2075 19.0397C10.4114 20.2994 11.4884 21.25 12.787 21.25C12.8245 21.25 12.8613 21.2494 12.8981 21.2475H12.8926C13.7909 21.2204 14.5707 20.7359 15.0116 20.0199L15.0177 20.0088C15.1817 19.7798 15.2941 19.5027 15.3315 19.2016L15.3321 19.193C15.3888 18.1761 15.3869 17.1636 15.385 16.149C15.3843 15.7894 15.3836 15.4296 15.3855 15.0693C15.3883 13.9185 15.388 12.7687 15.3877 11.6196C15.3871 9.67275 15.3866 7.72779 15.4009 5.78308L15.4033 5.78492C16 5.77579 16.5941 5.77489 17.187 5.774Z" fill="#F6F6F6"/>
</svg>
