<svg width="29" height="29" viewBox="0 0 29 29" fill="none" xmlns="http://www.w3.org/2000/svg">
<path d="M13.9848 0H15.0177C15.2427 0.0284189 15.4909 0.0405388 15.7212 0.065567C16.3083 0.126017 16.8919 0.216065 17.4697 0.335368C20.865 1.05757 23.8893 2.96594 25.9965 5.71585C27.5588 7.75997 28.5478 10.1813 28.8622 12.7318C28.976 13.5904 29.0377 14.3809 28.9749 15.2531C28.6659 19.5428 26.7045 23.3264 23.2439 25.9854C21.5752 27.251 19.6515 28.1422 17.605 28.5981C16.6388 28.8126 15.6573 28.9351 14.6692 28.9617C14.5855 28.964 14.297 28.9673 14.2409 29H14.2234C14.115 28.9222 13.4262 28.9389 13.2396 28.9142C12.198 28.7765 11.1764 28.6122 10.1722 28.2916C9.86466 28.1933 9.56085 28.0758 9.254 27.9806C9.18529 27.9516 9.11705 27.9215 9.04929 27.8904C8.95033 27.8505 8.84898 27.8121 8.74936 27.7736L8.67398 27.7399L8.47911 27.6532C4.74459 25.9675 1.89904 22.787 0.644968 18.8967C0.436106 18.2546 0.274809 17.5981 0.162376 16.9325C0.131533 16.7562 0.104617 16.5795 0.0816465 16.4021C0.0668382 16.2809 0.043103 15.9198 0 15.8244V13.19C0.0430837 13.1016 0.0481801 12.8549 0.0594644 12.7458C0.13642 12.0021 0.308094 11.2016 0.513034 10.4834C0.689488 9.87349 0.906575 9.27596 1.16285 8.69481C1.23367 8.53481 1.30815 8.37428 1.37981 8.21439C1.42475 8.11414 1.52722 7.96271 1.55527 7.86207L1.63477 7.71982C1.6518 7.67308 1.78809 7.43636 1.81788 7.38273C2.11702 6.84418 2.44372 6.37324 2.80132 5.87542L2.81282 5.86096C4.92855 3.02218 8.0142 1.05404 11.4868 0.328408C12.1159 0.19367 12.7903 0.105185 13.4311 0.0458008C13.6053 0.0296615 13.795 0.034653 13.9657 0.00360194L13.9848 0ZM13.1835 15.6168C13.1723 15.3695 13.184 15.1103 13.1859 14.8614C13.1866 14.4091 13.1909 13.9568 13.1986 13.5046C13.2016 13.2507 13.2025 12.9968 13.2012 12.7429C13.2004 12.625 13.1922 12.413 13.2016 12.3042L13.1787 12.3038C12.9967 12.2994 12.8191 12.2661 12.6388 12.2517C12.4677 12.2381 12.2781 12.2394 12.1058 12.244C10.7301 12.2894 9.42001 12.8405 8.42787 13.7913C7.41044 14.7481 6.74382 16.2243 6.7259 17.6123C6.71472 18.4776 6.79044 19.002 7.0764 19.8006C7.67543 21.2445 8.69303 22.3604 10.1595 22.9645C11.521 23.5179 13.046 23.5172 14.407 22.9625C16.1716 22.232 17.4717 20.6187 17.7805 18.7392C17.8987 18.0189 17.8616 17.0944 17.8621 16.3505L17.8717 13.9811C17.869 13.2025 17.8488 12.3507 17.8846 11.5807C19.1041 12.5084 20.6981 12.9218 22.207 12.9916C22.1749 12.7508 22.1964 12.0414 22.1951 11.7566C22.1914 11.3619 22.1917 10.9672 22.1963 10.5725C22.1972 10.3891 22.1825 10.1753 22.202 9.99738C21.0865 9.96811 19.7301 9.38155 18.9509 8.57367C18.2779 7.87571 17.7324 6.60869 17.7527 5.63572C17.7531 5.61873 17.754 5.60175 17.7554 5.5848C17.1272 5.60016 16.4904 5.57958 15.8627 5.58795C15.6745 5.59045 15.2615 5.57702 15.0911 5.5948L15.0635 5.59735C14.987 5.60393 14.9407 5.58485 14.8755 5.613C14.8375 5.66393 14.8484 6.72716 14.8477 6.87128L14.8415 9.19259L14.8379 15.2824C14.8363 16.2632 14.8488 17.2469 14.8029 18.2267C14.7983 18.3236 14.794 18.4239 14.7819 18.5199C14.7653 18.6584 14.7325 18.7946 14.6843 18.9257C14.6002 19.1492 14.5239 19.2459 14.3946 19.4331C14.0125 19.9863 13.3951 20.3774 12.7216 20.4766C12.0338 20.5764 11.3345 20.3984 10.7789 19.9822C10.2638 19.5926 9.90034 18.9513 9.81688 18.3126C9.73283 17.6491 9.91449 16.9793 10.3225 16.4483C10.8811 15.7331 11.7626 15.3746 12.6566 15.4829C12.8486 15.5061 13.0079 15.5324 13.1835 15.6168Z" fill="#D52122"/>
</svg>
